<?xml version="1.0" encoding="utf-8"?>
<!-- Generator: Adobe Illustrator 19.1.0, SVG Export Plug-In . SVG Version: 6.00 Build 0)  -->
<svg version="1.1" id="Layer_1" xmlns="http://www.w3.org/2000/svg" xmlns:xlink="http://www.w3.org/1999/xlink" x="0px" y="0px"
	 viewBox="-255 347 100 100" style="enable-background:new -255 347 100 100;" xml:space="preserve">
<style type="text/css">
	.st0{display:none;}
	.st1{fill:url(#SVGID_1_);}
	.st2{fill:#FFFFFF;}
</style>
<g id="Raw_Elements">
</g>
<g id="Artifacts" class="st0">
</g>
<g>
	
		<linearGradient id="SVGID_1_" gradientUnits="userSpaceOnUse" x1="-204" y1="440.4309" x2="-204" y2="356.6035" gradientTransform="matrix(1 0 0 -1 0 796)">
		<stop  offset="0" style="stop-color:#F58435"/>
		<stop  offset="1" style="stop-color:#D16A28"/>
	</linearGradient>
	<polygon class="st1" points="-241,376.2 -204,355.1 -167,376.2 -167,418.4 -204,439.5 -241,418.4 	"/>
	<path class="st2" d="M-182.6,383.1v6.5v2.5l-22.1,9.8l-22.1-9.8v-2.5v-6.5h-3.9v2.6v9v21.4h51.9v-21.4v-9v-2.6
		C-178.7,383.1-182.6,383.1-182.6,383.1z M-182.6,412.3h-44.1v-15.8l22.1,9.8l22.1-9.8V412.3z"/>
	<polygon class="st2" points="-204.7,369 -230.6,380.6 -230.6,385.7 -226.7,385.7 -226.7,383.2 -204.7,373.3 -182.6,383.2 
		-182.6,385.7 -178.7,385.7 -178.7,380.6 	"/>
	<g>
		<polygon class="st2" points="-218.9,395.7 -218.9,389.4 -190.5,389.4 -190.5,395.7 -186.5,393.9 -186.5,385.4 -222.8,385.4 
			-222.8,393.9 		"/>
	</g>
</g>
</svg>
