<?xml version="1.0" encoding="utf-8"?>
<!-- Generator: Adobe Illustrator 19.1.0, SVG Export Plug-In . SVG Version: 6.00 Build 0)  -->
<svg version="1.1" id="Layer_1" xmlns="http://www.w3.org/2000/svg" xmlns:xlink="http://www.w3.org/1999/xlink" x="0px" y="0px"
	 viewBox="0 0 100 100" style="enable-background:new 0 0 100 100;" xml:space="preserve">
<style type="text/css">
	.st0{fill:#9D5025;}
	.st1{fill:#F58536;}
	.st2{fill:#FFFFFF;}
	.st3{font-family:'HelveticaNeueLTStd-Roman';}
	.st4{font-size:18px;}
</style>
<g id="Layer_1_2_">
	<g>
		<path class="st0" d="M76.1,53.9V24.6c0-2.8-5.1-2-7.8-2l-40.1-2.8c-2.8,0-5.1,2.3-5.1,5.1v46.7c0,2.8,2.3,5.2,5.1,5.2
			c0,0,25.2-9.9,25.2-13.5C53.4,59.8,61.7,46.8,76.1,53.9z"/>
		<path class="st0" d="M80.9,66c0,9.6-5.5,14.2-12.2,14.2c-6.7,0-12.2-4.3-12.2-13.4c0-6.7,5.5-9.9,12.2-9.9
			C75.5,56.9,80.9,59.3,80.9,66z"/>
		<g>
			<path class="st0" d="M27.9,73.8v3c-2.6,0-4.8-2.1-4.8-4.7v-3C23.2,71.7,25.3,73.8,27.9,73.8"/>
		</g>
		<path class="st0" d="M27.9,73.8v3c-2.6,0-4.8-2.1-4.8-4.7v-3C23.2,71.7,25.3,73.8,27.9,73.8z"/>
		<circle class="st1" cx="68.7" cy="66" r="12.2"/>
		<text transform="matrix(1 0 0 1 63.4524 72.89)" class="st2 st3 st4">K</text>
		<path class="st0" d="M55,73.5l-28.4-0.5l1.4,3.7h29.2C56.3,75.8,55.5,74.7,55,73.5z"/>
		<path class="st1" d="M53.2,66c0-9.2,7.3-16.6,16.4-16.6c2.4,0,4.5,0.5,6.5,1.4V24.6c0-2.6-1.8-4.8-4.5-4.8H27.9
			c-2.6,0-4.9,2.2-4.9,4.8V69c0,2.6,2.2,4.8,4.9,4.8h27.2C53.9,71.8,53.2,68.8,53.2,66z"/>
	</g>
</g>
</svg>
