<?xml version="1.0" encoding="utf-8"?>
<!-- Generator: Adobe Illustrator 19.0.0, SVG Export Plug-In . SVG Version: 6.00 Build 0)  -->
<svg version="1.1" id="Layer_1" xmlns="http://www.w3.org/2000/svg" xmlns:xlink="http://www.w3.org/1999/xlink" x="0px" y="0px"
	 viewBox="0 0 100 100" style="enable-background:new 0 0 100 100;" xml:space="preserve">
<style type="text/css">
	.st0{fill:#D9A741;}
	.st1{fill:#876929;}
	.st2{clip-path:url(#SVGID_3_);enable-background:new    ;}
	.st3{enable-background:new    ;}
	.st4{clip-path:url(#SVGID_10_);enable-background:new    ;}
	.st5{clip-path:url(#SVGID_12_);enable-background:new    ;}
	.st6{clip-path:url(#SVGID_14_);enable-background:new    ;}
	.st7{display:none;}
</style>
<g id="Amazon_CloudSearch">
	<g>
		<g>
			<path class="st0" d="M86,34.8c0,0,0,0,0,39.9c0,0,0,0-63.1,0c0,0,0,0,0-24.5c1,0.2,2,0.3,3,0.3c4.6,0,8.8-2.1,11.5-5.3
				c3.5,2.3,8.8,5.7,16.6,10.8L86,34.8z"/>
		</g>
		<g>
			<g>
				<path id="SVGID_1_" class="st1" d="M86,74.7v2.4c0,0,0,0-63.1,0v-2.4C86,74.7,86,74.7,86,74.7z"/>
			</g>
			<g>
				<defs>
					<path id="SVGID_2_" d="M86,74.7v2.4c0,0,0,0-63.1,0v-2.4C86,74.7,86,74.7,86,74.7z"/>
				</defs>
				<clipPath id="SVGID_3_">
					<use xlink:href="#SVGID_2_"  style="overflow:visible;"/>
				</clipPath>
				<g class="st2">
					<path class="st1" d="M86,74.7v2.4c0,0,0,0-63.1,0v-2.4C86,74.7,86,74.7,86,74.7"/>
				</g>
			</g>
		</g>
		<g class="st3">
			<g>
				<defs>
					<path id="SVGID_4_" d="M40.9,32.9v2.4c0-0.5,0-1-0.1-1.5v-2.4C40.9,31.8,40.9,32.3,40.9,32.9z"/>
				</defs>
				<clipPath id="SVGID_6_">
					<use xlink:href="#SVGID_4_"  style="overflow:visible;"/>
				</clipPath>
			</g>
		</g>
		<g>
			<path class="st0" d="M40.8,31.3c6.6,0,19,0,42.7,0L54,50.8c0,0-0.1-0.1-15.5-9.9c1.5-2.3,2.4-5.1,2.4-8.1
				C40.9,32.3,40.9,31.8,40.8,31.3z"/>
		</g>
		<g>
			<polygon class="st1" points="83.5,31.3 83.5,33.7 54,53.2 54,50.8 			"/>
		</g>
		<g>
			<g>
				<path id="SVGID_5_" class="st1" d="M54,50.8v2.4c0,0-0.1-0.1-15.5-9.9v-2.4C53.9,50.8,54,50.8,54,50.8z"/>
			</g>
			<g>
				<defs>
					<path id="SVGID_8_" d="M54,50.8v2.4c0,0-0.1-0.1-15.5-9.9v-2.4C53.9,50.8,54,50.8,54,50.8z"/>
				</defs>
				<clipPath id="SVGID_10_">
					<use xlink:href="#SVGID_8_"  style="overflow:visible;"/>
				</clipPath>
				<g class="st4">
					<path class="st1" d="M54,50.8v2.4c0,0-0.1-0.1-15.5-9.9v-2.4C53.9,50.8,54,50.8,54,50.8"/>
				</g>
			</g>
		</g>
		<g>
			<g class="st3">
				<g class="st3">
					<g>
						<path id="SVGID_7_" class="st0" d="M29.9,33.4c0,0.2,0,0.4,0,0.7v2.4c0-0.2,0-0.4,0-0.7C29.9,35.1,29.9,34.1,29.9,33.4z"/>
					</g>
					<g>
						<defs>
							<path id="SVGID_11_" d="M29.9,33.4c0,0.2,0,0.4,0,0.7v2.4c0-0.2,0-0.4,0-0.7C29.9,35.1,29.9,34.1,29.9,33.4z"/>
						</defs>
						<clipPath id="SVGID_12_">
							<use xlink:href="#SVGID_11_"  style="overflow:visible;"/>
						</clipPath>
						<g class="st5">
							<path class="st0" d="M29.9,33.4v2.4c0,0.2,0,0.4,0,0.7v-2.4C29.9,33.8,29.9,33.6,29.9,33.4"/>
						</g>
					</g>
				</g>
				<g class="st3">
					<g>
						<path id="SVGID_9_" class="st0" d="M26.9,36.2v2.4c0,0,0-0.1,0-0.1v-2.4C26.9,36.2,26.9,36.2,26.9,36.2z"/>
					</g>
					<g>
						<defs>
							<path id="SVGID_13_" d="M26.9,36.2v2.4c0,0,0-0.1,0-0.1v-2.4C26.9,36.2,26.9,36.2,26.9,36.2z"/>
						</defs>
						<clipPath id="SVGID_14_">
							<use xlink:href="#SVGID_13_"  style="overflow:visible;"/>
						</clipPath>
						<g class="st6">
							<path class="st0" d="M26.9,36.2v2.4c0,0,0-0.1,0-0.1v-2.4C26.9,36.2,26.9,36.2,26.9,36.2"/>
						</g>
					</g>
				</g>
				<g>
					<path class="st0" d="M36.5,28.4c1.6,3.1,1.6,6.5,0.5,9.7c-0.6,1.6-1.7,3.2-3.5,4.1c-0.5,0.3-1.2,0.4-1.8,0.4
						c-1.6,0-3.2-0.9-3.9-2.1c-0.1-0.2-0.2-0.4-0.4-0.6c-1.2,1.2-2,1.5-3.5,1.5c-1.8,0-3.2-1.1-3.2-3.3c0-1.7,0.9-2.9,2.3-3.4
						c1.2-0.5,2.8-0.6,4-0.7v-0.3c0-0.5,0-1.1-0.3-1.5c-0.3-0.4-0.8-0.6-1.2-0.6c-0.8,0-1.5,0.4-1.7,1.3c0,0.2-0.2,0.4-0.4,0.4
						L21.3,33c-0.2,0-0.4-0.2-0.3-0.4c0.5-2.5,2.7-3.2,4.8-3.2c1,0,2.4,0.3,3.2,1.1c1,0.9,0.9,2.2,0.9,3.6v3.3c0,1,0.4,1.4,0.8,1.9
						c0.2,0.2,0.5,0.3,0.8,0.3c1,0,2.1-1,2.8-2.6c0.9-2.3,1-5.2-0.2-7.3c-1.4-2.7-4.9-4.2-8.2-4.2c-1.9,0-3.9,0.5-5.4,1.6
						c-4.3,3-5.6,9.7-2.5,14.1c1.9,3,5.3,4.5,8.7,4.5c1.9,0,3.9-0.5,5.6-1.5c0.2-0.1,0.3-0.1,0.5-0.1c0.3,0,0.6,0.2,0.8,0.5
						c0.2,0.4,0.1,1-0.4,1.2c-2,1.3-4.3,1.9-6.7,1.9c-4,0-8-1.8-10.3-5.3C12.4,37,13.7,29,19.1,25.1c1.9-1.5,4.5-2.2,6.9-2.2
						c0.8,0,1.6,0.1,2.4,0.2C31.5,23.6,34.8,25.3,36.5,28.4z M26.5,38.4c0.4-0.7,0.4-1.4,0.4-2.2v-0.5c-1.5,0-3.2,0.3-3.2,2.1
						c0,0.9,0.5,1.5,1.3,1.5C25.6,39.3,26.2,39,26.5,38.4"/>
				</g>
			</g>
		</g>
	</g>
</g>
<g id="nyt_x5F_exporter_x5F_info" class="st7">
</g>
</svg>
