<?xml version="1.0" encoding="utf-8"?>
<!-- Generator: Adobe Illustrator 16.0.4, SVG Export Plug-In . SVG Version: 6.00 Build 0)  -->
<!DOCTYPE svg PUBLIC "-//W3C//DTD SVG 1.1//EN" "http://www.w3.org/Graphics/SVG/1.1/DTD/svg11.dtd">
<svg version="1.1" xmlns="http://www.w3.org/2000/svg" xmlns:xlink="http://www.w3.org/1999/xlink" x="0px" y="0px" width="100px"
	 height="100px" viewBox="0 0 100 100" enable-background="new 0 0 100 100" xml:space="preserve">
<g id="Amazon_CloudSearch">
	<g>
		<g>
			<path fill="#D9A741" d="M50.007,21.309c15.234,0,27.574,12.264,27.574,27.387c0,15.119-12.34,27.381-27.574,27.381
				c-15.244,0-27.588-12.262-27.588-27.381C22.419,33.572,34.763,21.309,50.007,21.309z"/>
		</g>
		<g>
			<defs>
				<path id="SVGID_19_" d="M77.581,48.695v2.611c0,15.123-12.34,27.385-27.574,27.385c-15.244,0-27.588-12.262-27.588-27.385
					v-2.611c0,15.119,12.344,27.381,27.588,27.381C65.241,76.076,77.581,63.814,77.581,48.695z"/>
			</defs>
			<use xlink:href="#SVGID_19_"  overflow="visible" fill="#876929"/>
			<clipPath id="SVGID_2_">
				<use xlink:href="#SVGID_19_"  overflow="visible"/>
			</clipPath>
			<g clip-path="url(#SVGID_2_)" enable-background="new    ">
				<path fill="#876929" d="M77.581,48.695v2.611c0,1.332-0.094,2.639-0.277,3.916v-2.613C77.487,51.33,77.581,50.021,77.581,48.695
					"/>
				<path fill="#876929" d="M77.304,52.609v2.613c-0.219,1.516-0.562,2.992-1.021,4.416v-2.615
					C76.741,55.6,77.085,54.125,77.304,52.609"/>
				<path fill="#876929" d="M76.282,57.023v2.615c-0.539,1.684-1.238,3.293-2.078,4.814V61.84
					C75.044,60.316,75.743,58.707,76.282,57.023"/>
				<path fill="#876929" d="M74.204,61.84v2.613c-4.684,8.486-13.762,14.238-24.197,14.238c-15.244,0-27.588-12.262-27.588-27.385
					v-2.611c0,15.119,12.344,27.381,27.588,27.381C60.442,76.076,69.521,70.322,74.204,61.84"/>
			</g>
		</g>
		<rect x="39.995" y="31.869" fill="#FFFFFF" width="1.486" height="12.469"/>
		<rect x="39.995" y="50.227" fill="#FFFFFF" width="1.486" height="12.469"/>
		<polygon fill="#FFFFFF" points="60.788,63.734 59.3,63.734 59.3,48.193 40.515,48.193 40.515,46.715 60.788,46.715 		"/>
		<polygon fill="#D9A741" points="40.583,54.129 49.497,47.588 40.583,41.047 32.058,47.201 		"/>
		<path fill="#FFFFFF" d="M40.562,55.064l-9.721-7.896l9.748-7.041l10.156,7.461L40.562,55.064z M33.274,47.236l7.332,5.959
			l7.637-5.607l-7.662-5.629L33.274,47.236z"/>
		<rect x="54.247" y="59.609" fill="#D9A741" width="12.061" height="7.115"/>
		<path fill="#FFFFFF" d="M67.05,67.461H53.503v-8.59H67.05V67.461z M54.991,60.346v5.641h10.57v-5.641"/>
		<rect x="34.825" y="28.992" fill="#D9A741" width="12.061" height="7.117"/>
		<path fill="#FFFFFF" d="M47.63,36.848H34.081v-8.59H47.63V36.848z M35.567,35.369H46.14v-5.635H35.567V35.369z"/>
		<rect x="34.71" y="59.609" fill="#D9A741" width="12.059" height="7.115"/>
		<path fill="#FFFFFF" d="M47.511,67.461H33.964v-8.59h13.547V67.461z M35.452,65.986h10.574v-5.641H35.452V65.986z"/>
	</g>
</g>
<g id="nyt_x5F_exporter_x5F_info" display="none">
</g>
</svg>
