<?xml version="1.0" encoding="utf-8"?>
<!-- Generator: Adobe Illustrator 19.1.0, SVG Export Plug-In . SVG Version: 6.00 Build 0)  -->
<svg version="1.1" id="Layer_1" xmlns="http://www.w3.org/2000/svg" xmlns:xlink="http://www.w3.org/1999/xlink" x="0px" y="0px"
	 viewBox="-255 347 100 100" style="enable-background:new -255 347 100 100;" xml:space="preserve">
<style type="text/css">
	.st0{fill:#6B3A19;}
	.st1{fill:#F58536;}
	.st2{fill:#FFFFFF;}
	.st3{display:none;}
</style>
<g>
	<g>
		<path class="st0" d="M-181.8,372.2v2.7c-8.8,14.2-25.4,20.2-25.6,20.3c-0.1,0-0.2,0.2-0.3,0.4v-2.7c0.1-0.2,0.2-0.3,0.3-0.4
			C-207.3,392.5-190.6,386.4-181.8,372.2"/>
		<path class="st0" d="M-207.8,392.9v2.7c-0.1,0.2-0.2,0.3-0.2,0.6v-2.7C-207.9,393.2-207.9,393-207.8,392.9"/>
		<path class="st0" d="M-207.9,393.4v2.7c-0.1,0.3-0.2,0.6-0.2,0.9v-2.7C-208.1,394-208,393.7-207.9,393.4"/>
		<path class="st0" d="M-208.1,394.3v2.7c0,0.2,0,0.4,0,0.5v-2.7C-208.3,394.6-208.3,394.5-208.1,394.3"/>
	</g>
	<path class="st0" d="M-208.3,397.5v-2.7c0-0.8,0.4-2.1,0.8-2.3c0.2-0.1,16.8-6.1,25.6-20.3v2.7c-8.8,14.2-25.4,20.2-25.6,20.3
		C-207.9,395.3-208.3,396.7-208.3,397.5z"/>
	<g>
		<path class="st0" d="M-180.4,375.4v2.6c-0.1,1.5-0.3,3.2-0.6,4.9v-2.7C-180.8,378.6-180.5,376.9-180.4,375.4"/>
		<path class="st0" d="M-180.9,380.3v2.7c-0.4,2.7-1,5.5-1.8,7.8v-2.7C-181.9,385.8-181.4,383-180.9,380.3"/>
		<path class="st0" d="M-182.8,388.1v2.7c-0.4,1.2-0.8,2.2-1.3,3.1v-2.7C-183.5,390.3-183.1,389.3-182.8,388.1"/>
		<path class="st0" d="M-184,391.2v2.7c-0.3,0.6-0.7,1.1-1.1,1.6c-2.7,2.6-9.7,4.1-17.3,4.7v-2.7c7.6-0.6,14.6-2,17.3-4.7
			C-184.8,392.3-184.4,391.8-184,391.2"/>
	</g>
	<path class="st0" d="M-180.4,375.4v2.6c-0.6,6-1.9,14.5-4.8,17.4c-2.7,2.6-9.7,4.1-17.3,4.7v-2.7c7.6-0.6,14.6-2,17.3-4.7
		C-182.4,389.8-180.9,381.3-180.4,375.4z"/>
	<g>
		<rect x="-211.4" y="427.1" class="st0" width="9" height="2.7"/>
	</g>
	<g>
		<path class="st0" d="M-204.1,376.9v1.1c0,0.6,0,1.3-0.1,1.9v-1.1C-204.3,378.2-204.1,377.6-204.1,376.9"/>
		<path class="st0" d="M-204.4,378.8v1.2c-0.1,0.7-0.3,1.4-0.5,2.1V381C-204.6,380.2-204.4,379.5-204.4,378.8"/>
		<path class="st0" d="M-204.9,380.9v1.1c-0.3,0.8-0.6,1.6-1,2.3v-1.1C-205.4,382.5-205.1,381.7-204.9,380.9"/>
		<path class="st0" d="M-205.9,383.2v1.1c-2.2,3.8-6.3,6.4-11.1,6.4c-7,0-12.8-5.7-12.8-12.7v-1.1c0,7,5.7,12.7,12.8,12.7
			C-212.1,389.6-208,387-205.9,383.2"/>
	</g>
	<path class="st0" d="M-204.1,376.9v1.1c0,7-5.7,12.7-12.8,12.7s-12.8-5.7-12.8-12.7v-1.1c0,7,5.7,12.7,12.8,12.7
		S-204.1,383.9-204.1,376.9z"/>
	<g>
		<path class="st1" d="M-216.9,389.6c-7,0-12.8-5.7-12.8-12.7s5.7-12.7,12.8-12.7s12.8,5.7,12.8,12.7S-209.9,389.6-216.9,389.6z"/>
	</g>
	<g>
		<path class="st2" d="M-220.3,386.7h6.6v-12.6h4.7l-8-7.9l-8,7.9h4.7V386.7z M-222.8,373.2l5.8-5.7l5.8,5.7h-3.4v12.6h-4.8v-12.6
			C-219.4,373.2-222.8,373.2-222.8,373.2z"/>
	</g>
	<path class="st1" d="M-206.4,396.3c-0.1,0.1-0.2,0.1-0.3,0.1c-0.4,0-1.3-0.8-1.4-1.2c-0.2-0.5,0.3-2.4,0.8-2.6
		c0.2-0.1,16.8-6.1,25.6-20.3c-6,0.8-15.1,3.4-20.2,6.4c0,0.3,0,0.6,0,0.9c0,5.4-3.5,10.1-8.3,11.9c-0.4,1.9,0.2,3.9-0.8,6.1V427h9
		v-29.6c7-0.6,14.4-2,17-4.7c2.9-2.9,4.1-11.4,4.7-17.3C-189.5,390.5-205.6,396-206.4,396.3z"/>
</g>
<g id="nyt_x5F_exporter_x5F_info" class="st3">
</g>
<g id="CloudTrail">
</g>
</svg>
