<?xml version="1.0" encoding="utf-8"?>
<!-- Generator: Adobe Illustrator 19.1.0, SVG Export Plug-In . SVG Version: 6.00 Build 0)  -->
<svg version="1.1" id="Layer_1" xmlns="http://www.w3.org/2000/svg" xmlns:xlink="http://www.w3.org/1999/xlink" x="0px" y="0px"
	 viewBox="0 0 100 100" style="enable-background:new 0 0 100 100;" xml:space="preserve">
<style type="text/css">
	.st0{enable-background:new    ;}
	.st1{fill:#2D72B8;}
	.st2{fill:#1A476F;}
	.st3{clip-path:url(#SVGID_2_);enable-background:new    ;}
	.st4{clip-path:url(#SVGID_4_);enable-background:new    ;}
	.st5{fill:#FFFFFF;}
	.st6{display:none;}
</style>
<g id="Layer_1_1_">
	<g>
		<g>
			<g>
				<g class="st0">
					<g>
						<path class="st1" d="M50,21.5c4.5,0,8.4,0.4,11.5,0.9c6.8,1.2,10.4,3.3,10.4,4.6c0,1.3-3.6,3.4-10.4,4.6
							c-3.2,0.6-7,0.9-11.5,0.9c-14.2,0-22-3.7-22-5.5C28,25.1,35.8,21.5,50,21.5z"/>
					</g>
					<g class="st0">
						<g>
							<path id="SVGID_5_" class="st2" d="M71.9,26v2.8c0,1.3-3.6,3.4-10.4,4.6c-3.2,0.6-7,0.9-11.5,0.9c-14.2,0-22-3.7-22-5.5V26
								c0,1.9,7.8,5.5,22,5.5c4.5,0,8.4-0.4,11.5-0.9C68.3,29.3,71.9,27.2,71.9,26z"/>
						</g>
						<g>
							<defs>
								<path id="SVGID_1_" d="M71.9,26v2.8c0,1.3-3.6,3.4-10.4,4.6c-3.2,0.6-7,0.9-11.5,0.9c-14.2,0-22-3.7-22-5.5V26
									c0,1.9,7.8,5.5,22,5.5c4.5,0,8.4-0.4,11.5-0.9C68.3,29.3,71.9,27.2,71.9,26z"/>
							</defs>
							<clipPath id="SVGID_2_">
								<use xlink:href="#SVGID_1_"  style="overflow:visible;"/>
							</clipPath>
							<g class="st3">
								<path class="st2" d="M71.9,26v2.8v0.1v-2.8C71.9,26,71.9,26,71.9,26"/>
								<path class="st2" d="M71.9,26.1v2.8c0,0.1,0,0.1,0,0.2v-2.8C71.9,26.2,71.9,26.1,71.9,26.1"/>
								<path class="st2" d="M71.9,26.2V29c0,0.1-0.1,0.2-0.1,0.2v-2.8C71.8,26.4,71.8,26.3,71.9,26.2"/>
								<path class="st2" d="M71.8,26.5v2.8c-0.8,1.3-4.3,3-10.3,4.1c-3.2,0.6-7,0.9-11.5,0.9c-14.2,0-22-3.7-22-5.5V26
									c0,1.9,7.8,5.5,22,5.5c4.5,0,8.4-0.4,11.5-0.9C67.5,29.5,71,27.7,71.8,26.5"/>
							</g>
						</g>
					</g>
					<g class="st0">
						<g>
							<path id="SVGID_7_" class="st2" d="M33.3,72.5v2.8c-2.9-1-5-2.2-5.2-3v-2.8C28.3,70.3,30.4,71.4,33.3,72.5z"/>
						</g>
					</g>
					<g class="st0">
						<g>
							<path id="SVGID_9_" class="st2" d="M72,69.3v2.8c0,1.9-6.1,5.5-20.7,5.5c-8,0-14-1-18-2.3l-0.5-3.1
								c3.9,1.3,10.5,2.6,18.5,2.6C65.9,74.7,72,71.2,72,69.3z"/>
						</g>
						<g>
							<defs>
								<path id="SVGID_3_" d="M72,69.3v2.8c0,1.9-6.1,5.5-20.7,5.5c-8,0-14-1-18-2.3l-0.5-3.1c3.9,1.3,10.5,2.6,18.5,2.6
									C65.9,74.7,72,71.2,72,69.3z"/>
							</defs>
							<clipPath id="SVGID_4_">
								<use xlink:href="#SVGID_3_"  style="overflow:visible;"/>
							</clipPath>
							<g class="st4">
								<path class="st2" d="M72,69.3v2.8c0,0.1,0,0.1,0,0.2v-2.8C72,69.4,72,69.3,72,69.3"/>
								<path class="st2" d="M71.9,69.4v2.8c0,0.1,0,0.1-0.1,0.2v-2.8C71.9,69.6,71.9,69.5,71.9,69.4"/>
								<path class="st2" d="M71.9,69.6v2.8c0,0.1-0.1,0.2-0.1,0.3v-2.8C71.8,69.8,71.9,69.7,71.9,69.6"/>
								<path class="st2" d="M71.8,69.9v2.8c-1.2,2-7.4,4.8-20.5,4.8c-8,0-14-1-18-2.3L32.6,72c3.9,1.3,10.6,2.8,18.6,2.8
									C64.3,74.7,70.6,71.9,71.8,69.9"/>
							</g>
						</g>
					</g>
				</g>
			</g>
			<path class="st1" d="M61.2,36c-0.6,0.1-1.2,0.2-1.8,0.3c-0.3,0-0.6,0.1-0.9,0.1c-0.6,0.1-1.1,0.1-1.7,0.2c-0.4,0-0.7,0.1-1.1,0.1
				c-0.7,0.1-1.5,0.1-2.2,0.1h-0.4c-0.9,0-1.8,0.1-2.7,0.1c-0.2,0-0.4,0-0.6,0c-8.7,0-17.5-1.5-21.8-4.4v37.8c0.2,0.9,2.3,2,5.2,3
				c3.9,1.3,10,2.3,18,2.3c14.6,0,20.7-3.6,20.7-5.5v-38C69.7,33.8,66,35.2,61.2,36z"/>
		</g>
		<g>
			<path class="st5" d="M44.3,60.4c0,3.6,2.8,5,6.1,5c2.1,0,5.3-0.6,5.3-3.4c0-2.9-4.1-3.4-8.2-4.5s-8.2-2.6-8.2-7.8
				c0-5.6,5.3-8.3,10.3-8.3c5.7,0,11,2.5,11,8.8h-5.8c-0.2-3.3-2.5-4.1-5.4-4.1c-1.9,0-4.2,0.8-4.2,3.1c0,2.1,1.3,2.4,8.2,4.1
				c2,0.5,8.2,1.8,8.2,7.9c0,5-4,8.7-11.4,8.7c-6.1,0-11.8-3-11.7-9.7h5.8V60.4z"/>
		</g>
	</g>
</g>
<g id="nyt_x5F_exporter_x5F_info" class="st6">
</g>
</svg>
