<?xml version="1.0" encoding="utf-8"?>
<!-- Generator: Adobe Illustrator 19.1.0, SVG Export Plug-In . SVG Version: 6.00 Build 0)  -->
<svg version="1.1" id="Layer_1" xmlns="http://www.w3.org/2000/svg" xmlns:xlink="http://www.w3.org/1999/xlink" x="0px" y="0px"
	 viewBox="250 889 100 100" style="enable-background:new 250 889 100 100;" xml:space="preserve">
<style type="text/css">
	.st0{fill:#19486F;}
	.st1{fill:#1F5B98;}
	.st2{fill:#99BBE1;}
	.st3{fill:#5193CE;}
	.st4{fill:#17476F;}
	.st5{fill:#FFFFFF;}
	.st6{fill:none;stroke:#5193CE;stroke-width:3;stroke-linecap:round;stroke-linejoin:round;stroke-miterlimit:10;}
	.st7{fill:none;stroke:#FFFFFF;stroke-width:3;stroke-linecap:round;stroke-linejoin:round;stroke-miterlimit:10;}
	.st8{fill:none;stroke:#FFFFFF;stroke-width:3;stroke-miterlimit:10;}
	.st9{fill:#5193CE;stroke:#FFFFFF;stroke-width:3;stroke-miterlimit:10;}
	.st10{fill:none;stroke:#FFFFFF;stroke-width:3;stroke-linecap:round;stroke-miterlimit:10;}
	.st11{fill:#5193CE;stroke:#FFFFFF;stroke-width:3;stroke-linecap:round;stroke-linejoin:round;stroke-miterlimit:10;}
	.st12{fill:#FFFFFF;stroke:#5193CE;stroke-width:2;stroke-miterlimit:10;}
	.st13{fill:none;stroke:#5193CE;stroke-linecap:round;stroke-linejoin:round;stroke-miterlimit:10;}
	.st14{fill:none;stroke:#5193CE;stroke-width:3;stroke-linecap:round;stroke-miterlimit:10;}
	.st15{fill:none;stroke:#5193CE;stroke-linecap:round;stroke-miterlimit:10;}
	.st16{fill:none;stroke:#5193CE;stroke-width:3;stroke-miterlimit:10;}
	.st17{fill:none;}
	.st18{fill:none;stroke:#5193CE;stroke-width:4;stroke-linecap:round;stroke-linejoin:round;stroke-miterlimit:10;}
</style>
<path class="st4" d="M326.6,961.2h-53.1v3c0,2.6,2.1,4.7,4.8,4.7h43.6c0.3,0,0.6,0,0.9-0.1c0.1,0,0.1,0,0.2,0
	c0.2-0.1,0.5-0.1,0.7-0.2c0,0,0.1,0,0.1,0c0.3-0.1,0.5-0.2,0.7-0.4c0.1,0,0.1-0.1,0.2-0.1c0.2-0.1,0.4-0.3,0.5-0.4
	c0,0,0.1-0.1,0.1-0.1c0.2-0.2,0.4-0.4,0.5-0.6c0-0.1,0.1-0.1,0.1-0.2c0.1-0.1,0.1-0.2,0.2-0.3c0-0.1,0.1-0.1,0.1-0.2
	c0.1-0.1,0.1-0.3,0.2-0.4c0-0.1,0.1-0.1,0.1-0.2c0-0.1,0-0.2,0.1-0.3c0-0.1,0.1-0.2,0.1-0.3c0-0.1,0-0.1,0-0.2v0c0-0.2,0-0.4,0-0.7
	V961.2z"/>
<path class="st3" d="M321.8,912.1c2.6,0,4.8,2.1,4.8,4.7v44.3c0,2.6-2.1,4.7-4.8,4.7h-43.6c-2.6,0-4.8-2.1-4.8-4.7v-44.3
	c0-2.6,2.1-4.7,4.8-4.7H321.8z"/>
<polygon class="st3" points="288.7,939.2 291.5,931.2 307,932.8 313,945.7 293.7,950.2 "/>
<circle class="st9" cx="286.7" cy="946.6" r="7.7"/>
<path class="st9" d="M305.5,946.6c0-4.3,3.5-7.7,7.7-7.7c4.3,0,7.7,3.5,7.7,7.7s-3.5,7.7-7.7,7.7C309,954.3,305.5,950.9,305.5,946.6
	"/>
<polyline class="st7" points="286.7,946.6 291.5,931.2 300,946.6 313.3,946.6 307,932.8 300,946.6 "/>
<polyline class="st10" points="300,946.6 313.3,946.6 307,932.8 300,946.6 "/>
<path class="st7" d="M307,932.8l-15.5-1.7c0,0-4.3-0.2-3.8-3.5c0,0,0.1-3,3.3-2.5"/>
<line class="st7" x1="306.9" y1="934.6" x2="306.9" y2="929.8"/>
<circle class="st9" cx="300" cy="946.6" r="2.2"/>
<path class="st7" d="M303.5,928.9h4.9c0,0,1.8,0,1.8-1.8"/>
<rect x="310" y="903.4" class="st3" width="4" height="8.7"/>
<rect x="286" y="903.4" class="st3" width="4" height="8.7"/>
<rect x="304" y="903.4" class="st3" width="4" height="8.7"/>
<rect x="292" y="903.4" class="st3" width="4" height="8.7"/>
<rect x="298" y="903.4" class="st3" width="4" height="8.7"/>
<rect x="264.4" y="949" class="st3" width="9" height="4"/>
<rect x="264.4" y="931" class="st3" width="9" height="4"/>
<rect x="264.4" y="943" class="st3" width="9" height="4"/>
<rect x="264.4" y="937" class="st3" width="9" height="4"/>
<rect x="264.4" y="925" class="st3" width="9" height="4"/>
<rect x="286" y="965.9" class="st3" width="4" height="8.7"/>
<rect x="310" y="965.9" class="st3" width="4" height="8.7"/>
<rect x="292" y="965.9" class="st3" width="4" height="8.7"/>
<rect x="304" y="965.9" class="st3" width="4" height="8.7"/>
<rect x="298" y="965.9" class="st3" width="4" height="8.7"/>
<rect x="326.6" y="943" class="st3" width="9" height="4"/>
<rect x="326.6" y="925" class="st3" width="9" height="4"/>
<rect x="326.6" y="937" class="st3" width="9" height="4"/>
<rect x="326.6" y="931" class="st3" width="9" height="4"/>
<rect x="326.6" y="949" class="st3" width="9" height="4"/>
</svg>
