<?xml version="1.0" encoding="utf-8"?>
<!-- Generator: Adobe Illustrator 19.1.0, SVG Export Plug-In . SVG Version: 6.00 Build 0)  -->
<svg version="1.1" id="Layer_1" xmlns="http://www.w3.org/2000/svg" xmlns:xlink="http://www.w3.org/1999/xlink" x="0px" y="0px"
	 viewBox="250 2179 100 100" style="enable-background:new 250 2179 100 100;" xml:space="preserve">
<style type="text/css">
	.st0{fill:#19486F;}
	.st1{fill:#1F5B98;}
	.st2{fill:#99BBE1;}
	.st3{fill:#5193CE;}
	.st4{fill:#17476F;}
	.st5{fill:#FFFFFF;}
	.st6{fill:none;stroke:#5193CE;stroke-width:3;stroke-linecap:round;stroke-linejoin:round;stroke-miterlimit:10;}
	.st7{fill:none;stroke:#FFFFFF;stroke-width:3;stroke-linecap:round;stroke-linejoin:round;stroke-miterlimit:10;}
	.st8{fill:none;stroke:#FFFFFF;stroke-width:3;stroke-miterlimit:10;}
	.st9{fill:#5193CE;stroke:#FFFFFF;stroke-width:3;stroke-miterlimit:10;}
	.st10{fill:none;stroke:#FFFFFF;stroke-width:3;stroke-linecap:round;stroke-miterlimit:10;}
	.st11{fill:#5193CE;stroke:#FFFFFF;stroke-width:3;stroke-linecap:round;stroke-linejoin:round;stroke-miterlimit:10;}
	.st12{fill:#FFFFFF;stroke:#5193CE;stroke-width:2;stroke-miterlimit:10;}
	.st13{fill:none;stroke:#5193CE;stroke-linecap:round;stroke-linejoin:round;stroke-miterlimit:10;}
	.st14{fill:none;stroke:#5193CE;stroke-width:3;stroke-linecap:round;stroke-miterlimit:10;}
	.st15{fill:none;stroke:#5193CE;stroke-linecap:round;stroke-miterlimit:10;}
	.st16{fill:none;stroke:#5193CE;stroke-width:3;stroke-miterlimit:10;}
	.st17{fill:none;}
	.st18{fill:none;stroke:#5193CE;stroke-width:4;stroke-linecap:round;stroke-linejoin:round;stroke-miterlimit:10;}
</style>
<path class="st4" d="M273.4,2251.2l53.1,0v3c0,2.6-2.1,4.7-4.8,4.7h-43.6c-0.3,0-0.6,0-0.9-0.1c-0.1,0-0.1,0-0.2,0
	c-0.2-0.1-0.5-0.1-0.7-0.2c0,0-0.1,0-0.1,0c-0.3-0.1-0.5-0.2-0.7-0.4c-0.1,0-0.1-0.1-0.2-0.1c-0.2-0.1-0.4-0.3-0.5-0.4
	c0,0-0.1-0.1-0.1-0.1c-0.2-0.2-0.4-0.4-0.5-0.6c0-0.1-0.1-0.1-0.1-0.2c-0.1-0.1-0.1-0.2-0.2-0.3c0-0.1-0.1-0.1-0.1-0.2
	c-0.1-0.1-0.1-0.3-0.2-0.4c0-0.1-0.1-0.1-0.1-0.2c0-0.1,0-0.2-0.1-0.3c0-0.1-0.1-0.2-0.1-0.3c0-0.1,0-0.1,0-0.2v0c0-0.2,0-0.4,0-0.7
	V2251.2z"/>
<path class="st3" d="M278.2,2202.1c-2.6,0-4.8,2.1-4.8,4.7v44.3c0,2.6,2.1,4.7,4.8,4.7h43.6c2.6,0,4.8-2.1,4.8-4.7v-44.3
	c0-2.6-2.1-4.7-4.8-4.7H278.2z"/>
<path class="st5" d="M290.4,2239.5L290.4,2239.5c-2.3-2.3,10.2-14.9,11.5-16.1l10.9-10.9c3.4-3.4,7.2-5.1,8.5-3.8l0,0
	c1.3,1.3-0.5,5.1-3.8,8.5l-10.9,10.9C305.3,2229.2,292.8,2241.8,290.4,2239.5z"/>
<g>
	<polygon class="st5" points="288.3,2241.6 277.3,2238.7 280.7,2235.3 293.1,2236.8 	"/>
	<polygon class="st5" points="288.3,2241.6 291.2,2252.6 294.6,2249.2 293.1,2236.8 	"/>
</g>
<g>
	<polygon class="st5" points="302,2227.9 279.5,2216.8 281.7,2214.6 310.4,2219.5 	"/>
	<polygon class="st5" points="302,2227.9 313.1,2250.4 315.3,2248.2 310.4,2219.5 	"/>
</g>
<rect x="286.7" y="2211.9" transform="matrix(0.7071 0.7071 -0.7071 0.7071 1650.2352 445.1261)" class="st5" width="2.2" height="5.4"/>
<rect x="296" y="2213.2" transform="matrix(0.7071 0.7071 -0.7071 0.7071 1653.9507 438.9354)" class="st5" width="2.2" height="5.4"/>
<rect x="314.2" y="2239.4" transform="matrix(-0.7071 -0.7071 0.7071 -0.7071 -1047.0999 4050.4824)" class="st5" width="2.2" height="5.4"/>
<rect x="312.8" y="2230.1" transform="matrix(-0.7071 -0.7071 0.7071 -0.7071 -1042.8745 4033.5713)" class="st5" width="2.2" height="5.4"/>
<rect x="310" y="2193.4" class="st3" width="4" height="8.7"/>
<rect x="286" y="2193.4" class="st3" width="4" height="8.7"/>
<rect x="304" y="2193.4" class="st3" width="4" height="8.7"/>
<rect x="292" y="2193.4" class="st3" width="4" height="8.7"/>
<rect x="298" y="2193.4" class="st3" width="4" height="8.7"/>
<rect x="264.4" y="2239" class="st3" width="9" height="4"/>
<rect x="264.4" y="2221" class="st3" width="9" height="4"/>
<rect x="264.4" y="2233" class="st3" width="9" height="4"/>
<rect x="264.4" y="2227" class="st3" width="9" height="4"/>
<rect x="264.4" y="2215" class="st3" width="9" height="4"/>
<rect x="286" y="2255.9" class="st3" width="4" height="8.7"/>
<rect x="310" y="2255.9" class="st3" width="4" height="8.7"/>
<rect x="292" y="2255.9" class="st3" width="4" height="8.7"/>
<rect x="304" y="2255.9" class="st3" width="4" height="8.7"/>
<rect x="298" y="2255.9" class="st3" width="4" height="8.7"/>
<rect x="326.6" y="2233" class="st3" width="9" height="4"/>
<rect x="326.6" y="2215" class="st3" width="9" height="4"/>
<rect x="326.6" y="2227" class="st3" width="9" height="4"/>
<rect x="326.6" y="2221" class="st3" width="9" height="4"/>
<rect x="326.6" y="2239" class="st3" width="9" height="4"/>
</svg>
