<?xml version="1.0" encoding="utf-8"?>
<!-- Generator: Adobe Illustrator 19.1.0, SVG Export Plug-In . SVG Version: 6.00 Build 0)  -->
<svg version="1.1" id="Layer_1" xmlns="http://www.w3.org/2000/svg" xmlns:xlink="http://www.w3.org/1999/xlink" x="0px" y="0px"
	 viewBox="250 2033 100 100" style="enable-background:new 250 2033 100 100;" xml:space="preserve">
<style type="text/css">
	.st0{fill:#19486F;}
	.st1{fill:#1F5B98;}
	.st2{fill:#99BBE1;}
	.st3{fill:#5193CE;}
	.st4{fill:#17476F;}
	.st5{fill:#FFFFFF;}
	.st6{fill:none;stroke:#5193CE;stroke-width:3;stroke-linecap:round;stroke-linejoin:round;stroke-miterlimit:10;}
	.st7{fill:none;stroke:#FFFFFF;stroke-width:3;stroke-linecap:round;stroke-linejoin:round;stroke-miterlimit:10;}
	.st8{fill:none;stroke:#FFFFFF;stroke-width:3;stroke-miterlimit:10;}
	.st9{fill:#5193CE;stroke:#FFFFFF;stroke-width:3;stroke-miterlimit:10;}
	.st10{fill:none;stroke:#FFFFFF;stroke-width:3;stroke-linecap:round;stroke-miterlimit:10;}
	.st11{fill:#5193CE;stroke:#FFFFFF;stroke-width:3;stroke-linecap:round;stroke-linejoin:round;stroke-miterlimit:10;}
	.st12{fill:#FFFFFF;stroke:#5193CE;stroke-width:2;stroke-miterlimit:10;}
	.st13{fill:none;stroke:#5193CE;stroke-linecap:round;stroke-linejoin:round;stroke-miterlimit:10;}
	.st14{fill:none;stroke:#5193CE;stroke-width:3;stroke-linecap:round;stroke-miterlimit:10;}
	.st15{fill:none;stroke:#5193CE;stroke-linecap:round;stroke-miterlimit:10;}
	.st16{fill:none;stroke:#5193CE;stroke-width:3;stroke-miterlimit:10;}
	.st17{fill:none;}
	.st18{fill:none;stroke:#5193CE;stroke-width:4;stroke-linecap:round;stroke-linejoin:round;stroke-miterlimit:10;}
</style>
<path class="st4" d="M273.4,2105.2l53.1,0v3c0,2.6-2.1,4.7-4.8,4.7h-43.6c-0.3,0-0.6,0-0.9-0.1c-0.1,0-0.1,0-0.2,0
	c-0.2-0.1-0.5-0.1-0.7-0.2c0,0-0.1,0-0.1,0c-0.3-0.1-0.5-0.2-0.7-0.4c-0.1,0-0.1-0.1-0.2-0.1c-0.2-0.1-0.4-0.3-0.5-0.4
	c0,0-0.1-0.1-0.1-0.1c-0.2-0.2-0.4-0.4-0.5-0.6c0-0.1-0.1-0.1-0.1-0.2c-0.1-0.1-0.1-0.2-0.2-0.3c0-0.1-0.1-0.1-0.1-0.2
	c-0.1-0.1-0.1-0.3-0.2-0.4c0-0.1-0.1-0.1-0.1-0.2c0-0.1,0-0.2-0.1-0.3c0-0.1-0.1-0.2-0.1-0.3c0-0.1,0-0.1,0-0.2v0c0-0.2,0-0.4,0-0.7
	V2105.2z"/>
<path class="st3" d="M278.2,2056.1c-2.6,0-4.8,2.1-4.8,4.7v44.3c0,2.6,2.1,4.7,4.8,4.7h43.6c2.6,0,4.8-2.1,4.8-4.7v-44.3
	c0-2.6-2.1-4.7-4.8-4.7H278.2z"/>
<path class="st5" d="M305.9,2071l3,21.2c1,6.7,0.1,12.9-8.8,12.9h-6.5c-8.4,0-9.7-6.2-8.8-12.9l3-21.2H305.9z"/>
<path class="st5" d="M287.9,2069c0.6-4.2,4-7.2,7.9-7.2h2.2c3.9,0,7.3,3,7.9,7.2H287.9z"/>
<polygon class="st5" points="291.9,2088.5 285.3,2091.7 277.7,2073 282,2070.9 "/>
<path class="st8" d="M305.8,2076.4h3c3.1,0,5.7,2.5,5.7,5.7v4.4c0,3.1-2.5,5.7-5.7,5.7h-1.6"/>
<line class="st8" x1="300.5" y1="2101" x2="314.5" y2="2101"/>
<path class="st5" d="M320,2105.2h-2.3c-2.3,0-4.2-1.9-4.2-4.2v-0.1c0-2.3,1.9-4.2,4.2-4.2h2.3V2105.2z"/>
<g>
	<line class="st7" x1="317.2" y1="2098.9" x2="322.7" y2="2098.9"/>
	<line class="st7" x1="317.2" y1="2103.1" x2="322.7" y2="2103.1"/>
</g>
<rect x="310" y="2047.4" class="st3" width="4" height="8.7"/>
<rect x="286" y="2047.4" class="st3" width="4" height="8.7"/>
<rect x="304" y="2047.4" class="st3" width="4" height="8.7"/>
<rect x="292" y="2047.4" class="st3" width="4" height="8.7"/>
<rect x="298" y="2047.4" class="st3" width="4" height="8.7"/>
<rect x="264.4" y="2093" class="st3" width="9" height="4"/>
<rect x="264.4" y="2075" class="st3" width="9" height="4"/>
<rect x="264.4" y="2087" class="st3" width="9" height="4"/>
<rect x="264.4" y="2081" class="st3" width="9" height="4"/>
<rect x="264.4" y="2069" class="st3" width="9" height="4"/>
<rect x="286" y="2109.9" class="st3" width="4" height="8.7"/>
<rect x="310" y="2109.9" class="st3" width="4" height="8.7"/>
<rect x="292" y="2109.9" class="st3" width="4" height="8.7"/>
<rect x="304" y="2109.9" class="st3" width="4" height="8.7"/>
<rect x="298" y="2109.9" class="st3" width="4" height="8.7"/>
<rect x="326.6" y="2087" class="st3" width="9" height="4"/>
<rect x="326.6" y="2069" class="st3" width="9" height="4"/>
<rect x="326.6" y="2081" class="st3" width="9" height="4"/>
<rect x="326.6" y="2075" class="st3" width="9" height="4"/>
<rect x="326.6" y="2093" class="st3" width="9" height="4"/>
</svg>
