<?xml version="1.0" encoding="utf-8"?>
<!-- Generator: Adobe Illustrator 19.1.0, SVG Export Plug-In . SVG Version: 6.00 Build 0)  -->
<svg version="1.1" id="Layer_1" xmlns="http://www.w3.org/2000/svg" xmlns:xlink="http://www.w3.org/1999/xlink" x="0px" y="0px"
	 viewBox="0 0 100 100" style="enable-background:new 0 0 100 100;" xml:space="preserve">
<style type="text/css">
	.st0{fill:#875A78;}
	.st1{fill:#C17B9E;}
	.st2{fill:#692F56;}
</style>
<polygon class="st0" points="42.2,77.8 35.1,75.8 28.4,68.2 35.9,68.8 "/>
<polygon class="st1" points="42.2,77.8 47.3,67.2 42.5,66.5 35.9,68.8 "/>
<polygon class="st0" points="25.8,72.8 21.8,71.7 18.1,67.4 22.1,67.4 "/>
<polygon class="st1" points="25.8,72.8 28.7,66.8 26,66.4 22.1,67.4 "/>
<polygon class="st2" points="15.7,66.8 19.8,67.7 19.8,30.6 15.7,32.9 "/>
<polygon class="st1" points="35.5,34.3 35.5,66.2 19.8,67.7 19.8,30.6 "/>
<polygon class="st2" points="24.8,68.7 31.8,70.1 31.8,24.7 24.8,28.2 "/>
<polygon class="st1" points="71.6,37.5 71.6,65 31.8,70.1 31.8,24.7 "/>
<polygon class="st0" points="64.4,84.4 54.4,81.5 44.8,70.7 55.5,71.6 "/>
<polygon class="st1" points="64.4,84.4 71.6,69.3 64.9,68.3 55.5,71.6 "/>
<polygon class="st2" points="39.7,71.6 50,73.6 50,15.6 39.7,20.8 "/>
<polygon class="st1" points="50,73.6 84.3,66.7 84.3,32.8 50,15.6 "/>
</svg>
