<?xml version="1.0" encoding="utf-8"?>
<!-- Generator: Adobe Illustrator 16.0.0, SVG Export Plug-In . SVG Version: 6.00 Build 0)  -->
<svg version="1.2" baseProfile="tiny" xmlns="http://www.w3.org/2000/svg" xmlns:xlink="http://www.w3.org/1999/xlink" x="0px"
	 y="0px" width="100px" height="100px" viewBox="0 0 100 100" xml:space="preserve">
<g id="Layer_3">
</g>
<g id="Layer_1">
	<g>
		<g>
			<path fill="#F58536" d="M50.001,21.335c15.285,0,27.678,12.289,27.678,27.473c0,15.17-12.393,27.473-27.678,27.473
				c-15.283,0-27.68-12.303-27.68-27.473C22.321,33.624,34.718,21.335,50.001,21.335z"/>
		</g>
		<g>
			<path fill="#9D5025" d="M74.29,61.987v2.387c-4.699,8.516-13.816,14.291-24.289,14.291c-15.283,0-27.68-12.303-27.68-27.471
				v-2.387c0,15.17,12.396,27.473,27.68,27.473C60.474,76.28,69.591,70.501,74.29,61.987"/>
			<path fill="#9D5025" d="M77.679,48.808v2.387c0,1.332-0.096,2.641-0.279,3.926v-2.385C77.583,51.45,77.679,50.142,77.679,48.808"
				/>
			<path fill="#9D5025" d="M77.399,52.735v2.385c-0.223,1.518-0.564,2.998-1.021,4.426v-2.389
				C76.835,55.731,77.177,54.251,77.399,52.735"/>
			<path fill="#9D5025" d="M76.378,57.157v2.389c-0.547,1.686-1.242,3.301-2.088,4.828v-2.387
				C75.136,60.458,75.831,58.843,76.378,57.157"/>
		</g>
		<path fill="#9D5025" d="M77.679,48.808v2.387c0,15.168-12.393,27.471-27.678,27.471c-15.283,0-27.68-12.303-27.68-27.471v-2.387
			c0,15.17,12.396,27.473,27.68,27.473C65.286,76.28,77.679,63.978,77.679,48.808z"/>
		<path fill="#FFFFFF" d="M58.161,47.866v-6.141c-0.43-4.045-3.918-7.188-8.102-7.188c-4.195,0-7.688,3.127-8.102,7.188v6.141
			h-4.191v13.611h24.467V47.866H58.161z M54.2,47.866h-8.336l0.027-6.141c0,0-0.004-3.764,4.168-3.75
			c3.99,0.012,4.168,3.75,4.168,3.75L54.2,47.866z"/>
	</g>
</g>
<g id="nyt_x5F_exporter_x5F_info" display="none">
</g>
</svg>
