<?xml version="1.0" encoding="utf-8"?>
<!-- Generator: Adobe Illustrator 19.1.0, SVG Export Plug-In . SVG Version: 6.00 Build 0)  -->
<svg version="1.1" id="Layer_1" xmlns="http://www.w3.org/2000/svg" xmlns:xlink="http://www.w3.org/1999/xlink" x="0px" y="0px"
	 viewBox="0 0 100 100" style="enable-background:new 0 0 100 100;" xml:space="preserve">
<style type="text/css">
	.st0{fill:#4C612C;}
	.st1{fill:#769B3F;}
	.st2{fill:#B6C99C;}
</style>
<g>
	<polygon class="st0" points="35.6,70.4 50,74.7 50,8.8 35.6,16 	"/>
	<polygon class="st1" points="64.4,70.4 50,74.7 50,8.8 64.4,16 	"/>
	<polygon class="st0" points="74.3,64.6 79.7,65.3 79.7,55.3 74.3,55 	"/>
	<polygon class="st1" points="25.7,64.6 20.3,65.3 20.3,55.3 25.7,55 	"/>
	<polygon class="st2" points="49.4,64.2 25.5,60 20.3,60.5 43.5,65.2 	"/>
	<polygon class="st1" points="84.1,59.6 50,66.5 50,91.2 84.1,74.1 	"/>
	<polygon class="st1" points="79.7,55.3 84.1,54.8 84.1,74.1 79.7,76.3 	"/>
	<polygon class="st2" points="84.1,54.8 78.9,54.6 74.3,55 79.7,55.3 	"/>
	<polygon class="st0" points="15.9,59.6 50,66.5 50,91.2 15.9,74.1 	"/>
	<polygon class="st0" points="39.8,86.1 50,91.2 50,58.2 39.8,57.2 	"/>
	<polygon class="st0" points="20.3,55.3 15.9,54.8 15.9,74.1 20.3,76.3 	"/>
	<polygon class="st2" points="15.9,54.8 21.1,54.6 25.7,55 20.3,55.3 	"/>
	<polygon class="st2" points="50,64.3 55.8,65.3 79.7,60.5 74.6,60 	"/>
	<polygon class="st1" points="60.2,85.3 50,90.4 50,57.4 60.2,56.4 	"/>
	<polygon class="st2" points="60.2,57.2 50,56.4 39.8,57.2 50,58.2 	"/>
</g>
</svg>
