<?xml version="1.0" encoding="utf-8"?>
<!-- Generator: Adobe Illustrator 19.1.0, SVG Export Plug-In . SVG Version: 6.00 Build 0)  -->
<svg version="1.1" id="Layer_1" xmlns="http://www.w3.org/2000/svg" xmlns:xlink="http://www.w3.org/1999/xlink" x="0px" y="0px"
	 viewBox="0 0 100 100" style="enable-background:new 0 0 100 100;" xml:space="preserve">
<style type="text/css">
	.st0{enable-background:new    ;}
	.st1{fill:#4B612C;}
	.st2{clip-path:url(#SVGID_2_);enable-background:new    ;}
	.st3{clip-path:url(#SVGID_4_);}
	.st4{clip-path:url(#SVGID_6_);}
	.st5{clip-path:url(#SVGID_8_);}
	.st6{fill:#759C3E;}
	.st7{fill:#3C4929;}
	.st8{fill:#FFFFFF;stroke:#3C4929;stroke-width:3;stroke-miterlimit:10;}
	.st9{fill:none;stroke:#3C4929;stroke-width:3;stroke-miterlimit:10;}
	.st10{fill:#D2D3D3;}
	.st11{fill:#7D7C7C;}
	.st12{fill:#373737;}
	.st13{fill:#B7CA9D;}
	.st14{fill:#FFFFFF;}
	.st15{fill:#FFFFFF;stroke:#4F4F4F;stroke-width:3;stroke-miterlimit:10;}
	.st16{fill:none;stroke:#4F4F4F;stroke-width:3;stroke-miterlimit:10;}
	.st17{fill:#D2D3D3;stroke:#7D7C7C;stroke-width:2;stroke-miterlimit:10;}
</style>
<g id="CloudTrail_13_">
	<g id="Um7reR_1_">
		<g>
			<g>
				<path class="st1" d="M16.7,81c-0.6-0.3-1.2-0.5-1.8-0.8c-5.9-3-7.3-6.5-4.7-12.6c1.1-2.5,3-4.6,4.5-6.9c0.6-0.9,1.2-1.7,1.6-2.7
					c2.2-4.7,2-10,3.7-14.8c1.9-5.3,4.2-10.3,7.4-15c5.6-8.3,13.6-11.8,23.2-13.1c7.2-0.9,13.4,1.5,19.3,5.2
					c8.5,5.2,13.9,12.6,16,22.3c0.6,2.8,1.2,5.5,2.7,8c0.2,0.4,0.5,0.9,0.8,1.2c2.6,2.9,2.7,5.7,0.1,8.6c-2.7,3.1-6,5.3-9.5,7.2
					C71.9,72,64,76.3,56.1,80.5c-2.1,1.1-4.4,2.2-6.7,2.9C39.5,87.2,23.5,83.7,16.7,81z M85.7,50.4c-0.3-0.7-0.5-1.3-0.8-2
					c-0.3-0.5-0.7-1-0.8-1.5c-0.3-1.3-0.4-2.6-0.5-3.9c-0.1-0.7-0.1-1.3-0.3-2c-1.2-4.5-3.7-8.4-6.4-12c-1.1-1.4-2.7-2.4-4.1-3.6
					c-3.5-2.9-7.2-5.4-11.5-6.8c-0.7-0.2-1.4-0.5-2-0.7c-0.2-0.1-0.4-0.3-0.6-0.3c-3.5,0-7.1-0.1-10.6,0.2c-2.9,0.3-6,1-8.3,3
					c-1.8,1.5-3.3,3.4-4.8,5.2c-3.9,5-6.3,10.8-8.6,16.6c-1.3,3.1-1.9,6.5-2.8,9.8c-0.5,1.8-1,3.7-1.7,5.5c-0.3,0.7-1,1.6-1.6,1.6
					c-0.5,0.1-1.1-0.9-1.7-1.4c-0.7,1.5-0.2,3.1,0.8,4.5c2.4,3.6,5.9,5.8,10.1,6.9c5.2,1.3,10.3,2.5,15.8,1.8
					c4.4-0.6,8.8-0.7,13.3-1.1c1.6-0.1,3.2-0.2,4.8-0.3C58,72,52.6,73.7,47,73.7c-5,0-9.9-1.1-14.8-1.7c-4.5-0.5-8.9-1.1-13.4-1.5
					c-1.4-0.1-2.5,0.5-2.9,1.8c-0.8,2.6,1.3,6.6,3.9,7.6c5.8,2,11.7,3.2,17.8,3.4c5.3,0.2,10.4-1.1,15.1-3.5
					c6.4-3.3,12.7-6.8,19.1-10.2c2.1-1.1,4.2-2.2,6.5-3.5c-2.5-1.2-3.1-3-2.1-5.2c0.9,0.3,1.8,0.5,2.7,0.8c-0.1,1.3-0.3,2.6-0.4,4.3
					c4.1-2.1,7.4-4.4,9.9-7.7c1.1-1.5,0.7-2.9-0.3-4.4C87.2,52.7,86.5,51.5,85.7,50.4z"/>
				<path class="st6" d="M61.2,18.6c4.3,1.4,8,3.9,11.5,6.8c-1.2-0.1-2.5-0.3-3.7-0.1c-4.5,0.7-7.7,3.5-10.3,7
					c-3.7,4.9-4.5,10.6-4.2,16.5c0.1,2.7,0.6,5.5,2.3,8.3c0.3-1.9,0.4-3.3,0.7-4.8c0.8-4.9,2.1-9.5,5.1-13.6
					c4.7-6.5,14.2-6.6,18.7-0.1c0.9,1.4,1.6,3,2.3,4.4c0.2,1.3,0.3,2.6,0.5,3.9c0.1,0.5,0.6,1,0.8,1.5c-0.4,3.6-2.9,5.6-5.7,7.1
					c-3.5,2-7.2,3.9-10.9,5.3c-6.5,2.5-13.3,3.9-20.2,4.7c-3.7,0.4-7.4,0.4-11.1,0c-4-0.4-8-1.4-11.9-2.1c-0.9-0.2-1.8,0-2.7,0
					c0,0.2,0,0.4-0.1,0.6c2,0.6,4,1.2,6.1,1.8c4.9,1.3,9.8,3.1,15.1,2.5c4.3-0.5,8.6-1.2,12.8-2c9.6-1.8,18.6-5,26.3-11.2
					c1.5-1.2,3.2-2.4,3.1-4.7c0.8,1.2,1.5,2.4,2.3,3.5c1,1.4,1.4,2.9,0.3,4.4c-2.5,3.3-5.8,5.5-9.9,7.6c0.2-1.7,0.3-3,0.4-4.3
					c2-1.4,4-2.7,6-4.1c-0.1-0.2-0.1-0.3-0.2-0.5c-0.9,0.1-1.9,0-2.7,0.4c-2,1-3.9,2.3-5.8,3.4c-1,2.3-0.4,4,2.1,5.2
					c-2.4,1.3-4.5,2.3-6.5,3.5c-6.4,3.4-12.7,6.9-19.1,10.2c-4.7,2.4-9.8,3.7-15.1,3.5c-6.1-0.2-12-1.4-17.8-3.4
					c-2.6-0.9-4.7-5-3.9-7.6c0.4-1.3,1.6-2,2.9-1.8c4.5,0.5,8.9,1,13.4,1.5c4.9,0.6,9.9,1.7,14.8,1.7c5.6,0,11-1.7,16.2-3.9
					c-1.6,0.1-3.2,0.2-4.8,0.3c-4.4,0.3-8.9,0.5-13.3,1.1c-5.5,0.7-10.6-0.5-15.8-1.8c-4.2-1-7.7-3.3-10.1-6.9
					c-0.9-1.4-1.5-3-0.8-4.5c0.6,0.5,1.2,1.5,1.7,1.4c0.6-0.1,1.4-0.9,1.6-1.6c0.7-1.8,1.1-3.6,1.7-5.5c0.9-3.3,1.6-6.7,2.8-9.8
					c2.3-5.8,4.8-11.6,8.6-16.6c1.4-1.9,3-3.7,4.8-5.2c2.3-2,5.3-2.7,8.3-3c3.5-0.3,7-0.2,10.6-0.2c0.2,0,0.4,0.2,0.6,0.3
					c-2.2-0.1-4.2,0.6-5.8,2c-1.5,1.4-3.1,2.9-4.4,4.5C43,31.8,41.2,40.8,41,50.1c-0.1,3.2,0.7,6.4,2.6,9.1c1.1,1.5,2.4,2.4,4.5,2.3
					c-0.2-0.7-0.4-1.1-0.6-1.5c-1.7-3.8-2.5-7.8-2.6-12c-0.1-7.3,2.4-13.8,5.9-20C53.2,23.7,56.2,20,61.2,18.6z"/>
				<path class="st13" d="M83.6,42.9c-0.8-1.5-1.4-3.1-2.3-4.4c-4.5-6.5-14-6.4-18.7,0.1c-2.9,4.1-4.3,8.8-5.1,13.6
					c-0.2,1.5-0.4,2.9-0.7,4.8c-1.7-2.8-2.1-5.6-2.3-8.3c-0.3-5.9,0.6-11.6,4.2-16.5c2.6-3.5,5.7-6.4,10.3-7
					c1.2-0.2,2.4,0.1,3.7,0.1c1.4,1.2,3.1,2.2,4.1,3.6c2.8,3.6,5.2,7.5,6.4,12C83.5,41.6,83.5,42.3,83.6,42.9z"/>
				<path class="st13" d="M61.2,18.6c-5.1,1.4-8,5.2-10.4,9.5c-3.5,6.2-6,12.8-5.9,20c0.1,4.1,0.9,8.2,2.6,12
					c0.2,0.4,0.3,0.8,0.6,1.5c-2.1,0-3.4-0.8-4.5-2.3c-2-2.7-2.7-5.9-2.6-9.1c0.2-9.3,2-18.3,8.1-25.8c1.3-1.6,2.8-3.1,4.4-4.5
					c1.6-1.4,3.6-2.1,5.8-2C59.9,18.1,60.6,18.3,61.2,18.6z"/>
				<path class="st13" d="M85.7,50.4c0,2.3-1.6,3.5-3.1,4.7c-7.7,6.2-16.7,9.4-26.3,11.2c-4.3,0.8-8.5,1.5-12.8,2
					c-5.2,0.6-10.1-1.2-15.1-2.5c-2-0.5-4-1.2-6.1-1.8c0-0.2,0-0.4,0.1-0.6c0.9,0,1.8-0.1,2.7,0c4,0.7,7.9,1.7,11.9,2.1
					c3.7,0.4,7.4,0.4,11.1,0c6.9-0.8,13.7-2.2,20.2-4.7c3.8-1.5,7.4-3.3,10.9-5.3c2.8-1.6,5.3-3.5,5.7-7.1
					C85.2,49,85.5,49.7,85.7,50.4z"/>
				<path class="st13" d="M76.2,60.8c1.9-1.2,3.8-2.4,5.8-3.4c0.8-0.4,1.8-0.3,2.7-0.4c0.1,0.2,0.1,0.3,0.2,0.5c-2,1.4-4,2.7-6,4.1
					C77.9,61.3,77,61.1,76.2,60.8z"/>
			</g>
		</g>
	</g>
</g>
</svg>
