<?xml version="1.0" encoding="utf-8"?>
<!-- Generator: Adobe Illustrator 19.1.0, SVG Export Plug-In . SVG Version: 6.00 Build 0)  -->
<svg version="1.1" id="Layer_1" xmlns="http://www.w3.org/2000/svg" xmlns:xlink="http://www.w3.org/1999/xlink" x="0px" y="0px"
	 viewBox="0 0 100 100" style="enable-background:new 0 0 100 100;" xml:space="preserve">
<style type="text/css">
	.st0{enable-background:new    ;}
	.st1{fill:#4B612C;}
	.st2{clip-path:url(#SVGID_2_);enable-background:new    ;}
	.st3{clip-path:url(#SVGID_4_);}
	.st4{clip-path:url(#SVGID_6_);}
	.st5{clip-path:url(#SVGID_8_);}
	.st6{fill:#759C3E;}
	.st7{fill:#3C4929;}
	.st8{fill:#FFFFFF;stroke:#3C4929;stroke-width:3;stroke-miterlimit:10;}
	.st9{fill:none;stroke:#3C4929;stroke-width:3;stroke-miterlimit:10;}
	.st10{fill:#D2D3D3;}
	.st11{fill:#7D7C7C;}
	.st12{fill:#373737;}
	.st13{fill:#B7CA9D;}
	.st14{fill:#FFFFFF;}
	.st15{fill:#FFFFFF;stroke:#4F4F4F;stroke-width:3;stroke-miterlimit:10;}
	.st16{fill:none;stroke:#4F4F4F;stroke-width:3;stroke-miterlimit:10;}
	.st17{fill:#D2D3D3;stroke:#7D7C7C;stroke-width:2;stroke-miterlimit:10;}
</style>
<g id="CloudTrail_10_">
	<g>
		<path class="st10" d="M67.4,23.3c1.7,0,3,1.3,3,3v47.4c0,1.6-1.3,3-3,3H32.6c-1.7,0-3-1.3-3-3V26.3c0-1.6,1.3-3,3-3L67.4,23.3
			L67.4,23.3z"/>
	</g>
	<g>
		<path class="st11" d="M43.5,56.5l-2.9,3.1L38,58.2l-0.2-16.1c-0.1,0-0.5-0.2-1-0.5c-0.5-0.2-0.9-0.5-1.3-0.9
			c-0.4-0.3-0.8-0.7-1.1-1.2C33,38,32.4,36,32.4,34.1c0-2.2,0.8-4.3,2.4-6c0.2-0.2,0.5-0.5,0.7-0.7c3.7-3,9-2.5,12,1.2
			c1.3,1.6,1.9,3.5,1.9,5.4c0,1.9-0.6,3.8-1.9,5.4c-0.9,1.2-2.1,1.9-2.2,2l0,0.9l0.1,3.9l-2.4,1.4l0.3,3.3l-1.3,1.3l-0.3,1.2
			L43.5,56.5z M38.8,30.3c0,1.3,1,2.2,2.3,2.2c1.2,0,2.2-1,2.2-2.3c0,0,0,0,0,0c0-1.2-1-2.2-2.3-2.2C39.8,28.1,38.8,29.1,38.8,30.3
			C38.8,30.3,38.8,30.3,38.8,30.3"/>
	</g>
	<path class="st12" d="M63.2,59.8v-6.1c-0.4-4-3.9-7.2-8.1-7.2c-4.2,0-7.7,3.1-8.1,7.2v6.1h-4.2v13.6h24.5V59.8H63.2z M59.3,59.8H51
		l0-6.1c0,0,0-3.8,4.2-3.8c4,0,4.2,3.8,4.2,3.8L59.3,59.8z"/>
</g>
</svg>
