<?xml version="1.0" encoding="utf-8"?>
<!-- Generator: Adobe Illustrator 19.1.0, SVG Export Plug-In . SVG Version: 6.00 Build 0)  -->
<svg version="1.1" id="Layer_1" xmlns="http://www.w3.org/2000/svg" xmlns:xlink="http://www.w3.org/1999/xlink" x="0px" y="0px"
	 viewBox="0 0 100 100" style="enable-background:new 0 0 100 100;" xml:space="preserve">
<style type="text/css">
	.st0{fill:#769B3F;}
	.st1{fill:#4C612C;}
</style>
<g>
	<polygon class="st0" points="30.3,34.6 22.7,33.4 22.7,22.5 32.9,25.3 	"/>
	<polygon class="st1" points="30.8,36 15.9,37.3 15.9,25.9 22.7,22.5 	"/>
	<polygon class="st1" points="69.7,34.6 77.3,33.4 77.3,22.5 67.1,25.3 	"/>
	<polygon class="st0" points="69.2,36 84.1,37.3 84.1,25.9 77.3,22.5 	"/>
	<polygon class="st1" points="35.6,16 27.8,32 27.8,32 15.9,35.5 15.9,45.7 29.7,75.2 50,91.2 50,74.7 50,25.3 50,8.8 	"/>
	<polygon class="st0" points="84.1,45.7 84.1,35.5 72.2,32 72.2,32 64.4,16 50,8.8 50,25.3 50,74.7 50,91.2 70.3,75.2 	"/>
</g>
</svg>
