<?xml version="1.0" encoding="utf-8"?>
<!-- Generator: Adobe Illustrator 19.0.0, SVG Export Plug-In . SVG Version: 6.00 Build 0)  -->
<svg version="1.1" id="Layer_1" xmlns="http://www.w3.org/2000/svg" xmlns:xlink="http://www.w3.org/1999/xlink" x="0px" y="0px"
	 viewBox="0 0 100 100" style="enable-background:new 0 0 100 100;" xml:space="preserve">
<style type="text/css">
	.st0{fill:#E05243;}
	.st1{fill:#8C3123;}
	.st2{fill:#FFFFFF;}
	.st3{display:none;}
</style>
<g id="Layer_1_1_">
	<g>
		<rect x="26.6" y="29.1" class="st0" width="46.8" height="51.4"/>
		<polygon class="st0" points="66,17 34.1,17 27.2,23.4 27.7,23.4 72.3,23.4 		"/>
		<g>
			<rect x="26.6" y="80.5" class="st1" width="46.8" height="2.5"/>
		</g>
		<g>
			<rect x="27.2" y="23.4" class="st1" width="45.1" height="2.5"/>
		</g>
	</g>
	<g>
		<path class="st1" d="M46.2,50.7c1.1-0.8,2.4-1.3,3.8-1.3c1.8,0,3.4,0.7,4.6,2l3.5-1.7v-2c0,0-5.3-2.1-8.1-2.1c-2.3,0-7,0.8-7,0.8
			v2L46.2,50.7z"/>
		<path class="st1" d="M56.4,55c0,0.3,0.1,0.6,0.1,0.9c0,3.1-2.6,7.5-5.5,8.1v2c5.2-0.4,9.5-5.1,9.5-10.4c0-0.9-0.3-3.4-0.5-4.2
			L56.4,55z"/>
		<path class="st1" d="M47.2,61.7v-2c0,0-0.8,0.3-1.3,0c-1.1-0.7-2.3-2.6-2.3-3.8c0-0.6,0.1-1.3,0.3-1.9v-2l-3.2-2.3
			c-1,2.9-1,4.4-1,5.9c0,4.5,3.1,8.6,7.2,9.9L47.2,61.7z"/>
	</g>
	<path class="st2" d="M66.1,47.2l-0.9-1.8l-11,5.3c-1-1.3-2.6-2.2-4.3-2.2c-1.5,0-2.8,0.6-3.8,1.5l-9.4-6.8l-1.2,1.6l9.4,6.8
		c-0.3,0.7-0.5,1.5-0.5,2.3c0,2.4,1.6,4.4,3.7,5.1l-1,11.2l2,0.2l1-11.1c2.9-0.2,5.1-2.5,5.1-5.4c0-0.5-0.1-1-0.2-1.4L66.1,47.2z"/>
	<g>
		<path class="st2" d="M46.2,48.7c1.1-0.8,2.4-1.3,3.8-1.3c1.8,0,3.4,0.7,4.6,2l3.5-1.7c-1.9-2.5-4.8-4.1-8.1-4.1
			c-2.7,0-5.2,1.1-7,2.8L46.2,48.7z"/>
		<path class="st2" d="M56.4,53c0,0.3,0.1,0.6,0.1,0.9c0,3.1-2.2,5.7-5.2,6.3L50.9,64c5.2-0.4,9.3-4.8,9.3-10.1
			c0-0.9-0.1-1.7-0.3-2.5L56.4,53z"/>
		<path class="st2" d="M47.2,59.7c-2.2-1.1-3.7-3.3-3.7-5.8c0-0.6,0.1-1.3,0.3-1.9l-3.2-2.3c-0.6,1.3-0.9,2.6-0.9,4.1
			c0,4.5,3,8.4,7.1,9.7L47.2,59.7z"/>
	</g>
</g>
<g id="nyt_x5F_exporter_x5F_info" class="st3">
</g>
</svg>
