<?xml version="1.0" encoding="utf-8"?>
<!-- Generator: Adobe Illustrator 19.1.0, SVG Export Plug-In . SVG Version: 6.00 Build 0)  -->
<svg version="1.1" xmlns="http://www.w3.org/2000/svg" xmlns:xlink="http://www.w3.org/1999/xlink" x="0px" y="0px" width="100px"
	 height="100px" viewBox="0 0 100 100" style="enable-background:new 0 0 100 100;" xml:space="preserve">
<style type="text/css">
	.st0{fill:#6B3A19;}
	.st1{fill:#F58536;}
	.st2{fill:#9D5025;}
	.st3{fill:#FBBF93;}
	.st4{fill:#FFFFFF;}
	.st5{fill:none;stroke:#7D7D7D;stroke-miterlimit:10;stroke-dasharray:2.1247;}
	.st6{clip-path:url(#SVGID_2_);enable-background:new    ;}
	.st7{clip-path:url(#SVGID_4_);enable-background:new    ;}
</style>
<g id="Layer_1">
	<path class="st2" d="M73.6,77.7h-24c-1.7,0-3-1.3-3-3v-24c0-1.7,1.3-3,3-3h24c1.7,0,3,1.3,3,3v24C76.6,76.4,75.2,77.7,73.6,77.7z"
		/>
	<path class="st2" d="M50.5,24.7h-24c-1.7,0-3,1.3-3,3v24c0,1.7,1.3,3,3,3H32V39.2c0-3.3,2.7-6,6-6h15.5v-5.5
		C53.5,26.1,52.1,24.7,50.5,24.7z"/>
	<path class="st2" d="M62,36.2H38c-1.7,0-3,1.3-3,3v24c0,1.7,1.3,3,3,3h5.6V50.7c0-3.3,2.7-6,6-6H65v-5.5C65,37.6,63.7,36.2,62,36.2
		z"/>
	<path class="st1" d="M73.6,75.3h-24c-1.7,0-3-1.3-3-3v-24c0-1.7,1.3-3,3-3h24c1.7,0,3,1.3,3,3v24C76.6,73.9,75.2,75.3,73.6,75.3z"
		/>
	<path class="st1" d="M50.5,22.3h-24c-1.7,0-3,1.3-3,3v24c0,1.7,1.3,3,3,3H32V36.8c0-3.3,2.7-6,6-6h15.5v-5.5
		C53.5,23.6,52.1,22.3,50.5,22.3z"/>
	<path class="st1" d="M62,33.8H38c-1.7,0-3,1.3-3,3v24c0,1.7,1.3,3,3,3h5.6V48.2c0-3.3,2.7-6,6-6H65v-5.5C65,35.1,63.7,33.8,62,33.8
		z"/>
</g>
<g id="Layer_2">
</g>
</svg>
