<?xml version="1.0" encoding="utf-8"?>
<!-- Generator: Adobe Illustrator 19.1.0, SVG Export Plug-In . SVG Version: 6.00 Build 0)  -->
<svg version="1.1" xmlns="http://www.w3.org/2000/svg" xmlns:xlink="http://www.w3.org/1999/xlink" x="0px" y="0px" width="100px"
	 height="100px" viewBox="0 0 100 100" style="enable-background:new 0 0 100 100;" xml:space="preserve">
<style type="text/css">
	.st0{fill:#6B3A19;}
	.st1{fill:#F58536;}
	.st2{fill:#9D5025;}
	.st3{fill:#FBBF93;}
	.st4{fill:#FFFFFF;}
	.st5{fill:none;stroke:#7D7D7D;stroke-miterlimit:10;stroke-dasharray:2.1247;}
	.st6{clip-path:url(#SVGID_2_);enable-background:new    ;}
	.st7{clip-path:url(#SVGID_4_);enable-background:new    ;}
</style>
<g id="Layer_1">
	<g>
		<path class="st2" d="M67.4,77.7H32.6c-5,0-9.1-4.1-9.1-9.1V33.9c0-5,4.1-9.1,9.1-9.1h34.8c5,0,9.1,4.1,9.1,9.1v34.8
			C76.5,73.7,72.4,77.7,67.4,77.7z"/>
		<path class="st1" d="M67.4,75.3H32.6c-5,0-9.1-4.1-9.1-9.1V31.4c0-5,4.1-9.1,9.1-9.1h34.8c5,0,9.1,4.1,9.1,9.1v34.8
			C76.5,71.2,72.4,75.3,67.4,75.3z"/>
	</g>
	<g>
		<path class="st4" d="M60.4,62.4c0-1.9-0.4-2.7-1.5-2.7c-1.3,0-1.6,1.3-1.6,5c0,3.9,0.5,4.6,1.7,4.6c0.9,0,1.6-0.5,1.6-3.3h2.6
			c0,2.8-0.7,5.2-4.1,5.2c-3.9,0-4.4-2.8-4.4-6.7c0-3.9,0.5-6.7,4.4-6.7c3.7,0,4,2.7,4,4.6H60.4z"/>
		<path class="st4" d="M66.5,67.1c0,1.5,0.3,2.3,1.4,2.3c1.3,0,1.4-0.9,1.4-2.1c0-1.1-0.3-2.2-1.7-2.2h-0.9v-1.7h0.8
			c1.1,0,1.5-1,1.5-2c0-1.2-0.4-1.7-1.2-1.7c-1.1,0-1.3,0.9-1.3,2.1h-2.4c0-2.5,1.3-3.8,3.7-3.8c2.3,0,3.7,1,3.7,3.3
			c0,1.5-0.7,2.5-1.9,2.8v0c1.6,0.3,2.3,1.4,2.3,3c0,1.7-0.7,3.9-4.2,3.9c-2.5,0-3.7-1.5-3.7-3.9v-0.1H66.5z"/>
	</g>
</g>
<g id="Layer_2">
</g>
</svg>
