<?xml version="1.0" encoding="utf-8"?>
<!-- Generator: Adobe Illustrator 19.1.0, SVG Export Plug-In . SVG Version: 6.00 Build 0)  -->
<svg version="1.1" xmlns="http://www.w3.org/2000/svg" xmlns:xlink="http://www.w3.org/1999/xlink" x="0px" y="0px" width="100px"
	 height="100px" viewBox="0 0 100 100" style="enable-background:new 0 0 100 100;" xml:space="preserve">
<style type="text/css">
	.st0{fill:#6B3A19;}
	.st1{fill:#F58536;}
	.st2{fill:#9D5025;}
	.st3{fill:#FBBF93;}
	.st4{fill:#FFFFFF;}
	.st5{fill:none;stroke:#7D7D7D;stroke-miterlimit:10;stroke-dasharray:2.1247;}
	.st6{clip-path:url(#SVGID_2_);enable-background:new    ;}
	.st7{clip-path:url(#SVGID_4_);enable-background:new    ;}
</style>
<g id="Layer_1">
	<g>
		<polygon class="st2" points="21.6,24.3 18.2,26 18.2,74 21.6,75.7 35,51 		"/>
		<polygon class="st2" points="32,32.9 37,25.8 59.5,35.8 54.2,36.7 		"/>
		<polygon class="st2" points="28.1,67.6 33.6,75.2 59.5,64 54.5,63.2 		"/>
		<polygon class="st1" points="29.5,73.9 21.6,75.7 21.6,24.3 29.5,26.1 		"/>
		<polygon class="st2" points="25.3,22.4 29.5,20.3 37.4,53.3 29.5,79.7 25.3,77.6 		"/>
		<polygon class="st2" points="54.2,63.2 59.5,64 64.3,50.5 59.5,35.8 54.2,36.7 		"/>
		<polygon class="st1" points="37.6,77.4 29.5,79.7 29.5,20.3 37.6,22.6 		"/>
		<polygon class="st1" points="65,63 29.5,69.6 29.5,79.7 65,69.7 		"/>
		<polygon class="st1" points="65.1,36.9 29.5,30.1 29.5,20.3 65.1,30.4 		"/>
		<polygon class="st1" points="59.5,28.8 65.2,30.4 65.2,69.7 59.5,71.3 		"/>
		<polygon class="st0" points="81.8,44.8 66.6,45.5 61.2,45.2 76.6,32.7 		"/>
		<polygon class="st2" points="61.2,45.2 76.6,44.3 76.6,32.7 61.2,35.2 		"/>
		<polygon class="st0" points="46.7,44.2 62.3,28.4 70.2,43.6 54,44.7 		"/>
		<polygon class="st2" points="46.7,44.2 62.3,42.9 62.3,28.4 46.7,32.1 		"/>
		<polygon class="st2" points="61.2,55 81.8,55.4 76.6,67.5 61.2,65 		"/>
		<polygon class="st2" points="46.7,56 70.2,56.6 62.3,71.8 46.7,68.1 		"/>
		<polygon class="st3" points="46.7,56 62.3,57.4 70.2,56.6 54,55.5 		"/>
		<polygon class="st3" points="81.8,55.4 66.6,54.7 61.2,55 76.6,55.9 		"/>
		<polygon class="st1" points="76.6,44.3 81.8,44.8 81.8,34.3 76.6,32.7 		"/>
		<polygon class="st1" points="70.2,43.6 62.3,42.9 62.3,28.4 70.2,30.8 		"/>
		<polygon class="st1" points="76.6,55.9 81.8,55.4 81.8,65.9 76.6,67.5 		"/>
		<polygon class="st1" points="70.2,56.6 62.3,57.4 62.3,71.8 70.2,69.4 		"/>
	</g>
</g>
<g id="Layer_2">
</g>
</svg>
