<?xml version="1.0" encoding="utf-8"?>
<!-- Generator: Adobe Illustrator 19.1.0, SVG Export Plug-In . SVG Version: 6.00 Build 0)  -->
<svg version="1.1" xmlns="http://www.w3.org/2000/svg" xmlns:xlink="http://www.w3.org/1999/xlink" x="0px" y="0px" width="100px"
	 height="100px" viewBox="0 0 100 100" style="enable-background:new 0 0 100 100;" xml:space="preserve">
<style type="text/css">
	.st0{fill:#6B3A19;}
	.st1{fill:#F58536;}
	.st2{fill:#9D5025;}
	.st3{fill:#FBBF93;}
	.st4{fill:#FFFFFF;}
	.st5{fill:none;stroke:#7D7D7D;stroke-miterlimit:10;stroke-dasharray:2.1247;}
	.st6{clip-path:url(#SVGID_2_);enable-background:new    ;}
	.st7{clip-path:url(#SVGID_4_);enable-background:new    ;}
</style>
<g id="Layer_1">
	<g>
		<circle class="st2" cx="50" cy="51.3" r="30.4"/>
		<rect x="19.6" y="48.7" class="st2" width="60.9" height="2.5"/>
		<circle class="st1" cx="50" cy="48.7" r="30.4"/>
		<g>
			<polygon class="st4" points="52,45.4 48,45.4 45.9,27.3 54.1,27.3 			"/>
		</g>
		<g>
			<polygon class="st4" points="67.6,58.8 69.2,57.5 63.5,49 51,44.6 50,51.5 61.2,52.6 			"/>
		</g>
		<g>
			<polygon class="st4" points="32.4,58.8 30.8,57.5 36.5,49 49,44.6 50,51.5 38.8,52.6 			"/>
		</g>
		<circle class="st4" cx="50" cy="27.3" r="5.6"/>
		<path class="st1" d="M50,33.5c-3.4,0-6.1-2.8-6.1-6.1s2.8-6.1,6.1-6.1s6.1,2.8,6.1,6.1S53.4,33.5,50,33.5z M50,22.2
			c-2.8,0-5.1,2.3-5.1,5.1s2.3,5.1,5.1,5.1s5.1-2.3,5.1-5.1S52.8,22.2,50,22.2z"/>
		<circle class="st1" cx="50" cy="27.3" r="1.9"/>
		<circle class="st4" cx="50" cy="48" r="4.1"/>
		<path class="st1" d="M50,52.6c-2.5,0-4.6-2.1-4.6-4.6c0-2.5,2.1-4.6,4.6-4.6s4.6,2.1,4.6,4.6C54.6,50.5,52.5,52.6,50,52.6z
			 M50,44.4c-2,0-3.6,1.6-3.6,3.6c0,2,1.6,3.6,3.6,3.6c2,0,3.6-1.6,3.6-3.6C53.6,46.1,52,44.4,50,44.4z"/>
		<circle class="st1" cx="50" cy="48" r="1.3"/>
		<rect x="36.9" y="57.4" class="st4" width="26.3" height="14.5"/>
		<rect x="38.2" y="58.6" class="st3" width="2" height="12.2"/>
		<rect x="41.8" y="58.6" class="st3" width="2" height="12.2"/>
		<rect x="45.4" y="58.6" class="st3" width="2" height="12.2"/>
		<rect x="49" y="58.6" class="st3" width="2" height="12.2"/>
		<rect x="52.6" y="58.6" class="st3" width="2" height="12.2"/>
		<rect x="56.2" y="58.6" class="st3" width="2" height="12.2"/>
		<rect x="59.8" y="58.6" class="st3" width="2" height="12.2"/>
	</g>
</g>
<g id="Layer_2">
</g>
</svg>
