<?xml version="1.0" encoding="utf-8"?>
<!-- Generator: Adobe Illustrator 19.1.0, SVG Export Plug-In . SVG Version: 6.00 Build 0)  -->
<svg version="1.1" id="Layer_1" xmlns="http://www.w3.org/2000/svg" xmlns:xlink="http://www.w3.org/1999/xlink" x="0px" y="0px" width="100px"
	 height="100px" viewBox="0 0 100 100" style="enable-background:new 0 0 100 100;" xml:space="preserve">
<style type="text/css">
	.st0{fill:none;stroke:#7D7D7D;stroke-miterlimit:10;stroke-dasharray:2.1247;}
	.st1{fill:#F58536;}
	.st2{fill:#9D5025;}
	.st3{clip-path:url(#SVGID_4_);enable-background:new    ;}
	.st4{clip-path:url(#SVGID_6_);enable-background:new    ;}
	.st5{enable-background:new    ;}
	.st6{fill:#FFFFFF;}
</style>
<g id="Layer_1_1_">
	<path class="st0" d="M75.9,83.6H24.1c-4.3,0-7.7-3.4-7.7-7.7V24.1c0-4.3,3.4-7.7,7.7-7.7h51.7c4.3,0,7.7,3.4,7.7,7.7v51.7
		C83.6,80.1,80.1,83.6,75.9,83.6z"/>
	<g>
		<g>
			<g>
				<path class="st1" d="M37.7,12c0.9,0,1.6,0.7,1.6,1.6v6.3c0,0.9-0.7,1.6-1.6,1.6h-6.1c-0.9,0-1.6-0.7-1.6-1.6v-6.3
					c0-0.9,0.7-1.6,1.6-1.6C31.6,12,37.7,12,37.7,12z"/>
			</g>
			<g>
				<g>
					<path id="SVGID_1_" class="st2" d="M39.3,19.9v0.6c0,0.9-0.7,1.6-1.6,1.6v-0.6C38.6,21.5,39.3,20.8,39.3,19.9z"/>
				</g>
				<g>
					<defs>
						<path id="SVGID_2_" d="M39.3,19.9v0.6c0,0.9-0.7,1.6-1.6,1.6v-0.6C38.6,21.5,39.3,20.8,39.3,19.9z"/>
					</defs>
					<clipPath id="SVGID_4_">
						<use xlink:href="#SVGID_2_"  style="overflow:visible;"/>
					</clipPath>
					<g class="st3">
						<path class="st2" d="M39.3,19.9v0.6c0,0.1,0,0.2,0,0.2v-0.6C39.3,20,39.3,19.9,39.3,19.9"/>
						<path class="st2" d="M39.3,20.1v0.6c0,0.1,0,0.2-0.1,0.3v-0.6C39.2,20.3,39.2,20.2,39.3,20.1"/>
						<path class="st2" d="M39.2,20.4V21c0,0.1-0.1,0.2-0.1,0.3v-0.6C39.1,20.5,39.2,20.5,39.2,20.4"/>
						<path class="st2" d="M39.1,20.6v0.6c-0.3,0.5-0.8,0.8-1.4,0.8v-0.6C38.3,21.5,38.8,21.1,39.1,20.6"/>
					</g>
				</g>
			</g>
			<g>
				<rect x="31.5" y="21.5" class="st2" width="6.2" height="0.6"/>
			</g>
			<g>
				<g>
					<path id="SVGID_3_" class="st2" d="M31.5,21.5V22c-0.9,0-1.6-0.7-1.6-1.6v-0.6C29.9,20.8,30.6,21.5,31.5,21.5z"/>
				</g>
				<g>
					<defs>
						<path id="SVGID_5_" d="M31.5,21.5V22c-0.9,0-1.6-0.7-1.6-1.6v-0.6C29.9,20.8,30.6,21.5,31.5,21.5z"/>
					</defs>
					<clipPath id="SVGID_6_">
						<use xlink:href="#SVGID_5_"  style="overflow:visible;"/>
					</clipPath>
					<g class="st4">
						<path class="st2" d="M31.6,21.5V22c-0.9,0-1.7-0.7-1.7-1.6v-0.6C29.9,20.8,30.6,21.5,31.6,21.5"/>
					</g>
				</g>
			</g>
		</g>
		<g class="st5">
			<path class="st6" d="M34.5,19.4c-1.3,0-2.1-1.1-2.1-2.5c0-1.6,0.9-2.6,2.1-2.6v-0.8h0.4v0.8c1,0,1.9,0.7,2,1.7h-1.1
				c-0.1-0.5-0.4-0.9-0.9-0.9v3.4c0.6-0.1,0.9-0.5,1-1.1h1.1c-0.2,1.2-0.9,1.9-2,1.9v0.8h-0.4V19.4z M34.5,15.2
				c-0.8,0.1-1.1,1-1.1,1.7c0,0.7,0.3,1.5,1.1,1.6V15.2z"/>
		</g>
	</g>
</g>
<g id="Layer_2">
</g>
</svg>
