<?xml version="1.0" encoding="utf-8"?>
<!-- Generator: Adobe Illustrator 19.1.0, SVG Export Plug-In . SVG Version: 6.00 Build 0)  -->
<svg version="1.1" xmlns="http://www.w3.org/2000/svg" xmlns:xlink="http://www.w3.org/1999/xlink" x="0px" y="0px" width="100px"
	 height="100px" viewBox="0 0 100 100" style="enable-background:new 0 0 100 100;" xml:space="preserve">
<style type="text/css">
	.st0{fill:#6B3A19;}
	.st1{fill:#F58536;}
	.st2{fill:#9D5025;}
	.st3{fill:#FBBF93;}
	.st4{fill:#FFFFFF;}
	.st5{fill:none;stroke:#7D7D7D;stroke-miterlimit:10;stroke-dasharray:2.1247;}
	.st6{clip-path:url(#SVGID_2_);enable-background:new    ;}
	.st7{clip-path:url(#SVGID_4_);enable-background:new    ;}
</style>
<g id="Layer_1">
	<g>
		<polygon class="st2" points="15.9,74.1 20.2,76.3 27.9,50 20.2,23.7 15.9,25.9 		"/>
		<polygon class="st1" points="28.7,25.7 20.2,23.7 20.2,76.3 28.7,74.3 		"/>
		<polygon class="st2" points="25.5,21.1 31.8,17.9 39.8,50 31.8,82.1 25.5,78.9 		"/>
		<polygon class="st1" points="44.9,77.8 31.8,82 31.8,17.9 44.9,22.1 		"/>
		<polygon class="st2" points="74.5,29.2 79.7,29.2 79.7,69.1 74.5,68.8 		"/>
		<polygon class="st0" points="54.3,29.7 60.1,26.7 79.3,29.2 79.9,34.3 74.6,35 		"/>
		<polygon class="st3" points="54.4,70.3 60.3,73.3 80.1,65.7 74.8,65 		"/>
		<polygon class="st2" points="55.9,61.8 66.4,63.2 66.4,36.8 55.9,38.2 		"/>
		<polygon class="st2" points="39.8,86.1 50,91.2 58.8,49.9 50,8.8 39.8,13.9 		"/>
		<path class="st1" d="M50,8.8v82.3l34.1-17.1V25.9L50,8.8z M79.7,65.8l-19.5,5.9V28.4l19.5,5.9V65.8z"/>
		<polygon class="st1" points="66.4,36.8 66.4,63.3 77.2,50 		"/>
	</g>
</g>
<g id="Layer_2">
</g>
</svg>
