<?xml version="1.0" encoding="utf-8"?>
<!-- Generator: Adobe Illustrator 19.1.0, SVG Export Plug-In . SVG Version: 6.00 Build 0)  -->
<svg version="1.1" id="Layer_1" xmlns="http://www.w3.org/2000/svg" xmlns:xlink="http://www.w3.org/1999/xlink" x="0px" y="0px" width="100px"
	 height="100px" 
	 viewBox="0 0 100 100" style="enable-background:new 0 0 100 100;" xml:space="preserve">
<style type="text/css">
	.st0{fill:#9D5025;}
	.st1{fill:#F58536;}
	.st2{enable-background:new    ;}
	.st3{fill:#FFFFFF;}
</style>
<g id="Layer_1_1_">
	<g>
		<path class="st0" d="M67.4,79.3H32.6c-5,0-9.1-4.1-9.1-9.1V35.4c0-5,4.1-9.1,9.1-9.1h34.8c5,0,9.1,4.1,9.1,9.1v34.8
			C76.5,75.2,72.4,79.3,67.4,79.3z"/>
		<path class="st1" d="M67.4,76.8H32.6c-5,0-9.1-4.1-9.1-9.1V32.9c0-5,4.1-9.1,9.1-9.1h34.8c5,0,9.1,4.1,9.1,9.1v34.8
			C76.5,72.7,72.4,76.8,67.4,76.8z"/>
	</g>
	<g class="st2">
		<path class="st3" d="M49.5,64.9c-7.6,0-12.1-6.4-12.1-14c0-8.8,5-14.5,12.1-14.5v-4.7h2.2v4.7c5.8,0,10.7,3.7,11.1,9.8h-6
			c-0.4-3-2.4-5.1-5.2-5.1v19.1c3.2-0.5,5-2.7,5.4-6.2h6c-1.2,6.6-4.9,10.9-11.4,10.9v4.7h-2.2V64.9z M49.5,41.1
			c-4.6,0.4-6.1,5.5-6.1,9.8c0,4.2,1.7,8.6,6.1,9.3V41.1z"/>
	</g>
</g>
<g id="Layer_2">
</g>
</svg>
