<?xml version="1.0" encoding="utf-8"?>
<!-- Generator: Adobe Illustrator 19.1.0, SVG Export Plug-In . SVG Version: 6.00 Build 0)  -->
<svg version="1.1" xmlns="http://www.w3.org/2000/svg" xmlns:xlink="http://www.w3.org/1999/xlink" x="0px" y="0px" width="100px"
	 height="100px" viewBox="0 0 100 100" style="enable-background:new 0 0 100 100;" xml:space="preserve">
<style type="text/css">
	.st0{fill:#6B3A19;}
	.st1{fill:#F58536;}
	.st2{fill:#9D5025;}
	.st3{fill:#FBBF93;}
	.st4{fill:#FFFFFF;}
	.st5{fill:none;stroke:#7D7D7D;stroke-miterlimit:10;stroke-dasharray:2.1247;}
	.st6{clip-path:url(#SVGID_2_);enable-background:new    ;}
	.st7{clip-path:url(#SVGID_4_);enable-background:new    ;}
</style>
<g id="Layer_1">
	<polygon class="st2" points="19.3,24.2 15.9,25.9 15.9,74.1 19.3,75.8 33.2,51.3 	"/>
	<polygon class="st1" points="27.3,74 19.3,75.8 19.3,24.2 27.3,26 	"/>
	<polygon class="st2" points="23.1,22.3 27.3,20.2 47.3,52.2 27.3,79.8 23.1,77.7 	"/>
	<polygon class="st1" points="37.2,77 27.3,79.8 27.3,20.2 37.2,23 	"/>
	<polygon class="st2" points="32,17.8 37.2,15.2 66.7,55.7 37.2,84.8 32,82.2 	"/>
	<polygon class="st1" points="50,80.1 37.2,84.8 37.2,15.2 50,19.9 	"/>
	<polygon class="st2" points="43.2,12.2 50,8.8 81.8,52.3 50,91.2 43.2,87.8 	"/>
	<polygon class="st1" points="84.1,74.1 50,91.2 50,8.8 84.1,25.9 	"/>
</g>
<g id="Layer_2">
</g>
</svg>
