<?xml version="1.0" encoding="utf-8"?>
<!-- Generator: Adobe Illustrator 19.1.0, SVG Export Plug-In . SVG Version: 6.00 Build 0)  -->
<svg version="1.1" xmlns="http://www.w3.org/2000/svg" xmlns:xlink="http://www.w3.org/1999/xlink" x="0px" y="0px" width="100px"
	 height="100px" viewBox="0 0 100 100" style="enable-background:new 0 0 100 100;" xml:space="preserve">
<style type="text/css">
	.st0{fill:#6B3A19;}
	.st1{fill:#F58536;}
	.st2{fill:#9D5025;}
	.st3{fill:#FBBF93;}
	.st4{fill:#FFFFFF;}
	.st5{fill:none;stroke:#7D7D7D;stroke-miterlimit:10;stroke-dasharray:2.1247;}
	.st6{clip-path:url(#SVGID_2_);enable-background:new    ;}
	.st7{clip-path:url(#SVGID_4_);enable-background:new    ;}
</style>
<g id="Layer_1">
	<path class="st0" d="M51,32.1C51,39.3,45.2,45,38,45s-12.9-5.8-12.9-12.9l0-2.5L38,19.2L51,29.7L51,32.1z"/>
	<path class="st0" d="M48.7,51.8c-0.1,0.1-0.2,0.1-0.3,0.1c-0.4,0-1.3-0.8-1.4-1.2c-0.2-0.5,0.3-2.4,0.8-2.6
		C48,48,64.6,42,73.4,27.8v-2.5c0,0-16.2,6.6-20.2,8.9c0,0.3,0,0.6,0,0.9c0,5.4-3.5,10.1-8.3,11.9c-0.4,1.9,0.2,3.9-0.8,6.1v29.4h9
		V52.9c7-0.6,14.4-2,17-4.7c2.9-2.9,4.1-11.4,4.7-17.3v-2.5c0,0-2.7,6.4-3,6.8C62.4,47,49.4,51.5,48.7,51.8z"/>
	<circle class="st1" cx="38" cy="29.7" r="12.9"/>
	<g>
		<path class="st4" d="M34.7,39.9h6.6V27.3H46l-8-7.9l-8,7.9h4.7V39.9z M32.2,26.4l5.8-5.7l5.8,5.7h-3.4V39h-4.8V26.4H32.2z"/>
	</g>
	<path class="st1" d="M48.7,49.3c-0.1,0.1-0.2,0.1-0.3,0.1c-0.4,0-1.3-0.8-1.4-1.2c-0.2-0.5,0.3-2.4,0.8-2.6
		c0.2-0.1,16.8-6.1,25.6-20.3c-6,0.8-15.1,3.4-20.2,6.4c0,0.3,0,0.6,0,0.9c0,5.4-3.5,10.1-8.3,11.9c-0.4,1.9,0.2,3.9-0.8,6.1V80h9
		V50.4c7-0.6,14.4-2,17-4.7c2.9-2.9,4.1-11.4,4.7-17.3C65.5,43.5,49.4,49,48.7,49.3z"/>
</g>
<g id="Layer_2">
</g>
</svg>
