<?xml version="1.0" encoding="utf-8"?>
<!-- Generator: Adobe Illustrator 19.1.0, SVG Export Plug-In . SVG Version: 6.00 Build 0)  -->
<svg version="1.1" xmlns="http://www.w3.org/2000/svg" xmlns:xlink="http://www.w3.org/1999/xlink" x="0px" y="0px" width="100px"
	 height="100px" 
	 viewBox="0 0 100 100" style="enable-background:new 0 0 100 100;" xml:space="preserve">
<style type="text/css">
	.st0{fill:#6B3A19;}
	.st1{fill:#F58536;}
	.st2{fill:#9D5025;}
	.st3{fill:#FBBF93;}
	.st4{fill:#FFFFFF;}
	.st5{fill:none;stroke:#7D7D7D;stroke-miterlimit:10;stroke-dasharray:2.1247;}
	.st6{clip-path:url(#SVGID_2_);enable-background:new    ;}
	.st7{clip-path:url(#SVGID_4_);enable-background:new    ;}
	.st8{fill:#F58435;}
</style>
<g id="Layer_1">
	<g>
		<polygon class="st2" points="59,69.6 59,59.1 54.6,54.7 51.6,51.7 54.6,48.8 59,44.3 59,33.8 59,33.6 64.3,33.6 64.3,30.2 
			50,20.4 35.7,30.2 35.7,33.6 41,33.6 41,33.8 41,44.3 45.4,48.8 48.4,51.7 45.4,54.7 41,59.1 41,69.6 35.7,66.4 35.7,69.8 
			50,84.1 64.3,69.8 64.3,66.4 		"/>
		<polygon class="st2" points="41.7,51.7 41.7,48.3 27.4,44.3 14.4,44.3 14.4,59.1 27.4,59.1 27.4,66 		"/>
		<polygon class="st2" points="85.6,44.3 72.6,44.3 58.3,48.3 58.3,51.7 72.6,66 72.6,59.1 85.6,59.1 		"/>
		<polygon class="st8" points="59,66.2 59,55.7 54.6,51.2 51.6,48.3 54.6,45.3 59,40.9 59,30.4 59,30.2 64.3,30.2 50,15.9 
			35.7,30.2 41,30.2 41,30.4 41,40.9 45.4,45.3 48.4,48.3 45.4,51.2 41,55.7 41,66.2 41,66.4 35.7,66.4 50,80.7 64.3,66.4 59,66.4 
					"/>
		<polygon class="st8" points="41.7,48.3 27.4,34 27.4,40.9 14.4,40.9 14.4,55.7 27.4,55.7 27.4,62.6 		"/>
		<polygon class="st8" points="85.6,40.9 72.6,40.9 72.6,34 58.3,48.3 72.6,62.6 72.6,55.7 85.6,55.7 		"/>
	</g>
</g>
<g id="Layer_2">
</g>
</svg>
