<?xml version="1.0" encoding="utf-8"?>
<!-- Generator: Adobe Illustrator 19.1.0, SVG Export Plug-In . SVG Version: 6.00 Build 0)  -->
<svg version="1.1" xmlns="http://www.w3.org/2000/svg" xmlns:xlink="http://www.w3.org/1999/xlink" x="0px" y="0px" width="100px"
	 height="100px" viewBox="0 0 100 100" style="enable-background:new 0 0 100 100;" xml:space="preserve">
<style type="text/css">
	.st0{fill:#6B3A19;}
	.st1{fill:#F58536;}
	.st2{fill:#9D5025;}
	.st3{fill:#FBBF93;}
	.st4{fill:#FFFFFF;}
	.st5{fill:none;stroke:#7D7D7D;stroke-miterlimit:10;stroke-dasharray:2.1247;}
	.st6{clip-path:url(#SVGID_2_);enable-background:new    ;}
	.st7{clip-path:url(#SVGID_4_);enable-background:new    ;}
</style>
<g id="Layer_1">
	<g>
		<path class="st2" d="M61.6,42.9l16.2,6l0.2,0.1l5.8-0.3v2.5l-5.6,2.1l-0.3,0.1l-0.2,0.1l-16.2,6v-6H30.8c-1,3-3.8,5.2-7.2,5.2
			c-4.2,0-7.6-3.4-7.6-7.5v-2.5L30.8,49h30.8V42.9z"/>
	</g>
	<g>
		<path class="st1" d="M61.6,40.4l16.2,6l0.2,0.1l0.3,0.1l5.6,2.1l-5.6,2.1l-0.3,0.1L77.9,51l-16.2,6v-6H30.8c-1,3-3.8,5.2-7.2,5.2
			c-4.2,0-7.6-3.4-7.6-7.5s3.4-7.5,7.6-7.5c3.4,0,6.2,2.2,7.2,5.2h30.8V40.4z"/>
	</g>
</g>
<g id="Layer_2">
</g>
</svg>
