<?xml version="1.0" encoding="utf-8"?>
<!-- Generator: Adobe Illustrator 19.1.0, SVG Export Plug-In . SVG Version: 6.00 Build 0)  -->
<svg version="1.1" xmlns="http://www.w3.org/2000/svg" xmlns:xlink="http://www.w3.org/1999/xlink" x="0px" y="0px" width="100px"
	 height="100px" viewBox="0 0 100 100" style="enable-background:new 0 0 100 100;" xml:space="preserve">
<style type="text/css">
	.st0{fill:#6B3A19;}
	.st1{fill:#F58536;}
	.st2{fill:#9D5025;}
	.st3{fill:#FBBF93;}
	.st4{fill:#FFFFFF;}
	.st5{fill:none;stroke:#7D7D7D;stroke-miterlimit:10;stroke-dasharray:2.1247;}
	.st6{clip-path:url(#SVGID_2_);enable-background:new    ;}
	.st7{clip-path:url(#SVGID_4_);enable-background:new    ;}
</style>
<g id="Layer_1">
	<g>
		<path class="st0" d="M39.3,48c0.6-0.2,11.8-4.1,20.9-14.1c1.5-1.6,5.1-9.3,5.1-9.3v2.5c-0.6,6-1.9,14.5-4.8,17.3
			c-2.7,2.6-9.7,4.1-17.3,4.7v29.3h-8.5V49.2c0.6-6.7,1.1-12.1,6.9-17.3c3.5-3.2,22.3-10.4,22.3-10.4V24
			c-8.8,14.2-25.4,20.2-25.6,20.3c-0.5,0.2-1,2.1-0.8,2.6c0.1,0.4,1,1.2,1.4,1.2C39.1,48,39.2,48,39.3,48z"/>
	</g>
	<g>
		<path class="st1" d="M39.3,45.5c0.7-0.2,16.7-5.8,26-20.9c-0.6,6-1.9,14.5-4.8,17.3c-2.7,2.6-9.7,4.1-17.3,4.7v29.3h-8.5V46.7
			c0.6-6.7,1.1-12.1,6.9-17.3c4.1-3.7,15.3-7,22.3-7.9c-8.8,14.2-25.4,20.2-25.6,20.3c-0.5,0.2-1,2.1-0.8,2.6c0.1,0.4,1,1.2,1.4,1.2
			C39.1,45.5,39.2,45.5,39.3,45.5z"/>
	</g>
</g>
<g id="Layer_2">
</g>
</svg>
