<?xml version="1.0" encoding="utf-8"?>
<!-- Generator: Adobe Illustrator 19.1.0, SVG Export Plug-In . SVG Version: 6.00 Build 0)  -->
<svg version="1.1" xmlns="http://www.w3.org/2000/svg" xmlns:xlink="http://www.w3.org/1999/xlink" x="0px" y="0px" width="100px"
	 height="100px" viewBox="0 0 100 100" style="enable-background:new 0 0 100 100;" xml:space="preserve">
<style type="text/css">
	.st0{fill:#6B3A19;}
	.st1{fill:#F58536;}
	.st2{fill:#9D5025;}
	.st3{fill:#FBBF93;}
	.st4{fill:#FFFFFF;}
	.st5{fill:none;stroke:#7D7D7D;stroke-miterlimit:10;stroke-dasharray:2.1247;}
	.st6{clip-path:url(#SVGID_2_);enable-background:new    ;}
	.st7{clip-path:url(#SVGID_4_);enable-background:new    ;}
</style>
<g id="Layer_1">
	<polygon class="st2" points="39.8,13.9 39.8,50 35.6,50 35.6,84 50,91.2 58.7,50 50,8.8 	"/>
	<polygon class="st1" points="50,8.8 50,50 50,91.2 60.2,86.1 60.2,50 64.4,50 64.4,16 	"/>
	<polygon class="st0" points="79.7,39.5 61.5,41.2 55.5,40.5 74.5,21.1 	"/>
	<polygon class="st1" points="74.5,21.1 79.7,23.7 79.7,39.5 74.5,38.4 	"/>
	<polygon class="st2" points="55.5,40.5 74.5,38.4 74.5,21.1 55.5,26.2 	"/>
	<polygon class="st3" points="20.3,60.5 38.5,58.8 44.5,59.5 25.5,78.9 	"/>
	<polygon class="st2" points="25.5,78.9 20.3,76.3 20.3,60.5 25.5,61.6 	"/>
	<polygon class="st1" points="44.5,59.5 25.5,61.6 25.5,78.9 44.5,73.8 	"/>
</g>
<g id="Layer_2">
</g>
</svg>
