<?xml version="1.0" encoding="UTF-8" standalone="no"?>
<!-- Created with Inkscape (http://www.inkscape.org/) -->

<svg
   xmlns:dc="http://purl.org/dc/elements/1.1/"
   xmlns:cc="http://creativecommons.org/ns#"
   xmlns:rdf="http://www.w3.org/1999/02/22-rdf-syntax-ns#"
   xmlns:svg="http://www.w3.org/2000/svg"
   xmlns="http://www.w3.org/2000/svg"
   xmlns:sodipodi="http://sodipodi.sourceforge.net/DTD/sodipodi-0.dtd"
   xmlns:inkscape="http://www.inkscape.org/namespaces/inkscape"
   id="svg2"
   sodipodi:docname="bellerophon.svg"
   viewBox="0 0 585.99999 585.99998"
   version="1.1"
   inkscape:version="0.91 r13725"
   width="586"
   height="586">
  <defs
     id="defs6210" />
  <sodipodi:namedview
     id="base"
     bordercolor="#666666"
     inkscape:pageshadow="2"
     inkscape:window-y="1"
     pagecolor="#ffffff"
     inkscape:window-height="1001"
     inkscape:window-maximized="1"
     inkscape:zoom="0.5"
     inkscape:window-x="0"
     showgrid="false"
     borderopacity="1.0"
     inkscape:current-layer="layer1"
     inkscape:cx="165.5901"
     inkscape:cy="296.75036"
     showguides="true"
     inkscape:guide-bbox="true"
     inkscape:window-width="1680"
     inkscape:pageopacity="0.0"
     inkscape:document-units="px"
     fit-margin-top="0"
     fit-margin-left="0"
     fit-margin-right="0"
     fit-margin-bottom="0">
    <inkscape:grid
       id="grid2816"
       enabled="true"
       visible="true"
       snapvisiblegridlinesonly="true"
       type="xygrid"
       empspacing="5"
       originx="-237"
       originy="-56.999979" />
  </sodipodi:namedview>
  <g
     id="layer1"
     inkscape:label="Layer 1"
     transform="translate(-237,-409.36005)"
     inkscape:groupmode="layer">
    <g
       inkscape:groupmode="layer"
       id="layer3"
       inkscape:label="Layer 2">
      <circle
         style="opacity:1;fill:#0000ff;fill-opacity:1;stroke:#ff990a;stroke-width:30;stroke-miterlimit:11.60000038;stroke-dasharray:none;stroke-opacity:1"
         id="path6213"
         cx="530"
         cy="702.36005"
         r="278" />
    </g>
    <g
       id="g3947"
       style="fill:#e6e6e6;fill-opacity:1"
       transform="translate(299.81,158.39)">
      <path
         id="path5231"
         style="fill:#e6e6e6;fill-opacity:1"
         d="m 188.75,345.57 -4.72,8.69 2.85,3.65 -1.41,23.38 -14.72,7.9 0.22,0.78 -22.4,16.47 -44.88,-26 -0.16,-4.94 -3.15,0 0.19,7.41 -0.5,0.81 0.5,0.28 0.71,30.57 -0.53,-0.35 -15.84,23.04 -3.94,-0.54 -0.5,1.94 7.97,1.31 0.19,0.13 0.06,-0.06 5.88,0.96 c -1.84,8.15 -3.54,15.47 -3.54,15.47 l 1.32,0.29 0,2.46 3.4,-0.18 -50.4,43.31 -1.66,-1.35 c 0,0 -0.69,13.93 -0.69,13.29 0,-0.65 -5.69,-12.32 -5.69,-12.32 0,0 -6.31,11.38 -12.03,12 -17.94,1.96 -26.32,0.62 -31.59,10.53 20.22,-9.77 27.7,1.61 33.09,1.29 5.24,-0.32 15.22,-3.88 15.22,-3.88 -9.44,33.79 -18.3,37.95 -27.34,51.5 l -16.44,6 0.69,0.28 -3.03,-0.37 -0.35,1.94 35.82,4.37 c 0.09,1.61 0.2,3.25 0.28,4.87 0.15,3.05 0.26,5.81 0.34,8.1 l -4.34,0 -1.03,-1.97 -5.03,-0.97 0.31,-6.22 -1.69,0.97 0,-2.28 -2,0.34 0,1.94 -1.03,0 0,3.28 -2.38,-1 -0.31,4.6 -3.22,0.34 0,-1.66 1.72,-2.93 -4.59,-6.22 -2.38,1.65 -0.31,-2.93 -1.38,-1.04 0,2.32 -2.68,2.28 5.06,6.25 0.69,6.41 7.75,1.28 11.34,27.62 13.38,7.41 -10.54,3.69 c 7.58,14.97 8.35,28.16 5.76,34.53 l 323.9,-5.85 c 0,0 3.59,-13.48 7.6,-23.87 20.6,-9.39 42.02,-16.66 65.4,-54.03 l 0.1,1.68 2.53,0.54 -0.13,-4.79 40.22,-38.93 -0.78,-0.75 1.22,-1.32 7.09,-3.43 -5.75,2 0.34,-0.38 -152.43,-133.56 -4.85,-12.38 5.44,1.38 0,-2.53 -20.34,-7.57 -2.35,-27.24 -2.62,0.21 1.19,26.35 -17.5,-3.91 -0.47,2.31 c 0,0 8.28,1.59 8.28,2.5 0,0.73 -0.63,10.57 -0.94,15.28 -3.61,1.63 -7.12,3.26 -10.59,4.88 l -68.32,-38.44 2.04,-0.5 0,-3.65 -23.16,9.15 0.47,-21.06 2.84,-4.59 -4.75,-8.22 z m 21.22,33.43 64.47,36.26 c -4.8,2.21 -9.68,4.44 -14.94,6.65 l -39.19,-19 -0.21,-2.62 -2.79,1.18 -1.46,-0.71 -0.88,1.68 -2.5,1.06 -2.5,-24.5 z m -106.16,6.91 40.69,23.5 -27.62,20.31 -12.28,-16.96 -0.79,-26.85 z m 71.94,6.28 -2.59,21.16 12.78,-5.03 -0.47,5.94 -15.12,4.78 -17.41,-10.07 22.81,-16.78 z m 24.88,11.38 c 2.49,0.04 4.81,0.97 7.06,1.93 l -16.03,6.76 -0.66,-7.13 7.69,-1.41 c 0.66,-0.12 1.3,-0.16 1.94,-0.15 z m 16.62,3.03 36.47,17.66 c -9.6,3.81 -20.65,7.62 -34.62,11.43 -2.34,-7.93 -3.77,-17.24 -1.85,-29.09 z m 79.53,3.72 c 1.67,0.01 3.61,0.28 5.97,0.97 l 0,11 -12.9,-3.66 -5.28,-2.97 c 3.78,-1.75 7.6,-3.5 11.59,-5.25 l -0.03,-0.06 c 0.22,-0.01 0.42,-0.03 0.65,-0.03 z m 10.69,1.18 c 4.64,0.19 8.56,1.51 12.03,3.5 l -0.31,0.35 151.66,132.87 -2,1.94 -8.04,2.78 C 423.41,523.28 387.04,497.2 348.53,463.82 l 2.94,0.15 -0.72,-2.31 -7.31,-1.03 -9.94,-11.56 -8.28,-18.31 8.5,1.59 0,-2.5 -26,-6.44 -0.25,-11.91 z m -158.59,0.47 17.12,9.88 -0.43,2.72 3.78,-0.78 0.78,0.47 -8.22,43.37 -7.03,2.28 -0.25,1.75 c -16.3,0.51 -24.87,-1.86 -30.6,-5.06 -5.4,-3.02 -8.53,-7.06 -13.31,-10.72 l 0,-0.06 -0.37,-0.19 c -0.53,-0.4 -1.05,-0.8 -1.63,-1.19 l -0.15,0.22 -4.19,-2.25 0.15,-9.72 0.94,1.19 1.41,-1.03 15.28,2.12 0.65,0.94 1.1,-0.72 5.37,0.75 0.19,-2.09 -2.81,-0.41 0.09,-0.06 -7.15,-9.88 29.28,-21.53 z m 130.5,6.07 13.15,7.4 -1.96,11.5 L 265,424.57 c 5.02,-2.17 9.72,-4.37 14.38,-6.53 z m -174.6,1.43 8.69,12.75 -8.16,6 -0.53,-18.75 z m 154.5,7.47 30.47,14.75 -0.56,3.25 -11.22,9.69 -9.75,-0.06 0,2.75 6.5,0.12 -18.03,15.6 -32.16,-17.28 c 0.17,-1.21 0.34,-2.42 0.57,-3.66 l 4.34,-1.94 -0.66,-3.9 -5.31,1.87 c -0.96,-2.59 -1.98,-5.24 -2.97,-8.09 15.95,-4.36 28.19,-8.74 38.78,-13.1 z m -161.62,0.03 c -0.7,3.24 -1.47,6.78 -2.28,10.41 -0.1,0.44 -0.19,0.75 -0.28,1.19 l -4.97,-0.63 7.53,-10.97 z m 4,3.66 0.22,8.84 -2.07,-0.28 c 0.1,-0.42 0.1,-0.41 0.19,-0.84 0.61,-2.74 1.1,-5.13 1.66,-7.72 z m 14.44,5.44 4.4,6.47 -10.97,-1.63 6.57,-4.84 z m -16.88,5.69 1.81,0.31 0,10.03 -4.46,1.34 c 0.49,-2.17 1.36,-5.99 2.65,-11.68 z M 313.35,443 c 3.94,0.28 7.52,1.02 10.72,2.26 l 12.4,14.4 L 322,457.63 313.35,443 Z m -111.54,0.57 c 6.61,0 13.04,3.41 19.22,5.4 l -5.56,1.94 -13.66,-7.34 z m 101.88,0 0.47,11.25 -19.09,-0.13 11.53,-10 7.09,-1.12 z m 5.12,0.9 7.29,12.35 -6.25,-0.88 -1.04,-11.47 z m -113.46,0.91 14.18,7.62 -3.18,1.13 -11.28,-8.5 0.28,-0.25 z m -2.69,4.22 8.44,6.37 -8.44,2.94 0,-9.31 z m -8.35,2.19 0.32,8.4 -19.1,6.25 c 6.2,-6.86 12.92,-13.72 18.78,-14.65 z m -86.24,7.12 0.12,0 -0.06,0.06 -0.06,-0.06 z m 9.18,0.19 c 4.49,3.36 7.89,7.83 14.41,11.47 6.62,3.7 21.75,6.79 39.28,6.37 L 148.91,544.6 133.5,514.76 c 3.63,-1.2 7.1,-2.49 10.44,-3.07 l -0.25,-1.25 1.16,0.13 0,-1.94 -1.35,-0.16 0.57,-0.4 -36.82,-48.97 z m 171.13,1.37 c -0.06,8.07 0.02,16.08 -0.1,24.16 l -17.18,-9.22 17.28,-14.94 z m -54.38,0.29 28.94,15.53 -8,6.9 -21.06,-15.87 c -0.05,-2.14 -0.03,-4.32 0.12,-6.56 z m 120.13,2.87 3.15,0.13 c 18.97,31.03 41.82,47.08 46,88.03 l -43.71,-50 -7.63,-36.38 2.19,-1.78 z m -245.78,2.66 0.22,12.78 -4.38,23.43 -22.28,-2.74 26.44,-33.47 z m 6.78,3.68 18.65,36.16 -19.03,-2.25 c -0.28,-0.34 -0.55,-0.67 -0.84,-1.03 l -0.22,-0.28 -0.59,-21.85 2.03,-10.75 z m -17.16,1.88 -21.5,27.22 -0.78,-0.1 c -0.6,-0.39 -1.2,-0.76 -1.81,-1.15 l -0.6,0.87 -2.21,-0.28 -0.66,2.28 1.37,0.22 -0.5,0.72 c 5.21,3.29 10.43,7.48 17.16,9.37 4.15,1.17 8.86,1.24 14.19,-0.24 l -3.75,20.06 -1.88,0 1.41,2.5 -0.06,0.34 0.28,0.06 1.03,1.78 3.69,0.16 2.68,3.25 0,4.85 L 49,505.35 87.97,471.85 Z m 136.31,1.56 12.66,9.53 c -0.66,9.4 -1.49,17.46 -2.44,24.25 -4.47,-10.6 -8.85,-21.38 -10.22,-33.78 z m -62.71,0.06 -0.13,0.72 -0.72,-0.56 0.85,-0.16 z m -49.29,0.13 25.75,34.22 -8.62,-1.03 -17.13,-33.19 z m 145.07,5.03 20.84,11.19 c -0.18,5.97 -0.53,11.99 -1.22,18.12 l -28.75,-21.4 9.13,-7.91 z m -186.66,23.59 22.91,3.41 -0.03,0.19 c -5.5,2.01 -9.85,1.92 -13.79,0.81 -3.16,-0.89 -6.11,-2.53 -9.09,-4.41 z m 28.34,0.25 0,0.63 -0.12,0 0.12,-0.63 z m 8.16,4.07 17.78,1.9 1.78,3.47 c -1.22,0.31 -2.41,0.55 -3.59,0.69 -5.19,0.61 -10.17,-0.28 -15.97,-6.06 z m -6.53,0.96 -0.28,5.82 -3.44,0.12 0.84,-4.53 c 0.94,-0.41 1.9,-0.9 2.88,-1.41 z m 29.91,1.54 4,0.43 c -1.1,0.37 -2.16,0.72 -3.22,1.07 l -0.78,-1.5 z m 206.21,0.06 7.07,23 -29.78,0.31 0,-6.78 5.68,0 0.35,-6.16 -4.03,-0.31 -0.66,-9.75 21.37,-0.31 z m -232.9,0.56 c 6.76,6.55 13.58,8.24 19.84,7.5 1.79,-0.21 3.52,-0.58 5.22,-1.03 l 16.81,32.59 -2.15,0.57 -0.19,-0.25 -0.69,0.5 -0.22,0.06 -0.03,0.12 -9.03,6.6 -28.31,-20.94 2.78,-0.41 0.22,-4.59 -2.38,0 -0.68,-17.19 -1.19,0.25 0,-3.78 z m 194.62,5.84 -0.97,9.16 9.22,0.22 0,7.78 -30.06,0.19 c 9.1,-12.84 14.91,-13.64 21.81,-17.35 z m -34.75,1.32 c 4.36,-0.04 8.89,0.1 13.47,0.28 l -2.19,15.75 -11.78,0.06 -0.22,4.13 15.85,0.22 c 8.72,17.28 7.57,40.76 7.65,55.87 6.26,-4.02 18.16,-6.12 23.78,-7.09 l 0.6,10.65 -3.06,0.44 0,3.91 -2.63,0 -0.22,-2.54 -2.87,0 0,-6.24 -3.1,-0.26 0.22,6.04 -2.15,0.46 -0.22,-3.93 -2.88,0.47 -3.81,10.18 -1.69,0 -0.47,-6.72 -2.62,0 -2.88,4.41 -11.46,0 0,-2.34 1.9,0.25 0.25,-3 -1.94,0.22 0.5,-2.57 -2.62,-0.21 0.25,7.4 -7.19,0.25 -0.25,-4.87 -2.62,0.22 0.46,2.31 -2.84,-0.44 -0.25,1.81 -21.5,-0.44 c 0,0 -7.39,-7.17 -8.34,-7.4 -0.96,-0.23 -0.97,3.25 -0.97,3.25 l 4.31,3 -8.62,-0.69 c 0,0 -0.22,1.14 -0.22,2.06 0,0.93 3.84,3.25 3.84,3.25 l 0,1.16 -3.12,0 0,1.59 -4.07,0.28 0.22,6.22 -18.12,-0.22 0,-6.28 -1.94,0.28 0,-4.87 -2.88,-0.22 -0.21,-2.09 -0.75,0.06 0,-10.47 c 43.53,-9.8 45.81,-0.19 60.53,3.56 l -7.69,-61.87 5.34,-0.31 -1.34,-5.85 -8.75,1.88 c -0.82,-2.7 -1.78,-5.37 -2.78,-8 6.81,-2.17 15.11,-2.93 24.09,-3 z m -167.47,0.06 0.41,13.94 -3,0 2.59,-13.94 z m 114.19,8.62 c 9.37,-0.13 16.76,2.13 23.97,4.04 l -37.75,8.06 -1,-10.03 c 5.49,-1.4 10.35,-2 14.78,-2.07 z m -28.5,5.32 0,8.09 -29.72,8.06 c 8.01,-5.74 13.83,-11.93 29.72,-16.15 z m -79.56,8.31 27.12,20.06 -27.09,19.81 c -0.36,-13.28 -0.69,-31.43 -0.69,-31.43 l 2.13,-0.94 0,-4.34 -2.13,-0.22 0.66,-2.94 z m 44.97,13.06 -5.69,10.22 -4.31,-3.19 8.87,-6.5 -0.25,-0.31 1.38,-0.22 z m 301.87,1.41 c 2.86,-0.02 5.84,0.08 8.91,0.28 l -25.38,9.91 -0.47,-1.13 -22.21,8.69 -5.66,-8 c 12.83,-5.45 26.84,-9.64 44.81,-9.75 z m 15.85,0.19 -30.79,29.81 -0.46,-17.13 25.43,-9.87 5.82,-2.81 z m -106.07,2.03 c 25.65,0.04 40.57,10.11 49.28,16.22 l -21.84,8.53 -26.94,-15.44 -0.5,-9.31 z m -207.9,2.81 c -0.11,0.89 -0.19,1.84 -0.25,2.94 -0.11,1.75 -0.01,4.57 0.25,7.84 l -2.94,-2.19 c 0.7,-2.03 1.45,-4.15 2.06,-5.93 0.36,-1.05 0.56,-1.72 0.88,-2.66 z m -17.69,3.44 6,4.43 -20.47,36.76 -3.19,-0.13 0,-2.31 -3.09,0 -0.47,1.84 -1.44,0.47 -0.47,-3 -3.37,0.22 0,2.78 -2.34,0 -0.25,-6.25 2.37,0.47 0,-4.19 -2.65,0.22 0.28,-3.44 -1.54,0.19 c -0.07,-1.37 -0.17,-3.17 -0.24,-5.5 l 30.87,-22.56 z m 297.47,7.87 0.78,16.19 -2.94,2.84 -0.18,0.22 -0.16,0.25 c -21.36,34.49 -39.86,42.33 -59.19,50.91 0.41,-0.83 0.82,-1.61 1.22,-2.28 5.24,-8.84 18.16,-20.38 18.16,-20.38 l 1.43,-3.28 0.04,0 c 0.29,-0.67 1.7,-2 3.96,-3.62 2.27,-1.63 5.23,-3.66 8.22,-6.44 5.8,-5.4 11.57,-13.82 13,-27.94 l 15.66,-6.47 z m -71.1,0.66 21.13,12.12 -1.91,0.75 -0.22,3.22 -17.78,6.88 -1.22,-22.97 z m -213.21,1.19 4.84,3.59 0.22,-0.28 c 1.09,10.74 2.87,23.09 2.87,23.09 5.43,-3 16.6,-5.32 29.1,-7.47 l -0.22,11 -0.03,0 -1.66,3.25 -4.78,0.25 -0.22,-2.56 -1.91,-2.78 -2.4,0.25 2.4,4.59 -11.46,-0.22 -0.5,-1.59 -1.41,0.22 0,-3 -5.03,0 0,2.31 -3.13,2.28 -18.09,-0.78 c 1.89,-5.23 4.61,-12.86 7.97,-22.34 1.17,-3.31 2.32,-6.61 3.44,-9.81 z m -5.47,1.34 c -0.86,2.44 -1.56,4.49 -2.44,6.97 -3.74,10.57 -6.73,18.92 -8.44,23.66 l -6,-0.29 16.88,-30.34 z m -123.5,3.63 c 4.36,0.52 8.75,0.96 13.12,1.37 0.09,0.8 0.18,1.54 0.25,2.47 0.08,0.94 0.15,2 0.22,3.03 L 5.6,580.5 17.63,576.76 Z m 392.62,1.74 c -1.69,11.52 -6.43,18.06 -11.28,22.57 -1.6,1.49 -3.2,2.7 -4.75,3.84 l 0.09,-0.19 2.88,-12.03 c 0.44,-4.6 -1.68,-3.04 -2.88,-3.69 l -5.71,5.57 -8.63,3.69 0.19,-7.29 30.09,-12.47 z m -374.68,0.07 c 3.13,0.28 6.26,0.56 9.4,0.84 l 0.13,5.91 -9.1,-1.1 c -0.09,-1.37 -0.18,-2.74 -0.28,-4 -0.05,-0.61 -0.1,-1.09 -0.15,-1.65 z m 14.09,1.31 c 14.68,1.39 29.32,3.18 43.69,7.28 l 0.06,2.03 -1.28,-0.4 -5.38,0 0,1.62 -36.94,-4.5 -0.15,-6.03 z m 277.84,4.78 c 14.94,0.05 24.7,3.82 31.91,9.53 l -15.97,6.16 0.47,-7.19 -3.56,0.5 0.25,6.91 -5.03,2.78 0.21,-5.78 -6.65,0 -0.25,1.62 2.62,2.31 c 0,0 0.02,1.62 -0.22,3 -0.24,1.39 -2.87,0.94 -2.87,0.94 l -2.63,-6.5 -3.81,0 -0.28,1.41 -4.03,1.37 -0.25,-6 -1.94,0.28 -0.19,-10.65 c 4.43,-0.48 8.49,-0.7 12.22,-0.69 z m -291.37,1.53 9.03,1.13 0.15,7.34 -0.78,-0.31 -1.68,-2.63 -3.38,3.63 0.31,3.25 -3.06,0 c -0.08,-2.32 -0.22,-5.15 -0.37,-8.28 -0.07,-1.36 -0.14,-2.76 -0.22,-4.13 z m 13.72,1.69 36.9,4.5 c 0,0 0.66,9.5 0.66,10.81 0,1.31 -4.72,-1.31 -4.72,-1.31 l -0.34,-7.84 -1.69,0.65 0,2.6 -2.03,0.34 -0.32,3.59 -11.15,0 -0.35,-3.59 -6.06,0.63 0.32,-2.6 -2.35,-0.66 0,2.63 -5.06,0.31 0,-2.94 -1.72,0.35 0,1.94 -1.84,0.15 -0.25,-9.56 z m 326.9,4.66 0.19,6.25 -6.94,1.62 0.16,-2.62 -3.19,0.15 0.34,-2.47 9.44,-2.93 z m -123.9,14.06 0.25,6.25 -9.22,0.22 -0.13,-6.38 9.1,-0.09 z m -11.47,0.09 0,6.5 -8.38,0.1 0,-5.79 8.38,-0.81 z m 14.06,0 8.87,0.35 0.13,5.46 -8.87,0.1 -0.13,-5.91 z m 10.87,0.13 7.13,0.22 0.47,4.65 -7.34,0.47 -0.26,-5.34 z m -245.71,3.15 21.09,0.97 -4.72,3.41 -14.69,-0.81 -1.68,-3.57 z m 29.78,0.82 2.34,0 1.66,5.34 -4.85,0.16 0.85,-5.5 z m -1.5,0.15 -1.35,5 -6.84,0 8.19,-5 z m 5.15,0.19 9.72,5.31 -7.72,-0.15 -2,-5.16 z m 9.22,1.59 27.41,1.63 0,2.94 -22.56,-1.35 -4.85,-3.22 z m -5.53,5.04 5.19,0.15 0,7.28 -4.84,0 -0.35,-7.43 z m -16.15,0.31 5.62,0.15 0.5,6.5 -5.5,0 -0.62,-6.65 z m 12.65,0.19 0.31,6.59 -4,0.34 -0.37,-6.84 4.06,-0.09 z m 288.53,9.18 0.1,7.35 c 0,0 -15.19,2.55 -15.19,2.09 0,-0.46 0.15,-7.34 0.15,-7.34 l 14.94,-2.1 z m -26.4,3.94 0.12,6.88 -16.31,1.59 0,-6.41 16.19,-2.06 z m -28.16,2.88 -0.09,6.28 -13.6,0.68 -0.25,-6.62 13.94,-0.34 z m -26.59,0.9 -0.13,6.63 -13.12,0.59 0.12,-6.88 13.13,-0.34 z m -137.16,0.69 0.13,6.41 -5.91,0.21 0.22,-6.5 5.56,-0.12 z m 13.25,0.34 0.12,6.41 -5.9,0.22 0.22,-6.5 5.56,-0.13 z m 83.47,0.13 11.94,0 -0.1,6.5 -11.97,0.47 0.13,-6.97 z m -17.81,0.18 0.12,6.97 -11.44,0.19 0,-6.94 11.32,-0.22 z m -54.32,0.26 0.13,6.4 -5.91,0.25 0.22,-6.53 5.56,-0.12 z m 11.35,0 0.12,6.4 -5.9,0.25 0.25,-6.53 5.53,-0.12 z"
         inkscape:connector-curvature="0" />
    </g>
  </g>
  <metadata
     id="metadata6208">
    <rdf:RDF>
      <cc:Work>
        <dc:format>image/svg+xml</dc:format>
        <dc:type
           rdf:resource="http://purl.org/dc/dcmitype/StillImage" />
        <cc:license
           rdf:resource="http://creativecommons.org/publicdomain/zero/1.0/" />
        <dc:publisher>
          <cc:Agent
             rdf:about="http://openclipart.org/">
            <dc:title>Openclipart</dc:title>
          </cc:Agent>
        </dc:publisher>
        <dc:title></dc:title>
        <dc:date>2011-01-14T18:39:46</dc:date>
        <dc:description>Silhouette of a tall ship</dc:description>
        <dc:source>https://openclipart.org/detail/104821/tall-ship-by-last-dino</dc:source>
        <dc:creator>
          <cc:Agent>
            <dc:title>Last-Dino</dc:title>
          </cc:Agent>
        </dc:creator>
        <dc:subject>
          <rdf:Bag>
            <rdf:li>boat</rdf:li>
            <rdf:li>pirate ship</rdf:li>
            <rdf:li>ship</rdf:li>
            <rdf:li>silhouette</rdf:li>
            <rdf:li>tall ship</rdf:li>
          </rdf:Bag>
        </dc:subject>
      </cc:Work>
      <cc:License
         rdf:about="http://creativecommons.org/publicdomain/zero/1.0/">
        <cc:permits
           rdf:resource="http://creativecommons.org/ns#Reproduction" />
        <cc:permits
           rdf:resource="http://creativecommons.org/ns#Distribution" />
        <cc:permits
           rdf:resource="http://creativecommons.org/ns#DerivativeWorks" />
      </cc:License>
    </rdf:RDF>
  </metadata>
</svg>
