<?xml version="1.0" encoding="utf-8"?>
<!-- Generator: Adobe Illustrator 18.1.1, SVG Export Plug-In . SVG Version: 6.00 Build 0)  -->
<svg version="1.2" baseProfile="tiny" id="Layer_1" xmlns="http://www.w3.org/2000/svg" xmlns:xlink="http://www.w3.org/1999/xlink"
	 x="0px" y="0px" viewBox="0 0 100 100" xml:space="preserve">
<g id="Layer_3">
</g>
<g id="Layer_1_1_">
	<g>
		<polygon fill="#9D5025" points="83.952,47.15 83.952,52.82 77.796,55.127 75.255,48.793 		"/>
	</g>
	<g>
		<rect x="30.606" y="49.43" fill="#9D5025" width="31.006" height="5.668"/>
	</g>
	<g>
		<polyline fill="#9D5025" points="30.794,49.43 30.794,55.098 30.79,55.107 30.79,49.438 30.794,49.43 		"/>
		<path fill="#9D5025" d="M30.837,49.328v5.67c-0.148,0.465-0.389,1.02-0.621,1.439v-5.67c0.232-0.42,0.426-0.865,0.574-1.33"/>
		<path fill="#9D5025" d="M30.216,50.768v5.67c-1.277,2.322-3.74,3.891-6.604,3.891c-4.184,0-7.564-3.361-7.564-7.508v-5.67
			c0,4.148,3.381,7.51,7.564,7.51C26.476,54.66,28.938,53.09,30.216,50.768"/>
	</g>
	<path fill="#9D5025" d="M30.794,49.43v5.668c-0.971,3.039-3.797,5.23-7.182,5.23c-4.184,0-7.564-3.361-7.564-7.508v-5.67
		c0,4.148,3.381,7.51,7.564,7.51C26.997,54.66,29.823,52.469,30.794,49.43z"/>
	<g>
		<path fill="#F58536" d="M61.612,38.854L77.86,44.9l0.248,0.086l0.25,0.09l5.594,2.074l-5.594,2.072l-0.266,0.123L77.86,49.43
			l-16.248,6.049V49.43H30.794c-0.971,3.039-3.797,5.23-7.182,5.23c-4.184,0-7.564-3.361-7.564-7.51s3.381-7.48,7.564-7.48
			c3.385,0,6.211,2.193,7.182,5.23h30.818V38.854z"/>
	</g>
	<g>
		<polygon fill="#9D5025" points="77.86,49.43 77.86,55.098 61.612,61.146 61.612,55.479 		"/>
	</g>
</g>
<g id="nyt_x5F_exporter_x5F_info" display="none">
</g>
</svg>
