<?xml version="1.0" encoding="utf-8"?>
<!-- Generator: Adobe Illustrator 16.0.0, SVG Export Plug-In . SVG Version: 6.00 Build 0)  -->
<svg version="1.2" baseProfile="tiny" xmlns="http://www.w3.org/2000/svg" xmlns:xlink="http://www.w3.org/1999/xlink" x="0px"
	 y="0px" width="100px" height="100px" viewBox="0 0 100 100" xml:space="preserve">
<g id="Layer_3">
</g>
<g id="Layer_1">
	<g>
		<g>
			<path fill="#F58536" d="M67.358,21.674c5.015,0,9.064,4.037,9.064,9.012V66.17c0,4.977-4.05,9.012-9.064,9.012H32.657
				c-5.014,0-9.08-4.035-9.08-9.012V30.686c0-4.975,4.066-9.012,9.08-9.012H67.358z"/>
		</g>
		<g>
			<path fill="#9D5025" d="M76.423,66.17v3.145c0,0.438-0.033,0.869-0.092,1.291v-3.145C76.39,67.039,76.423,66.607,76.423,66.17"/>
			<path fill="#9D5025" d="M76.331,67.461v3.145c-0.074,0.5-0.188,0.986-0.337,1.457v-3.145
				C76.144,68.447,76.257,67.961,76.331,67.461"/>
			<path fill="#9D5025" d="M75.994,68.918v3.145c-0.179,0.555-0.408,1.084-0.687,1.586v-3.146
				C75.586,70.002,75.815,69.473,75.994,68.918"/>
			<path fill="#9D5025" d="M75.308,70.502v3.146c-1.538,2.787-4.518,4.678-7.949,4.678v-3.145
				C70.79,75.182,73.77,73.291,75.308,70.502"/>
		</g>
		<path fill="#9D5025" d="M76.423,66.17v3.145c0,4.977-4.05,9.012-9.064,9.012v-3.145C72.373,75.182,76.423,71.146,76.423,66.17z"/>
		<g>
			<rect x="32.282" y="75.182" fill="#9D5025" width="35.139" height="3.145"/>
		</g>
		<g>
			<path fill="#9D5025" d="M33.032,75.182v3.145c-5.014,0-9.455-4.035-9.455-9.012V66.17c0,4.977,4.066,9.012,9.08,9.012"/>
		</g>
		<path fill="#9D5025" d="M32.657,75.182v3.145c-5.014,0-9.08-4.035-9.08-9.012V66.17C23.577,71.146,27.644,75.182,32.657,75.182z"
			/>
	</g>
</g>
<g id="nyt_x5F_exporter_x5F_info" display="none">
</g>
</svg>
