<?xml version="1.0" encoding="utf-8"?>
<!-- Generator: Adobe Illustrator 16.0.0, SVG Export Plug-In . SVG Version: 6.00 Build 0)  -->
<svg version="1.2" baseProfile="tiny" xmlns="http://www.w3.org/2000/svg" xmlns:xlink="http://www.w3.org/1999/xlink" x="0px"
	 y="0px" width="100px" height="100px" viewBox="0 0 100 100" xml:space="preserve">
<g id="Layer_3">
</g>
<g id="Layer_1">
	<g>
		<g>
			<path fill="#9D5025" d="M76.612,70.723v2.975c0,0.23-0.016,0.457-0.049,0.68v-2.975C76.597,71.182,76.612,70.955,76.612,70.723"
				/>
			<path fill="#9D5025" d="M76.563,71.402v2.975c-0.039,0.262-0.098,0.518-0.174,0.764v-2.973
				C76.466,71.924,76.524,71.666,76.563,71.402"/>
			<path fill="#9D5025" d="M76.39,72.168v2.973c-0.096,0.291-0.217,0.568-0.361,0.832V73C76.173,72.738,76.294,72.459,76.39,72.168"
				/>
			<path fill="#9D5025" d="M76.028,73v2.973c-0.809,1.467-2.379,2.457-4.186,2.457v-2.973C73.649,75.457,75.22,74.469,76.028,73"/>
		</g>
		<path fill="#9D5025" d="M76.612,70.723v2.975c0,2.619-2.131,4.732-4.77,4.732l-1.574-3.875
			C72.909,74.555,76.612,73.344,76.612,70.723z"/>
		<g>
			<path fill="#9D5025" d="M28.157,75.457v2.973c-2.639,0-4.77-2.113-4.77-4.732v-2.975C23.388,73.344,25.519,75.457,28.157,75.457"
				/>
		</g>
		<path fill="#9D5025" d="M28.157,75.457v2.973c-2.639,0-4.77-2.113-4.77-4.732v-2.975C23.388,73.344,25.519,75.457,28.157,75.457z"
			/>
		<g>
			<polygon fill="#9D5025" points="71.843,75.457 71.843,78.43 28.157,78.43 26.769,74.721 			"/>
		</g>
		<g>
			<path fill="#F58536" d="M71.843,21.57c2.639,0,4.77,2.113,4.77,4.734v44.418c0,2.621-2.131,4.734-4.77,4.734H28.157
				c-2.639,0-4.77-2.113-4.77-4.734V26.305c0-2.621,2.131-4.734,4.77-4.734H71.843z"/>
		</g>
		<rect x="51.104" y="54.936" fill="#FFFFFF" width="5.682" height="11.285"/>
		<rect x="58.071" y="49.143" fill="#FFFFFF" width="5.686" height="17.078"/>
		<rect x="65.036" y="58.789" fill="#FFFFFF" width="5.686" height="7.432"/>
		<polygon fill="#FFFFFF" points="70.312,67.062 51.466,67.062 50.644,67.062 50.644,67.881 50.644,69.305 50.644,70.123 
			51.466,70.123 70.312,70.123 71.134,70.123 71.134,69.305 71.134,67.881 71.134,67.062 		"/>
	</g>
</g>
<g id="nyt_x5F_exporter_x5F_info" display="none">
</g>
</svg>
