<?xml version="1.0" encoding="utf-8"?>
<!-- Generator: Adobe Illustrator 19.1.0, SVG Export Plug-In . SVG Version: 6.00 Build 0)  -->
<svg version="1.1" id="Layer_1" xmlns="http://www.w3.org/2000/svg" xmlns:xlink="http://www.w3.org/1999/xlink" x="0px" y="0px"
	 viewBox="250 1033 100 100" style="enable-background:new 250 1033 100 100;" xml:space="preserve">
<style type="text/css">
	.st0{fill:#19486F;}
	.st1{fill:#1F5B98;}
	.st2{fill:#99BBE1;}
	.st3{fill:#5193CE;}
	.st4{fill:#17476F;}
	.st5{fill:#FFFFFF;}
	.st6{fill:none;stroke:#5193CE;stroke-width:3;stroke-linecap:round;stroke-linejoin:round;stroke-miterlimit:10;}
	.st7{fill:none;stroke:#FFFFFF;stroke-width:3;stroke-linecap:round;stroke-linejoin:round;stroke-miterlimit:10;}
	.st8{fill:none;stroke:#FFFFFF;stroke-width:3;stroke-miterlimit:10;}
	.st9{fill:#5193CE;stroke:#FFFFFF;stroke-width:3;stroke-miterlimit:10;}
	.st10{fill:none;stroke:#FFFFFF;stroke-width:3;stroke-linecap:round;stroke-miterlimit:10;}
	.st11{fill:#5193CE;stroke:#FFFFFF;stroke-width:3;stroke-linecap:round;stroke-linejoin:round;stroke-miterlimit:10;}
	.st12{fill:#FFFFFF;stroke:#5193CE;stroke-width:2;stroke-miterlimit:10;}
	.st13{fill:none;stroke:#5193CE;stroke-linecap:round;stroke-linejoin:round;stroke-miterlimit:10;}
	.st14{fill:none;stroke:#5193CE;stroke-width:3;stroke-linecap:round;stroke-miterlimit:10;}
	.st15{fill:none;stroke:#5193CE;stroke-linecap:round;stroke-miterlimit:10;}
	.st16{fill:none;stroke:#5193CE;stroke-width:3;stroke-miterlimit:10;}
	.st17{fill:none;}
	.st18{fill:none;stroke:#5193CE;stroke-width:4;stroke-linecap:round;stroke-linejoin:round;stroke-miterlimit:10;}
</style>
<path class="st4" d="M326.6,1105.2h-53.1v3c0,2.6,2.1,4.7,4.8,4.7h43.6c0.3,0,0.6,0,0.9-0.1c0.1,0,0.1,0,0.2,0
	c0.2-0.1,0.5-0.1,0.7-0.2c0,0,0.1,0,0.1,0c0.3-0.1,0.5-0.2,0.7-0.4c0.1,0,0.1-0.1,0.2-0.1c0.2-0.1,0.4-0.3,0.5-0.4
	c0,0,0.1-0.1,0.1-0.1c0.2-0.2,0.4-0.4,0.5-0.6c0-0.1,0.1-0.1,0.1-0.2c0.1-0.1,0.1-0.2,0.2-0.3c0-0.1,0.1-0.1,0.1-0.2
	c0.1-0.1,0.1-0.3,0.2-0.4c0-0.1,0.1-0.1,0.1-0.2c0-0.1,0-0.2,0.1-0.3c0-0.1,0.1-0.2,0.1-0.3c0-0.1,0-0.1,0-0.2v0c0-0.2,0-0.4,0-0.7
	V1105.2z"/>
<path class="st3" d="M321.8,1056.1c2.6,0,4.8,2.1,4.8,4.7v44.3c0,2.6-2.1,4.7-4.8,4.7h-43.6c-2.6,0-4.8-2.1-4.8-4.7v-44.3
	c0-2.6,2.1-4.7,4.8-4.7H321.8z"/>
<line class="st7" x1="278.5" y1="1089.6" x2="277.8" y2="1089.6"/>
<line class="st7" x1="323.5" y1="1089.9" x2="322.8" y2="1089.9"/>
<path class="st11" d="M317.4,1091h3.8v-3.4c0-7-8.4-7-8.4-7l-3.2-7.4h-15.8l-2.2,7.2l-11.9,3.3v4v3.4h2.9"/>
<path class="st11" d="M317.4,1091h3.8v-3.4c0-7-8.4-7-8.4-7l-3.2-7.4h-15.8l-2.2,7.2l-11.9,3.3v4v3.4h2.9"/>
<circle class="st11" cx="287" cy="1091" r="3.9"/>
<circle class="st11" cx="312.8" cy="1091" r="3.9"/>
<line class="st7" x1="291.6" y1="1091" x2="308.3" y2="1091"/>
<rect x="310" y="1047.4" class="st3" width="4" height="8.7"/>
<rect x="286" y="1047.4" class="st3" width="4" height="8.7"/>
<rect x="304" y="1047.4" class="st3" width="4" height="8.7"/>
<rect x="292" y="1047.4" class="st3" width="4" height="8.7"/>
<rect x="298" y="1047.4" class="st3" width="4" height="8.7"/>
<rect x="264.4" y="1093" class="st3" width="9" height="4"/>
<rect x="264.4" y="1075" class="st3" width="9" height="4"/>
<rect x="264.4" y="1087" class="st3" width="9" height="4"/>
<rect x="264.4" y="1081" class="st3" width="9" height="4"/>
<rect x="264.4" y="1069" class="st3" width="9" height="4"/>
<rect x="286" y="1109.9" class="st3" width="4" height="8.7"/>
<rect x="310" y="1109.9" class="st3" width="4" height="8.7"/>
<rect x="292" y="1109.9" class="st3" width="4" height="8.7"/>
<rect x="304" y="1109.9" class="st3" width="4" height="8.7"/>
<rect x="298" y="1109.9" class="st3" width="4" height="8.7"/>
<rect x="326.6" y="1087" class="st3" width="9" height="4"/>
<rect x="326.6" y="1069" class="st3" width="9" height="4"/>
<rect x="326.6" y="1081" class="st3" width="9" height="4"/>
<rect x="326.6" y="1075" class="st3" width="9" height="4"/>
<rect x="326.6" y="1093" class="st3" width="9" height="4"/>
</svg>
