<?xml version="1.0" encoding="utf-8"?>
<!-- Generator: Adobe Illustrator 19.1.0, SVG Export Plug-In . SVG Version: 6.00 Build 0)  -->
<svg version="1.1" id="Layer_1" xmlns="http://www.w3.org/2000/svg" xmlns:xlink="http://www.w3.org/1999/xlink" x="0px" y="0px"
	 viewBox="-255 347 100 100" style="enable-background:new -255 347 100 100;" xml:space="preserve">
<style type="text/css">
	.st0{fill:#C17B9E;}
	.st1{fill:#692F56;}
	.st2{fill:#CEB1C0;}
	.st3{fill:#512843;}
</style>
<polygon class="st0" points="-176.6,424 -170.9,421.1 -170.9,372.9 -176.6,370.1 "/>
<polygon class="st0" points="-170.9,421.1 -205,438.2 -205,421.7 -170.9,411.5 "/>
<polygon class="st1" points="-183.5,371.8 -176.6,370.1 -176.6,413.2 -183.5,412.2 "/>
<polygon class="st2" points="-183.5,412.2 -176.6,413.2 -205,421.7 -212.6,419.4 "/>
<polygon class="st0" points="-186.9,377.8 -205,372.3 -205,355.9 -186.9,364.9 "/>
<polygon class="st1" points="-233.4,370 -239.1,372.9 -239.1,421.1 -233.4,423.9 "/>
<polygon class="st1" points="-239.1,372.9 -205,355.8 -205,372.3 -239.1,382.5 "/>
<polygon class="st0" points="-226.5,422.2 -233.4,423.9 -233.4,380.8 -226.5,381.8 "/>
<polygon class="st3" points="-226.5,381.8 -233.4,380.8 -205,372.3 -197.4,374.6 "/>
<polygon class="st1" points="-223.1,416.2 -205,421.7 -205,438.1 -223.1,429.1 "/>
<polygon class="st2" points="-197.4,419.4 -215.8,414.8 -223.1,416.2 -205,421.7 "/>
<polygon class="st3" points="-212.6,374.6 -205,372.3 -186.9,377.8 -194.2,379.2 "/>
<polygon class="st0" points="-192.8,405.6 -205,407.1 -205,386.9 -192.8,388.4 "/>
<polygon class="st1" points="-217.2,405.6 -205,407.1 -205,386.9 -217.2,388.4 "/>
</svg>
