<?xml version="1.0" encoding="utf-8"?>
<!-- Generator: Adobe Illustrator 19.1.0, SVG Export Plug-In . SVG Version: 6.00 Build 0)  -->
<svg version="1.1" id="Layer_1" xmlns="http://www.w3.org/2000/svg" xmlns:xlink="http://www.w3.org/1999/xlink" x="0px" y="0px"
	 viewBox="0 0 100 100" style="enable-background:new 0 0 100 100;" xml:space="preserve">
<style type="text/css">
	.st0{clip-path:url(#SVGID_2_);enable-background:new    ;}
	.st1{fill:#9D5025;}
	.st2{clip-path:url(#SVGID_4_);enable-background:new    ;}
	.st3{clip-path:url(#SVGID_6_);enable-background:new    ;}
	.st4{fill:#F58536;}
	.st5{clip-path:url(#SVGID_8_);enable-background:new    ;}
</style>
<g>
	<defs>
		<path id="SVGID_1_" d="M73.2,44.7v-2.3c0-5.4,3.9-9.9,4.1-10.1v2.3C77,34.8,73.2,39.3,73.2,44.7z"/>
	</defs>
	<use xlink:href="#SVGID_1_"  style="overflow:visible;fill:#9D5025;"/>
	<clipPath id="SVGID_2_">
		<use xlink:href="#SVGID_1_"  style="overflow:visible;"/>
	</clipPath>
	<g class="st0">
		<path class="st1" d="M77.2,32.2v2.3c-0.1,0.1-1.1,1.2-2,3v-2.3C76.2,33.5,77.1,32.3,77.2,32.2"/>
		<path class="st1" d="M75.2,35.2v2.3c-0.5,0.9-1,2-1.4,3.1v-2.3C74.2,37.2,74.7,36.1,75.2,35.2"/>
		<path class="st1" d="M73.8,38.3v2.3c-0.2,0.7-0.4,1.5-0.5,2.3v-2.3C73.4,39.8,73.6,39.1,73.8,38.3"/>
		<path class="st1" d="M73.3,40.6V43c-0.1,0.6-0.1,1.1-0.1,1.7v-2.3C73.2,41.8,73.2,41.2,73.3,40.6"/>
	</g>
</g>
<g>
	<defs>
		<path id="SVGID_3_" d="M26,43v2.3c0-4.8-3.8-9.6-4-9.9v-2.3C22.1,33.4,26,38.2,26,43z"/>
	</defs>
	<use xlink:href="#SVGID_3_"  style="overflow:visible;fill:#9D5025;"/>
	<clipPath id="SVGID_4_">
		<use xlink:href="#SVGID_3_"  style="overflow:visible;"/>
	</clipPath>
	<g class="st2">
		<path class="st1" d="M26,43v2.3c0-4.8-3.8-9.6-4-9.9v-2.3C22.1,33.4,26,38.2,26,43"/>
	</g>
</g>
<g>
	<defs>
		<path id="SVGID_5_" d="M21.7,58.8v-2.3c0,0.8,0.1,1.7,0.2,2.7c2.5,15.4,22.3,9,28.8,16.7v2.3c-6.4-7.8-26.3-1.3-28.8-16.7
			C21.8,60.5,21.7,59.6,21.7,58.8z"/>
	</defs>
	<use xlink:href="#SVGID_5_"  style="overflow:visible;fill:#9D5025;"/>
	<clipPath id="SVGID_6_">
		<use xlink:href="#SVGID_5_"  style="overflow:visible;"/>
	</clipPath>
	<g class="st3">
		<path class="st1" d="M50.7,75.9v2.3c-6.4-7.8-26.3-1.3-28.8-16.7c-0.2-1-0.2-1.9-0.2-2.7v-2.3c0,0.8,0.1,1.7,0.2,2.7
			C24.4,74.6,44.3,68.2,50.7,75.9"/>
	</g>
</g>
<g>
	<path class="st4" d="M50.5,21.5c0.3,0,0.6,0.1,0.7,0.2c3,3.3,5.9,4.5,8.6,4.5c5.3,0,9.1-4.3,9.3-4.5l8.1,10.5
		c-0.2,0.3-4.3,5-4.1,10.6c0.3,6.6,6.4,8.9,4.9,16.4c-2.7,13.4-15.8,8-26.5,16.7c-0.2,0.2-0.4,0.2-0.5,0.2c-0.3,0-0.4-0.2-0.4-0.2
		c-6.4-7.8-26.3-1.3-28.8-16.7c-1.4-8.5,3.8-9.5,4-15.8c0.2-4.9-3.8-10-4-10.3l9.4-11.4c0.2,0.2,4.1,4.1,9.7,4.1c2.8,0,5.9-1,9-4.1
		C50.1,21.6,50.3,21.5,50.5,21.5z"/>
</g>
<g>
	<defs>
		<path id="SVGID_7_" d="M78.3,56.9v2.3c0,0.7-0.1,1.5-0.2,2.3c-2.7,13.4-15.8,8-26.5,16.7c-0.2,0.2-0.4,0.2-0.5,0.2
			c-0.3,0-0.4-0.2-0.4-0.2v-2.3c0,0,0.1,0.2,0.4,0.2c0.1,0,0.3-0.1,0.5-0.2c10.6-8.7,23.7-3.3,26.5-16.7
			C78.2,58.4,78.3,57.6,78.3,56.9z"/>
	</defs>
	<use xlink:href="#SVGID_7_"  style="overflow:visible;fill:#9D5025;"/>
	<clipPath id="SVGID_8_">
		<use xlink:href="#SVGID_7_"  style="overflow:visible;"/>
	</clipPath>
	<g class="st5">
		<path class="st1" d="M78.3,56.9v2.3c0,0.5,0,1-0.1,1.6v-2.3C78.3,58,78.3,57.4,78.3,56.9"/>
		<path class="st1" d="M78.2,58.5v2.3c0,0.2-0.1,0.5-0.1,0.7c-0.1,0.7-0.3,1.3-0.5,1.9v-2.3c0.2-0.6,0.3-1.2,0.5-1.9
			C78.1,59,78.1,58.7,78.2,58.5"/>
		<path class="st1" d="M77.6,61.1v2.3c-0.3,0.9-0.6,1.6-1,2.3v-2.3C77,62.7,77.3,61.9,77.6,61.1"/>
		<path class="st1" d="M76.6,63.4v2.3c-4.5,8.1-15.7,4.9-25,12.5c-0.2,0.2-0.4,0.2-0.5,0.2c-0.3,0-0.4-0.2-0.4-0.2v-2.3
			c0,0,0.1,0.2,0.4,0.2c0.1,0,0.3-0.1,0.5-0.2C60.9,68.3,72.1,71.5,76.6,63.4"/>
	</g>
</g>
</svg>
