<?xml version="1.0" encoding="utf-8"?>
<!-- Generator: Adobe Illustrator 16.0.0, SVG Export Plug-In . SVG Version: 6.00 Build 0)  -->
<svg version="1.2" baseProfile="tiny" xmlns="http://www.w3.org/2000/svg" xmlns:xlink="http://www.w3.org/1999/xlink" x="0px"
	 y="0px" width="99.697px" height="99.697px" viewBox="0 0 99.697 99.697" xml:space="preserve">
<g id="Layer_3">
</g>
<g id="Layer_1">
	<g>
		<g>
			<path fill="#F58536" d="M49.455,16.262c15.285,0,27.678,12.289,27.678,27.473c0,15.17-12.393,27.473-27.678,27.473
				c-15.283,0-27.68-12.303-27.68-27.473C21.775,28.551,34.172,16.262,49.455,16.262z"/>
		</g>
		<g>
			<path fill="#9D5025" d="M73.744,56.914v2.387c-4.699,8.516-13.816,14.291-24.289,14.291c-15.283,0-27.68-12.303-27.68-27.471
				v-2.387c0,15.17,12.396,27.473,27.68,27.473C59.928,71.207,69.045,65.428,73.744,56.914"/>
			<path fill="#9D5025" d="M77.133,43.734v2.387c0,1.332-0.096,2.641-0.279,3.926v-2.385C77.037,46.377,77.133,45.068,77.133,43.734
				"/>
			<path fill="#9D5025" d="M76.854,47.662v2.385c-0.223,1.518-0.564,2.998-1.021,4.426v-2.389
				C76.289,50.658,76.631,49.178,76.854,47.662"/>
			<path fill="#9D5025" d="M75.832,52.084v2.389c-0.547,1.686-1.242,3.301-2.088,4.828v-2.387
				C74.59,55.385,75.285,53.77,75.832,52.084"/>
		</g>
		<path fill="#9D5025" d="M77.133,43.734v2.387c0,15.168-12.393,27.471-27.678,27.471c-15.283,0-27.68-12.303-27.68-27.471v-2.387
			c0,15.17,12.396,27.473,27.68,27.473C64.74,71.207,77.133,58.904,77.133,43.734z"/>
	</g>
	<g>
		<g>
			<line fill="none" stroke="#FFFFFF" stroke-width="3" stroke-miterlimit="10" x1="49.5" y1="21.697" x2="49.5" y2="65.697"/>
			<g>
				<polygon fill="#FFFFFF" points="46.047,22.697 49.787,16.221 53.527,22.697 				"/>
			</g>
			<g>
				<polygon fill="#FFFFFF" points="46.047,64.697 49.787,71.174 53.527,64.697 				"/>
			</g>
		</g>
		<g>
			<line fill="none" stroke="#FFFFFF" stroke-width="3" stroke-miterlimit="10" x1="28" y1="45.197" x2="72" y2="45.197"/>
			<g>
				<polygon fill="#FFFFFF" points="29,49.102 22.523,45.361 29,41.621 				"/>
			</g>
			<g>
				<polygon fill="#FFFFFF" points="71,49.102 77.477,45.361 71,41.621 				"/>
			</g>
		</g>
	</g>
	<g>
		<path fill="#FFFFFF" d="M59.302,54.179H39.604c-4.035,0-7.58-3.002-7.58-6.422V47.2c0-2.807,2.521-6.146,6.004-6.833
			c0.434-2.423,2.542-4.229,5.095-4.229c0.712,0,1.409,0.144,2.05,0.422c1.66-2.845,4.741-4.638,8.089-4.638
			c5.024,0,9.142,3.96,9.342,8.904c2.552,1.106,4.28,4.106,4.28,6.373v0.557C66.884,51.177,63.342,54.179,59.302,54.179z"/>
		<g>
			<path fill="#F58536" d="M43.754,38.959c-1.363,0-2.465,1.065-2.511,2.421l-0.041,1.185l-1.185,0.1
				c-2.215,0.187-4.107,2.424-4.107,4.122v0.499c0,1.689,2.044,3.653,4.681,3.653h17.724c2.64,0,4.683-1.964,4.683-3.653v-0.499
				c0-1.389-1.289-3.44-2.892-3.898l-0.985-0.286l0.028-1.159c0-1.679-0.652-3.261-1.841-4.447c-1.18-1.181-2.752-1.83-4.428-1.83
				c-2.463,0-4.706,1.443-5.72,3.682l-0.655,1.466l-1.329-0.908C44.758,39.111,44.266,38.959,43.754,38.959z"/>
		</g>
	</g>
</g>
<g id="nyt_x5F_exporter_x5F_info" display="none">
</g>
</svg>
