<?xml version="1.0" encoding="utf-8"?>
<!-- Generator: Adobe Illustrator 19.1.0, SVG Export Plug-In . SVG Version: 6.00 Build 0)  -->
<svg version="1.1" id="Layer_1" xmlns="http://www.w3.org/2000/svg" xmlns:xlink="http://www.w3.org/1999/xlink" x="0px" y="0px"
	 viewBox="0 0 100 100" style="enable-background:new 0 0 100 100;" xml:space="preserve">
<style type="text/css">
	.st0{enable-background:new    ;}
	.st1{fill:#4B612C;}
	.st2{clip-path:url(#SVGID_2_);enable-background:new    ;}
	.st3{clip-path:url(#SVGID_4_);}
	.st4{clip-path:url(#SVGID_6_);}
	.st5{clip-path:url(#SVGID_8_);}
	.st6{fill:#759C3E;}
	.st7{fill:#3C4929;}
	.st8{fill:#FFFFFF;stroke:#3C4929;stroke-width:3;stroke-miterlimit:10;}
	.st9{fill:none;stroke:#3C4929;stroke-width:3;stroke-miterlimit:10;}
	.st10{fill:#D2D3D3;}
	.st11{fill:#7D7C7C;}
	.st12{fill:#373737;}
	.st13{fill:#B7CA9D;}
	.st14{fill:#FFFFFF;}
	.st15{fill:#FFFFFF;stroke:#4F4F4F;stroke-width:3;stroke-miterlimit:10;}
	.st16{fill:none;stroke:#4F4F4F;stroke-width:3;stroke-miterlimit:10;}
	.st17{fill:#D2D3D3;stroke:#7D7C7C;stroke-width:2;stroke-miterlimit:10;}
</style>
<g id="CloudTrail_15_">
	<path class="st11" d="M25.4,65.3c-3.2,0-6.1-3-6.1-6.3v-23c0-3.3,2.8-5.7,6.1-5.7h41.1c3.2,0,5.9,2.4,5.9,5.7v23
		c0,3.3-2.6,6.3-5.9,6.3H25.4z"/>
	<path class="st14" d="M25.4,62.3c-3.2,0-6.1-3-6.1-6.3v-23c0-3.3,2.8-5.7,6.1-5.7h41.1c3.2,0,5.9,2.4,5.9,5.7v23
		c0,3.3-2.6,6.3-5.9,6.3H25.4z"/>
	<g>
		<path class="st11" d="M57.8,46.7l3.5,3.3l-1.6,2.9l-18.1,0.3c0,0.1-0.2,0.6-0.6,1.2c-0.3,0.5-0.6,1-1,1.5s-0.8,0.9-1.3,1.3
			c-1.8,1.5-3.9,2.2-6.1,2.2c-2.4,0-4.9-0.9-6.7-2.7c-0.3-0.2-0.5-0.5-0.8-0.8c-3.4-4.1-2.8-10.1,1.4-13.5c1.8-1.5,4-2.2,6.1-2.2
			c2.2,0,4.3,0.7,6.1,2.1c1.3,1,2.2,2.4,2.2,2.4h1l4.4-0.1l1.6,2.7l3.8-0.4l1.4,1.5l1.3,0.3L57.8,46.7z M28.4,52
			c1.4,0,2.5-1.2,2.5-2.5c0-1.4-1.2-2.5-2.6-2.5l0,0c-1.4,0-2.5,1.2-2.5,2.6C25.8,50.9,27,52,28.4,52L28.4,52"/>
	</g>
	<g>
		<path class="st6" d="M33.8,37.8l-3.5-3.2l1.6-2.9L50,31.4c0-0.1,0.2-0.6,0.6-1.2c0.3-0.5,0.6-1,1-1.5s0.8-0.9,1.3-1.3
			c1.8-1.5,3.9-2.2,6.1-2.2c2.4,0,4.9,0.9,6.7,2.7c0.3,0.2,0.5,0.5,0.8,0.8c3.4,4.1,2.8,10.1-1.4,13.5c-1.8,1.5-4,2.2-6.1,2.2
			c-2.2,0-4.3-0.7-6.1-2.1c-1.3-1-2.2-2.4-2.2-2.4h-1h-4.4l-1.6-2.7l-3.8,0.4l-1.4-1.5l-1.3-0.3L33.8,37.8z M63.2,32.5
			c-1.4,0-2.5,1.2-2.5,2.5c0,1.4,1.2,2.5,2.6,2.5l0,0c1.4,0,2.5-1.2,2.5-2.6C65.8,33.7,64.6,32.5,63.2,32.5L63.2,32.5"/>
	</g>
	<g>
		<g>
			<circle class="st15" cx="67.7" cy="61.8" r="13"/>
			<line class="st16" x1="68.8" y1="53.5" x2="68.7" y2="64.9"/>
		</g>
		<line class="st16" x1="62.3" y1="63.8" x2="69.3" y2="63.8"/>
	</g>
</g>
</svg>
