<?xml version="1.0" encoding="utf-8"?>
<!-- Generator: Adobe Illustrator 19.1.0, SVG Export Plug-In . SVG Version: 6.00 Build 0)  -->
<svg version="1.1" id="Layer_1" xmlns="http://www.w3.org/2000/svg" xmlns:xlink="http://www.w3.org/1999/xlink" x="0px" y="0px"
	 viewBox="0 0 100 100" style="enable-background:new 0 0 100 100;" xml:space="preserve">
<style type="text/css">
	.st0{enable-background:new    ;}
	.st1{fill:#4B612C;}
	.st2{clip-path:url(#SVGID_2_);enable-background:new    ;}
	.st3{clip-path:url(#SVGID_4_);}
	.st4{clip-path:url(#SVGID_6_);}
	.st5{clip-path:url(#SVGID_8_);}
	.st6{fill:#759C3E;}
	.st7{fill:#3C4929;}
	.st8{fill:#FFFFFF;stroke:#3C4929;stroke-width:3;stroke-miterlimit:10;}
	.st9{fill:none;stroke:#3C4929;stroke-width:3;stroke-miterlimit:10;}
	.st10{fill:#D2D3D3;}
	.st11{fill:#7D7C7C;}
	.st12{fill:#373737;}
	.st13{fill:#B7CA9D;}
	.st14{fill:#FFFFFF;}
	.st15{fill:#FFFFFF;stroke:#4F4F4F;stroke-width:3;stroke-miterlimit:10;}
	.st16{fill:none;stroke:#4F4F4F;stroke-width:3;stroke-miterlimit:10;}
	.st17{fill:#D2D3D3;stroke:#7D7C7C;stroke-width:2;stroke-miterlimit:10;}
</style>
<g>
	<g class="st0">
		<g>
			<polygon class="st1" points="71.5,49 71.5,51.6 69.8,55 69.8,52.3 			"/>
		</g>
		<g>
			<polygon class="st1" points="70.5,51.6 69.8,55 49.4,55.2 49,52.4 			"/>
		</g>
		<g>
			<defs>
				<path id="SVGID_1_" d="M49.4,52.6v2.6c0,0.1-0.3,0.6-0.6,1.3v-2.6C49.1,53.3,49.3,52.8,49.4,52.6z"/>
			</defs>
			<use xlink:href="#SVGID_1_"  style="overflow:visible;fill:#4B612C;"/>
			<clipPath id="SVGID_2_">
				<use xlink:href="#SVGID_1_"  style="overflow:visible;"/>
			</clipPath>
			<g class="st2">
				<path class="st1" d="M49.4,52.6v2.6c0,0.1-0.6,1.3-1,1.9l-0.3-3.2C48.5,53.3,49.3,52.8,49.4,52.6"/>
				<path class="st1" d="M49.4,52.6v2.6c0,0,0,0,0,0L49.4,52.6C49.4,52.6,49.4,52.6,49.4,52.6"/>
			</g>
		</g>
		<g>
			<defs>
				<path id="SVGID_3_" d="M49,53.5l-0.2,3c-0.3,0.6-0.7,1.2-1.2,1.7l0.1-2.7C48.1,55.1,48.7,54.1,49,53.5z"/>
			</defs>
			<use xlink:href="#SVGID_3_"  style="overflow:visible;fill:#4B612C;"/>
			<clipPath id="SVGID_4_">
				<use xlink:href="#SVGID_3_"  style="overflow:visible;"/>
			</clipPath>
			<g class="st3">
				<path class="st1" d="M49.2,53.1l-0.3,3.3c-0.3,0.5-0.9,1.5-1.3,2l0-2.7C47.9,55.2,48.9,53.6,49.2,53.1"/>
			</g>
		</g>
		<g>
			<defs>
				<path id="SVGID_5_" d="M47.7,55.2l-0.1,3c-0.4,0.5-0.9,1-1.5,1.5L45.9,57C46.4,56.6,47.3,55.7,47.7,55.2z"/>
			</defs>
			<use xlink:href="#SVGID_5_"  style="overflow:visible;fill:#4B612C;"/>
			<clipPath id="SVGID_6_">
				<use xlink:href="#SVGID_5_"  style="overflow:visible;"/>
			</clipPath>
			<g class="st4">
				<path class="st1" d="M47.9,55.2l-0.1,2.9c-0.4,0.5-1,1.1-1.5,1.6l-0.5-2.8C46.2,56.4,47.4,55.7,47.9,55.2"/>
			</g>
		</g>
		<g>
			<defs>
				<path id="SVGID_7_" d="M28.5,51.3v-2.6c0,2.4,0.8,4.8,2.5,6.8c0.3,0.3,0.6,0.6,0.9,0.9c2.1,2,4.8,3,7.5,3c2.4,0,4.8-0.8,6.8-2.4
					v2.6c-2,1.6-4.4,2.4-6.8,2.4c-2.7,0-5.5-1-7.5-3c-0.3-0.3-0.6-0.6-0.9-0.9C29.3,56.1,28.5,53.7,28.5,51.3z"/>
			</defs>
			<use xlink:href="#SVGID_7_"  style="overflow:visible;fill:#4B612C;"/>
			<clipPath id="SVGID_8_">
				<use xlink:href="#SVGID_7_"  style="overflow:visible;"/>
			</clipPath>
			<g class="st5">
				<path class="st1" d="M46.7,56.2c-2,1.6-4.9,3.3-7.3,3.3c-2.7,0-5.5-1-7.5-3c-0.3-0.3-0.6-0.6-0.9-0.9c-1.7-2-2.5-4.4-2.5-6.8
					v2.6c0,2.4,0.8,4.8,2.5,6.8c0.3,0.3,0.6,0.6,0.9,0.9c2.1,2,4.8,3,7.5,3c2.4,0,4.8-0.8,6.8-2.4L46.7,56.2z"/>
			</g>
		</g>
		<g>
			<path class="st6" d="M67.6,45.4l3.9,3.7l-1.8,3.3l-20.4,0.3c0,0.1-0.3,0.6-0.6,1.3c-0.3,0.6-0.7,1.1-1.1,1.7
				c-0.4,0.5-0.9,1-1.5,1.5c-2,1.6-4.4,2.4-6.8,2.4c-2.7,0-5.5-1-7.5-3c-0.3-0.3-0.6-0.6-0.9-0.9c-3.8-4.6-3.1-11.4,1.5-15.1
				c2-1.6,4.4-2.4,6.9-2.4c2.4,0,4.8,0.8,6.8,2.4c1.5,1.1,2.4,2.7,2.5,2.7l1.1,0.1l5-0.1l1.8,3l4.2-0.4l1.6,1.7l1.5,0.3L67.6,45.4z
				 M34.6,51.4c1.6,0,2.8-1.3,2.8-2.9c0-1.6-1.3-2.8-2.9-2.8c0,0,0,0,0,0c-1.6,0-2.8,1.3-2.8,2.9C31.7,50.1,33,51.4,34.6,51.4
				C34.5,51.4,34.5,51.4,34.6,51.4"/>
		</g>
	</g>
</g>
</svg>
