<?xml version="1.0" encoding="utf-8"?>
<!-- Generator: Adobe Illustrator 18.1.1, SVG Export Plug-In . SVG Version: 6.00 Build 0)  -->
<svg version="1.2" baseProfile="tiny" id="Layer_1" xmlns="http://www.w3.org/2000/svg" xmlns:xlink="http://www.w3.org/1999/xlink"
	 x="0px" y="0px" viewBox="1 -0.668 101.668 101.668" xml:space="preserve">
<g id="Layer_3">
	<path fill="#9D5025" d="M84.126,38.832h-2.711c-2.008,0-3.659,1.111-3.854,3h-4.455c-0.49-3.777-1.961-7-3.699-7h-1.162H62V33.61
		c0-2.139-0.912-3.778-3.051-3.778H54v-3h6.014c0.695,0,1.986-0.982,1.986-1.678v-1.193c0-0.695-1.291-0.129-1.986-0.129H38.517
		c-0.695,0-1.517-0.566-1.517,0.129v1.193c0,0.695,0.821,1.678,1.517,1.678H45v3h-5.418c-2.141,0-4.582,1.64-4.582,3.778v1.222
		h-8.201c-2.14,0-3.799,2.062-3.799,4.201v11.799h-5V37.678c0-0.748-1.041-1.355-2-1.355s-2,0.607-2,1.355v30.988
		c0,0.748,1.041,1.355,2,1.355s2-0.607,2-1.355V55.832h5v11.091c0,2.14,1.659,3.909,3.799,3.909h17.159c0.665,3,1.925,5,3.37,5
		h22.079c1.9,0,3.48-4,3.81-8H78v0.641c0,2.139,1.275,3.359,3.415,3.359h2.711c2.14,0,3.874-1.221,3.874-3.359V42.52
		C88,40.381,86.266,38.832,84.126,38.832z"/>
	<path fill="#F58536" d="M84.126,36.832h-2.711c-2.008,0-3.659,1.111-3.854,3h-4.455c-0.49-3.777-1.961-7-3.699-7h-1.162H62V31.61
		c0-2.139-0.912-3.778-3.051-3.778H54v-2h6.014c0.695,0,1.986-0.982,1.986-1.678v-0.193c0-0.695-1.291-1.129-1.986-1.129H38.517
		c-0.695,0-1.517,0.434-1.517,1.129v0.193c0,0.695,0.821,1.678,1.517,1.678H45v2h-5.418c-2.141,0-4.582,1.64-4.582,3.778v1.222
		h-8.201c-2.14,0-3.799,2.062-3.799,4.201v11.799h-5V35.678c0-0.748-1.041-1.355-2-1.355s-2,0.607-2,1.355v30.988
		c0,0.748,1.041,1.355,2,1.355s2-0.607,2-1.355V53.832h5v11.091c0,2.14,1.659,3.909,3.799,3.909h17.159c0.665,3,1.925,5,3.37,5
		h22.079c1.9,0,3.48-4,3.81-8H78v0.641c0,2.139,1.275,3.359,3.415,3.359h2.711c2.14,0,3.874-1.221,3.874-3.359V40.52
		C88,38.381,86.266,36.832,84.126,36.832z"/>
</g>
<g id="Layer_1_1_">
	<g>
		<text transform="matrix(1 0 0 1 28.1191 56.0997)" fill="#FFFFFF" font-family="'HelveticaNeueLTStd-Roman'" font-size="12.4271">MapR M3</text>
	</g>
</g>
<g id="nyt_x5F_exporter_x5F_info" display="none">
</g>
</svg>
