<?xml version="1.0" encoding="utf-8"?>
<!-- Generator: Adobe Illustrator 16.0.0, SVG Export Plug-In . SVG Version: 6.00 Build 0)  -->
<svg version="1.2" baseProfile="tiny" xmlns="http://www.w3.org/2000/svg" xmlns:xlink="http://www.w3.org/1999/xlink" x="0px"
	 y="0px" width="100px" height="100px" viewBox="0 0 100 100" xml:space="preserve">
<g id="Layer_3">
</g>
<g id="Layer_1">
	<g>
		<g>
			<line fill="#9D5125" x1="76.424" y1="25.533" x2="76.424" y2="28.139"/>
		</g>
		<g>
			<path fill="#9D5025" d="M52.252,46.496v2.605c-0.051,0.09-0.094,0.186-0.125,0.279v-2.605
				C52.158,46.682,52.201,46.588,52.252,46.496"/>
			<path fill="#9D5025" d="M52.127,46.775v2.605c-0.014,0.047-0.028,0.094-0.04,0.141v-2.605
				C52.099,46.867,52.113,46.822,52.127,46.775"/>
		</g>
		<path fill="#9D5025" d="M76.1,47.797c-3.736-1.236-7.828-1.398-11.307-1.398c-5.078,0-11.496,1.164-12.742,2.891l-0.049-2.379
			c0.461-2.094,6.451-3.873,11.734-3.873c1.785,0,9.818,0.816,12.389,2.146"/>
		<g>
			<path fill="#F58536" d="M65.59,48.77c2.195,0,4.059,0.172,5.6,0.418c3.301,0.549,5.047,1.486,5.047,2.064
				s-1.746,1.518-5.047,2.051c-1.541,0.26-3.404,0.42-5.6,0.42c-6.896,0-10.65-1.633-10.65-2.471S58.693,48.77,65.59,48.77z"/>
		</g>
		<g>
			<path fill="#9D5025" d="M76.236,51.252v2.801c0,0.016-0.002,0.031-0.002,0.047v-2.803C76.234,51.281,76.236,51.268,76.236,51.252
				"/>
			<path fill="#9D5025" d="M76.234,51.297V54.1c-0.002,0.02-0.008,0.039-0.016,0.059v-2.803
				C76.227,51.336,76.232,51.316,76.234,51.297"/>
			<path fill="#9D5025" d="M76.219,51.355v2.803c-0.01,0.027-0.021,0.057-0.037,0.084v-2.803
				C76.197,51.412,76.209,51.383,76.219,51.355"/>
			<path fill="#9D5025" d="M76.182,51.439v2.803c-0.318,0.578-2.029,1.383-4.992,1.861c-1.541,0.262-3.404,0.418-5.6,0.418
				c-6.896,0-10.65-1.629-10.65-2.469v-2.801c0,0.838,3.754,2.471,10.65,2.471c2.195,0,4.059-0.16,5.6-0.42
				C74.152,52.822,75.863,52.02,76.182,51.439"/>
		</g>
		<path fill="#9D5025" d="M76.236,51.252v2.801c0,0.58-1.746,1.518-5.047,2.051c-1.541,0.262-3.404,0.418-5.6,0.418
			c-6.896,0-10.65-1.629-10.65-2.469v-2.801c0,0.838,3.754,2.471,10.65,2.471c2.195,0,4.059-0.16,5.6-0.42
			C74.49,52.77,76.236,51.83,76.236,51.252z"/>
		<path fill="#9D5025" d="M54.961,71.617c0.107,0.545,2.818,0.984,4.146,1.631l-1.797,4.115c-1.668-0.561-2.154-0.918-2.365-1.246"
			/>
		<g>
			<path fill="#9D5025" d="M76.41,73.201V76c0,0.02,0,0.041-0.004,0.062v-2.801C76.41,73.24,76.41,73.219,76.41,73.201"/>
			<path fill="#9D5025" d="M76.406,73.262v2.801c-0.002,0.023-0.01,0.049-0.018,0.074v-2.803
				C76.396,73.309,76.404,73.285,76.406,73.262"/>
			<path fill="#9D5025" d="M76.389,73.334v2.803c-0.014,0.039-0.029,0.078-0.055,0.119v-2.801
				C76.359,73.414,76.375,73.373,76.389,73.334"/>
			<path fill="#9D5025" d="M76.334,73.432v2.801c-0.502,0.891-3.547,2.213-10.047,2.213c-3.912,0-7.078-0.508-9-1.07l-0.691-3.734
				c1.922,0.564,5.779,2.006,9.691,2.006C72.787,75.646,75.832,74.324,76.334,73.432"/>
		</g>
		<path fill="#9D5025" d="M76.41,73.201V76c0,0.867-2.967,2.469-10.123,2.469c-3.912,0-6.867-0.461-9-1.117v-2.801
			c2.133,0.656,5.088,1.117,9,1.117C73.443,75.668,76.41,74.066,76.41,73.201z"/>
		<path fill="#9D5025" d="M27.748,74.484v2.605c-2.219,0-4.02-1.785-4.145-4.002v-2.605C23.729,72.697,25.529,74.484,27.748,74.484z
			"/>
		<g>
			<polygon fill="#9D5025" points="53.602,74.459 53.602,77.062 27.561,77.09 27.561,74.484 			"/>
		</g>
		<path fill="#F58536" d="M76.139,45.514c-3.807-1.328-10.059-1.377-11.844-1.354c-5.219,0.07-11.164,1.307-12.16,2.854
			l-0.041,0.307l0.016,0.951l-0.016,24.83c0,0.457,0.963,0.953,1.367,1.357l-25.867,0.025c-2.22,0-4.02-1.787-4.02-4.002V25.523
			c0-2.203,1.8-3.988,4.02-3.988l44.682-0.004c2.221,0,4.021,1.787,4.021,4.002"/>
		<g>
			<path fill="#F58536" d="M76.426,56.104L76.41,73.201c0,0.865-2.967,2.467-10.123,2.467c-3.912,0-6.867-0.461-8.787-1.025
				c-1.424-0.461-2.43-0.98-2.543-1.369v-17.01c2.08,1.285,6.369,1.963,10.633,1.963h0.275c0.449-0.014,0.873-0.014,1.309-0.029
				l0.176-0.014c0.377-0.016,0.727-0.029,1.09-0.059c0.189-0.014,0.363-0.027,0.539-0.043c0.289-0.029,0.564-0.043,0.842-0.072
				c0.162-0.029,0.307-0.043,0.453-0.072c0.305-0.029,0.596-0.07,0.9-0.115C73.502,57.447,75.307,56.826,76.426,56.104z"/>
		</g>
	</g>
</g>
<g id="nyt_x5F_exporter_x5F_info" display="none">
</g>
</svg>
