<?xml version="1.0" encoding="utf-8"?>
<!-- Generator: Adobe Illustrator 18.1.1, SVG Export Plug-In . SVG Version: 6.00 Build 0)  -->
<svg version="1.2" baseProfile="tiny" id="Layer_1" xmlns="http://www.w3.org/2000/svg" xmlns:xlink="http://www.w3.org/1999/xlink"
	 x="0px" y="0px" viewBox="0 0 100 100" xml:space="preserve">
<g id="Layer_3">
</g>
<g id="Layer_1_1_">
	<text transform="matrix(1 0 0 1 8.8604 -4.6973)" fill="#231F20" font-family="'HelveticaNeueLTStd-Roman'" font-size="21.0885">Instances</text>
	<g>
		<polygon fill="#9D5025" points="72.859,75.809 72.859,78.504 48.9,78.504 47.904,74.969 		"/>
	</g>
	<g>
		<g>
			<polygon fill="#9D5025" points="53.713,30.217 53.713,32.91 35.891,32.91 33.396,29.508 			"/>
		</g>
		<g>
			<path fill="#9D5025" d="M35.891,30.217v2.693c-0.98,0-1.842,0.551-2.285,1.355V31.57C34.049,30.768,34.91,30.217,35.891,30.217"
				/>
			<path fill="#9D5025" d="M33.605,31.57v2.695c-0.08,0.143-0.146,0.295-0.197,0.453v-2.695
				C33.459,31.865,33.525,31.715,33.605,31.57"/>
			<path fill="#9D5025" d="M33.408,32.023v2.695c-0.043,0.133-0.074,0.271-0.096,0.412v-2.693
				C33.334,32.297,33.365,32.158,33.408,32.023"/>
			<path fill="#9D5025" d="M33.312,32.438v2.693c-0.018,0.119-0.025,0.24-0.025,0.363v-2.693
				C33.287,32.678,33.295,32.557,33.312,32.438"/>
		</g>
		<path fill="#9D5025" d="M35.891,30.217v2.693c-1.43,0-2.604,1.168-2.604,2.584v-2.693C33.287,31.385,34.461,30.217,35.891,30.217z
			"/>
		<g>
			<polygon fill="#9D5025" points="64.418,42.674 64.418,45.367 46.42,45.367 44.896,42.297 			"/>
		</g>
		<g>
			<path fill="#9D5025" d="M46.607,42.674v2.693c-0.984,0-1.84,0.545-2.281,1.346V44.02C44.768,43.217,45.623,42.674,46.607,42.674"
				/>
			<path fill="#9D5025" d="M44.326,44.02v2.693c-0.08,0.145-0.146,0.299-0.197,0.457v-2.693
				C44.18,44.316,44.246,44.164,44.326,44.02"/>
			<path fill="#9D5025" d="M44.129,44.477v2.693c-0.043,0.137-0.078,0.277-0.1,0.422v-2.695
				C44.051,44.754,44.086,44.611,44.129,44.477"/>
			<path fill="#9D5025" d="M44.029,44.896v2.695c-0.016,0.121-0.025,0.246-0.025,0.373v-2.693
				C44.004,45.145,44.014,45.02,44.029,44.896"/>
		</g>
		<path fill="#9D5025" d="M46.607,42.674v2.693c-1.441,0-2.604,1.166-2.604,2.598v-2.693C44.004,43.84,45.166,42.674,46.607,42.674z
			"/>
		<g>
			<polygon fill="#9D5025" points="33.287,50.824 33.287,53.52 27.342,53.52 26.41,50.25 			"/>
		</g>
		<g>
			<path fill="#9D5025" d="M27.342,50.824v2.695c-1.428,0-2.602-1.152-2.602-2.582v-2.695C24.74,49.674,25.914,50.824,27.342,50.824
				"/>
		</g>
		<path fill="#9D5025" d="M27.342,50.824v2.695c-1.428,0-2.602-1.152-2.602-2.582v-2.695C24.74,49.674,25.914,50.824,27.342,50.824z
			"/>
		<g>
			<rect x="37.871" y="63.281" fill="#9D5025" width="6.133" height="2.695"/>
		</g>
		<g>
			<path fill="#9D5025" d="M38.059,63.281v2.695c-1.441,0-2.604-1.152-2.604-2.582v-2.695
				C35.455,62.129,36.617,63.281,38.059,63.281"/>
		</g>
		<path fill="#9D5025" d="M38.059,63.281v2.695c-1.441,0-2.604-1.152-2.604-2.582v-2.695C35.455,62.129,36.617,63.281,38.059,63.281
			z"/>
		<g>
			<path fill="#9D5025" d="M48.9,75.809v2.695c-1.441,0-2.602-1.168-2.602-2.584v-2.695C46.299,74.643,47.459,75.809,48.9,75.809"/>
		</g>
		<path fill="#9D5025" d="M48.9,75.809v2.695c-1.441,0-2.602-1.168-2.602-2.584v-2.695C46.299,74.643,47.459,75.809,48.9,75.809z"/>
		<g>
			<path fill="#9D5025" d="M75.26,73.225v2.695c0,0.125-0.008,0.246-0.027,0.365v-2.693C75.252,73.473,75.26,73.35,75.26,73.225"/>
			<path fill="#9D5025" d="M75.232,73.592v2.693c-0.02,0.143-0.053,0.283-0.096,0.416v-2.693
				C75.18,73.873,75.213,73.734,75.232,73.592"/>
			<path fill="#9D5025" d="M75.137,74.008v2.693c-0.051,0.16-0.117,0.312-0.197,0.457v-2.693
				C75.02,74.318,75.086,74.168,75.137,74.008"/>
			<path fill="#9D5025" d="M74.939,74.465v2.693c-0.441,0.799-1.293,1.346-2.268,1.346v-2.695
				C73.646,75.809,74.498,75.264,74.939,74.465"/>
		</g>
		<path fill="#9D5025" d="M75.26,73.225v2.695c0,1.416-1.162,2.584-2.588,2.584v-2.695C74.098,75.809,75.26,74.643,75.26,73.225z"/>
		<g>
			<path fill="#F58536" d="M51.111,21.496c1.441,0,2.602,1.152,2.602,2.582v6.139H35.891c-1.43,0-2.604,1.168-2.604,2.584v18.023
				h-5.945c-1.428,0-2.602-1.15-2.602-2.582V24.078c0-1.43,1.174-2.582,2.602-2.582C27.342,21.496,51.111,21.496,51.111,21.496z"/>
		</g>
		<g>
			<path fill="#F58536" d="M61.828,33.951c1.428,0,2.59,1.168,2.59,2.584v6.139H46.607c-1.441,0-2.604,1.166-2.604,2.598v18.01
				h-5.945c-1.441,0-2.604-1.152-2.604-2.582V36.535c0-1.416,1.162-2.584,2.604-2.584H61.828z"/>
		</g>
		<g>
			<path fill="#F58536" d="M72.672,46.479c1.426,0,2.588,1.152,2.588,2.568v24.178c0,1.418-1.162,2.584-2.588,2.584H48.9
				c-1.441,0-2.602-1.166-2.602-2.584V49.047c0-1.416,1.16-2.568,2.602-2.568H72.672z"/>
		</g>
	</g>
</g>
<g id="nyt_x5F_exporter_x5F_info" display="none">
</g>
</svg>
