<?xml version="1.0" encoding="utf-8"?>
<!-- Generator: Adobe Illustrator 19.1.0, SVG Export Plug-In . SVG Version: 6.00 Build 0)  -->
<svg version="1.1" id="Layer_1" xmlns="http://www.w3.org/2000/svg" xmlns:xlink="http://www.w3.org/1999/xlink" x="0px" y="0px"
	 viewBox="-255 347 100 100" style="enable-background:new -255 347 100 100;" xml:space="preserve">
<style type="text/css">
	.st0{fill:#6B3A19;}
	.st1{fill:#F58536;}
	.st2{display:none;}
</style>
<g id="Layer_1_1_">
	<g>
		<g>
			<g>
				<path class="st0" d="M-191.1,368.4v2.7c-8.8,14.2-25.4,20.2-25.6,20.3c-0.1,0-0.2,0.2-0.3,0.4v-2.7c0.1-0.2,0.2-0.3,0.3-0.4
					C-216.5,388.7-199.9,382.6-191.1,368.4"/>
				<path class="st0" d="M-217,389.1v2.7c-0.1,0.2-0.2,0.4-0.2,0.6v-2.7C-217.2,389.4-217.1,389.2-217,389.1"/>
				<path class="st0" d="M-217.3,389.6v2.7c-0.1,0.3-0.2,0.6-0.2,0.9v-2.7C-217.4,390.2-217.4,389.9-217.3,389.6"/>
				<path class="st0" d="M-217.5,390.5v2.7c0,0.2,0,0.4,0,0.5V391C-217.5,390.8-217.5,390.7-217.5,390.5"/>
			</g>
			<path class="st0" d="M-217.5,393.7V391c0-0.8,0.4-2.1,0.8-2.3c0.2-0.1,16.8-6.1,25.6-20.3v2.7c-8.8,14.2-25.4,20.2-25.6,20.3
				C-217.1,391.5-217.5,392.9-217.5,393.7z"/>
			<g>
				<path class="st0" d="M-189.7,371.6v2.7c-0.1,1.5-0.3,3.2-0.6,4.9v-2.7C-190.1,374.8-189.9,373.1-189.7,371.6"/>
				<path class="st0" d="M-190.3,376.5v2.7c-0.4,2.7-1,5.5-1.8,7.8v-2.7C-191.3,382-190.7,379.2-190.3,376.5"/>
				<path class="st0" d="M-192.1,384.3v2.7c-0.4,1.2-0.8,2.2-1.3,3.1v-2.7C-192.9,386.5-192.5,385.5-192.1,384.3"/>
				<path class="st0" d="M-193.4,387.4v2.7c-0.3,0.6-0.7,1.1-1.1,1.6c-2.7,2.6-9.7,4.1-17.3,4.7v-2.7c7.6-0.6,14.6-2,17.3-4.7
					C-194.1,388.5-193.8,388-193.4,387.4"/>
			</g>
			<path class="st0" d="M-189.7,371.6v2.7c-0.6,6-1.9,14.5-4.8,17.4c-2.7,2.6-9.7,4.1-17.3,4.7v-2.7c7.6-0.6,14.6-2,17.3-4.7
				C-191.7,386.1-190.3,377.6-189.7,371.6z"/>
			<g>
				<path class="st1" d="M-215.7,392.5c0.7-0.2,16.7-5.8,26-20.9c-0.6,6-1.9,14.5-4.8,17.3c-2.7,2.6-9.7,4.1-17.3,4.7v29.3h-8.5
					v-29.2c0.6-6.7,1.1-12.1,6.9-17.3c4.1-3.7,15.3-7,22.3-7.9c-8.8,14.2-25.4,20.2-25.6,20.3c-0.5,0.2-1,2.1-0.8,2.6
					c0.1,0.4,1,1.2,1.4,1.2C-215.9,392.5-215.8,392.5-215.7,392.5z"/>
			</g>
			<g>
				<rect x="-220.3" y="422.9" class="st0" width="8.5" height="2.7"/>
			</g>
		</g>
	</g>
</g>
<g id="nyt_x5F_exporter_x5F_info" class="st2">
</g>
<g id="CloudTrail">
</g>
</svg>
