<?xml version="1.0" encoding="utf-8"?>
<!-- Generator: Adobe Illustrator 19.1.0, SVG Export Plug-In . SVG Version: 6.00 Build 0)  -->
<svg version="1.1" id="Layer_1" xmlns="http://www.w3.org/2000/svg" xmlns:xlink="http://www.w3.org/1999/xlink" x="0px" y="0px"
	 viewBox="0 0 100 100" style="enable-background:new 0 0 100 100;" xml:space="preserve">
<style type="text/css">
	.st0{fill:#99BCE3;}
	.st1{fill:#1A476F;}
	.st2{fill:#205B98;}
	.st3{fill:#5294CF;}
	.st4{display:none;}
	.st5{display:inline;}
	.st6{font-family:'MyriadPro-Regular';}
	.st7{font-size:12px;}
</style>
<g id="Layer_1_1_">
	<g>
		<polygon class="st0" points="79.8,62.7 50,59 20.2,62.7 50,71.6 		"/>
		<polygon class="st1" points="79.8,36.3 50,40 20.2,36.3 50,27.4 		"/>
		<polygon class="st2" points="50,14 20.2,28.9 20.2,37.3 50,28.4 		"/>
		<polygon class="st2" points="50,71.6 20.2,62.7 20.2,71.1 50,86 		"/>
		<polygon class="st2" points="50,60.9 37.4,59 37.4,41.2 50,39.3 		"/>
		<polygon class="st3" points="50,14 79.8,28.9 79.8,37.3 50,28.4 		"/>
		<polygon class="st3" points="50,71.6 79.8,62.7 79.8,71.1 50,86 		"/>
		<polygon class="st3" points="50,60.9 62.6,59 62.6,41.2 50,39.3 		"/>
	</g>
</g>
<g id="nyt_x5F_exporter_x5F_info" class="st4">
	<text transform="matrix(1 0 0 1 -534 0)" class="st5 st6 st7">&lt;nyt_prefs&gt;</text>
	<text transform="matrix(1 0 0 1 -534 14.4)" class="st5 st6 st7">  &lt;nyt_prefix&gt;&lt;/nyt_prefix&gt;</text>
	<text transform="matrix(1 0 0 1 -534 28.8)" class="st5 st6 st7">  &lt;nyt_suffix&gt;&lt;/nyt_suffix&gt;</text>
	<text transform="matrix(1 0 0 1 -534 43.2)" class="st5 st6 st7">  &lt;nyt_base_path&gt;~/Desktop/wip/Architecture%20Icons%20-%20Update%20all%20customer-facing%20files%20/AWS-Simple-Icons%202/Database/EPS&lt;/nyt_base_path&gt;</text>
	<text transform="matrix(1 0 0 1 -534 57.6)" class="st5 st6 st7">  &lt;nyt_scaling&gt;100&lt;/nyt_scaling&gt;</text>
	<text transform="matrix(1 0 0 1 -534 72)" class="st5 st6 st7">  &lt;nyt_transparency&gt;true&lt;/nyt_transparency&gt;</text>
	<text transform="matrix(1 0 0 1 -534 86.4)" class="st5 st6 st7">  &lt;nyt_format&gt;EPS&lt;/nyt_format&gt;</text>
	<text transform="matrix(1 0 0 1 -534 100.8)" class="st5 st6 st7">  &lt;nyt_export_code&gt;artboards&lt;/nyt_export_code&gt;</text>
	<text transform="matrix(1 0 0 1 -534 115.2)" class="st5 st6 st7">&lt;/nyt_prefs&gt;</text>
</g>
</svg>
