<?xml version="1.0" encoding="utf-8"?>
<!-- Generator: Adobe Illustrator 19.1.0, SVG Export Plug-In . SVG Version: 6.00 Build 0)  -->
<svg version="1.1" id="Layer_1" xmlns="http://www.w3.org/2000/svg" xmlns:xlink="http://www.w3.org/1999/xlink" x="0px" y="0px"
	 viewBox="0 0 100 100" style="enable-background:new 0 0 100 100;" xml:space="preserve">
<style type="text/css">
	.st0{fill:#1A476F;}
	.st1{fill:#2D72B8;}
	.st2{fill:#FFFFFF;stroke:#19486F;stroke-miterlimit:10;}
	.st3{font-family:'HelveticaNeueLTStd-BdCn';}
	.st4{font-size:11px;}
	.st5{display:none;}
</style>
<g id="Layer_1_1_">
	<path class="st0" d="M23.6,70.5c0,0-0.8,6,4,6s44.9,0,44.9,0s3.7-0.8,4-5.4L23.6,70.5z"/>
	<path class="st1" d="M76.5,71.5c0,2.2-1.8,4-4,4h-45c-2.2,0-4-1.8-4-4v-45c0-2.2,1.8-4,4-4h45c2.2,0,4,1.8,4,4V71.5z"/>
	<g>
		<path class="st2" d="M73,67c0,2.2-1.8,4-4,4H50c-2.2,0-4-1.8-4-4v-6c0-2.2,1.8-4,4-4h19c2.2,0,4,1.8,4,4V67z"/>
	</g>
	<text transform="matrix(1 0 0 1 49.3105 68.1904)" class="st1 st3 st4">PIOP</text>
</g>
<g id="nyt_x5F_exporter_x5F_info" class="st5">
</g>
</svg>
