<?xml version="1.0" encoding="utf-8"?>
<!-- Generator: Adobe Illustrator 19.1.0, SVG Export Plug-In . SVG Version: 6.00 Build 0)  -->
<svg version="1.1" xmlns="http://www.w3.org/2000/svg" xmlns:xlink="http://www.w3.org/1999/xlink" x="0px" y="0px"
	 viewBox="0 0 100 100" style="enable-background:new 0 0 100 100;" xml:space="preserve">
<style type="text/css">
	.st0{fill:#2D72B8;}
	.st1{fill:#5294CF;}
	.st2{fill:#205B98;}
	.st3{fill:#1A476F;}
	.st4{enable-background:new    ;}
	.st5{fill:#FFFFFF;}
	.st6{clip-path:url(#SVGID_2_);enable-background:new    ;}
	.st7{clip-path:url(#SVGID_4_);enable-background:new    ;}
	.st8{clip-path:url(#SVGID_6_);enable-background:new    ;}
	.st9{clip-path:url(#SVGID_10_);enable-background:new    ;}
	.st10{clip-path:url(#SVGID_12_);enable-background:new    ;}
	.st11{clip-path:url(#SVGID_16_);enable-background:new    ;}
	.st12{clip-path:url(#SVGID_18_);enable-background:new    ;}
	.st13{clip-path:url(#SVGID_20_);enable-background:new    ;}
	.st14{clip-path:url(#SVGID_24_);enable-background:new    ;}
	.st15{clip-path:url(#SVGID_26_);enable-background:new    ;}
	.st16{clip-path:url(#SVGID_30_);enable-background:new    ;}
	.st17{clip-path:url(#SVGID_32_);enable-background:new    ;}
	.st18{clip-path:url(#SVGID_34_);enable-background:new    ;}
	.st19{clip-path:url(#SVGID_36_);enable-background:new    ;}
	.st20{clip-path:url(#SVGID_40_);enable-background:new    ;}
	.st21{clip-path:url(#SVGID_42_);enable-background:new    ;}
	.st22{fill:#99BCE3;}
	.st23{clip-path:url(#SVGID_44_);enable-background:new    ;}
	.st24{display:none;}
	.st25{fill:none;}
	.st26{fill:#FFFFFF;stroke:#19486F;stroke-miterlimit:10;}
</style>
<g id="Layer_1">
	<g>
		<g>
			<g class="st4">
				<g>
					<path class="st0" d="M49,76.2H23.8v-15H49V76.2z"/>
				</g>
				<g>
					<rect x="23.8" y="75.2" class="st3" width="25.2" height="2.2"/>
				</g>
			</g>
			<g class="st4">
				<g>
					<rect x="52.2" y="61.2" class="st0" width="24" height="15"/>
				</g>
				<g>
					<rect x="52.2" y="75.2" class="st3" width="24" height="2.2"/>
				</g>
			</g>
			<g class="st4">
				<g>
					<path class="st0" d="M49,56.8H23.8V42H49V56.8z"/>
				</g>
				<g>
					<rect x="23.8" y="55.8" class="st3" width="25.2" height="2.2"/>
				</g>
			</g>
			<g class="st4">
				<g>
					<path class="st0" d="M49,37.5H23.8V21.6H49V37.5z"/>
				</g>
				<g>
					<rect x="23.8" y="36.5" class="st3" width="25.2" height="2.2"/>
				</g>
			</g>
			<g class="st4">
				<g>
					<rect x="52.2" y="42" class="st0" width="24" height="14.8"/>
				</g>
				<g>
					<rect x="52.2" y="55.8" class="st3" width="24" height="2.2"/>
				</g>
			</g>
			<g class="st4">
				<g>
					<rect x="52.2" y="21.6" class="st0" width="24" height="15.9"/>
				</g>
				<g>
					<rect x="52.2" y="36.5" class="st3" width="24" height="2.2"/>
				</g>
			</g>
		</g>
		<ellipse class="st5" cx="36.8" cy="29.9" rx="4.9" ry="4.9"/>
		<ellipse class="st5" cx="36.8" cy="49.2" rx="4.9" ry="4.9"/>
		<path class="st5" d="M41.7,68.8c0,2.7-2.2,4.9-4.9,4.9c-2.7,0-4.9-2.2-4.9-4.9c0-2.7,2.2-4.9,4.9-4.9
			C39.5,63.9,41.7,66.1,41.7,68.8z"/>
	</g>
</g>
<g id="nyt_x5F_exporter_x5F_info" class="st24">
</g>
</svg>
