<?xml version="1.0" encoding="utf-8"?>
<!-- Generator: Adobe Illustrator 19.1.0, SVG Export Plug-In . SVG Version: 6.00 Build 0)  -->
<svg version="1.1" id="Layer_1" xmlns="http://www.w3.org/2000/svg" xmlns:xlink="http://www.w3.org/1999/xlink" x="0px" y="0px"
	 viewBox="0 0 100 100" style="enable-background:new 0 0 100 100;" xml:space="preserve">
<style type="text/css">
	.st0{display:none;}
	.st1{fill:#4B612C;}
	.st2{fill:#759C3E;}
</style>
<g id="Layer_1_1_">
</g>
<g id="nyt_x5F_exporter_x5F_info" class="st0">
</g>
<g id="CloudTrail">
	<g id="Permissions">
		<g>
			<path class="st1" d="M73.9,46.4v-17c0-7-5.7-12.8-12.8-12.8h-17c-7,0-12.8,5.7-12.8,12.8v17h-8.5v38.3h59.5V46.4H73.9z
				 M65.4,46.4H39.9V32.8c0-4.2,3.4-7.7,7.7-7.7h10.2c4.2,0,7.7,3.4,7.7,7.7L65.4,46.4L65.4,46.4z"/>
		</g>
		<g>
			<path class="st2" d="M73.9,42.4v-17c0-7-5.7-12.8-12.8-12.8h-17c-7,0-12.8,5.7-12.8,12.8v17h-8.5v38.3h59.5V42.4H73.9z
				 M65.4,42.4H39.9V28.8c0-4.2,3.4-7.7,7.7-7.7h10.2c4.2,0,7.7,3.4,7.7,7.7L65.4,42.4L65.4,42.4z"/>
		</g>
	</g>
</g>
</svg>
