<?xml version="1.0" encoding="utf-8"?>
<!-- Generator: Adobe Illustrator 19.1.0, SVG Export Plug-In . SVG Version: 6.00 Build 0)  -->
<svg version="1.1" id="Layer_1" xmlns="http://www.w3.org/2000/svg" xmlns:xlink="http://www.w3.org/1999/xlink" x="0px" y="0px"
	 viewBox="0 0 100 100" style="enable-background:new 0 0 100 100;" xml:space="preserve">
<style type="text/css">
	.st0{display:none;}
	.st1{fill:#759C3E;}
	.st2{fill:#4B612C;}
</style>
<g id="Layer_1_1_">
</g>
<g id="nyt_x5F_exporter_x5F_info" class="st0">
</g>
<g id="CloudTrail">
	<g id="Instances">
		<rect x="14" y="13" class="st1" width="18" height="14"/>
		<rect x="41" y="13" class="st1" width="18" height="14"/>
		<rect x="68" y="13" class="st1" width="18" height="14"/>
		<rect x="14" y="40" class="st1" width="18" height="14"/>
		<rect x="41" y="40" class="st1" width="18" height="14"/>
		<rect x="68" y="40" class="st1" width="18" height="14"/>
		<rect x="14" y="67" class="st1" width="18" height="14"/>
		<rect x="41" y="67" class="st1" width="18" height="14"/>
		<rect x="68" y="67" class="st1" width="18" height="14"/>
		<rect x="14" y="27" class="st2" width="18" height="4"/>
		<rect x="41" y="27" class="st2" width="18" height="4"/>
		<rect x="68" y="27" class="st2" width="18" height="4"/>
		<rect x="14" y="54" class="st2" width="18" height="4"/>
		<rect x="41" y="54" class="st2" width="18" height="4"/>
		<rect x="68" y="54" class="st2" width="18" height="4"/>
		<rect x="14" y="81" class="st2" width="18" height="4"/>
		<rect x="41" y="81" class="st2" width="18" height="4"/>
		<rect x="68" y="81" class="st2" width="18" height="4"/>
	</g>
</g>
</svg>
