<?xml version="1.0" encoding="utf-8"?>
<!-- Generator: Adobe Illustrator 19.1.0, SVG Export Plug-In . SVG Version: 6.00 Build 0)  -->
<svg version="1.1" id="Layer_1" xmlns="http://www.w3.org/2000/svg" xmlns:xlink="http://www.w3.org/1999/xlink" x="0px" y="0px"
	 viewBox="0 0 100 100" style="enable-background:new 0 0 100 100;" xml:space="preserve">
<style type="text/css">
	.st0{display:none;}
	.st1{fill:#4B612C;}
	.st2{fill:#759C3E;}
	.st3{fill:#3C4929;}
	.st4{fill:#B7CA9D;}
</style>
<g id="Layer_1_1_">
</g>
<g id="nyt_x5F_exporter_x5F_info" class="st0">
</g>
<g id="CloudTrail">
	<g>
		<polygon class="st1" points="22,45.7 20.2,45.8 20.2,37.3 22,36.8 		"/>
		<polygon class="st2" points="28.7,37.7 22,36.8 22,45.6 28.7,45.9 		"/>
		<polygon class="st3" points="28.7,45.9 26.7,46.1 20.2,45.8 22,45.7 		"/>
		<polygon class="st1" points="22,54.6 20.2,54.5 20.2,62.9 22,63.5 		"/>
		<polygon class="st2" points="28.7,62.6 22,63.5 22,54.6 28.7,54.3 		"/>
		<polygon class="st4" points="28.7,54.3 26.7,54.2 20.2,54.5 22,54.6 		"/>
		<polygon class="st1" points="26.2,30.8 31.2,28.9 31.2,44.8 26.2,45.2 		"/>
		<polygon class="st2" points="40.9,31.2 31.2,29 31.2,44.8 40.9,45.3 		"/>
		<polygon class="st3" points="40.9,45.3 35.5,45.7 26.2,45.2 31.2,44.7 		"/>
		<polygon class="st1" points="26.2,69.4 31.2,71.3 31.2,55.5 26.2,55.1 		"/>
		<polygon class="st2" points="40.9,69.3 31.2,71.4 31.2,55.5 40.9,55 		"/>
		<polygon class="st4" points="40.9,55 35.5,54.6 26.2,55.1 31.2,55.6 		"/>
		<polygon class="st2" points="79.8,71.1 50,86 50,14 79.8,28.9 		"/>
		<polygon class="st1" points="37.4,79.7 50,86 50,14 37.4,20.3 		"/>
	</g>
</g>
</svg>
