<?xml version="1.0" encoding="utf-8"?>
<!-- Generator: Adobe Illustrator 19.1.0, SVG Export Plug-In . SVG Version: 6.00 Build 0)  -->
<svg version="1.1" id="Layer_1" xmlns="http://www.w3.org/2000/svg" xmlns:xlink="http://www.w3.org/1999/xlink" x="0px" y="0px"
	 viewBox="0 0 100 100" style="enable-background:new 0 0 100 100;" xml:space="preserve">
<style type="text/css">
	.st0{fill:#512843;}
	.st1{fill:#692F56;}
	.st2{fill:#C17B9E;}
	.st3{fill:#CFB2C1;}
	.st4{fill:#875A78;}
</style>
<polygon class="st0" points="9.9,37 75.1,21.5 75.1,35.3 17.9,38.8 "/>
<polygon class="st1" points="42.7,55.8 83.7,61.7 83.7,74.3 42.7,64.4 "/>
<polygon class="st2" points="79.6,62.9 70.6,65.6 70.6,80.9 79.6,76.4 "/>
<polygon class="st2" points="90.1,59.7 83.7,61.6 83.7,74.3 90.1,71.1 "/>
<polygon class="st1" points="29,57.5 70.6,65.6 70.6,80.9 29,67.3 "/>
<polygon class="st2" points="64.4,67.4 50,71.7 50,91.2 64.4,83.9 "/>
<polygon class="st1" points="9.9,59.7 50,71.7 50,91.2 9.9,71.1 "/>
<polygon class="st3" points="9.9,59.7 49.9,71.7 64.4,67.4 22.6,58.1 "/>
<polygon class="st3" points="42.7,55.8 83.5,61.7 90.1,59.7 50.5,54.8 "/>
<polygon class="st3" points="29,57.5 70.5,65.6 79.6,62.9 38.4,56.3 "/>
<polygon class="st4" points="9.9,25.8 62.1,13.4 62.1,8.8 11.2,24.7 "/>
<polygon class="st4" points="71.6,22.1 90.1,18.9 90.1,14.3 71.6,18.1 "/>
<polygon class="st2" points="90.1,42.7 50.1,42.7 50.1,61.8 90.1,53.9 "/>
<polygon class="st2" points="50.1,33.1 50.1,13.9 62.1,8.8 75.1,21 90.1,14.3 90.1,25.8 75.1,35.3 61.9,25.4 "/>
<polygon class="st1" points="9.9,42.7 50.1,42.7 50.1,61.8 9.9,53.9 "/>
<polygon class="st1" points="9.9,37 50.1,33 50.1,13.9 9.9,25.8 "/>
</svg>
