<?xml version="1.0" encoding="utf-8"?>
<!-- Generator: Adobe Illustrator 19.1.0, SVG Export Plug-In . SVG Version: 6.00 Build 0)  -->
<svg version="1.1" id="Layer_1" xmlns="http://www.w3.org/2000/svg" xmlns:xlink="http://www.w3.org/1999/xlink" x="0px" y="0px"
	 viewBox="0 0 100 100" style="enable-background:new 0 0 100 100;" xml:space="preserve">
<style type="text/css">
	.st0{enable-background:new    ;}
	.st1{fill:#4B612C;}
	.st2{clip-path:url(#SVGID_2_);enable-background:new    ;}
	.st3{clip-path:url(#SVGID_4_);}
	.st4{clip-path:url(#SVGID_6_);}
	.st5{clip-path:url(#SVGID_8_);}
	.st6{fill:#759C3E;}
	.st7{fill:#3C4929;}
	.st8{fill:#FFFFFF;stroke:#3C4929;stroke-width:3;stroke-miterlimit:10;}
	.st9{fill:none;stroke:#3C4929;stroke-width:3;stroke-miterlimit:10;}
	.st10{fill:#D2D3D3;}
	.st11{fill:#7D7C7C;}
	.st12{fill:#373737;}
	.st13{fill:#B7CA9D;}
	.st14{fill:#FFFFFF;}
	.st15{fill:#FFFFFF;stroke:#4F4F4F;stroke-width:3;stroke-miterlimit:10;}
	.st16{fill:none;stroke:#4F4F4F;stroke-width:3;stroke-miterlimit:10;}
	.st17{fill:#D2D3D3;stroke:#7D7C7C;stroke-width:2;stroke-miterlimit:10;}
</style>
<g id="CloudTrail_14_">
	<path class="st11" d="M29.6,69.9c-3.2,0-6.1-3-6.1-6.3v-23c0-3.3,2.8-5.7,6.1-5.7h41.1c3.2,0,5.9,2.4,5.9,5.7v23
		c0,3.3-2.6,6.3-5.9,6.3H29.6z"/>
	<path class="st14" d="M29.6,66.9c-3.2,0-6.1-3-6.1-6.3v-23c0-3.3,2.8-5.7,6.1-5.7h41.1c3.2,0,5.9,2.4,5.9,5.7v23
		c0,3.3-2.6,6.3-5.9,6.3H29.6z"/>
	<g>
		<path class="st11" d="M64.1,51.4l3.5,3.3L66,57.6l-18.1,0.3c0,0.1-0.2,0.6-0.6,1.2c-0.3,0.5-0.6,1-1,1.5C46,61,45.5,61.4,45,61.8
			c-1.8,1.5-3.9,2.2-6.1,2.2c-2.4,0-4.9-0.9-6.7-2.7c-0.3-0.2-0.5-0.5-0.8-0.8c-3.4-4.1-2.8-10.1,1.4-13.5c1.8-1.5,4-2.2,6.1-2.2
			c2.2,0,4.3,0.7,6.1,2.1c1.3,1,2.2,2.4,2.2,2.4l1,0l4.4-0.1l1.6,2.7l3.8-0.4l1.4,1.5l1.3,0.3L64.1,51.4z M34.7,56.8
			c1.4,0,2.5-1.2,2.5-2.5c0-1.4-1.2-2.5-2.6-2.5c0,0,0,0,0,0c-1.4,0-2.5,1.2-2.5,2.6C32.1,55.6,33.2,56.8,34.7,56.8
			C34.6,56.8,34.7,56.8,34.7,56.8"/>
	</g>
	<g>
		<path class="st6" d="M40.1,42.6l-3.5-3.3l1.6-2.9l18.1-0.3c0-0.1,0.2-0.6,0.6-1.2c0.3-0.5,0.6-1,1-1.5c0.4-0.5,0.8-0.9,1.3-1.3
			c1.8-1.5,3.9-2.2,6.1-2.2c2.4,0,4.9,0.9,6.7,2.7c0.3,0.2,0.5,0.5,0.8,0.8c3.4,4.1,2.8,10.1-1.4,13.5c-1.8,1.5-4,2.2-6.1,2.2
			c-2.2,0-4.3-0.7-6.1-2.1c-1.3-1-2.2-2.4-2.2-2.4l-1,0l-4.4,0.1L50,42l-3.8,0.4l-1.4-1.5l-1.3-0.3L40.1,42.6z M69.5,37.3
			c-1.4,0-2.5,1.2-2.5,2.5c0,1.4,1.2,2.5,2.6,2.5c0,0,0,0,0,0c1.4,0,2.5-1.2,2.5-2.6C72,38.4,70.9,37.3,69.5,37.3
			C69.5,37.3,69.5,37.3,69.5,37.3"/>
	</g>
</g>
</svg>
