<?xml version="1.0" encoding="utf-8"?>
<!-- Generator: Adobe Illustrator 19.0.0, SVG Export Plug-In . SVG Version: 6.00 Build 0)  -->
<svg version="1.1" id="Layer_1" xmlns="http://www.w3.org/2000/svg" xmlns:xlink="http://www.w3.org/1999/xlink" x="0px" y="0px"
	 viewBox="0 0 100 100" style="enable-background:new 0 0 100 100;" xml:space="preserve">
<style type="text/css">
	.st0{fill:#8C3123;}
	.st1{fill:#E05243;}
	.st2{display:none;}
</style>
<g id="Layer_1_1_">
	<g>
		<g>
			<g>
				<path class="st0" d="M22.8,35.7c-0.1-0.2-0.2-0.5-0.2-0.7L22.8,35.7z"/>
			</g>
			<g>
				<path class="st0" d="M77.2,35.7l0.2-0.7C77.4,35.2,77.3,35.5,77.2,35.7z"/>
			</g>
			<g>
				<polygon class="st0" points="77.4,32.7 77.4,35 77.2,35.7 77.2,33.4 				"/>
			</g>
			<g>
				<polygon class="st0" points="22.8,33.4 22.8,35.7 22.6,35 22.6,32.7 				"/>
			</g>
			<g>
				<path class="st0" d="M77.4,28.2v2.3c0,0.1,0,0.2,0,0.3v-2.3C77.3,28.4,77.4,28.3,77.4,28.2"/>
				<path class="st0" d="M77.3,28.5v2.3c0,0.1,0,0.2-0.1,0.3v-2.3C77.3,28.7,77.3,28.6,77.3,28.5"/>
				<path class="st0" d="M77.3,28.8v2.3c0,0.1-0.1,0.3-0.2,0.4v-2.3C77.1,29,77.2,28.9,77.3,28.8"/>
				<path class="st0" d="M77.1,29.2v2.3C75.1,34.6,63.7,37,50,37c-15.1,0-27.4-2.9-27.4-6.4v-2.3c0,3.6,12.2,6.4,27.4,6.4
					C63.7,34.7,75.1,32.3,77.1,29.2"/>
			</g>
			<path class="st0" d="M77.4,28.2v2.3c0,3.6-12.3,6.4-27.4,6.4c-15.1,0-27.4-2.9-27.4-6.4v-2.3c0,3.6,12.2,6.4,27.4,6.4
				C65.1,34.7,77.4,31.8,77.4,28.2z"/>
			<g>
				<path class="st1" d="M50,21.8c15.1,0,27.4,2.9,27.4,6.4c0,3.6-12.3,6.4-27.4,6.4c-15.1,0-27.4-2.9-27.4-6.4
					C22.6,24.7,34.9,21.8,50,21.8z"/>
			</g>
			<g>
				<polygon class="st0" points="77.2,33.4 77.2,35.7 68.2,73.9 68.2,71.6 				"/>
			</g>
			<g>
				<polygon class="st0" points="31.8,71.6 31.8,73.9 22.8,35.7 22.8,33.4 				"/>
			</g>
			<g>
				<path class="st0" d="M68.2,71.6v2.3c0,0.1,0,0.1,0,0.2v-2.3C68.2,71.7,68.2,71.6,68.2,71.6"/>
				<path class="st0" d="M68.2,71.8v2.3c0,0.1,0,0.1,0,0.2v-2.3C68.2,71.9,68.2,71.8,68.2,71.8"/>
				<path class="st0" d="M68.2,71.9v2.3c0,0.1-0.1,0.2-0.1,0.3v-2.3C68.1,72.1,68.1,72,68.2,71.9"/>
				<path class="st0" d="M68,72.2v2.3c-1.3,2.1-8.9,3.7-18.1,3.7c-10.1,0-18.2-1.9-18.2-4.3v-2.3c0,2.4,8.2,4.3,18.2,4.3
					C59.2,75.9,66.8,74.3,68,72.2"/>
			</g>
			<path class="st0" d="M68.2,71.6v2.3c0,2.4-8.2,4.3-18.2,4.3c-10.1,0-18.2-1.9-18.2-4.3v-2.3c0,2.4,8.2,4.3,18.2,4.3
				C60.1,75.9,68.2,74,68.2,71.6z"/>
			<g>
				<path class="st1" d="M50,39.1c14.1,0,25.7-2.5,27.2-5.7l-8.9,38.2c0,2.4-8.2,4.3-18.2,4.3c-10.1,0-18.2-1.9-18.2-4.3l-8.9-38.2
					C24.3,36.6,35.9,39.1,50,39.1z"/>
			</g>
		</g>
	</g>
</g>
<g id="nyt_x5F_exporter_x5F_info" class="st2">
</g>
</svg>
