<?xml version="1.0" encoding="utf-8"?>
<!-- Generator: Adobe Illustrator 19.1.0, SVG Export Plug-In . SVG Version: 6.00 Build 0)  -->
<svg version="1.1" id="Layer_1" xmlns="http://www.w3.org/2000/svg" xmlns:xlink="http://www.w3.org/1999/xlink" x="0px" y="0px"
	 viewBox="0 0 100 100" style="enable-background:new 0 0 100 100;" xml:space="preserve">
<style type="text/css">
	.st0{fill:#DF5343;}
	.st1{fill:#8B3223;}
	.st2{fill:#5E1F19;}
	.st3{fill:#F1AFA8;}
</style>
<g>
	<polygon class="st0" points="84.1,35.5 50,25.3 50,8.8 84.1,25.9 	"/>
	<polygon class="st0" points="74.5,44.2 84.1,45.2 84.1,25.9 74.5,21.1 	"/>
	<polygon class="st1" points="50,36.6 74.5,32.6 74.5,44.2 50,45.5 	"/>
	<polygon class="st2" points="50,45.5 74.5,44.2 84.1,45.2 60.9,46.1 	"/>
	<polygon class="st0" points="84.1,64.5 50,74.7 50,91.2 84.1,74.1 	"/>
	<polygon class="st0" points="74.5,55.8 84.1,54.8 84.1,74.1 74.5,78.9 	"/>
	<polygon class="st1" points="50,63.4 74.5,67.4 74.5,55.8 50,54.5 	"/>
	<polygon class="st3" points="50,54.5 74.5,55.8 84.1,54.8 60.9,53.9 	"/>
	<polygon class="st1" points="15.9,35.5 50,25.3 50,8.8 15.9,25.9 	"/>
	<polygon class="st1" points="25.5,44.2 15.9,45.2 15.9,25.9 25.5,21.1 	"/>
	<polygon class="st0" points="50,36.6 25.5,32.6 25.5,44.2 50,45.5 	"/>
	<polygon class="st2" points="50,45.5 25.5,44.2 15.9,45.2 39.1,46.1 	"/>
	<polygon class="st1" points="15.9,64.5 50,74.7 50,91.2 15.9,74.1 	"/>
	<polygon class="st1" points="25.5,55.8 15.9,54.8 15.9,74.1 25.5,78.9 	"/>
	<polygon class="st0" points="50,63.4 25.5,67.4 25.5,55.8 50,54.5 	"/>
	<polygon class="st3" points="50,54.5 25.5,55.8 15.9,54.8 39.1,53.9 	"/>
	<polygon class="st0" points="64.4,39.9 50,37.7 50,62.4 64.4,60.2 	"/>
	<polygon class="st1" points="35.6,39.9 50,37.7 50,62.4 35.6,60.2 	"/>
	<polygon class="st2" points="74.5,32.6 50,36.6 25.5,32.6 50,25.2 	"/>
	<polygon class="st3" points="74.5,67.4 50,63.4 25.5,67.4 50,74.8 	"/>
</g>
</svg>
