<?xml version="1.0" encoding="utf-8"?>
<!-- Generator: Adobe Illustrator 21.0.0, SVG Export Plug-In . SVG Version: 6.00 Build 0)  -->
<svg version="1.1" id="Layer_1" xmlns="http://www.w3.org/2000/svg" xmlns:xlink="http://www.w3.org/1999/xlink" x="0px" y="0px"
	 width="100px" height="100px" viewBox="0 0 100 100" style="enable-background:new 0 0 100 100;" xml:space="preserve">
<style type="text/css">
	.st0{fill:#373737;}
	.st1{fill:#4F4F4F;}
	.st2{fill:#D2D3D3;}
	.st3{fill:#7D7C7C;}
	.st4{fill:#ACACAC;}
</style>
<path class="st0" d="M82,59.3v-7.7l-2.7,0v-3.2l2.7,0v-7.5l-2.7-1.4v-1.8l2.7-0.2v-7.6L74,21l0,0v0l-14.3-7.2v0l-20.1,0L25.1,21l0,0
	v0l-7,8.8v7.7l2,0.2v1.8l-2,1.2v7.7l2,0v3.2l-2,0v7.6l2,1.2v1.9l-2,0.2l0,7.6l7,8.8v0l0,0l14.5,7.2l0,0h20.1v0L74,79v0l0,0l8-8.8
	v-7.6l-2.7-0.3v-1.7L82,59.3z M58.8,57.3L43.4,75.6l3-15.8l-6.5-2l6.3-12.3l-5.9-2.8l15.4-18.4l-3,15.8l6.5,2l-6.3,12.3L58.8,57.3z"
	/>
<polygon class="st1" points="25.1,68 25.1,79 39.5,86.2 39.5,72.4 "/>
<polygon class="st1" points="39.5,27.2 39.5,13.8 25.1,21 25.1,32 "/>
<polygon class="st2" points="46.3,45.5 43.7,46 39.5,46.7 35.9,42.3 40.4,42.7 "/>
<polygon class="st2" points="44,63.7 46.5,59.8 39.9,57.8 35.9,61.1 39.5,65.3 "/>
<polygon class="st1" points="52.7,40.1 55.3,36.4 58.5,35.8 55.9,33.2 57.1,27.2 59.2,26.5 59.6,13.9 55.7,24.3 "/>
<polygon class="st1" points="55.6,53.7 52.9,54.5 59.2,42.2 63.3,38.9 66.2,45.5 58.9,47.3 55.8,53.3 57.7,54 "/>
<polygon class="st1" points="58.8,57.3 63.6,57.5 59.6,66.4 56.1,66.4 51,72.4 54,83.5 39.5,86.1 43.4,75.6 "/>
<g>
	<polygon class="st3" points="55.3,36.4 59.6,37.8 59.6,33.2 55.9,33.2 	"/>
	<polygon class="st3" points="43,47.3 43.7,46 39.5,44 39.5,47.3 39.6,47.3 	"/>
	<polygon class="st3" points="55.6,53.7 59.6,55.6 59.6,53.3 55.8,53.3 	"/>
	<polygon class="st3" points="44,63.7 39.5,62.2 39.5,66.4 43.5,66.4 	"/>
	<polygon class="st3" points="43.5,33.2 39.5,33.2 39.5,38 	"/>
	<polygon class="st3" points="39.5,72.4 39.5,86.1 42.3,72.4 	"/>
	<polygon class="st3" points="59.6,66.4 59.6,62.2 56.1,66.4 	"/>
	<polygon class="st3" points="59.6,27.2 59.6,13.9 57.1,27.2 	"/>
	<polygon class="st3" points="39.5,86.1 39.5,86.2 59.6,86.2 59.6,72.4 51,72.4 	"/>
	<polygon class="st3" points="39.5,27.2 48.5,27.2 59.6,13.9 59.6,13.8 39.5,13.8 	"/>
</g>
<polygon class="st4" points="59.6,55.6 63.6,57.5 59.6,62.2 59.6,66.4 73.9,63.3 73.9,63.3 73.9,52.3 59.6,53.3 "/>
<polygon class="st4" points="59.6,13.8 59.6,13.8 59.6,13.9 59.6,27.2 73.9,31.8 73.9,31.8 73.9,21 "/>
<polygon class="st4" points="59.6,37.8 63.3,38.9 59.6,46 58.9,47.3 59.6,47.3 59.6,47.3 73.9,47.8 73.9,36.6 59.6,33.2 "/>
<polygon class="st4" points="59.6,86.2 73.9,79 73.9,68 59.6,72.4 "/>
<polygon class="st3" points="73.9,63.3 82,59.3 82,51.6 73.9,52.3 "/>
<polygon class="st3" points="82,37.5 82,29.8 74,21 73.9,31.9 "/>
<polygon class="st3" points="73.9,36.6 73.9,47.8 82,48.4 82,40.9 "/>
<polygon class="st3" points="74,79 82,70.2 82,62.6 73.9,68 "/>
<polygon class="st1" points="25.5,63.3 33.4,65 39.5,66.4 39.5,62.2 35.9,61.1 39.5,54.1 39.9,53.3 39.5,53.3 29.8,52.6 25.1,52.3 
	25.1,63.2 25.2,63.3 "/>
<polygon class="st1" points="39.5,47.3 39.5,44 35.9,42.3 39.5,38 39.5,33.2 25.2,36.6 25.1,36.7 25.1,47.7 30,47.5 "/>
</svg>
