<?xml version="1.0" encoding="utf-8"?>
<!-- Generator: Adobe Illustrator 21.0.0, SVG Export Plug-In . SVG Version: 6.00 Build 0)  -->
<svg version="1.1" id="Layer_1" xmlns="http://www.w3.org/2000/svg" xmlns:xlink="http://www.w3.org/1999/xlink" x="0px" y="0px"
	 width="100px" height="100px" viewBox="0 0 100 100" style="enable-background:new 0 0 100 100;" xml:space="preserve">
<style type="text/css">
	.st0{fill:#D2D3D3;}
	.st1{fill:#4F4F4F;}
	.st2{fill:#ACACAC;}
</style>
<g>
	<polygon class="st0" points="41.4,54.7 53.4,55.9 61.9,55 50,54 	"/>
	<polygon class="st1" points="53.4,69.9 41.4,66.9 41.4,54.7 53.4,55.9 	"/>
	<polygon class="st1" points="13.1,57.1 23.6,59.2 23.6,78 13.1,72.7 	"/>
	<polygon class="st0" points="13.1,57.1 23.6,59.2 38.6,57.6 27.1,55.9 	"/>
	<polygon class="st2" points="23.6,78 38.6,73.9 38.6,57.6 23.6,59.2 	"/>
	<polygon class="st2" points="53.4,69.9 61.9,67.6 61.9,55 53.4,55.9 	"/>
	<polygon class="st2" points="86.9,72.7 79.5,76.4 79.5,58.6 86.9,57.1 	"/>
	<polygon class="st0" points="60.6,56.7 79.5,58.6 86.9,57.1 69,55.6 	"/>
	<polygon class="st1" points="79.5,76.4 60.6,71.7 60.6,56.7 79.5,58.6 	"/>
	<polygon class="st1" points="24.9,46.7 36.3,46.7 36.3,18.8 24.9,23 	"/>
	<polygon class="st2" points="36.3,46.7 54.9,46.7 54.9,23.9 36.3,18.8 	"/>
	<polygon class="st2" points="80.8,46.7 63.3,46.7 63.3,8.8 80.8,17.6 	"/>
	<polygon class="st2" points="65.6,83.4 50,91.2 50,64.5 65.6,61.3 	"/>
	<polygon class="st1" points="50,91.2 30.4,81.4 30.4,60.5 50,64.5 	"/>
	<polygon class="st1" points="63.3,46.7 43.5,46.7 43.5,16.2 63.3,8.8 	"/>
	<polygon class="st0" points="30.4,60.5 50,64.5 65.6,61.3 45.8,58.6 	"/>
</g>
</svg>
