<?xml version="1.0" encoding="utf-8"?>
<!-- Generator: Adobe Illustrator 20.0.0, SVG Export Plug-In . SVG Version: 6.00 Build 0)  -->
<svg version="1.1" id="Layer_1" xmlns="http://www.w3.org/2000/svg" xmlns:xlink="http://www.w3.org/1999/xlink" x="0px" y="0px"
	 viewBox="0 0 100 100" style="enable-background:new 0 0 100 100;" xml:space="preserve">
<style type="text/css">
	.st0{fill:#373737;}
	.st1{fill:#D2D3D3;}
	.st2{fill:#ACACAC;}
	.st3{fill:#4F4F4F;}
	.st4{fill:#7D7C7C;}
</style>
<path class="st3" d="M50.1,63.6c-2.4,0-3.5-2-3.5-2l-2.3-3.9l-3.2,5.1c-0.2,0.3-0.8,0.9-1.6,0.9c-0.9,0-1.5-0.7-1.7-1.1l-5.7-10.2
	c0,0-0.2-0.3-0.5-0.3c0,0-0.1,0-0.1,0c0,0-0.2,0-0.4,0.2l-12.7,11c-0.4,0.3-1.3,0.7-2.1,0c-0.3-0.3-0.7-1.1-0.3-1.9c0,0,0,0,0,0
	l13.7-23.7c0-0.1,0.8-1.2,2.2-1.2c1.4,0,2.2,1.2,2.2,1.2l10.1,17.5l5.6-9c0.9-1.6,2.9-2.8,4.8-2.8c1.9,0,3.3,1,3.3,1.1l2.7,2l5-8.7
	c0,0,0.8-1.3,2.3-1.3c1.6,0,2.3,1.4,2.3,1.4l13.3,23c0.2,0.4,0.5,1.3-0.2,2.1c-0.4,0.4-1.3,1.1-2.5,0.3c0,0,0,0,0,0L61.2,48.3
	l-7.7,13.3C53.6,61.7,52.5,63.6,50.1,63.6z M17.3,61.9c-0.1,0.2,0.1,0.3,0.1,0.3c0.2,0.1,0.3,0,0.4,0l12.6-11
	c0.6-0.5,1.1-0.5,1.3-0.5c0.9,0,1.4,0.6,1.6,1L39,61.9c0,0,0,0.1,0,0.1c0,0,0.2,0.3,0.5,0.3c0.3,0,0.5-0.3,0.5-0.3l3.5-5.7
	L33.1,38.3c0,0-0.4-0.6-1.1-0.6c-0.7,0-1.1,0.6-1.1,0.6L17.3,61.9z M45.1,56.4l2.6,4.6c0,0.1,0.8,1.4,2.4,1.4c1.6,0,2.3-1.3,2.4-1.4
	l7.7-13.4l-2.8-2.1c0,0-1.1-0.8-2.5-0.8c-1.5,0-3.1,0.9-3.7,2.1L45.1,56.4z M81.8,62.2c0.5,0.3,0.8,0,0.8-0.1
	c0.3-0.3,0.1-0.6,0.1-0.6L69.4,38.4c0,0-0.4-0.7-1.2-0.7c-0.8,0-1.2,0.7-1.2,0.7l-5.1,8.9L81.8,62.2z"/>
</svg>
