<?xml version="1.0" encoding="utf-8"?>
<!-- Generator: Adobe Illustrator 21.0.0, SVG Export Plug-In . SVG Version: 6.00 Build 0)  -->
<svg version="1.1" id="Layer_1" xmlns="http://www.w3.org/2000/svg" xmlns:xlink="http://www.w3.org/1999/xlink" x="0px" y="0px"
	 width="100px" height="100px" viewBox="0 0 100 100" style="enable-background:new 0 0 100 100;" xml:space="preserve">
<style type="text/css">
	.st0{fill:#D2D3D3;}
	.st1{fill:#4F4F4F;}
	.st2{fill:#ACACAC;}
	.st3{fill:#373737;}
</style>
<g>
	<polygon class="st0" points="70.5,59.6 60.9,58.7 53.6,59.6 63.4,71.5 	"/>
	<polygon class="st0" points="46.3,59.6 39.1,58.7 29.5,59.6 36.6,71.5 	"/>
	<polygon class="st1" points="46.3,49.9 15.9,49.9 15.9,35.5 26.9,32.2 	"/>
	<polygon class="st1" points="53.4,49.9 73.2,49.9 84.1,42.9 73.2,32.2 53.4,35.6 	"/>
	<polygon class="st2" points="46.3,49.9 26.9,49.9 26.9,32.2 46.3,35.5 	"/>
	<polygon class="st3" points="69.8,37.4 50,39.9 30.2,37.4 50,8.8 	"/>
	<polygon class="st1" points="29.5,59.6 36.6,60.7 36.6,71.5 29.5,69.3 	"/>
	<polygon class="st1" points="29.5,45.2 36.6,44.6 46.3,49.9 36.6,55.4 29.5,54.9 	"/>
	<polygon class="st2" points="36.6,60.7 46.3,59.6 46.3,69.3 36.6,71.5 	"/>
	<polygon class="st2" points="36.6,44.6 46.3,45.2 46.3,54.9 36.6,55.4 	"/>
	<polygon class="st2" points="63.4,71.5 70.5,69.3 70.5,59.6 63.4,60.7 	"/>
	<polygon class="st1" points="63.4,60.7 53.6,59.6 53.6,69.3 63.4,71.5 	"/>
	<polygon class="st1" points="53.6,54.8 63.4,55.4 70.5,49 63.4,44.6 53.6,45.2 	"/>
	<polygon class="st3" points="59.9,44.4 50,44.9 40.1,44.4 50,37.1 	"/>
	<polygon class="st2" points="50,43.6 59.9,44.4 59.9,38.6 50,37.1 	"/>
	<polygon class="st1" points="50,49.9 40.1,49.9 40.1,61.3 50,62.8 59.9,56.4 	"/>
	<polygon class="st0" points="59.9,66.9 50,65.1 40.1,66.9 50,82 	"/>
	<polygon class="st2" points="50,82 59.9,78.2 59.9,66.9 50,69.2 	"/>
	<polygon class="st2" points="50,62.8 59.9,61.3 59.9,49.9 50,49.9 	"/>
	<polygon class="st1" points="50,37.1 40.1,38.6 40.1,44.4 50,43.6 	"/>
	<polygon class="st1" points="50,33.5 30.2,37.4 30.2,18.7 50,8.8 	"/>
	<polygon class="st2" points="84.1,49.9 73.2,49.9 73.2,32.2 84.1,35.5 	"/>
	<polygon class="st2" points="69.8,37.4 50,33.5 50,8.8 69.8,18.7 	"/>
	<polygon class="st2" points="63.4,55.4 70.5,54.8 70.5,45.2 63.4,44.6 	"/>
	<polygon class="st1" points="50,69.2 40.1,66.9 40.1,78.2 50,82 	"/>
</g>
</svg>
