<?xml version="1.0" encoding="utf-8"?>
<!-- Generator: Adobe Illustrator 18.1.1, SVG Export Plug-In . SVG Version: 6.00 Build 0)  -->
<svg version="1.2" baseProfile="tiny" id="Layer_1" xmlns="http://www.w3.org/2000/svg" xmlns:xlink="http://www.w3.org/1999/xlink"
	 x="0px" y="0px" viewBox="1 -1.334 102.334 102.334" xml:space="preserve">
<g id="Layer_3">
</g>
<g id="Layer_1_1_">
	<path fill="#9D5025" d="M83.126,39.334h-2.711c-2.008,0-3.659,1.111-3.854,3h-4.455c-0.49-3.777-1.961-7-3.699-7h-1.162H61v-1.222
		c0-2.139-0.912-3.778-3.051-3.778H53v-3h6.014c0.695,0,1.986-0.982,1.986-1.678v-1.193c0-0.695-1.291-0.129-1.986-0.129H37.517
		c-0.695,0-1.517-0.566-1.517,0.129v1.193c0,0.695,0.821,1.678,1.517,1.678H44v3h-5.418c-2.141,0-4.582,1.64-4.582,3.778v1.222
		h-8.201c-2.14,0-3.799,2.062-3.799,4.201v11.799h-5V38.18c0-0.748-1.041-1.355-2-1.355s-2,0.607-2,1.355v30.988
		c0,0.748,1.041,1.355,2,1.355s2-0.607,2-1.355V56.334h5v11.091c0,2.14,1.659,3.909,3.799,3.909h17.159c0.665,3,1.925,5,3.37,5
		h22.079c1.9,0,3.48-4,3.81-8H77v0.641c0,2.139,1.275,3.359,3.415,3.359h2.711c2.14,0,3.874-1.221,3.874-3.359V43.021
		C87,40.883,85.266,39.334,83.126,39.334z"/>
	<path fill="#F58536" d="M83.126,37.334h-2.711c-2.008,0-3.659,1.111-3.854,3h-4.455c-0.49-3.777-1.961-7-3.699-7h-1.162H61v-1.222
		c0-2.139-0.912-3.778-3.051-3.778H53v-2h6.014c0.695,0,1.986-0.982,1.986-1.678v-0.193c0-0.695-1.291-1.129-1.986-1.129H37.517
		c-0.695,0-1.517,0.434-1.517,1.129v0.193c0,0.695,0.821,1.678,1.517,1.678H44v2h-5.418c-2.141,0-4.582,1.64-4.582,3.778v1.222
		h-8.201c-2.14,0-3.799,2.062-3.799,4.201v11.799h-5V36.18c0-0.748-1.041-1.355-2-1.355s-2,0.607-2,1.355v30.988
		c0,0.748,1.041,1.355,2,1.355s2-0.607,2-1.355V54.334h5v11.091c0,2.14,1.659,3.909,3.799,3.909h17.159c0.665,3,1.925,5,3.37,5
		h22.079c1.9,0,3.48-4,3.81-8H77v0.641c0,2.139,1.275,3.359,3.415,3.359h2.711c2.14,0,3.874-1.221,3.874-3.359V41.021
		C87,38.883,85.266,37.334,83.126,37.334z"/>
</g>
<g id="nyt_x5F_exporter_x5F_info" display="none">
</g>
</svg>
