<?xml version="1.0" encoding="utf-8"?>
<!-- Generator: Adobe Illustrator 19.1.0, SVG Export Plug-In . SVG Version: 6.00 Build 0)  -->
<svg version="1.1" id="Layer_1" xmlns="http://www.w3.org/2000/svg" xmlns:xlink="http://www.w3.org/1999/xlink" x="0px" y="0px"
	 viewBox="0 0 100 100" style="enable-background:new 0 0 100 100;" xml:space="preserve">
<style type="text/css">
	.st0{fill:#F58435;}
	.st1{fill:#9D5025;}
	.st2{fill:#6B3B19;}
	.st3{fill:#FBBF92;}
</style>
<g>
	<polygon class="st0" points="30.9,71.4 24,73.1 24,45.4 30.9,45.7 	"/>
	<polygon class="st0" points="45.4,74.5 34.1,78.1 34.1,33.2 45.4,35.3 	"/>
	<polygon class="st1" points="70.1,34.5 70.1,65.6 76,63.8 76,36.3 	"/>
	<polygon class="st2" points="52.7,32.7 59.1,31.2 76,36.3 70.2,37.1 	"/>
	<polygon class="st3" points="50.7,67.9 57.2,69.5 76,63.8 70.2,63 	"/>
	<path class="st0" d="M50,14v72L79.8,71V28.9L50,14z M76,63.8l-17.1,5.1V31.2L76,36.3V63.8z"/>
	<polygon class="st1" points="39.4,80.7 50,86 50,14 39.4,19.3 	"/>
	<polygon class="st1" points="27.6,74.8 34.1,78.1 34.1,33.2 27.6,35.1 	"/>
	<polygon class="st1" points="20.2,71.1 24,73 24,45.4 20.2,45.8 	"/>
</g>
</svg>
