<?xml version="1.0" encoding="utf-8"?>
<!-- Generator: Adobe Illustrator 18.1.1, SVG Export Plug-In . SVG Version: 6.00 Build 0)  -->
<svg version="1.2" baseProfile="tiny" id="Layer_1" xmlns="http://www.w3.org/2000/svg" xmlns:xlink="http://www.w3.org/1999/xlink"
	 x="0px" y="0px" viewBox="0 0 100 100" xml:space="preserve">
<g id="Layer_3">
</g>
<g id="Layer_1_1_">
	<text transform="matrix(1 0 0 1 -7.2754 -4.6973)" fill="#231F20" font-family="'HelveticaNeueLTStd-Roman'" font-size="21.0885">HDFS Cluster</text>
	<g>
		<g>
			<path fill="#9D5025" d="M62.613,23.795v2.525c0,0.357-0.021,0.729-0.021,1.049v-2.525C62.592,24.523,62.613,24.154,62.613,23.795
				"/>
		</g>
		<path fill="#9D5025" d="M62.613,23.795v2.525c0,0.357-0.021,0.729-0.021,1.049v-2.525C62.592,24.523,62.613,24.154,62.613,23.795z
			"/>
		<g>
			<path fill="#9D5025" d="M52.693,33.197v2.525c-0.17-0.287-0.299-0.625-0.299-0.99v-2.523
				C52.395,32.572,52.523,32.91,52.693,33.197"/>
		</g>
		<path fill="#9D5025" d="M52.693,33.197v2.525c-0.17-0.287-0.299-0.625-0.299-0.99v-2.523
			C52.395,32.572,52.523,32.91,52.693,33.197z"/>
		<g>
			<polygon fill="#9D5025" points="59.773,33.797 59.773,36.322 54.451,36.322 53.672,33.461 			"/>
		</g>
		<g>
			<path fill="#9D5025" d="M63.023,33.393v2.523c-0.326,0.406-0.654,0.678-1.217,0.717v-2.525
				C62.369,34.068,62.697,33.797,63.023,33.393"/>
		</g>
		<path fill="#9D5025" d="M63.023,33.393v2.523c-0.326,0.406-0.654,0.678-1.217,0.717v-2.525
			C62.369,34.068,62.697,33.797,63.023,33.393z"/>
		<g>
			<polygon fill="#9D5025" points="66.957,36.281 66.957,38.805 63.023,35.916 62.193,32.299 			"/>
		</g>
		<g>
			<polygon fill="#9D5025" points="63.432,41.305 63.432,43.828 59.773,36.322 59.355,32.299 			"/>
		</g>
		<g>
			<polygon fill="#9D5025" points="66.957,42.098 66.957,44.621 65.922,45.064 65.922,42.541 			"/>
		</g>
		<g>
			<rect x="74.246" y="43.92" fill="#9D5025" width="2.438" height="2.523"/>
		</g>
		<g>
			<rect x="71.281" y="43.92" fill="#9D5025" width="0.041" height="2.523"/>
		</g>
		<g>
			<path fill="#9D5025" d="M78.611,42.787v2.525c0,0.078-0.006,0.152-0.018,0.221V43.01C78.605,42.941,78.611,42.867,78.611,42.787"
				/>
			<path fill="#9D5025" d="M78.594,43.01v2.523c-0.006,0.07-0.02,0.133-0.041,0.191v-2.525
				C78.574,43.141,78.588,43.078,78.594,43.01"/>
			<path fill="#9D5025" d="M78.553,43.199v2.525c-0.016,0.059-0.043,0.113-0.068,0.162v-2.523
				C78.51,43.314,78.537,43.26,78.553,43.199"/>
		</g>
		<path fill="#9D5025" d="M78.611,42.787v2.525c0,1.041-0.865,1.131-1.928,1.131l-0.428-2.941
			C77.318,43.502,78.611,43.828,78.611,42.787z"/>
		<g>
			<path fill="#9D5025" d="M41.262,39.605v2.523c0,0.014,0,0.025-0.002,0.037v-2.523C41.262,39.629,41.262,39.617,41.262,39.605"/>
			<path fill="#9D5025" d="M41.26,39.643v2.523c-0.002,0.018-0.006,0.031-0.012,0.049V39.69
				C41.254,39.674,41.258,39.658,41.26,39.643"/>
			<path fill="#9D5025" d="M41.248,39.689v2.525c-0.006,0.021-0.018,0.045-0.029,0.068v-2.525
				C41.23,39.734,41.242,39.713,41.248,39.689"/>
		</g>
		<path fill="#9D5025" d="M41.262,39.605v2.523c0,0.469-1.416,1.225-4.076,1.666c-1.232,0.209-2.742,0.338-4.512,0.338
			c-5.555,0-8.6-1.326-8.6-2.004v-2.523c0,0.676,3.045,2.004,8.6,2.004c1.77,0,3.279-0.131,4.512-0.338
			C39.846,40.828,41.262,40.074,41.262,39.605z"/>
		<g>
			<path fill="#F58536" d="M32.674,37.613c1.77,0,3.279,0.131,4.512,0.34c2.66,0.43,4.076,1.197,4.076,1.652
				c0,0.469-1.416,1.223-4.076,1.666c-1.232,0.207-2.742,0.338-4.512,0.338c-5.555,0-8.6-1.328-8.6-2.004
				C24.074,38.928,27.119,37.613,32.674,37.613z"/>
		</g>
		<g>
			<path fill="#9D5025" d="M68.963,44.674v2.525c-1.01-0.053-2.006-0.873-2.006-1.887L66.449,41.6
				C66.449,42.615,67.953,44.621,68.963,44.674"/>
		</g>
		<path fill="#9D5025" d="M68.963,44.674v2.525c-1.01-0.053-2.006-0.873-2.006-1.887v-2.525
			C66.957,43.803,67.953,44.621,68.963,44.674z"/>
		<g>
			<polygon fill="#9D5025" points="41.406,44.219 41.406,46.742 41.406,48.037 41.406,45.512 			"/>
		</g>
		<g>
			<polygon fill="#9D5025" points="71.281,43.92 71.281,46.443 69.238,50.895 69.238,48.371 			"/>
		</g>
		<g>
			<polygon fill="#9D5025" points="41.406,45.512 41.406,48.037 41.402,51.373 41.402,48.85 			"/>
		</g>
		<g>
			<polygon fill="#9D5025" points="54.451,33.797 54.451,36.322 41.402,51.373 41.402,48.85 			"/>
		</g>
		<g>
			<polygon fill="#9D5025" points="67.102,48.852 67.102,51.377 64.283,45.701 63.848,41.994 			"/>
		</g>
		<g>
			<polygon fill="#9D5025" points="64.283,43.178 64.283,45.701 41.656,53.705 41.656,51.182 			"/>
		</g>
		<g>
			<polygon fill="#9D5025" points="68.832,52.807 68.832,55.332 68.086,53.523 67.633,49.799 			"/>
		</g>
		<g>
			<polygon fill="#9D5025" points="41.402,49.014 41.402,51.539 41.396,55.496 41.396,52.973 			"/>
		</g>
		<g>
			<polygon fill="#9D5025" points="62.881,57.152 62.881,59.678 41.396,55.496 41.396,52.973 			"/>
		</g>
		<g>
			<polygon fill="#9D5025" points="41.396,53.404 41.396,55.93 41.395,58.201 41.395,55.676 			"/>
		</g>
		<g>
			<polygon fill="#9D5025" points="68.086,50.998 68.086,53.523 65.5,58.559 65.5,56.035 			"/>
		</g>
		<g>
			<polygon fill="#9D5025" points="41.395,55.676 41.395,58.012 41.395,60.537 41.395,58.201 			"/>
		</g>
		<g>
			<polygon fill="#9D5025" points="66.957,58.311 66.957,60.836 64.004,59.812 64.172,57.377 			"/>
		</g>
		<path fill="#9D5025" d="M26.148,59.17v2.525c-1.141-0.365-1.969-0.781-2.059-1.107v-2.523
			C24.18,58.389,25.008,58.807,26.148,59.17z"/>
		<g>
			<path fill="#9D5025" d="M41.395,58.012v2.525c0,0.016-0.002,0.031-0.004,0.049v-2.525C41.393,58.045,41.395,58.027,41.395,58.012
				"/>
			<path fill="#9D5025" d="M41.391,58.061v2.525c-0.006,0.02-0.008,0.037-0.016,0.059V58.12C41.383,58.1,41.385,58.08,41.391,58.061
				"/>
			<path fill="#9D5025" d="M41.375,58.119v2.525c-0.01,0.029-0.023,0.062-0.043,0.096v-2.525
				C41.352,58.182,41.365,58.15,41.375,58.119"/>
		</g>
		<path fill="#9D5025" d="M41.395,58.012v2.525c0,0.689-2.389,1.99-8.168,1.99c-3.146,0-5.531-0.377-7.078-0.832l-0.643-3.193
			c1.547,0.455,4.574,1.502,7.721,1.502C39.006,60.004,41.395,58.701,41.395,58.012z"/>
		<g>
			<polygon fill="#9D5025" points="76.684,62.721 76.684,65.246 69.266,65.246 68.736,62.41 			"/>
		</g>
		<g>
			<path fill="#9D5025" d="M78.611,62.061v2.523c0,0.076-0.004,0.146-0.014,0.207v-2.523C78.607,62.205,78.611,62.135,78.611,62.061
				"/>
			<path fill="#9D5025" d="M78.598,62.268v2.523c-0.008,0.055-0.02,0.104-0.033,0.146v-2.523
				C78.578,62.369,78.59,62.32,78.598,62.268"/>
			<path fill="#9D5025" d="M78.564,62.414v2.523c-0.014,0.041-0.027,0.078-0.045,0.109v-2.525
				C78.537,62.49,78.551,62.453,78.564,62.414"/>
		</g>
		<path fill="#9D5025" d="M78.611,62.061v2.523c0,0.605-0.283,0.734-0.729,0.734c-0.33,0-0.746-0.072-1.199-0.072l-0.553-2.994
			c0.453,0,1.422,0.541,1.752,0.541C78.328,62.793,78.611,62.664,78.611,62.061z"/>
		<path fill="#9D5025" d="M69.266,62.721v2.525c-0.342,0-1.02,0.32-1.432,0.32c-0.096,0-0.176-0.018-0.234-0.059l-0.439-2.859
			c0.059,0.041,0.578,0.393,0.674,0.393C68.246,63.041,68.924,62.721,69.266,62.721z"/>
		<g>
			<polygon fill="#9D5025" points="64.637,57.596 64.637,60.119 61.49,66.691 61.49,64.166 			"/>
		</g>
		<g>
			<polygon fill="#9D5025" points="67.6,62.982 68.057,65.172 62.592,69.723 62.592,67.199 			"/>
		</g>
		<g>
			<polygon fill="#9D5025" points="52.395,67.771 52.395,70.297 41.395,58.201 41.395,55.676 			"/>
		</g>
		<g>
			<path fill="#9D5025" d="M62.613,74.74v2.523c0,0.129-0.004,0.248-0.021,0.354v-2.523C62.609,74.986,62.613,74.867,62.613,74.74"
				/>
			<path fill="#9D5025" d="M62.592,75.094v2.523c-0.006,0.068-0.021,0.129-0.039,0.188V75.28
				C62.57,75.223,62.586,75.158,62.592,75.094"/>
			<path fill="#9D5025" d="M62.553,75.279v2.525c-0.016,0.045-0.033,0.09-0.057,0.131v-2.523
				C62.52,75.371,62.537,75.326,62.553,75.279"/>
			<path fill="#9D5025" d="M62.496,75.412v2.523c-0.113,0.205-0.328,0.324-0.73,0.324v-2.525
				C62.168,75.734,62.383,75.615,62.496,75.412"/>
		</g>
		<path fill="#9D5025" d="M62.613,74.74v2.523c0,0.596-0.115,0.996-0.848,0.996v-2.525C62.498,75.734,62.613,75.336,62.613,74.74z"
			/>
		<g>
			<polygon fill="#9D5025" points="61.766,75.734 61.766,78.26 54.344,78.26 53.506,75.252 			"/>
		</g>
		<g>
			<path fill="#9D5025" d="M54.344,75.734v2.525c-1.047,0-1.949-0.834-1.949-1.887V73.85C52.395,74.902,53.297,75.734,54.344,75.734
				"/>
		</g>
		<path fill="#9D5025" d="M54.344,75.734v2.525c-1.047,0-1.949-0.834-1.949-1.887V73.85C52.395,74.902,53.297,75.734,54.344,75.734z
			"/>
		<g>
			<path fill="#F58536" d="M76.684,43.92h-2.438v8.678h2.438c1.062,0,1.928,1.043,1.928,2.096v7.367
				c0,0.604-0.283,0.732-0.729,0.732c-0.33,0-0.746-0.072-1.199-0.072h-7.418c-0.342,0-1.02,0.32-1.432,0.32
				c-0.096,0-0.176-0.018-0.234-0.059l-5.008,4.217v6.65c0,1.053,0.236,1.885-0.826,1.885h-7.422c-1.047,0-1.949-0.832-1.949-1.885
				v-6.078l-11-12.096l-0.486-2.803l11.879,12.295c0.354-0.48,0.916-1.002,1.557-1.002h5.01l3.527-7.014l-21.484-4.18l0.006-3.959
				l22.029-7.709l-3.658-7.508h-5.322L41.402,48.85l-0.414-2.836l11.705-12.816c-0.17-0.287-0.299-0.625-0.299-0.988v-7.365
				c0-1.041,0.902-2.604,1.949-2.604h7.422c1.062,0,0.826,1.562,0.826,2.604v6.506l4.627,2.303c0.342-0.428,1.43-1.301,2.047-1.301
				h7.418c1.062,0,1.928,2.018,1.928,3.07v7.365C78.611,43.828,77.746,43.92,76.684,43.92z M41.656,51.182l22.102,4.463l3.344-6.793
				l-2.818-5.674L41.656,51.182 M66.957,61.799v-3.488l-2.32-0.715l-3.146,6.57h0.275c0.553,0,0.854,0.43,1.191,0.793L66.957,61.799
				 M61.807,34.107l3.25,6.715l1.9-0.742v-3.799l-3.934-2.889C62.697,33.797,62.369,34.068,61.807,34.107 M71.322,52.598V43.92
				h-0.041l-2.043,4.451l1.965,4.227H71.322 M66.957,54.693c0-0.988,0.906-1.795,1.875-1.887l-0.746-1.809L65.5,56.035l1.457,0.338
				V54.693 M67.979,46.678l0.984-2.004c-1.01-0.053-2.006-0.871-2.006-1.887v-0.689l-1.035,0.443L67.979,46.678"/>
		</g>
		<g>
			<path fill="#F58536" d="M41.406,44.219v1.293l-0.004,3.338v0.164l-0.006,3.959v0.432l-0.002,2.271v2.336
				c0,0.689-2.389,1.992-8.168,1.992c-3.146,0-5.531-0.379-7.078-0.834c-1.141-0.363-1.969-0.781-2.059-1.105V44.35
				c1.676,1.041,5.139,1.574,8.584,1.574H32.9c0.352,0,0.693-0.014,1.021-0.025h0.195c0.275-0.014,0.562-0.027,0.84-0.053
				c0.154-0.014,0.326-0.027,0.486-0.039c0.209-0.014,0.418-0.039,0.625-0.051c0.146-0.027,0.293-0.039,0.434-0.066
				c0.225-0.025,0.449-0.053,0.67-0.092C39.059,45.299,40.514,44.805,41.406,44.219z"/>
		</g>
	</g>
</g>
<g id="nyt_x5F_exporter_x5F_info" display="none">
</g>
</svg>
