<?xml version="1.0" encoding="utf-8"?>
<!-- Generator: Adobe Illustrator 19.0.0, SVG Export Plug-In . SVG Version: 6.00 Build 0)  -->
<svg version="1.2" baseProfile="tiny" xmlns="http://www.w3.org/2000/svg" xmlns:xlink="http://www.w3.org/1999/xlink" x="0px"
	 y="0px" viewBox="0 0 100 100" xml:space="preserve">
<g id="Layer_1">
	<g>
		<polygon fill="#F58536" points="55.939,49.98 23.196,49.98 23.196,72.6 55.939,65.115 		"/>
		<polygon fill="#F58536" points="65.743,49.98 30.159,49.98 30.159,76.082 65.743,65.98 		"/>
		<polygon fill="#F58536" points="73.498,49.98 38.849,49.98 38.849,80.426 73.498,67.75 		"/>
		<polygon fill="#F58536" points="49.996,86 49.996,49.979 79.802,49.979 79.802,71.098 		"/>
		<polygon fill="#9D5025" points="23.196,49.98 23.196,72.6 20.208,71.105 20.208,49.98 		"/>
		<polygon fill="#9D5025" points="30.159,49.98 30.159,76.082 26.496,74.25 26.496,49.98 		"/>
		<polygon fill="#9D5025" points="38.849,49.98 38.849,80.426 34.249,78.127 34.249,49.98 		"/>
		<polygon fill="#9D5025" points="44.055,83.029 44.055,49.98 49.995,49.98 49.995,86 		"/>
		<polygon fill="#F58536" points="79.808,42.736 49.999,37.613 49.999,14 79.808,28.902 		"/>
		<polygon fill="#9D5025" points="20.192,42.736 50,37.613 50,14 20.192,28.902 		"/>
		<polygon fill="#6B3A19" points="79.808,42.736 49.999,44.857 20.192,42.736 49.999,37.613 		"/>
	</g>
</g>
<g id="nyt_x5F_exporter_x5F_info" display="none">
	<text transform="matrix(1 0 0 1 -427 0)" display="inline" font-family="'MyriadPro-Regular'" font-size="12px">&lt;</text>
	<text transform="matrix(1 0 0 1 -419.8481 0)" display="inline" font-family="'MyriadPro-Regular'" font-size="12px">n</text>
	<text transform="matrix(1 0 0 1 -413.3442 0)" display="inline" font-family="'MyriadPro-Regular'" font-size="12px">y</text>
	<text transform="matrix(1 0 0 1 -407.6924 0)" display="inline" font-family="'MyriadPro-Regular'" font-size="12px">t</text>
	<text transform="matrix(1 0 0 1 -403.7202 0)" display="inline" font-family="'MyriadPro-Regular'" font-size="12px">_</text>
	<text transform="matrix(1 0 0 1 -397.7202 0)" display="inline" font-family="'MyriadPro-Regular'" font-size="12px">p</text>
	<text transform="matrix(1 0 0 1 -390.8926 0)" display="inline" font-family="'MyriadPro-Regular'" font-size="12px">r</text>
	<text transform="matrix(1 0 0 1 -387.0889 0)" display="inline" font-family="'MyriadPro-Regular'" font-size="12px">e</text>
	<text transform="matrix(1 0 0 1 -381.0771 0)" display="inline" font-family="'MyriadPro-Regular'" font-size="12px">f</text>
	<text transform="matrix(1 0 0 1 -377.6812 0)" display="inline" font-family="'MyriadPro-Regular'" font-size="12px">s</text>
	<text transform="matrix(1 0 0 1 -372.9287 0)" display="inline" font-family="'MyriadPro-Regular'" font-size="12px">&gt;</text>
	<text transform="matrix(1 0 0 1 -427 14.3999)" display="inline" font-family="'MyriadPro-Regular'" font-size="12px"> </text>
	<text transform="matrix(1 0 0 1 -424.4561 14.3999)" display="inline" font-family="'MyriadPro-Regular'" font-size="12px"> </text>
	<text transform="matrix(1 0 0 1 -421.9121 14.3999)" display="inline" font-family="'MyriadPro-Regular'" font-size="12px">&lt;</text>
	<text transform="matrix(1 0 0 1 -414.7603 14.3999)" display="inline" font-family="'MyriadPro-Regular'" font-size="12px">n</text>
	<text transform="matrix(1 0 0 1 -408.2563 14.3999)" display="inline" font-family="'MyriadPro-Regular'" font-size="12px">y</text>
	<text transform="matrix(1 0 0 1 -402.6045 14.3999)" display="inline" font-family="'MyriadPro-Regular'" font-size="12px">t</text>
	<text transform="matrix(1 0 0 1 -398.6323 14.3999)" display="inline" font-family="'MyriadPro-Regular'" font-size="12px">_</text>
	<text transform="matrix(1 0 0 1 -392.6323 14.3999)" display="inline" font-family="'MyriadPro-Regular'" font-size="12px">p</text>
	<text transform="matrix(1 0 0 1 -385.8047 14.3999)" display="inline" font-family="'MyriadPro-Regular'" font-size="12px">r</text>
	<text transform="matrix(1 0 0 1 -382.001 14.3999)" display="inline" font-family="'MyriadPro-Regular'" font-size="12px">e</text>
	<text transform="matrix(1 0 0 1 -375.9883 14.3999)" display="inline" font-family="'MyriadPro-Regular'" font-size="12px">f</text>
	<text transform="matrix(1 0 0 1 -369.7119 14.3999)" display="inline" font-family="'MyriadPro-Regular'" font-size="12px">i</text>
	<text transform="matrix(1 0 0 1 -364.1563 14.3999)" display="inline" font-family="'MyriadPro-Regular'" font-size="12px">x</text>
	<text transform="matrix(1 0 0 1 -357.0039 14.3999)" display="inline" font-family="'MyriadPro-Regular'" font-size="12px">&gt;</text>
	<text transform="matrix(1 0 0 1 -349.8516 14.3999)" display="inline" font-family="'MyriadPro-Regular'" font-size="12px">&lt;</text>
	<text transform="matrix(1 0 0 1 -8568 -8141)" display="inline" font-family="'MyriadPro-Regular'" font-size="12px">/</text>
	<text transform="matrix(1 0 0 1 -345.7354 14.3999)" display="inline" font-family="'MyriadPro-Regular'" font-size="12px">n</text>
	<text transform="matrix(1 0 0 1 -339.2314 14.3999)" display="inline" font-family="'MyriadPro-Regular'" font-size="12px">y</text>
	<text transform="matrix(1 0 0 1 -333.5791 14.3999)" display="inline" font-family="'MyriadPro-Regular'" font-size="12px">t</text>
	<text transform="matrix(1 0 0 1 -329.6074 14.3999)" display="inline" font-family="'MyriadPro-Regular'" font-size="12px">_</text>
	<text transform="matrix(1 0 0 1 -323.6074 14.3999)" display="inline" font-family="'MyriadPro-Regular'" font-size="12px">p</text>
	<text transform="matrix(1 0 0 1 -316.7793 14.3999)" display="inline" font-family="'MyriadPro-Regular'" font-size="12px">r</text>
	<text transform="matrix(1 0 0 1 -312.9756 14.3999)" display="inline" font-family="'MyriadPro-Regular'" font-size="12px">e</text>
	<text transform="matrix(1 0 0 1 -306.9639 14.3999)" display="inline" font-family="'MyriadPro-Regular'" font-size="12px">f</text>
	<text transform="matrix(1 0 0 1 -300.6875 14.3999)" display="inline" font-family="'MyriadPro-Regular'" font-size="12px">i</text>
	<text transform="matrix(1 0 0 1 -295.1318 14.3999)" display="inline" font-family="'MyriadPro-Regular'" font-size="12px">x</text>
	<text transform="matrix(1 0 0 1 -8568 -8141)" display="inline" font-family="'MyriadPro-Regular'" font-size="12px">&gt;</text>
	<text transform="matrix(1 0 0 1 -427 28.7998)" display="inline" font-family="'MyriadPro-Regular'" font-size="12px"> </text>
	<text transform="matrix(1 0 0 1 -424.4561 28.7998)" display="inline" font-family="'MyriadPro-Regular'" font-size="12px"> </text>
	<text transform="matrix(1 0 0 1 -421.9121 28.7998)" display="inline" font-family="'MyriadPro-Regular'" font-size="12px">&lt;</text>
	<text transform="matrix(1 0 0 1 -414.7603 28.7998)" display="inline" font-family="'MyriadPro-Regular'" font-size="12px">n</text>
	<text transform="matrix(1 0 0 1 -408.2563 28.7998)" display="inline" font-family="'MyriadPro-Regular'" font-size="12px">y</text>
	<text transform="matrix(1 0 0 1 -402.6045 28.7998)" display="inline" font-family="'MyriadPro-Regular'" font-size="12px">t</text>
	<text transform="matrix(1 0 0 1 -398.6323 28.7998)" display="inline" font-family="'MyriadPro-Regular'" font-size="12px">_</text>
	<text transform="matrix(1 0 0 1 -392.6323 28.7998)" display="inline" font-family="'MyriadPro-Regular'" font-size="12px">s</text>
	<text transform="matrix(1 0 0 1 -387.8804 28.7998)" display="inline" font-family="'MyriadPro-Regular'" font-size="12px">u</text>
	<text transform="matrix(1 0 0 1 -381.2686 28.7998)" display="inline" font-family="'MyriadPro-Regular'" font-size="12px">f</text>
	<text transform="matrix(1 0 0 1 -371.4893 28.7998)" display="inline" font-family="'MyriadPro-Regular'" font-size="12px">f</text>
	<text transform="matrix(1 0 0 1 -365.9336 28.7998)" display="inline" font-family="'MyriadPro-Regular'" font-size="12px">i</text>
	<text transform="matrix(1 0 0 1 -358.7813 28.7998)" display="inline" font-family="'MyriadPro-Regular'" font-size="12px">x</text>
	<text transform="matrix(1 0 0 1 -351.6289 28.7998)" display="inline" font-family="'MyriadPro-Regular'" font-size="12px">&gt;</text>
	<text transform="matrix(1 0 0 1 -8568 -8141)" display="inline" font-family="'MyriadPro-Regular'" font-size="12px">&lt;</text>
	<text transform="matrix(1 0 0 1 -8568 -8141)" display="inline" font-family="'MyriadPro-Regular'" font-size="12px">/</text>
	<text transform="matrix(1 0 0 1 -347.5127 28.7998)" display="inline" font-family="'MyriadPro-Regular'" font-size="12px">n</text>
	<text transform="matrix(1 0 0 1 -341.0078 28.7998)" display="inline" font-family="'MyriadPro-Regular'" font-size="12px">y</text>
	<text transform="matrix(1 0 0 1 -335.3555 28.7998)" display="inline" font-family="'MyriadPro-Regular'" font-size="12px">t</text>
	<text transform="matrix(1 0 0 1 -331.3838 28.7998)" display="inline" font-family="'MyriadPro-Regular'" font-size="12px">_</text>
	<text transform="matrix(1 0 0 1 -325.3838 28.7998)" display="inline" font-family="'MyriadPro-Regular'" font-size="12px">s</text>
	<text transform="matrix(1 0 0 1 -320.6318 28.7998)" display="inline" font-family="'MyriadPro-Regular'" font-size="12px">u</text>
	<text transform="matrix(1 0 0 1 -314.0195 28.7998)" display="inline" font-family="'MyriadPro-Regular'" font-size="12px">f</text>
	<text transform="matrix(1 0 0 1 -304.2393 28.7998)" display="inline" font-family="'MyriadPro-Regular'" font-size="12px">f</text>
	<text transform="matrix(1 0 0 1 -298.6836 28.7998)" display="inline" font-family="'MyriadPro-Regular'" font-size="12px">i</text>
	<text transform="matrix(1 0 0 1 -358.7813 28.7998)" display="inline" font-family="'MyriadPro-Regular'" font-size="12px">x</text>
	<text transform="matrix(1 0 0 1 -351.6289 28.7998)" display="inline" font-family="'MyriadPro-Regular'" font-size="12px">&gt;</text>
	<text transform="matrix(1 0 0 1 -427 43.2002)" display="inline" font-family="'MyriadPro-Regular'" font-size="12px"> </text>
	<text transform="matrix(1 0 0 1 -424.4561 43.2002)" display="inline" font-family="'MyriadPro-Regular'" font-size="12px"> </text>
	<text transform="matrix(1 0 0 1 -421.9121 43.2002)" display="inline" font-family="'MyriadPro-Regular'" font-size="12px">&lt;</text>
	<text transform="matrix(1 0 0 1 -414.7603 43.2002)" display="inline" font-family="'MyriadPro-Regular'" font-size="12px">n</text>
	<text transform="matrix(1 0 0 1 -408.2563 43.2002)" display="inline" font-family="'MyriadPro-Regular'" font-size="12px">y</text>
	<text transform="matrix(1 0 0 1 -402.6045 43.2002)" display="inline" font-family="'MyriadPro-Regular'" font-size="12px">t</text>
	<text transform="matrix(1 0 0 1 -398.6323 43.2002)" display="inline" font-family="'MyriadPro-Regular'" font-size="12px">_</text>
	<text transform="matrix(1 0 0 1 -392.6323 43.2002)" display="inline" font-family="'MyriadPro-Regular'" font-size="12px">b</text>
	<text transform="matrix(1 0 0 1 -385.8047 43.2002)" display="inline" font-family="'MyriadPro-Regular'" font-size="12px">a</text>
	<text transform="matrix(1 0 0 1 -380.021 43.2002)" display="inline" font-family="'MyriadPro-Regular'" font-size="12px">s</text>
	<text transform="matrix(1 0 0 1 -375.2695 43.2002)" display="inline" font-family="'MyriadPro-Regular'" font-size="12px">e</text>
	<text transform="matrix(1 0 0 1 -369.2578 43.2002)" display="inline" font-family="'MyriadPro-Regular'" font-size="12px">_</text>
	<text transform="matrix(1 0 0 1 -363.2578 43.2002)" display="inline" font-family="'MyriadPro-Regular'" font-size="12px">p</text>
	<text transform="matrix(1 0 0 1 -356.4297 43.2002)" display="inline" font-family="'MyriadPro-Regular'" font-size="12px">a</text>
	<text transform="matrix(1 0 0 1 -350.6934 43.2002)" display="inline" font-family="'MyriadPro-Regular'" font-size="12px">t</text>
	<text transform="matrix(1 0 0 1 -346.7217 43.2002)" display="inline" font-family="'MyriadPro-Regular'" font-size="12px">h</text>
	<text transform="matrix(1 0 0 1 -340.0615 43.2002)" display="inline" font-family="'MyriadPro-Regular'" font-size="12px">&gt;</text>
	<text transform="matrix(1 0 0 1 -332.9092 43.2002)" display="inline" font-family="'MyriadPro-Regular'" font-size="12px">~</text>
	<text transform="matrix(1 0 0 1 -325.7568 43.2002)" display="inline" font-family="'MyriadPro-Regular'" font-size="12px">/</text>
	<text transform="matrix(1 0 0 1 -321.6406 43.2002)" display="inline" font-family="'MyriadPro-Regular'" font-size="12px">D</text>
	<text transform="matrix(1 0 0 1 -313.6006 43.2002)" display="inline" font-family="'MyriadPro-Regular'" font-size="12px">e</text>
	<text transform="matrix(1 0 0 1 -307.5889 43.2002)" display="inline" font-family="'MyriadPro-Regular'" font-size="12px">s</text>
	<text transform="matrix(1 0 0 1 -302.8369 43.2002)" display="inline" font-family="'MyriadPro-Regular'" font-size="12px">k</text>
	<text transform="matrix(1 0 0 1 -297.209 43.2002)" display="inline" font-family="'MyriadPro-Regular'" font-size="12px">t</text>
	<text transform="matrix(1 0 0 1 -293.3086 43.2002)" display="inline" font-family="'MyriadPro-Regular'" font-size="12px">o</text>
	<text transform="matrix(1 0 0 1 -286.7207 43.2002)" display="inline" font-family="'MyriadPro-Regular'" font-size="12px">p</text>
	<text transform="matrix(1 0 0 1 -279.8926 43.2002)" display="inline" font-family="'MyriadPro-Regular'" font-size="12px">/</text>
	<text transform="matrix(1 0 0 1 -275.7764 43.2002)" display="inline" font-family="'MyriadPro-Regular'" font-size="12px">w</text>
	<text transform="matrix(1 0 0 1 -266.9443 43.2002)" display="inline" font-family="'MyriadPro-Regular'" font-size="12px">i</text>
	<text transform="matrix(1 0 0 1 -264.1367 43.2002)" display="inline" font-family="'MyriadPro-Regular'" font-size="12px">p</text>
	<text transform="matrix(1 0 0 1 -257.3086 43.2002)" display="inline" font-family="'MyriadPro-Regular'" font-size="12px">/</text>
	<text transform="matrix(1 0 0 1 -253.1924 43.2002)" display="inline" font-family="'MyriadPro-Regular'" font-size="12px">A</text>
	<text transform="matrix(1 0 0 1 -245.8848 43.2002)" display="inline" font-family="'MyriadPro-Regular'" font-size="12px">r</text>
	<text transform="matrix(1 0 0 1 -242.0811 43.2002)" display="inline" font-family="'MyriadPro-Regular'" font-size="12px">c</text>
	<text transform="matrix(1 0 0 1 -236.7051 43.2002)" display="inline" font-family="'MyriadPro-Regular'" font-size="12px">h</text>
	<text transform="matrix(1 0 0 1 -230.0449 43.2002)" display="inline" font-family="'MyriadPro-Regular'" font-size="12px">i</text>
	<text transform="matrix(1 0 0 1 -227.2373 43.2002)" display="inline" font-family="'MyriadPro-Regular'" font-size="12px">t</text>
	<text transform="matrix(1 0 0 1 -223.3379 43.2002)" display="inline" font-family="'MyriadPro-Regular'" font-size="12px">e</text>
	<text transform="matrix(1 0 0 1 -217.3262 43.2002)" display="inline" font-family="'MyriadPro-Regular'" font-size="12px">c</text>
	<text transform="matrix(1 0 0 1 -211.7939 43.2002)" display="inline" font-family="'MyriadPro-Regular'" font-size="12px">t</text>
	<text transform="matrix(1 0 0 1 -207.8223 43.2002)" display="inline" font-family="'MyriadPro-Regular'" font-size="12px">u</text>
	<text transform="matrix(1 0 0 1 -201.21 43.2002)" display="inline" font-family="'MyriadPro-Regular'" font-size="12px">r</text>
	<text transform="matrix(1 0 0 1 -197.4063 43.2002)" display="inline" font-family="'MyriadPro-Regular'" font-size="12px">e</text>
	<text transform="matrix(1 0 0 1 -191.3945 43.2002)" display="inline" font-family="'MyriadPro-Regular'" font-size="12px">%</text>
	<text transform="matrix(1 0 0 1 -181.8906 43.2002)" display="inline" font-family="'MyriadPro-Regular'" font-size="12px">2</text>
	<text transform="matrix(1 0 0 1 -175.7344 43.2002)" display="inline" font-family="'MyriadPro-Regular'" font-size="12px">0</text>
	<text transform="matrix(1 0 0 1 -169.5781 43.2002)" display="inline" font-family="'MyriadPro-Regular'" font-size="12px">I</text>
	<text transform="matrix(1 0 0 1 -166.71 43.2002)" display="inline" font-family="'MyriadPro-Regular'" font-size="12px">c</text>
	<text transform="matrix(1 0 0 1 -161.4053 43.2002)" display="inline" font-family="'MyriadPro-Regular'" font-size="12px">o</text>
	<text transform="matrix(1 0 0 1 -154.8174 43.2002)" display="inline" font-family="'MyriadPro-Regular'" font-size="12px">n</text>
	<text transform="matrix(1 0 0 1 -148.1572 43.2002)" display="inline" font-family="'MyriadPro-Regular'" font-size="12px">s</text>
	<text transform="matrix(1 0 0 1 -143.4053 43.2002)" display="inline" font-family="'MyriadPro-Regular'" font-size="12px">%</text>
	<text transform="matrix(1 0 0 1 -133.9014 43.2002)" display="inline" font-family="'MyriadPro-Regular'" font-size="12px">2</text>
	<text transform="matrix(1 0 0 1 -127.7451 43.2002)" display="inline" font-family="'MyriadPro-Regular'" font-size="12px">0</text>
	<text transform="matrix(1 0 0 1 -121.5889 43.2002)" display="inline" font-family="'MyriadPro-Regular'" font-size="12px">-</text>
	<text transform="matrix(1 0 0 1 -117.9053 43.2002)" display="inline" font-family="'MyriadPro-Regular'" font-size="12px">%</text>
	<text transform="matrix(1 0 0 1 -108.4014 43.2002)" display="inline" font-family="'MyriadPro-Regular'" font-size="12px">2</text>
	<text transform="matrix(1 0 0 1 -102.2451 43.2002)" display="inline" font-family="'MyriadPro-Regular'" font-size="12px">0</text>
	<text transform="matrix(1 0 0 1 -96.0889 43.2002)" display="inline" font-family="'MyriadPro-Regular'" font-size="12px">U</text>
	<text transform="matrix(1 0 0 1 -88.3252 43.2002)" display="inline" font-family="'MyriadPro-Regular'" font-size="12px">p</text>
	<text transform="matrix(1 0 0 1 -81.4971 43.2002)" display="inline" font-family="'MyriadPro-Regular'" font-size="12px">d</text>
	<text transform="matrix(1 0 0 1 -74.7295 43.2002)" display="inline" font-family="'MyriadPro-Regular'" font-size="12px">a</text>
	<text transform="matrix(1 0 0 1 -68.9932 43.2002)" display="inline" font-family="'MyriadPro-Regular'" font-size="12px">t</text>
	<text transform="matrix(1 0 0 1 -65.0938 43.2002)" display="inline" font-family="'MyriadPro-Regular'" font-size="12px">e</text>
	<text transform="matrix(1 0 0 1 -59.082 43.2002)" display="inline" font-family="'MyriadPro-Regular'" font-size="12px">%</text>
	<text transform="matrix(1 0 0 1 -49.5781 43.2002)" display="inline" font-family="'MyriadPro-Regular'" font-size="12px">2</text>
	<text transform="matrix(1 0 0 1 -43.4219 43.2002)" display="inline" font-family="'MyriadPro-Regular'" font-size="12px">0</text>
	<text transform="matrix(1 0 0 1 -37.2656 43.2002)" display="inline" font-family="'MyriadPro-Regular'" font-size="12px">a</text>
	<text transform="matrix(1 0 0 1 -31.4814 43.2002)" display="inline" font-family="'MyriadPro-Regular'" font-size="12px">l</text>
	<text transform="matrix(1 0 0 1 -28.6494 43.2002)" display="inline" font-family="'MyriadPro-Regular'" font-size="12px">l</text>
	<text transform="matrix(1 0 0 1 -25.8174 43.2002)" display="inline" font-family="'MyriadPro-Regular'" font-size="12px">%</text>
	<text transform="matrix(1 0 0 1 -16.3135 43.2002)" display="inline" font-family="'MyriadPro-Regular'" font-size="12px">2</text>
	<text transform="matrix(1 0 0 1 -10.1572 43.2002)" display="inline" font-family="'MyriadPro-Regular'" font-size="12px">0</text>
	<text transform="matrix(1 0 0 1 -4.001 43.2002)" display="inline" font-family="'MyriadPro-Regular'" font-size="12px">c</text>
	<text transform="matrix(1 0 0 1 1.375 43.2002)" display="inline" font-family="'MyriadPro-Regular'" font-size="12px">u</text>
	<text transform="matrix(1 0 0 1 7.9873 43.2002)" display="inline" font-family="'MyriadPro-Regular'" font-size="12px">s</text>
	<text transform="matrix(1 0 0 1 12.7393 43.2002)" display="inline" font-family="'MyriadPro-Regular'" font-size="12px">t</text>
	<text transform="matrix(1 0 0 1 16.6387 43.2002)" display="inline" font-family="'MyriadPro-Regular'" font-size="12px">o</text>
	<text transform="matrix(1 0 0 1 23.2266 43.2002)" display="inline" font-family="'MyriadPro-Regular'" font-size="12px">m</text>
	<text transform="matrix(1 0 0 1 33.2344 43.2002)" display="inline" font-family="'MyriadPro-Regular'" font-size="12px">e</text>
	<text transform="matrix(1 0 0 1 39.2461 43.2002)" display="inline" font-family="'MyriadPro-Regular'" font-size="12px">r</text>
	<text transform="matrix(1 0 0 1 43.1104 43.2002)" display="inline" font-family="'MyriadPro-Regular'" font-size="12px">-</text>
	<text transform="matrix(1 0 0 1 46.7939 43.2002)" display="inline" font-family="'MyriadPro-Regular'" font-size="12px">f</text>
	<text transform="matrix(1 0 0 1 50.2979 43.2002)" display="inline" font-family="'MyriadPro-Regular'" font-size="12px">a</text>
	<text transform="matrix(1 0 0 1 56.082 43.2002)" display="inline" font-family="'MyriadPro-Regular'" font-size="12px">c</text>
	<text transform="matrix(1 0 0 1 61.458 43.2002)" display="inline" font-family="'MyriadPro-Regular'" font-size="12px">i</text>
	<text transform="matrix(1 0 0 1 64.2656 43.2002)" display="inline" font-family="'MyriadPro-Regular'" font-size="12px">n</text>
	<text transform="matrix(1 0 0 1 70.9258 43.2002)" display="inline" font-family="'MyriadPro-Regular'" font-size="12px">g</text>
	<text transform="matrix(1 0 0 1 77.6338 43.2002)" display="inline" font-family="'MyriadPro-Regular'" font-size="12px">%</text>
	<text transform="matrix(1 0 0 1 87.1377 43.2002)" display="inline" font-family="'MyriadPro-Regular'" font-size="12px">2</text>
	<text transform="matrix(1 0 0 1 93.2939 43.2002)" display="inline" font-family="'MyriadPro-Regular'" font-size="12px">0</text>
	<text transform="matrix(1 0 0 1 99.4502 43.2002)" display="inline" font-family="'MyriadPro-Regular'" font-size="12px">f</text>
	<text transform="matrix(1 0 0 1 105.7266 43.2002)" display="inline" font-family="'MyriadPro-Regular'" font-size="12px">i</text>
	<text transform="matrix(1 0 0 1 108.5586 43.2002)" display="inline" font-family="'MyriadPro-Regular'" font-size="12px">l</text>
	<text transform="matrix(1 0 0 1 114.5703 43.2002)" display="inline" font-family="'MyriadPro-Regular'" font-size="12px">e</text>
	<text transform="matrix(1 0 0 1 119.3223 43.2002)" display="inline" font-family="'MyriadPro-Regular'" font-size="12px">s</text>
	<text transform="matrix(1 0 0 1 128.8262 43.2002)" display="inline" font-family="'MyriadPro-Regular'" font-size="12px">%</text>
	<text transform="matrix(1 0 0 1 134.9824 43.2002)" display="inline" font-family="'MyriadPro-Regular'" font-size="12px">2</text>
	<text transform="matrix(1 0 0 1 141.1387 43.2002)" display="inline" font-family="'MyriadPro-Regular'" font-size="12px">0</text>
	<text transform="matrix(1 0 0 1 -8568 -8141)" display="inline" font-family="'MyriadPro-Regular'" font-size="12px">/</text>
	<text transform="matrix(1 0 0 1 145.2549 43.2002)" display="inline" font-family="'MyriadPro-Regular'" font-size="12px">A</text>
	<text transform="matrix(1 0 0 1 151.9629 43.2002)" display="inline" font-family="'MyriadPro-Regular'" font-size="12px">W</text>
	<text transform="matrix(1 0 0 1 162.1152 43.2002)" display="inline" font-family="'MyriadPro-Regular'" font-size="12px">S</text>
	<text transform="matrix(1 0 0 1 168.0908 43.2002)" display="inline" font-family="'MyriadPro-Regular'" font-size="12px">-</text>
	<text transform="matrix(1 0 0 1 171.7744 43.2002)" display="inline" font-family="'MyriadPro-Regular'" font-size="12px">S</text>
	<text transform="matrix(1 0 0 1 177.6904 43.2002)" display="inline" font-family="'MyriadPro-Regular'" font-size="12px">i</text>
	<text transform="matrix(1 0 0 1 180.498 43.2002)" display="inline" font-family="'MyriadPro-Regular'" font-size="12px">m</text>
	<text transform="matrix(1 0 0 1 190.5059 43.2002)" display="inline" font-family="'MyriadPro-Regular'" font-size="12px">p</text>
	<text transform="matrix(1 0 0 1 197.334 43.2002)" display="inline" font-family="'MyriadPro-Regular'" font-size="12px">l</text>
	<text transform="matrix(1 0 0 1 200.166 43.2002)" display="inline" font-family="'MyriadPro-Regular'" font-size="12px">e</text>
	<text transform="matrix(1 0 0 1 206.5137 43.2002)" display="inline" font-family="'MyriadPro-Regular'" font-size="12px">-</text>
	<text transform="matrix(1 0 0 1 210.1973 43.2002)" display="inline" font-family="'MyriadPro-Regular'" font-size="12px">I</text>
	<text transform="matrix(1 0 0 1 213.0654 43.2002)" display="inline" font-family="'MyriadPro-Regular'" font-size="12px">c</text>
	<text transform="matrix(1 0 0 1 218.3701 43.2002)" display="inline" font-family="'MyriadPro-Regular'" font-size="12px">o</text>
	<text transform="matrix(1 0 0 1 224.958 43.2002)" display="inline" font-family="'MyriadPro-Regular'" font-size="12px">n</text>
	<text transform="matrix(1 0 0 1 231.6182 43.2002)" display="inline" font-family="'MyriadPro-Regular'" font-size="12px">s</text>
	<text transform="matrix(1 0 0 1 236.3701 43.2002)" display="inline" font-family="'MyriadPro-Regular'" font-size="12px">%</text>
	<text transform="matrix(1 0 0 1 245.874 43.2002)" display="inline" font-family="'MyriadPro-Regular'" font-size="12px">2</text>
	<text transform="matrix(1 0 0 1 252.0303 43.2002)" display="inline" font-family="'MyriadPro-Regular'" font-size="12px">0</text>
	<text transform="matrix(1 0 0 1 258.1865 43.2002)" display="inline" font-family="'MyriadPro-Regular'" font-size="12px">2</text>
	<text transform="matrix(1 0 0 1 264.3428 43.2002)" display="inline" font-family="'MyriadPro-Regular'" font-size="12px">/</text>
	<text transform="matrix(1 0 0 1 268.459 43.2002)" display="inline" font-family="'MyriadPro-Regular'" font-size="12px">E</text>
	<text transform="matrix(1 0 0 1 274.3633 43.2002)" display="inline" font-family="'MyriadPro-Regular'" font-size="12px">P</text>
	<text transform="matrix(1 0 0 1 280.7471 43.2002)" display="inline" font-family="'MyriadPro-Regular'" font-size="12px">S</text>
	<text transform="matrix(1 0 0 1 286.6631 43.2002)" display="inline" font-family="'MyriadPro-Regular'" font-size="12px">&lt;</text>
	<text transform="matrix(1 0 0 1 293.8154 43.2002)" display="inline" font-family="'MyriadPro-Regular'" font-size="12px">/</text>
	<text transform="matrix(1 0 0 1 297.9316 43.2002)" display="inline" font-family="'MyriadPro-Regular'" font-size="12px">n</text>
	<text transform="matrix(1 0 0 1 304.4355 43.2002)" display="inline" font-family="'MyriadPro-Regular'" font-size="12px">y</text>
	<text transform="matrix(1 0 0 1 310.0879 43.2002)" display="inline" font-family="'MyriadPro-Regular'" font-size="12px">t</text>
	<text transform="matrix(1 0 0 1 314.0596 43.2002)" display="inline" font-family="'MyriadPro-Regular'" font-size="12px">_</text>
	<text transform="matrix(1 0 0 1 320.0596 43.2002)" display="inline" font-family="'MyriadPro-Regular'" font-size="12px">b</text>
	<text transform="matrix(1 0 0 1 326.8877 43.2002)" display="inline" font-family="'MyriadPro-Regular'" font-size="12px">a</text>
	<text transform="matrix(1 0 0 1 332.6719 43.2002)" display="inline" font-family="'MyriadPro-Regular'" font-size="12px">s</text>
	<text transform="matrix(1 0 0 1 337.4238 43.2002)" display="inline" font-family="'MyriadPro-Regular'" font-size="12px">e</text>
	<text transform="matrix(1 0 0 1 343.4355 43.2002)" display="inline" font-family="'MyriadPro-Regular'" font-size="12px">_</text>
	<text transform="matrix(1 0 0 1 349.4355 43.2002)" display="inline" font-family="'MyriadPro-Regular'" font-size="12px">p</text>
	<text transform="matrix(1 0 0 1 356.2637 43.2002)" display="inline" font-family="'MyriadPro-Regular'" font-size="12px">a</text>
	<text transform="matrix(1 0 0 1 362 43.2002)" display="inline" font-family="'MyriadPro-Regular'" font-size="12px">t</text>
	<text transform="matrix(1 0 0 1 365.9717 43.2002)" display="inline" font-family="'MyriadPro-Regular'" font-size="12px">h</text>
	<text transform="matrix(1 0 0 1 372.6318 43.2002)" display="inline" font-family="'MyriadPro-Regular'" font-size="12px">&gt;</text>
	<text transform="matrix(1 0 0 1 -427 57.5996)" display="inline" font-family="'MyriadPro-Regular'" font-size="12px"> </text>
	<text transform="matrix(1 0 0 1 -424.4561 57.5996)" display="inline" font-family="'MyriadPro-Regular'" font-size="12px"> </text>
	<text transform="matrix(1 0 0 1 -421.9121 57.5996)" display="inline" font-family="'MyriadPro-Regular'" font-size="12px">&lt;</text>
	<text transform="matrix(1 0 0 1 -414.7603 57.5996)" display="inline" font-family="'MyriadPro-Regular'" font-size="12px">n</text>
	<text transform="matrix(1 0 0 1 -408.2563 57.5996)" display="inline" font-family="'MyriadPro-Regular'" font-size="12px">y</text>
	<text transform="matrix(1 0 0 1 -402.6045 57.5996)" display="inline" font-family="'MyriadPro-Regular'" font-size="12px">t</text>
	<text transform="matrix(1 0 0 1 -398.6323 57.5996)" display="inline" font-family="'MyriadPro-Regular'" font-size="12px">_</text>
	<text transform="matrix(1 0 0 1 -392.6323 57.5996)" display="inline" font-family="'MyriadPro-Regular'" font-size="12px">s</text>
	<text transform="matrix(1 0 0 1 -387.8804 57.5996)" display="inline" font-family="'MyriadPro-Regular'" font-size="12px">c</text>
	<text transform="matrix(1 0 0 1 -382.5044 57.5996)" display="inline" font-family="'MyriadPro-Regular'" font-size="12px">a</text>
	<text transform="matrix(1 0 0 1 -376.7202 57.5996)" display="inline" font-family="'MyriadPro-Regular'" font-size="12px">l</text>
	<text transform="matrix(1 0 0 1 -373.8887 57.5996)" display="inline" font-family="'MyriadPro-Regular'" font-size="12px">i</text>
	<text transform="matrix(1 0 0 1 -371.0811 57.5996)" display="inline" font-family="'MyriadPro-Regular'" font-size="12px">n</text>
	<text transform="matrix(1 0 0 1 -364.4209 57.5996)" display="inline" font-family="'MyriadPro-Regular'" font-size="12px">g</text>
	<text transform="matrix(1 0 0 1 -357.7129 57.5996)" display="inline" font-family="'MyriadPro-Regular'" font-size="12px">&gt;</text>
	<text transform="matrix(1 0 0 1 -350.5605 57.5996)" display="inline" font-family="'MyriadPro-Regular'" font-size="12px">1</text>
	<text transform="matrix(1 0 0 1 -344.4043 57.5996)" display="inline" font-family="'MyriadPro-Regular'" font-size="12px">0</text>
	<text transform="matrix(1 0 0 1 -338.248 57.5996)" display="inline" font-family="'MyriadPro-Regular'" font-size="12px">0</text>
	<text transform="matrix(1 0 0 1 -332.0918 57.5996)" display="inline" font-family="'MyriadPro-Regular'" font-size="12px">&lt;</text>
	<text transform="matrix(1 0 0 1 -324.9395 57.5996)" display="inline" font-family="'MyriadPro-Regular'" font-size="12px">/</text>
	<text transform="matrix(1 0 0 1 -320.8232 57.5996)" display="inline" font-family="'MyriadPro-Regular'" font-size="12px">n</text>
	<text transform="matrix(1 0 0 1 -314.3184 57.5996)" display="inline" font-family="'MyriadPro-Regular'" font-size="12px">y</text>
	<text transform="matrix(1 0 0 1 -308.666 57.5996)" display="inline" font-family="'MyriadPro-Regular'" font-size="12px">t</text>
	<text transform="matrix(1 0 0 1 -304.6943 57.5996)" display="inline" font-family="'MyriadPro-Regular'" font-size="12px">_</text>
	<text transform="matrix(1 0 0 1 -298.6943 57.5996)" display="inline" font-family="'MyriadPro-Regular'" font-size="12px">s</text>
	<text transform="matrix(1 0 0 1 -293.9424 57.5996)" display="inline" font-family="'MyriadPro-Regular'" font-size="12px">c</text>
	<text transform="matrix(1 0 0 1 -288.5664 57.5996)" display="inline" font-family="'MyriadPro-Regular'" font-size="12px">a</text>
	<text transform="matrix(1 0 0 1 -282.7822 57.5996)" display="inline" font-family="'MyriadPro-Regular'" font-size="12px">l</text>
	<text transform="matrix(1 0 0 1 -279.9502 57.5996)" display="inline" font-family="'MyriadPro-Regular'" font-size="12px">i</text>
	<text transform="matrix(1 0 0 1 -277.1426 57.5996)" display="inline" font-family="'MyriadPro-Regular'" font-size="12px">n</text>
	<text transform="matrix(1 0 0 1 -270.4824 57.5996)" display="inline" font-family="'MyriadPro-Regular'" font-size="12px">g</text>
	<text transform="matrix(1 0 0 1 -263.7744 57.5996)" display="inline" font-family="'MyriadPro-Regular'" font-size="12px">&gt;</text>
	<text transform="matrix(1 0 0 1 -427 72)" display="inline" font-family="'MyriadPro-Regular'" font-size="12px"> </text>
	<text transform="matrix(1 0 0 1 -424.4561 72)" display="inline" font-family="'MyriadPro-Regular'" font-size="12px"> </text>
	<text transform="matrix(1 0 0 1 -421.9121 72)" display="inline" font-family="'MyriadPro-Regular'" font-size="12px">&lt;</text>
	<text transform="matrix(1 0 0 1 -414.7603 72)" display="inline" font-family="'MyriadPro-Regular'" font-size="12px">n</text>
	<text transform="matrix(1 0 0 1 -408.2563 72)" display="inline" font-family="'MyriadPro-Regular'" font-size="12px">y</text>
	<text transform="matrix(1 0 0 1 -402.6045 72)" display="inline" font-family="'MyriadPro-Regular'" font-size="12px">t</text>
	<text transform="matrix(1 0 0 1 -398.6323 72)" display="inline" font-family="'MyriadPro-Regular'" font-size="12px">_</text>
	<text transform="matrix(1 0 0 1 -392.6323 72)" display="inline" font-family="'MyriadPro-Regular'" font-size="12px">t</text>
	<text transform="matrix(1 0 0 1 -388.6606 72)" display="inline" font-family="'MyriadPro-Regular'" font-size="12px">r</text>
	<text transform="matrix(1 0 0 1 -384.7969 72)" display="inline" font-family="'MyriadPro-Regular'" font-size="12px">a</text>
	<text transform="matrix(1 0 0 1 -379.0127 72)" display="inline" font-family="'MyriadPro-Regular'" font-size="12px">n</text>
	<text transform="matrix(1 0 0 1 -372.3525 72)" display="inline" font-family="'MyriadPro-Regular'" font-size="12px">s</text>
	<text transform="matrix(1 0 0 1 -367.6006 72)" display="inline" font-family="'MyriadPro-Regular'" font-size="12px">p</text>
	<text transform="matrix(1 0 0 1 -360.7725 72)" display="inline" font-family="'MyriadPro-Regular'" font-size="12px">a</text>
	<text transform="matrix(1 0 0 1 -354.9883 72)" display="inline" font-family="'MyriadPro-Regular'" font-size="12px">r</text>
	<text transform="matrix(1 0 0 1 -351.1846 72)" display="inline" font-family="'MyriadPro-Regular'" font-size="12px">e</text>
	<text transform="matrix(1 0 0 1 -345.1729 72)" display="inline" font-family="'MyriadPro-Regular'" font-size="12px">n</text>
	<text transform="matrix(1 0 0 1 -338.5127 72)" display="inline" font-family="'MyriadPro-Regular'" font-size="12px">c</text>
	<text transform="matrix(1 0 0 1 -332.9209 72)" display="inline" font-family="'MyriadPro-Regular'" font-size="12px">y</text>
	<text transform="matrix(1 0 0 1 -327.2686 72)" display="inline" font-family="'MyriadPro-Regular'" font-size="12px">&gt;</text>
	<text transform="matrix(1 0 0 1 -320.1162 72)" display="inline" font-family="'MyriadPro-Regular'" font-size="12px">t</text>
	<text transform="matrix(1 0 0 1 -316.1445 72)" display="inline" font-family="'MyriadPro-Regular'" font-size="12px">r</text>
	<text transform="matrix(1 0 0 1 -312.2207 72)" display="inline" font-family="'MyriadPro-Regular'" font-size="12px">u</text>
	<text transform="matrix(1 0 0 1 -305.6084 72)" display="inline" font-family="'MyriadPro-Regular'" font-size="12px">e</text>
	<text transform="matrix(1 0 0 1 -299.5967 72)" display="inline" font-family="'MyriadPro-Regular'" font-size="12px">&lt;</text>
	<text transform="matrix(1 0 0 1 -292.4443 72)" display="inline" font-family="'MyriadPro-Regular'" font-size="12px">/</text>
	<text transform="matrix(1 0 0 1 -288.3281 72)" display="inline" font-family="'MyriadPro-Regular'" font-size="12px">n</text>
	<text transform="matrix(1 0 0 1 -281.8232 72)" display="inline" font-family="'MyriadPro-Regular'" font-size="12px">y</text>
	<text transform="matrix(1 0 0 1 -276.1709 72)" display="inline" font-family="'MyriadPro-Regular'" font-size="12px">t</text>
	<text transform="matrix(1 0 0 1 -272.1992 72)" display="inline" font-family="'MyriadPro-Regular'" font-size="12px">_</text>
	<text transform="matrix(1 0 0 1 -266.1992 72)" display="inline" font-family="'MyriadPro-Regular'" font-size="12px">t</text>
	<text transform="matrix(1 0 0 1 -262.2275 72)" display="inline" font-family="'MyriadPro-Regular'" font-size="12px">r</text>
	<text transform="matrix(1 0 0 1 -258.3633 72)" display="inline" font-family="'MyriadPro-Regular'" font-size="12px">a</text>
	<text transform="matrix(1 0 0 1 -252.5801 72)" display="inline" font-family="'MyriadPro-Regular'" font-size="12px">n</text>
	<text transform="matrix(1 0 0 1 -245.9199 72)" display="inline" font-family="'MyriadPro-Regular'" font-size="12px">s</text>
	<text transform="matrix(1 0 0 1 -241.168 72)" display="inline" font-family="'MyriadPro-Regular'" font-size="12px">p</text>
	<text transform="matrix(1 0 0 1 -234.3398 72)" display="inline" font-family="'MyriadPro-Regular'" font-size="12px">a</text>
	<text transform="matrix(1 0 0 1 -228.5547 72)" display="inline" font-family="'MyriadPro-Regular'" font-size="12px">r</text>
	<text transform="matrix(1 0 0 1 -224.751 72)" display="inline" font-family="'MyriadPro-Regular'" font-size="12px">e</text>
	<text transform="matrix(1 0 0 1 -218.7393 72)" display="inline" font-family="'MyriadPro-Regular'" font-size="12px">n</text>
	<text transform="matrix(1 0 0 1 -212.0791 72)" display="inline" font-family="'MyriadPro-Regular'" font-size="12px">c</text>
	<text transform="matrix(1 0 0 1 -206.4873 72)" display="inline" font-family="'MyriadPro-Regular'" font-size="12px">y</text>
	<text transform="matrix(1 0 0 1 -200.835 72)" display="inline" font-family="'MyriadPro-Regular'" font-size="12px">&gt;</text>
	<text transform="matrix(1 0 0 1 -427 86.4004)" display="inline" font-family="'MyriadPro-Regular'" font-size="12px"> </text>
	<text transform="matrix(1 0 0 1 -424.4561 86.4004)" display="inline" font-family="'MyriadPro-Regular'" font-size="12px"> </text>
	<text transform="matrix(1 0 0 1 -421.9121 86.4004)" display="inline" font-family="'MyriadPro-Regular'" font-size="12px">&lt;</text>
	<text transform="matrix(1 0 0 1 -414.7603 86.4004)" display="inline" font-family="'MyriadPro-Regular'" font-size="12px">n</text>
	<text transform="matrix(1 0 0 1 -408.2563 86.4004)" display="inline" font-family="'MyriadPro-Regular'" font-size="12px">y</text>
	<text transform="matrix(1 0 0 1 -402.6045 86.4004)" display="inline" font-family="'MyriadPro-Regular'" font-size="12px">t</text>
	<text transform="matrix(1 0 0 1 -398.6323 86.4004)" display="inline" font-family="'MyriadPro-Regular'" font-size="12px">_</text>
	<text transform="matrix(1 0 0 1 -392.6323 86.4004)" display="inline" font-family="'MyriadPro-Regular'" font-size="12px">f</text>
	<text transform="matrix(1 0 0 1 -389.2842 86.4004)" display="inline" font-family="'MyriadPro-Regular'" font-size="12px">o</text>
	<text transform="matrix(1 0 0 1 -382.6963 86.4004)" display="inline" font-family="'MyriadPro-Regular'" font-size="12px">r</text>
	<text transform="matrix(1 0 0 1 -378.7246 86.4004)" display="inline" font-family="'MyriadPro-Regular'" font-size="12px">m</text>
	<text transform="matrix(1 0 0 1 -368.7168 86.4004)" display="inline" font-family="'MyriadPro-Regular'" font-size="12px">a</text>
	<text transform="matrix(1 0 0 1 -362.9805 86.4004)" display="inline" font-family="'MyriadPro-Regular'" font-size="12px">t</text>
	<text transform="matrix(1 0 0 1 -359.0088 86.4004)" display="inline" font-family="'MyriadPro-Regular'" font-size="12px">&gt;</text>
	<text transform="matrix(1 0 0 1 -351.8564 86.4004)" display="inline" font-family="'MyriadPro-Regular'" font-size="12px">E</text>
	<text transform="matrix(1 0 0 1 -345.9521 86.4004)" display="inline" font-family="'MyriadPro-Regular'" font-size="12px">P</text>
	<text transform="matrix(1 0 0 1 -339.5684 86.4004)" display="inline" font-family="'MyriadPro-Regular'" font-size="12px">S</text>
	<text transform="matrix(1 0 0 1 -333.6523 86.4004)" display="inline" font-family="'MyriadPro-Regular'" font-size="12px">&lt;</text>
	<text transform="matrix(1 0 0 1 -326.5 86.4004)" display="inline" font-family="'MyriadPro-Regular'" font-size="12px">/</text>
	<text transform="matrix(1 0 0 1 -322.3838 86.4004)" display="inline" font-family="'MyriadPro-Regular'" font-size="12px">n</text>
	<text transform="matrix(1 0 0 1 -315.8799 86.4004)" display="inline" font-family="'MyriadPro-Regular'" font-size="12px">y</text>
	<text transform="matrix(1 0 0 1 -310.2275 86.4004)" display="inline" font-family="'MyriadPro-Regular'" font-size="12px">t</text>
	<text transform="matrix(1 0 0 1 -306.2559 86.4004)" display="inline" font-family="'MyriadPro-Regular'" font-size="12px">_</text>
	<text transform="matrix(1 0 0 1 -300.2559 86.4004)" display="inline" font-family="'MyriadPro-Regular'" font-size="12px">f</text>
	<text transform="matrix(1 0 0 1 -296.9072 86.4004)" display="inline" font-family="'MyriadPro-Regular'" font-size="12px">o</text>
	<text transform="matrix(1 0 0 1 -290.3193 86.4004)" display="inline" font-family="'MyriadPro-Regular'" font-size="12px">r</text>
	<text transform="matrix(1 0 0 1 -286.3477 86.4004)" display="inline" font-family="'MyriadPro-Regular'" font-size="12px">m</text>
	<text transform="matrix(1 0 0 1 -276.3398 86.4004)" display="inline" font-family="'MyriadPro-Regular'" font-size="12px">a</text>
	<text transform="matrix(1 0 0 1 -270.6035 86.4004)" display="inline" font-family="'MyriadPro-Regular'" font-size="12px">t</text>
	<text transform="matrix(1 0 0 1 -266.6318 86.4004)" display="inline" font-family="'MyriadPro-Regular'" font-size="12px">&gt;</text>
	<text transform="matrix(1 0 0 1 -427 100.7998)" display="inline" font-family="'MyriadPro-Regular'" font-size="12px"> </text>
	<text transform="matrix(1 0 0 1 -424.4561 100.7998)" display="inline" font-family="'MyriadPro-Regular'" font-size="12px"> </text>
	<text transform="matrix(1 0 0 1 -421.9121 100.7998)" display="inline" font-family="'MyriadPro-Regular'" font-size="12px">&lt;</text>
	<text transform="matrix(1 0 0 1 -414.7603 100.7998)" display="inline" font-family="'MyriadPro-Regular'" font-size="12px">n</text>
	<text transform="matrix(1 0 0 1 -408.2563 100.7998)" display="inline" font-family="'MyriadPro-Regular'" font-size="12px">y</text>
	<text transform="matrix(1 0 0 1 -402.6045 100.7998)" display="inline" font-family="'MyriadPro-Regular'" font-size="12px">t</text>
	<text transform="matrix(1 0 0 1 -398.6323 100.7998)" display="inline" font-family="'MyriadPro-Regular'" font-size="12px">_</text>
	<text transform="matrix(1 0 0 1 -392.6323 100.7998)" display="inline" font-family="'MyriadPro-Regular'" font-size="12px">e</text>
	<text transform="matrix(1 0 0 1 -386.6567 100.7998)" display="inline" font-family="'MyriadPro-Regular'" font-size="12px">x</text>
	<text transform="matrix(1 0 0 1 -381.1006 100.7998)" display="inline" font-family="'MyriadPro-Regular'" font-size="12px">p</text>
	<text transform="matrix(1 0 0 1 -374.2725 100.7998)" display="inline" font-family="'MyriadPro-Regular'" font-size="12px">o</text>
	<text transform="matrix(1 0 0 1 -367.6846 100.7998)" display="inline" font-family="'MyriadPro-Regular'" font-size="12px">r</text>
	<text transform="matrix(1 0 0 1 -363.4736 100.7998)" display="inline" font-family="'MyriadPro-Regular'" font-size="12px">t</text>
	<text transform="matrix(1 0 0 1 -359.502 100.7998)" display="inline" font-family="'MyriadPro-Regular'" font-size="12px">_</text>
	<text transform="matrix(1 0 0 1 -353.502 100.7998)" display="inline" font-family="'MyriadPro-Regular'" font-size="12px">c</text>
	<text transform="matrix(1 0 0 1 -348.1973 100.7998)" display="inline" font-family="'MyriadPro-Regular'" font-size="12px">o</text>
	<text transform="matrix(1 0 0 1 -341.6094 100.7998)" display="inline" font-family="'MyriadPro-Regular'" font-size="12px">d</text>
	<text transform="matrix(1 0 0 1 -334.8418 100.7998)" display="inline" font-family="'MyriadPro-Regular'" font-size="12px">e</text>
	<text transform="matrix(1 0 0 1 -328.8301 100.7998)" display="inline" font-family="'MyriadPro-Regular'" font-size="12px">&gt;</text>
	<text transform="matrix(1 0 0 1 -321.6777 100.7998)" display="inline" font-family="'MyriadPro-Regular'" font-size="12px">a</text>
	<text transform="matrix(1 0 0 1 -315.8936 100.7998)" display="inline" font-family="'MyriadPro-Regular'" font-size="12px">r</text>
	<text transform="matrix(1 0 0 1 -311.6816 100.7998)" display="inline" font-family="'MyriadPro-Regular'" font-size="12px">t</text>
	<text transform="matrix(1 0 0 1 -307.7109 100.7998)" display="inline" font-family="'MyriadPro-Regular'" font-size="12px">b</text>
	<text transform="matrix(1 0 0 1 -300.8828 100.7998)" display="inline" font-family="'MyriadPro-Regular'" font-size="12px">o</text>
	<text transform="matrix(1 0 0 1 -294.2949 100.7998)" display="inline" font-family="'MyriadPro-Regular'" font-size="12px">a</text>
	<text transform="matrix(1 0 0 1 -288.5098 100.7998)" display="inline" font-family="'MyriadPro-Regular'" font-size="12px">r</text>
	<text transform="matrix(1 0 0 1 -284.7061 100.7998)" display="inline" font-family="'MyriadPro-Regular'" font-size="12px">d</text>
	<text transform="matrix(1 0 0 1 -277.9385 100.7998)" display="inline" font-family="'MyriadPro-Regular'" font-size="12px">s</text>
	<text transform="matrix(1 0 0 1 -273.1865 100.7998)" display="inline" font-family="'MyriadPro-Regular'" font-size="12px">&lt;</text>
	<text transform="matrix(1 0 0 1 -266.0342 100.7998)" display="inline" font-family="'MyriadPro-Regular'" font-size="12px">/</text>
	<text transform="matrix(1 0 0 1 -261.918 100.7998)" display="inline" font-family="'MyriadPro-Regular'" font-size="12px">n</text>
	<text transform="matrix(1 0 0 1 -255.4141 100.7998)" display="inline" font-family="'MyriadPro-Regular'" font-size="12px">y</text>
	<text transform="matrix(1 0 0 1 -249.7617 100.7998)" display="inline" font-family="'MyriadPro-Regular'" font-size="12px">t</text>
	<text transform="matrix(1 0 0 1 -245.79 100.7998)" display="inline" font-family="'MyriadPro-Regular'" font-size="12px">_</text>
	<text transform="matrix(1 0 0 1 -239.79 100.7998)" display="inline" font-family="'MyriadPro-Regular'" font-size="12px">e</text>
	<text transform="matrix(1 0 0 1 -233.8145 100.7998)" display="inline" font-family="'MyriadPro-Regular'" font-size="12px">x</text>
	<text transform="matrix(1 0 0 1 -228.2588 100.7998)" display="inline" font-family="'MyriadPro-Regular'" font-size="12px">p</text>
	<text transform="matrix(1 0 0 1 -221.4307 100.7998)" display="inline" font-family="'MyriadPro-Regular'" font-size="12px">o</text>
	<text transform="matrix(1 0 0 1 -214.8428 100.7998)" display="inline" font-family="'MyriadPro-Regular'" font-size="12px">r</text>
	<text transform="matrix(1 0 0 1 -210.6309 100.7998)" display="inline" font-family="'MyriadPro-Regular'" font-size="12px">t</text>
	<text transform="matrix(1 0 0 1 -206.6592 100.7998)" display="inline" font-family="'MyriadPro-Regular'" font-size="12px">_</text>
	<text transform="matrix(1 0 0 1 -200.6592 100.7998)" display="inline" font-family="'MyriadPro-Regular'" font-size="12px">c</text>
	<text transform="matrix(1 0 0 1 -195.3555 100.7998)" display="inline" font-family="'MyriadPro-Regular'" font-size="12px">o</text>
	<text transform="matrix(1 0 0 1 -188.7676 100.7998)" display="inline" font-family="'MyriadPro-Regular'" font-size="12px">d</text>
	<text transform="matrix(1 0 0 1 -182 100.7998)" display="inline" font-family="'MyriadPro-Regular'" font-size="12px">e</text>
	<text transform="matrix(1 0 0 1 -175.9883 100.7998)" display="inline" font-family="'MyriadPro-Regular'" font-size="12px">&gt;</text>
	<text transform="matrix(1 0 0 1 -427 115.2002)" display="inline" font-family="'MyriadPro-Regular'" font-size="12px">&lt;</text>
	<text transform="matrix(1 0 0 1 -419.8481 115.2002)" display="inline" font-family="'MyriadPro-Regular'" font-size="12px">/</text>
	<text transform="matrix(1 0 0 1 -415.7324 115.2002)" display="inline" font-family="'MyriadPro-Regular'" font-size="12px">n</text>
	<text transform="matrix(1 0 0 1 -409.228 115.2002)" display="inline" font-family="'MyriadPro-Regular'" font-size="12px">y</text>
	<text transform="matrix(1 0 0 1 -403.5762 115.2002)" display="inline" font-family="'MyriadPro-Regular'" font-size="12px">t</text>
	<text transform="matrix(1 0 0 1 -399.604 115.2002)" display="inline" font-family="'MyriadPro-Regular'" font-size="12px">_</text>
	<text transform="matrix(1 0 0 1 -393.604 115.2002)" display="inline" font-family="'MyriadPro-Regular'" font-size="12px">p</text>
	<text transform="matrix(1 0 0 1 -386.7764 115.2002)" display="inline" font-family="'MyriadPro-Regular'" font-size="12px">r</text>
	<text transform="matrix(1 0 0 1 -382.9727 115.2002)" display="inline" font-family="'MyriadPro-Regular'" font-size="12px">e</text>
	<text transform="matrix(1 0 0 1 -376.9609 115.2002)" display="inline" font-family="'MyriadPro-Regular'" font-size="12px">f</text>
	<text transform="matrix(1 0 0 1 -373.5654 115.2002)" display="inline" font-family="'MyriadPro-Regular'" font-size="12px">s</text>
	<text transform="matrix(1 0 0 1 -368.8135 115.2002)" display="inline" font-family="'MyriadPro-Regular'" font-size="12px">&gt;</text>
</g>
</svg>
