<?xml version="1.0" encoding="utf-8"?>
<!-- Generator: Adobe Illustrator 18.1.1, SVG Export Plug-In . SVG Version: 6.00 Build 0)  -->
<svg version="1.2" baseProfile="tiny" id="Layer_1" xmlns="http://www.w3.org/2000/svg" xmlns:xlink="http://www.w3.org/1999/xlink"
	 x="0px" y="0px" viewBox="0 0 100 100" xml:space="preserve">
<polygon fill="#F58536" points="50,28.778 79.823,37.568 79.823,28.912 50,14 "/>
<polygon fill="#F58536" points="73.839,47.64 50,46.472 50,60.872 73.839,57.272 "/>
<polygon fill="#9D5025" points="26.162,47.64 50,46.472 50,60.872 26.162,57.272 "/>
<polygon fill="#9D5025" points="50,28.778 20.177,37.568 20.177,28.912 50,14 "/>
<polygon fill="#6B3A19" points="20.177,37.568 50,28.778 79.823,37.568 50,41.209 "/>
<polygon fill="#F58536" points="65.874,69.44 50,74.938 50,86 65.874,78.063 "/>
<polygon fill="#9D5025" points="34.125,69.44 50,74.938 50,86 34.125,78.063 "/>
<polygon fill="#FBBF93" points="65.874,69.44 50,65.928 34.125,69.44 50,74.938 "/>
</svg>
