<?xml version="1.0" encoding="utf-8"?>
<!-- Generator: Adobe Illustrator 19.1.0, SVG Export Plug-In . SVG Version: 6.00 Build 0)  -->
<svg version="1.1" id="Layer_1" xmlns="http://www.w3.org/2000/svg" xmlns:xlink="http://www.w3.org/1999/xlink" x="0px" y="0px"
	 viewBox="0 0 72 72" style="enable-background:new 0 0 72 72;" xml:space="preserve">
<style type="text/css">
	.st0{fill:#D9A740;}
	.st1{fill:#886A2A;}
	.st2{fill:#634B1E;}
	.st3{fill:#FAD791;}
</style>
<g>
	<polygon class="st0" points="57.4,30.9 65.8,31.8 65.8,14.9 57.4,10.7 	"/>
	<polygon class="st1" points="42,14.9 57.4,10.7 57.4,30.9 42,31.8 	"/>
	<polygon class="st2" points="65.8,31.8 51.3,32.4 42,31.8 57.4,30.9 	"/>
	<polygon class="st0" points="36,12.5 52.8,17.9 52.8,26.3 36,23.3 	"/>
	<polygon class="st2" points="28.4,24.7 36.1,23.3 52.8,26.3 45.3,27.1 	"/>
	<polygon class="st1" points="14.6,31 6.2,31.8 6.2,14.8 14.6,10.7 	"/>
	<polygon class="st0" points="30,14.9 14.6,10.7 14.6,30.9 30,31.8 	"/>
	<polygon class="st2" points="6.2,31.8 20.7,32.4 30,31.8 14.6,30.9 	"/>
	<polygon class="st1" points="36,12.5 19.2,17.9 19.2,26.3 36,23.3 	"/>
	<polygon class="st2" points="43.6,24.7 35.9,23.3 19.2,26.3 26.7,27.1 	"/>
	<polygon class="st0" points="57.4,41.3 65.8,40.5 65.8,57.4 57.4,61.6 	"/>
	<polygon class="st1" points="42,57.4 57.4,61.6 57.4,41.3 42,40.5 	"/>
	<polygon class="st3" points="65.8,40.5 51.3,39.9 42,40.5 57.4,41.3 	"/>
	<polygon class="st0" points="36,59.8 52.8,54.3 52.8,46 36,49 	"/>
	<polygon class="st3" points="28.4,47.6 36.1,48.9 52.8,46 45.3,45.2 	"/>
	<polygon class="st1" points="14.6,41.3 6.2,40.5 6.2,57.4 14.6,61.6 	"/>
	<polygon class="st0" points="30,57.4 14.6,61.6 14.6,41.3 30,40.5 	"/>
	<polygon class="st3" points="6.2,40.5 20.7,39.9 30,40.5 14.6,41.3 	"/>
	<polygon class="st1" points="36,59.8 19.2,54.3 19.2,46 36,49 	"/>
	<polygon class="st3" points="43.6,47.6 35.9,48.9 19.2,46 26.7,45.2 	"/>
	<polygon class="st0" points="44.9,67.5 36,72 36,0 44.9,4.5 	"/>
	<polygon class="st1" points="27.1,67.5 36,72 36,0 27.1,4.5 	"/>
</g>
</svg>
