<?xml version="1.0" encoding="utf-8"?>
<!-- Generator: Adobe Illustrator 19.1.0, SVG Export Plug-In . SVG Version: 6.00 Build 0)  -->
<svg version="1.1" id="Layer_1" xmlns="http://www.w3.org/2000/svg" xmlns:xlink="http://www.w3.org/1999/xlink" x="0px" y="0px"
	 viewBox="0 0 100 100" style="enable-background:new 0 0 100 100;" xml:space="preserve">
<style type="text/css">
	.st0{fill:#F58435;}
	.st1{fill:#9D5025;}
	.st2{fill:#6B3B19;}
	.st3{fill:#FBBF92;}
</style>
<polygon class="st0" points="60.2,50 50,50 50,91.2 60.2,86.1 "/>
<polygon class="st0" points="74.5,21.1 79.7,23.7 79.7,39.5 74.5,38.4 "/>
<polygon class="st0" points="64.4,16 50,8.8 50,50 64.4,50 "/>
<polygon class="st1" points="55.5,40.5 74.5,38.4 74.5,21.1 55.5,26.2 "/>
<polygon class="st2" points="79.7,39.5 61.5,41.2 55.5,40.5 74.3,38.4 "/>
<polygon class="st1" points="39.8,50 50,50 50,8.8 39.8,13.9 "/>
<polygon class="st1" points="25.5,78.9 20.3,76.3 20.3,60.5 25.5,61.6 "/>
<polygon class="st1" points="35.6,84 50,91.2 50,50 35.6,50 "/>
<polygon class="st0" points="44.5,59.5 25.5,61.6 25.5,78.9 44.5,73.8 "/>
<polygon class="st3" points="20.3,60.5 38.5,58.8 44.5,59.5 25.7,61.6 "/>
</svg>
