<?xml version="1.0" encoding="utf-8"?>
<!-- Generator: Adobe Illustrator 18.1.1, SVG Export Plug-In . SVG Version: 6.00 Build 0)  -->
<svg version="1.2" baseProfile="tiny" id="Layer_1" xmlns="http://www.w3.org/2000/svg" xmlns:xlink="http://www.w3.org/1999/xlink"
	 x="0px" y="0px" viewBox="0 0 100 100" xml:space="preserve">
<g>
	<g>
		<path fill="#9D5025" d="M76.593,71.823v2.975c0,0.23-0.016,0.457-0.049,0.68v-2.975C76.577,72.282,76.593,72.056,76.593,71.823"/>
		<path fill="#9D5025" d="M76.544,72.503v2.975c-0.039,0.262-0.098,0.518-0.174,0.764v-2.973
			C76.446,73.024,76.505,72.767,76.544,72.503"/>
		<path fill="#9D5025" d="M76.37,73.269v2.973c-0.096,0.291-0.217,0.568-0.361,0.832v-2.973
			C76.153,73.839,76.274,73.56,76.37,73.269"/>
		<path fill="#9D5025" d="M76.009,74.101v2.973C75.2,78.54,73.63,79.53,71.823,79.53v-2.973C73.63,76.558,75.2,75.569,76.009,74.101
			"/>
	</g>
	<path fill="#9D5025" d="M76.593,71.823v2.975c0,2.619-2.131,4.732-4.77,4.732l-1.574-3.875
		C72.89,75.655,76.593,74.444,76.593,71.823z"/>
	<g>
		<path fill="#9D5025" d="M28.138,76.558v2.973c-2.639,0-4.769-2.113-4.769-4.732v-2.975C23.368,74.444,25.499,76.558,28.138,76.558
			"/>
	</g>
	<path fill="#9D5025" d="M28.138,76.558v2.973c-2.639,0-4.769-2.113-4.769-4.732v-2.975C23.368,74.444,25.499,76.558,28.138,76.558z
		"/>
	<g>
		<polygon fill="#9D5025" points="71.823,76.558 71.823,79.53 28.138,79.53 26.749,75.821 		"/>
	</g>
	<g>
		<path fill="#F58536" d="M71.823,22.671c2.639,0,4.77,2.113,4.77,4.734v44.418c0,2.621-2.131,4.734-4.77,4.734H28.138
			c-2.639,0-4.769-2.113-4.769-4.734V27.405c0-2.621,2.131-4.734,4.769-4.734H71.823z"/>
	</g>
</g>
<g>
	<path fill="#FFFFFF" d="M60.337,63.458c0-1.872-0.378-2.683-1.548-2.683c-1.314,0-1.621,1.314-1.621,4.951
		c0,3.89,0.54,4.592,1.657,4.592c0.936,0,1.62-0.486,1.62-3.259h2.593c0,2.772-0.685,5.167-4.087,5.167
		c-3.89,0-4.376-2.772-4.376-6.68s0.486-6.68,4.376-6.68c3.709,0,3.979,2.719,3.979,4.591H60.337z"/>
	<path fill="#FFFFFF" d="M66.456,68.247c0.036,1.477,0.288,2.287,1.423,2.287c1.26,0,1.422-0.937,1.422-2.053
		c0-1.134-0.252-2.179-1.674-2.179h-0.864V64.61h0.846c1.08,0,1.477-0.973,1.477-2.017c0-1.188-0.396-1.675-1.242-1.675
		c-1.116,0-1.314,0.864-1.314,2.071h-2.377c0-2.503,1.332-3.764,3.745-3.764c2.305,0,3.673,1.026,3.673,3.277
		c0,1.53-0.738,2.539-1.944,2.809v0.036c1.639,0.252,2.269,1.404,2.269,3.007c0,1.711-0.702,3.871-4.231,3.871
		c-2.466,0-3.69-1.494-3.69-3.925v-0.055H66.456z"/>
</g>
</svg>
