<?xml version="1.0" encoding="utf-8"?>
<!-- Generator: Adobe Illustrator 19.1.0, SVG Export Plug-In . SVG Version: 6.00 Build 0)  -->
<svg version="1.1" id="Layer_1" xmlns="http://www.w3.org/2000/svg" xmlns:xlink="http://www.w3.org/1999/xlink" x="0px" y="0px"
	 viewBox="0 0 100 100" style="enable-background:new 0 0 100 100;" xml:space="preserve">
<style type="text/css">
	.st0{fill:#F58435;}
	.st1{fill:#9D5025;}
	.st2{fill:#6B3B19;}
	.st3{fill:#FBBF92;}
</style>
<g>
	<polygon class="st0" points="72.7,71.6 37.2,84.6 37.2,15.2 72.7,28.2 	"/>
	<polygon class="st0" points="27.3,74 19.3,75.8 19.3,24.2 27.3,26 	"/>
	<polygon class="st0" points="37.2,77 27.3,79.8 27.3,20.2 37.2,23 	"/>
	<polygon class="st1" points="32,17.8 37.2,15.2 37.2,84.8 32,82.2 	"/>
	<polygon class="st1" points="23.1,22.3 27.3,20.2 27.3,79.8 23.1,77.7 	"/>
	<polygon class="st1" points="19.3,24.2 15.9,25.9 15.9,74.1 19.3,75.8 	"/>
	<g>
		<polygon class="st1" points="50,41.7 50,8.8 43.2,12.2 43.2,42.4 		"/>
		<polygon class="st1" points="43.2,57.4 43.2,87.8 50,91.2 50,58.1 		"/>
	</g>
	<g>
		<polygon class="st0" points="68.2,43.5 68.2,17.9 50,8.8 50,41.7 		"/>
		<polygon class="st0" points="50,58.1 50,91.2 68.2,82.1 68.2,56.3 		"/>
	</g>
	<g>
		<polygon class="st0" points="84.1,45.1 84.1,25.9 74.4,21 74.4,44.1 		"/>
		<polygon class="st0" points="74.4,55.7 74.4,79 84.1,74.1 84.1,54.7 		"/>
	</g>
	<polygon class="st2" points="68.2,43.5 61.5,43.9 43.2,42.4 50,41.7 	"/>
	<polygon class="st3" points="68.2,56.3 61.9,55.9 43.2,57.4 49.7,58.1 	"/>
	<polygon class="st1" points="70.1,22.1 74.4,21 74.4,44.1 70.1,44.4 	"/>
	<polygon class="st1" points="70.1,77.9 74.4,79 74.4,55.7 70.1,55.4 	"/>
	<polygon class="st3" points="84.1,54.7 80.2,54.5 70.1,55.4 74.4,55.7 	"/>
	<polygon class="st2" points="84.1,45.1 80.2,45.3 70.1,44.4 74.4,44.1 	"/>
</g>
</svg>
