<?xml version="1.0" encoding="utf-8"?>
<!-- Generator: Adobe Illustrator 18.1.1, SVG Export Plug-In . SVG Version: 6.00 Build 0)  -->
<svg version="1.2" baseProfile="tiny" id="Layer_1" xmlns="http://www.w3.org/2000/svg" xmlns:xlink="http://www.w3.org/1999/xlink"
	 x="0px" y="0px" viewBox="0 0 100 100" xml:space="preserve">
<g id="Layer_3">
</g>
<g id="Layer_1_1_">
	<text transform="matrix(1 0 0 1 32.5635 -5.0303)" fill="#231F20" font-family="'HelveticaNeueLTStd-Roman'" font-size="21.0885">AMI</text>
	<g>
		<g>
			<path fill="#9D5025" d="M76.562,70.677v2.967c0,0.23-0.018,0.457-0.049,0.68v-2.967C76.545,71.136,76.562,70.907,76.562,70.677"
				/>
			<path fill="#9D5025" d="M76.514,71.356v2.967c-0.039,0.264-0.098,0.52-0.178,0.768v-2.967
				C76.416,71.876,76.475,71.62,76.514,71.356"/>
			<path fill="#9D5025" d="M76.336,72.124v2.967c-0.094,0.291-0.215,0.57-0.361,0.834v-2.967
				C76.121,72.694,76.242,72.415,76.336,72.124"/>
			<path fill="#9D5025" d="M75.975,72.958v2.967c-0.809,1.465-2.371,2.459-4.174,2.459v-2.967
				C73.604,75.417,75.166,74.423,75.975,72.958"/>
		</g>
		<path fill="#9D5025" d="M76.562,70.677v2.967c0,2.615-2.127,4.74-4.762,4.74v-2.967C74.436,75.417,76.562,73.29,76.562,70.677z"/>
		<g>
			<path fill="#9D5025" d="M28.199,75.417v2.967c-2.635,0-4.762-2.125-4.762-4.74v-2.967C23.438,73.29,25.564,75.417,28.199,75.417"
				/>
		</g>
		<path fill="#9D5025" d="M28.199,75.417v2.967c-2.635,0-4.762-2.125-4.762-4.74v-2.967C23.438,73.29,25.564,75.417,28.199,75.417z"
			/>
		<g>
			<polygon fill="#9D5025" points="72.893,74.661 71.801,78.384 28.199,78.384 27.215,74.983 			"/>
		</g>
		<g>
			<path fill="#F58536" d="M71.801,21.616c2.635,0,4.762,2.125,4.762,4.741v44.319c0,2.613-2.127,4.74-4.762,4.74H28.199
				c-2.635,0-4.762-2.127-4.762-4.74V26.357c0-2.616,2.127-4.741,4.762-4.741C28.199,21.616,71.801,21.616,71.801,21.616z"/>
		</g>
		<rect x="33.146" y="30.689" fill="#FFFFFF" width="33.668" height="15.868"/>
		<rect x="35.717" y="33.312" fill="#F58536" width="7.986" height="10.627"/>
		<rect x="45.984" y="33.312" fill="#F58536" width="7.99" height="10.627"/>
		<rect x="56.256" y="33.312" fill="#F58536" width="7.99" height="10.627"/>
		<rect x="33.146" y="51.942" fill="#FFFFFF" width="33.668" height="15.869"/>
		<rect x="35.717" y="54.563" fill="#F58536" width="7.986" height="10.627"/>
		<rect x="45.984" y="54.563" fill="#F58536" width="7.99" height="10.627"/>
		<rect x="56.256" y="54.563" fill="#F58536" width="7.99" height="10.627"/>
	</g>
</g>
<g id="nyt_x5F_exporter_x5F_info" display="none">
</g>
</svg>
