<?xml version="1.0" encoding="utf-8"?>
<!-- Generator: Adobe Illustrator 19.1.0, SVG Export Plug-In . SVG Version: 6.00 Build 0)  -->
<svg version="1.1" id="Layer_1" xmlns="http://www.w3.org/2000/svg" xmlns:xlink="http://www.w3.org/1999/xlink" x="0px" y="0px"
	 viewBox="0 0 100 100" style="enable-background:new 0 0 100 100;" xml:space="preserve">
<style type="text/css">
	.st0{fill:#1A476F;}
	.st1{fill:#2D72B8;}
	.st2{fill:#FFFFFF;}
	.st3{display:none;}
</style>
<g id="Layer_1_1_">
	<g id="Layer_1_5_">
		<g>
			<g>
				<g>
					<path class="st0" d="M76.4,66.9v2.6c0,0.4,0,0.7-0.1,1.1V68C76.3,67.6,76.4,67.2,76.4,66.9"/>
					<path class="st0" d="M76.3,68v2.6c-0.1,0.4-0.2,0.8-0.3,1.2v-2.6C76.1,68.8,76.2,68.4,76.3,68"/>
					<path class="st0" d="M76,69.2v2.6c-0.1,0.5-0.3,0.9-0.6,1.3v-2.6C75.7,70.1,75.9,69.6,76,69.2"/>
				</g>
				<path class="st0" d="M76.4,66.9v2.6c0,4.1-3.4,7.5-7.5,7.5v-2.6C73,74.4,76.4,71,76.4,66.9z"/>
				<g>
					<polygon class="st0" points="69.9,73.6 68.8,77 31.2,77 31.2,74.4 					"/>
				</g>
				<path class="st0" d="M31.2,74.4V77c-4.2,0-7.5-3.4-7.5-7.5v-2.6C23.6,71,27,74.4,31.2,74.4z"/>
				<g>
					<path class="st1" d="M68.8,22c4.2,0,7.5,3.3,7.5,7.5v38.4c0,4.1-3.4,7.5-7.5,7.5H31.2c-4.2,0-7.5-3.4-7.5-7.5V29.5
						c0-4.1,3.4-7.5,7.5-7.5H68.8z"/>
				</g>
			</g>
		</g>
		<polygon class="st2" points="69,40 69,36 64,36 64,31 60,31 60,36 58,36 58,31 54,31 54,36 52,36 52,31 48,31 48,36 46,36 46,31 
			42,31 42,36 40,36 40,31 36,31 36,36 31,36 31,40 36,40 36,42 31,42 31,46 36,46 36,48 31,48 31,52 36,52 36,54 31,54 31,58 
			36,58 36,60 31,60 31,64 36,64 36,69 40,69 40,64 42,64 42,69 46,69 46,64 48,64 48,69 52,69 52,64 54,64 54,69 58,69 58,64 
			60,64 60,69 64,69 64,64 69,64 69,60 64,60 64,58 69,58 69,54 64,54 64,52 69,52 69,48 64,48 64,46 69,46 69,42 64,42 64,40 		"/>
		<path class="st1" d="M41.1,41.8h5.1l3.9,11.3l0,0l3.6-11.3h5.1v16.4h-3.4V46.6l0,0l-4,11.6h-2.8l-4-11.5l0,0v11.5h-3.4L41.1,41.8
			L41.1,41.8z"/>
	</g>
</g>
<g id="nyt_x5F_exporter_x5F_info" class="st3">
</g>
</svg>
