<?xml version="1.0" encoding="utf-8"?>
<!-- Generator: Adobe Illustrator 19.1.0, SVG Export Plug-In . SVG Version: 6.00 Build 0)  -->
<svg version="1.1" id="Layer_1" xmlns="http://www.w3.org/2000/svg" xmlns:xlink="http://www.w3.org/1999/xlink" x="0px" y="0px"
	 viewBox="0 0 100 100" style="enable-background:new 0 0 100 100;" xml:space="preserve">
<style type="text/css">
	.st0{fill:#1A476F;}
	.st1{clip-path:url(#SVGID_2_);enable-background:new    ;}
	.st2{fill:#2D72B8;}
	.st3{clip-path:url(#SVGID_4_);enable-background:new    ;}
	.st4{clip-path:url(#SVGID_6_);enable-background:new    ;}
	.st5{clip-path:url(#SVGID_8_);enable-background:new    ;}
	.st6{fill:#FFFFFF;}
	.st7{display:none;}
</style>
<g id="Layer_1_1_">
	<g>
		<g>
			<path id="SVGID_23_" class="st0" d="M76,46.8c-3.7-1.2-7.8-1.4-11.3-1.4c-5.1,0-11.5,1.2-12.7,2.9v-2.4c0.5-2.1,6.4-3.9,11.7-3.9
				c1.8,0,9.8,0.8,12.4,2.1"/>
		</g>
		<g>
			<defs>
				<path id="SVGID_1_" d="M76,46.8c-3.7-1.2-7.8-1.4-11.3-1.4c-5.1,0-11.5,1.2-12.7,2.9v-2.4c0.5-2.1,6.4-3.9,11.7-3.9
					c1.8,0,9.8,0.8,12.4,2.1"/>
			</defs>
			<clipPath id="SVGID_2_">
				<use xlink:href="#SVGID_1_"  style="overflow:visible;"/>
			</clipPath>
			<g class="st1">
				<path class="st0" d="M52.2,45.5v2.6c-0.1,0.1-0.1,0.2-0.1,0.3v-2.6C52.2,45.7,52.2,45.6,52.2,45.5"/>
				<path class="st0" d="M52.1,45.8v2.6v0.1V45.8C52.1,45.9,52.1,45.8,52.1,45.8"/>
			</g>
		</g>
	</g>
	<g>
		<path class="st2" d="M65.5,48.8c2.2,0,4,0.2,5.6,0.4c3.3,0.5,5,1.5,5,2.1s-1.7,1.5-5,2c-1.5,0.3-3.4,0.4-5.6,0.4
			c-6.9,0-10.6-1.6-10.6-2.5C54.9,50.4,58.7,48.8,65.5,48.8z"/>
	</g>
	<g>
		<g>
			<path id="SVGID_25_" class="st0" d="M76.2,50.3V53c0,0.6-1.7,1.5-5,2c-1.5,0.3-3.4,0.4-5.6,0.4c-6.9,0-10.6-1.6-10.6-2.5v-2.8
				c0,0.8,3.7,2.5,10.6,2.5c2.2,0,4-0.2,5.6-0.4C74.4,51.8,76.2,50.8,76.2,50.3z"/>
		</g>
		<g>
			<defs>
				<path id="SVGID_3_" d="M76.2,50.3V53c0,0.6-1.7,1.5-5,2c-1.5,0.3-3.4,0.4-5.6,0.4c-6.9,0-10.6-1.6-10.6-2.5v-2.8
					c0,0.8,3.7,2.5,10.6,2.5c2.2,0,4-0.2,5.6-0.4C74.4,51.8,76.2,50.8,76.2,50.3z"/>
			</defs>
			<clipPath id="SVGID_4_">
				<use xlink:href="#SVGID_3_"  style="overflow:visible;"/>
			</clipPath>
			<g class="st3">
				<path class="st0" d="M76.2,50.3V53l0,0V50.3L76.2,50.3"/>
				<path class="st0" d="M76.2,50.3v2.8c0,0,0,0,0,0.1V50.3C76.1,50.3,76.2,50.3,76.2,50.3"/>
				<path class="st0" d="M76.1,50.4v2.8v0.1V50.4L76.1,50.4"/>
				<path class="st0" d="M76.1,50.4v2.8c-0.3,0.6-2,1.4-5,1.9c-1.5,0.3-3.4,0.4-5.6,0.4c-6.9,0-10.6-1.6-10.6-2.5v-2.8
					c0,0.8,3.7,2.5,10.6,2.5c2.2,0,4-0.2,5.6-0.4C74.1,51.8,75.8,51,76.1,50.4"/>
			</g>
		</g>
	</g>
	<g>
		<g>
			<path id="SVGID_27_" class="st0" d="M57.3,72.4v3.9c-1.7-0.6-2.2-0.9-2.4-1.3v-4.5C55,71,56,71.8,57.3,72.4z"/>
		</g>
	</g>
	<g>
		<g>
			<path id="SVGID_29_" class="st0" d="M76.3,72.1v2.8c0,0.9-3,2.5-10.1,2.5c-3.9,0-6.8-0.5-9-1.1v-2.8c2.1,0.7,5.1,1.1,9,1.1
				C73.4,74.6,76.3,73,76.3,72.1z"/>
		</g>
		<g>
			<defs>
				<path id="SVGID_5_" d="M76.3,72.1v2.8c0,0.9-3,2.5-10.1,2.5c-3.9,0-6.8-0.5-9-1.1v-2.8c2.1,0.7,5.1,1.1,9,1.1
					C73.4,74.6,76.3,73,76.3,72.1z"/>
			</defs>
			<clipPath id="SVGID_6_">
				<use xlink:href="#SVGID_5_"  style="overflow:visible;"/>
			</clipPath>
			<g class="st4">
				<path class="st0" d="M76.3,72.1v2.8c0,0,0,0,0,0.1V72.1C76.3,72.2,76.3,72.2,76.3,72.1"/>
				<path class="st0" d="M76.3,72.2V75c0,0,0,0,0,0.1V72.2L76.3,72.2"/>
				<path class="st0" d="M76.3,72.3v2.8c0,0,0,0.1-0.1,0.1L76.3,72.3C76.3,72.3,76.3,72.3,76.3,72.3"/>
				<path class="st0" d="M76.3,72.4v2.8c-0.5,0.9-3.5,2.2-10,2.2c-3.9,0-7.1-0.5-9-1.1v-2.8c1.9,0.6,5.1,1.1,9,1.1
					C72.7,74.6,75.8,73.2,76.3,72.4"/>
			</g>
		</g>
	</g>
	<g>
		<g>
			<path id="SVGID_31_" class="st0" d="M27.8,73.4V76c-2.2,0-4-1.8-4-4v-2.6C23.8,71.6,25.6,73.4,27.8,73.4z"/>
		</g>
		<g>
			<defs>
				<path id="SVGID_7_" d="M27.8,73.4V76c-2.2,0-4-1.8-4-4v-2.6C23.8,71.6,25.6,73.4,27.8,73.4z"/>
			</defs>
			<clipPath id="SVGID_8_">
				<use xlink:href="#SVGID_7_"  style="overflow:visible;"/>
			</clipPath>
			<g class="st5">
				<path class="st0" d="M27.8,73.4V76c-2.2,0-4-1.8-4-4v-2.6C23.8,71.6,25.6,73.4,27.8,73.4"/>
			</g>
		</g>
	</g>
	<g>
		<polygon class="st0" points="53.6,73.4 53.6,76 27.8,76 27.8,73.4 		"/>
	</g>
	<g>
		<path class="st2" d="M76.1,45.5c-3.8-1.3-10-1.4-11.8-1.3c-5.2,0.1-11.1,1.3-12.1,2.8v0.3v0.9V73c0,0.5,1,1,1.4,1.4H27.8
			c-2.2,0-4-1.8-4-4V25.6c0-2.2,1.8-4,4-4h44.5c2.2,0,4,1.8,4,4"/>
	</g>
	<g>
		<path class="st2" d="M76.3,56.1v17c0,0.9-3,2.5-10.1,2.5c-3.9,0-6.8-0.5-8.8-1c-1.4-0.5-2.4-1-2.5-1.4v-17c2.1,1.3,6.4,2,10.6,2
			h0.3c0.4,0,0.9,0,1.3,0h0.2c0.4,0,0.7,0,1.1-0.1c0.2,0,0.4,0,0.5,0c0.3,0,0.6,0,0.8-0.1c0.2,0,0.3,0,0.5-0.1
			c0.3,0,0.6-0.1,0.9-0.1C73.4,57.4,75.2,56.8,76.3,56.1z"/>
	</g>
	<polygon class="st6" points="65.7,69.7 65.6,69.7 63.4,60.3 60.2,60.3 60.2,73.1 62.1,73.1 62.1,62.4 62.1,62.4 64.7,73.1 
		66.5,73.1 69,62.4 69.1,62.4 69.1,73.1 71,73.1 71,60.3 67.9,60.3 	"/>
	<path class="st6" d="M32.2,25.7c-2.2,0-3.2,1.6-3.2,5s1,5,3.2,5s3.2-1.6,3.2-5S34.4,25.7,32.2,25.7z M32.2,34.5
		c-0.9,0-1.7-0.6-1.7-3.9c0-3.2,0.7-3.8,1.7-3.8c0.9,0,1.7,0.6,1.7,3.8C33.8,34,33.1,34.5,32.2,34.5z"/>
	<path class="st6" d="M42.9,34.7c0-0.6,0-1.3-0.1-2c-0.1-1.4-0.6-1.9-1.5-2l0,0c1.1-0.2,1.6-1.1,1.6-2.4c0-1.8-1.1-2.5-2.5-2.5H37
		v9.6h1.5v-4.2h1.3c1.1,0,1.4,0.5,1.4,1.5c0,0.7,0,1.2,0.1,1.8c0,0.4,0.1,0.7,0.3,0.8h1.7C43.1,35.4,42.9,35.1,42.9,34.7z
		 M39.8,30.2h-1.2V27h1.3c1,0,1.5,0.5,1.5,1.6C41.4,29.6,40.8,30.2,39.8,30.2z"/>
	<path class="st6" d="M46.4,25.9l-2.8,9.6h1.6l0.6-2.4h2.8l0.6,2.4H51l-2.6-9.6H46.4z M46.2,31.9l1.2-4.7l0,0l1.1,4.7
		C48.5,31.9,46.2,31.9,46.2,31.9z"/>
	<path class="st6" d="M57.9,32.1h-1.5v0.2c0,0.9-0.1,2.3-1.4,2.3c-1.1,0-1.7-0.8-1.7-3.9s0.5-3.8,1.7-3.8c1.1,0,1.4,1,1.4,1.9V29
		h1.5v-0.2c0-1-0.2-3-2.9-3c-2.5,0-3.2,1.6-3.2,5s0.8,5,3.2,5c2.3,0,3-1.7,3-3.4L57.9,32.1L57.9,32.1z"/>
	<polygon class="st6" points="64.3,34.2 60.6,34.2 60.6,25.9 59,25.9 59,35.5 64.3,35.5 	"/>
	<polygon class="st6" points="70.9,34.2 67.1,34.2 67.1,31.1 70.5,31.1 70.5,29.8 67.1,29.8 67.1,27.2 70.7,27.2 70.7,25.9 
		65.5,25.9 65.5,35.5 70.9,35.5 	"/>
</g>
<g id="nyt_x5F_exporter_x5F_info" class="st7">
</g>
</svg>
