<?xml version="1.0" encoding="utf-8"?>
<!-- Generator: Adobe Illustrator 19.1.0, SVG Export Plug-In . SVG Version: 6.00 Build 0)  -->
<svg version="1.1" id="Layer_1" xmlns="http://www.w3.org/2000/svg" xmlns:xlink="http://www.w3.org/1999/xlink" x="0px" y="0px"
	 viewBox="0 0 100 100" style="enable-background:new 0 0 100 100;" xml:space="preserve">
<style type="text/css">
	.st0{fill:#1A476F;}
	.st1{fill:#2D72B8;}
	.st2{fill:#FFFFFF;}
	.st3{display:none;}
</style>
<g id="Layer_1_1_">
	<g id="Layer_1_3_">
		<g>
			<g>
				<g>
					<g>
						<path class="st0" d="M52.3,45.5v2.6c-0.1,0.1-0.1,0.2-0.1,0.3v-2.6C52.2,45.7,52.2,45.6,52.3,45.5"/>
						<path class="st0" d="M52.1,45.8v2.6v0.1V45.8C52.1,45.9,52.1,45.8,52.1,45.8"/>
					</g>
					<path class="st0" d="M76.1,46.8c-3.7-1.2-7.8-1.4-11.3-1.4c-5.1,0-11.5,1.2-12.7,2.9v-2.4c0.5-2.1,6.4-3.9,11.7-3.9
						c1.8,0,9.8,0.8,12.4,2.1"/>
					<g>
						<path class="st1" d="M65.6,48.8c2.2,0,4.1,0.2,5.6,0.4c3.3,0.5,5,1.5,5,2.1s-1.7,1.5-5,2c-1.5,0.3-3.4,0.4-5.6,0.4
							c-6.9,0-10.6-1.6-10.6-2.5C54.9,50.4,58.7,48.8,65.6,48.8z"/>
					</g>
					<g>
						<path class="st0" d="M76.2,50.3v2.8l0,0V50.3L76.2,50.3"/>
						<path class="st0" d="M76.2,50.3v2.8c0,0,0,0,0,0.1V50.3L76.2,50.3"/>
						<path class="st0" d="M76.2,50.4v2.8v0.1V50.4L76.2,50.4"/>
						<path class="st0" d="M76.2,50.4v2.8c-0.3,0.6-2,1.4-5,1.9c-1.5,0.3-3.4,0.4-5.6,0.4C58.7,55.5,55,53.9,55,53v-2.8
							c0,0.8,3.8,2.5,10.6,2.5c2.2,0,4.1-0.2,5.6-0.4C74.1,51.8,75.9,51,76.2,50.4"/>
					</g>
					<path class="st0" d="M76.2,50.3v2.8c0,0.6-1.7,1.5-5,2c-1.5,0.3-3.4,0.4-5.6,0.4C58.7,55.5,55,53.9,55,53v-2.8
						c0,0.8,3.8,2.5,10.6,2.5c2.2,0,4.1-0.2,5.6-0.4C74.5,51.8,76.2,50.8,76.2,50.3z"/>
					<g>
						<g>
							<path class="st0" d="M76.4,72.2V75c0,0,0,0,0,0.1V72.2L76.4,72.2"/>
							<path class="st0" d="M76.4,72.3v2.8c0,0,0,0,0,0.1V72.3L76.4,72.3"/>
							<path class="st0" d="M76.4,72.3v2.8c0,0,0,0.1-0.1,0.1L76.4,72.3C76.4,72.4,76.4,72.4,76.4,72.3"/>
						</g>
						<path class="st0" d="M66.3,74.6c-3.9,0-6.9-0.4-9-1v-1.1c-1.3-0.6-2.3-1.4-2.4-1.9v4.6c0.2,0.3,0.7,0.7,2.3,1.2l0,0
							c2.1,0.7,5.1,1.1,9,1.1c7.2,0,10.1-1.6,10.1-2.5v-2.8C76.4,73.1,73.5,74.6,66.3,74.6z"/>
					</g>
					<path class="st0" d="M27.8,73.5v2.6c-2.2,0-4-1.8-4-4l-0.1-2.5C23.6,71.7,25.5,73.5,27.8,73.5z"/>
					<g>
						<polygon class="st0" points="53.6,73.5 53.6,76.1 27.8,76.1 27.2,72.7 						"/>
					</g>
					<g>
						<path class="st1" d="M76.1,45.5c-3.8-1.3-10.1-1.4-11.8-1.4c-5.2,0.1-11.2,1.3-12.2,2.8v0.3v1V73c0,0.5,1,1.1,1.5,1.4h-26
							c-2.2,0-4-1.8-4-4v-45c0-2.2,1.8-4,4-4h44.7c2.2,0,4,1.8,4,4"/>
					</g>
					<g>
						<path class="st1" d="M76.4,56.1v17.1c0,0.9-3,2.5-10.1,2.5c-3.9,0-6.9-0.5-8.8-1c-1.4-0.5-2.4-1-2.5-1.4v-17
							c2.1,1.3,6.4,2,10.6,2h0.3c0.4,0,0.9,0,1.3,0h0.2c0.4,0,0.7,0,1.1-0.1c0.2,0,0.4,0,0.5,0c0.3,0,0.6,0,0.8-0.1
							c0.2,0,0.3,0,0.5-0.1c0.3,0,0.6-0.1,0.9-0.1C73.5,57.4,75.3,56.8,76.4,56.1z"/>
					</g>
				</g>
				<polygon class="st2" points="65.7,69.8 65.7,69.8 63.4,60.3 60.2,60.3 60.2,73.1 62.1,73.1 62.1,62.5 62.2,62.5 64.8,73.1 
					66.5,73.1 69.1,62.5 69.2,62.5 69.2,73.1 71.1,73.1 71.1,60.3 68,60.3 				"/>
			</g>
		</g>
	</g>
</g>
<g id="nyt_x5F_exporter_x5F_info" class="st3">
</g>
</svg>
