<?xml version="1.0" encoding="utf-8"?>
<!-- Generator: Adobe Illustrator 19.1.0, SVG Export Plug-In . SVG Version: 6.00 Build 0)  -->
<svg version="1.1" id="Layer_1" xmlns="http://www.w3.org/2000/svg" xmlns:xlink="http://www.w3.org/1999/xlink" x="0px" y="0px"
	 viewBox="0 0 100 100" style="enable-background:new 0 0 100 100;" xml:space="preserve">
<style type="text/css">
	.st0{fill:#FFFFFF;}
	.st1{font-family:'HelveticaNeueLTStd-MdCn';}
	.st2{font-size:11px;}
	.st3{fill:#1A476F;}
	.st4{fill:#2D72B8;}
	.st5{display:none;}
</style>
<g id="Layer_1_1_">
	<text transform="matrix(1 0 0 1 23.8243 38.4786)" class="st0 st1 st2">P</text>
	<text transform="matrix(1 0 0 1 29.335 38.4786)" class="st0 st1 st2">o</text>
	<text transform="matrix(1 0 0 1 34.6153 38.4786)" class="st0 st1 st2">s</text>
	<text transform="matrix(1 0 0 1 39.4991 38.4786)" class="st0 st1 st2">t</text>
	<text transform="matrix(1 0 0 1 42.7549 38.4786)" class="st0 st1 st2">g</text>
	<text transform="matrix(1 0 0 1 48.2549 38.4786)" class="st0 st1 st2">r</text>
	<text transform="matrix(1 0 0 1 51.918 38.4786)" class="st0 st1 st2">e</text>
	<text transform="matrix(1 0 0 1 57.0108 38.4786)" class="st0 st1 st2">S</text>
	<text transform="matrix(1 0 0 1 62.7198 38.4786)" class="st0 st1 st2">Q</text>
	<text transform="matrix(1 0 0 1 68.836 38.4786)" class="st0 st1 st2">L</text>
	<g>
		<g>
			<g>
				<path class="st3" d="M76.4,66.9v2.6c0,0.4,0,0.7-0.1,1.1V68C76.3,67.6,76.4,67.2,76.4,66.9"/>
				<path class="st3" d="M76.3,68v2.6c-0.1,0.4-0.2,0.8-0.3,1.2v-2.6C76.1,68.8,76.2,68.4,76.3,68"/>
				<path class="st3" d="M76,69.2v2.6c-0.1,0.5-0.3,0.9-0.6,1.3v-2.6C75.7,70.1,75.9,69.6,76,69.2"/>
			</g>
			<path class="st3" d="M76.4,66.9v2.6c0,4.1-3.4,7.5-7.5,7.5v-2.6C73,74.4,76.4,71,76.4,66.9z"/>
			<g>
				<polygon class="st3" points="69.9,73.6 68.8,77 31.2,77 31.2,74.4 				"/>
			</g>
			<path class="st3" d="M31.2,74.4V77c-4.2,0-7.5-3.4-7.5-7.5v-2.6C23.6,71,27,74.4,31.2,74.4z"/>
			<g>
				<path class="st4" d="M68.8,22c4.2,0,7.5,3.3,7.5,7.5v38.4c0,4.1-3.4,7.5-7.5,7.5H31.2c-4.2,0-7.5-3.4-7.5-7.5V29.5
					c0-4.1,3.4-7.5,7.5-7.5H68.8z"/>
			</g>
		</g>
	</g>
	<text transform="matrix(1 0 0 1 24.9463 37.4044)" class="st0 st1 st2">P</text>
	<text transform="matrix(1 0 0 1 30.4571 37.4044)" class="st0 st1 st2">o</text>
	<text transform="matrix(1 0 0 1 35.7374 37.4044)" class="st0 st1 st2">s</text>
	<text transform="matrix(1 0 0 1 40.6211 37.4044)" class="st0 st1 st2">t</text>
	<text transform="matrix(1 0 0 1 43.877 37.4044)" class="st0 st1 st2">g</text>
	<text transform="matrix(1 0 0 1 49.377 37.4044)" class="st0 st1 st2">r</text>
	<text transform="matrix(1 0 0 1 53.0401 37.4044)" class="st0 st1 st2">e</text>
	<text transform="matrix(1 0 0 1 58.1329 37.4044)" class="st0 st1 st2">S</text>
	<text transform="matrix(1 0 0 1 63.8418 37.4044)" class="st0 st1 st2">Q</text>
	<text transform="matrix(1 0 0 1 69.9581 37.4044)" class="st0 st1 st2">L</text>
</g>
<g id="nyt_x5F_exporter_x5F_info" class="st5">
</g>
</svg>
