<?xml version="1.0" encoding="utf-8"?>
<!-- Generator: Adobe Illustrator 19.1.0, SVG Export Plug-In . SVG Version: 6.00 Build 0)  -->
<svg version="1.1" id="Layer_1" xmlns="http://www.w3.org/2000/svg" xmlns:xlink="http://www.w3.org/1999/xlink" x="0px" y="0px"
	 viewBox="0 0 100 100" style="enable-background:new 0 0 100 100;" xml:space="preserve">
<style type="text/css">
	.st0{fill:#1A476F;}
	.st1{fill:#2D72B8;}
	.st2{fill:#FFFFFF;stroke:#19486F;stroke-miterlimit:10;}
	.st3{font-family:'HelveticaNeueLTStd-BdCn';}
	.st4{font-size:11px;}
	.st5{display:none;}
</style>
<g id="Layer_1_1_">
	<g>
		<g>
			<g>
				<path class="st0" d="M49.2,32.3v2.5c-0.1-0.1-0.1-0.2-0.1-0.3V32C49.2,32.2,49.2,32.2,49.2,32.3"/>
			</g>
			<path class="st0" d="M49.2,34.6v-2.5c0,0.1,0,0.2,0.1,0.3v2.5C49.2,34.7,49.2,34.6,49.2,34.6z"/>
			<g>
				<polygon class="st0" points="56.1,32.1 55.9,34.8 50.6,34.8 50.4,32.2 				"/>
			</g>
			<g>
				<path class="st0" d="M59.4,32.5V35c-0.3,0.4-0.8,0.7-1.4,0.7v-2.5C58.6,33.2,59.1,32.9,59.4,32.5"/>
			</g>
			<path class="st0" d="M59.4,32.5V35c-0.3,0.4-0.8,0.7-1.4,0.7v-2.5C58.6,33.2,59.1,32.9,59.4,32.5z"/>
			<g>
				<polygon class="st0" points="63.4,35.4 63.4,37.9 59.4,35 58.6,31.8 				"/>
			</g>
			<g>
				<polygon class="st0" points="50.6,32.3 50.6,34.8 44.4,42.3 44.4,39.8 				"/>
			</g>
			<g>
				<polygon class="st0" points="59.4,40.1 59.4,42.5 55.9,34.8 55.9,32.3 				"/>
			</g>
			<g>
				<polygon class="st0" points="64.3,40.6 63.4,43.6 62.2,44 62.2,41.6 				"/>
			</g>
			<g>
				<polygon class="st0" points="73.1,43.3 72.6,46 70.5,46 70.5,43.5 				"/>
			</g>
			<g>
				<rect x="67.3" y="43.5" class="st0" width="0.4" height="2.5"/>
			</g>
			<g>
				<path class="st0" d="M74.7,41.8v2.5c0,0.1,0,0.1,0,0.2V42C74.7,42,74.7,41.9,74.7,41.8"/>
				<path class="st0" d="M74.7,42v2.5c0,0.1,0,0.2-0.1,0.2v-2.5C74.7,42.2,74.7,42.1,74.7,42"/>
				<path class="st0" d="M74.6,42.3v2.5c0,0.1-0.1,0.2-0.1,0.3v-2.5C74.6,42.4,74.6,42.4,74.6,42.3"/>
				<path class="st0" d="M74.5,42.5V45c-0.3,0.6-1.1,1-1.9,1v-2.5C73.4,43.5,74.2,43.2,74.5,42.5"/>
			</g>
			<path class="st0" d="M74.7,41.8v2.5c0,1-1,1.7-2.1,1.7v-2.5C73.7,43.5,74.7,42.9,74.7,41.8z"/>
			<g>
				<path class="st0" d="M65.2,43.7v2.5c-1-0.1-1.8-0.9-1.8-1.9v-2.5C63.4,42.8,64.2,43.6,65.2,43.7"/>
			</g>
			<path class="st0" d="M65.2,43.7v2.5c-1-0.1-1.8-0.9-1.8-1.9v-2.5C63.4,42.8,64.2,43.6,65.2,43.7z"/>
			<g>
				<polygon class="st0" points="60.2,42.2 60.2,44.7 45.1,50 45.1,47.5 				"/>
			</g>
			<g>
				<polygon class="st0" points="63,47.8 63,50.3 60.1,44.3 59.9,41.3 				"/>
			</g>
			<g>
				<polygon class="st0" points="67.6,42.5 67.3,46 65.3,50.3 65.3,47.9 				"/>
			</g>
			<g>
				<polygon class="st0" points="65.1,51.7 65.1,54.2 64.2,52.4 64,49.1 				"/>
			</g>
			<g>
				<polygon class="st0" points="64.2,49.9 64.2,52.4 61.8,57.4 61.8,54.9 				"/>
			</g>
			<g>
				<polygon class="st0" points="58.8,56.2 58.8,58.7 45.1,56 45.1,53.5 				"/>
			</g>
			<g>
				<polygon class="st0" points="63.4,57.2 63.4,59.6 60.9,59.1 60.4,56.4 				"/>
			</g>
			<g>
				<path class="st0" d="M45.1,56.3v2.5c0,0.2,0,0.3,0,0.5v-2.5C45,56.6,45.1,56.5,45.1,56.3"/>
				<path class="st0" d="M45,56.8v2.5c0,0.2-0.1,0.3-0.1,0.5v-2.5C45,57.1,45,57,45,56.8"/>
				<path class="st0" d="M44.9,57.3v2.5c-0.1,0.2-0.1,0.3-0.2,0.5v-2.5C44.8,57.6,44.9,57.4,44.9,57.3"/>
				<path class="st0" d="M44.7,57.7v2.5c-0.2,0.4-0.6,0.8-1,1v-2.5C44.1,58.5,44.5,58.2,44.7,57.7"/>
			</g>
			<path class="st0" d="M45.1,56.3v2.5c0,1.1-0.5,1.9-1.4,2.4v-2.5C44.6,58.3,45.1,57.4,45.1,56.3z"/>
			<g>
				<path class="st0" d="M28.3,59v2.5c-1.6,0-3.1-1.1-3.1-2.7v-2.5C25.3,57.9,26.8,59,28.3,59"/>
			</g>
			<path class="st0" d="M28.3,59v2.5c-1.6,0-3.1-1.1-3.1-2.7v-2.5C25.3,57.9,26.8,59,28.3,59z"/>
			<g>
				<polygon class="st0" points="41.6,59 41.6,61.5 28.3,61.5 27.8,58.5 				"/>
			</g>
			<g>
				<polygon class="st0" points="73.2,61.7 72.6,64.3 65.3,64.3 64.8,61.6 				"/>
			</g>
			<g>
				<path class="st0" d="M74.7,60.9v2.5c0,0.1,0,0.1,0,0.2v-2.5C74.7,61,74.7,60.9,74.7,60.9"/>
				<path class="st0" d="M74.7,61.1v2.5c0,0.1,0,0.1,0,0.2v-2.5C74.7,61.2,74.7,61.1,74.7,61.1"/>
				<path class="st0" d="M74.7,61.2v2.5c0,0,0,0.1-0.1,0.1L74.7,61.2C74.6,61.3,74.7,61.3,74.7,61.2"/>
				<path class="st0" d="M74.6,61.3v2.5c-0.2,0.4-0.8,0.4-1.4,0.4c-0.2,0-0.4,0-0.6,0v-2.5c0.2,0,0.4,0,0.6,0
					C73.9,61.8,74.4,61.7,74.6,61.3"/>
			</g>
			<path class="st0" d="M74.7,60.9v2.5c0,0.8-0.7,0.9-1.5,0.9c-0.2,0-0.4,0-0.6,0v-2.5c0.2,0,0.4,0,0.6,0
				C74,61.8,74.7,61.7,74.7,60.9z"/>
			<g>
				<path class="st0" d="M65.3,61.8v2.5c-0.3,0-0.8,0.2-1.1,0.2c-0.1,0-0.2,0-0.3-0.1v-2.5C64,62,64.1,62,64.2,62
					C64.5,62,65,61.8,65.3,61.8"/>
			</g>
			<path class="st0" d="M65.3,61.8v2.5c-0.3,0-0.8,0.2-1.1,0.2c-0.1,0-0.2,0-0.3-0.1v-2.5C64,62,64.1,62,64.2,62
				C64.5,62,65,61.8,65.3,61.8z"/>
			<g>
				<polygon class="st0" points="60.9,56.6 60.9,59.1 57.6,65.7 57.6,63.2 				"/>
			</g>
			<g>
				<polygon class="st0" points="64.5,61.1 63.9,64.4 59.2,68.4 59.2,66 				"/>
			</g>
			<g>
				<polygon class="st0" points="49.3,66.5 49.3,69 41.6,61.5 41.1,58.1 				"/>
			</g>
			<g>
				<path class="st0" d="M50.5,74.4v2.5c-1.1,0-1.3-0.8-1.3-1.9v-2.5C49.3,73.6,49.5,74.4,50.5,74.4"/>
			</g>
			<path class="st0" d="M50.5,74.4v2.5c-1.1,0-1.3-0.8-1.3-1.9v-2.5C49.3,73.6,49.5,74.4,50.5,74.4z"/>
			<g>
				<path class="st0" d="M59.2,72.5V75c0,0.2,0,0.4,0,0.6v-2.5C59.2,73,59.2,72.8,59.2,72.5"/>
				<path class="st0" d="M59.1,73.2v2.5c0,0.1,0,0.3-0.1,0.4v-2.5C59.1,73.4,59.1,73.3,59.1,73.2"/>
				<path class="st0" d="M59.1,73.6V76c0,0.1-0.1,0.2-0.1,0.3v-2.5C59,73.8,59,73.7,59.1,73.6"/>
				<path class="st0" d="M58.9,73.8v2.5c-0.2,0.3-0.5,0.6-1.1,0.6v-2.5C58.4,74.4,58.7,74.2,58.9,73.8"/>
			</g>
			<path class="st0" d="M59.2,72.5V75c0,1-0.3,1.9-1.3,1.9v-2.5C58.9,74.4,59.2,73.6,59.2,72.5z"/>
			<g>
				<polygon class="st0" points="58.5,74 57.9,76.9 50.5,76.9 50.3,74.1 				"/>
			</g>
			<g>
				<path class="st1" d="M72.6,44.5h-2.2V53h2.2c1,0,2.1,0.6,2.1,1.6v7.3c0,0.8-0.7,0.9-1.5,0.9c-0.2,0-0.4,0-0.6,0h-7.3
					c-0.3,0-0.8,0.2-1.1,0.2c-0.1,0-0.2,0-0.3-0.1L59.2,67v6.6c0,1-0.3,1.9-1.3,1.9h-7.3c-1.1,0-1.3-0.8-1.3-1.9v-6L41.6,60H28.3
					c-1.6,0-3.1-1.1-3.1-2.7v-14c0-1.6,1.5-3,3.1-3h14.1l0.4,0.1l6.4-7.1c-0.2-0.3,0-0.6,0-1V25c0-1,0.2-3,1.3-3h7.3
					c1,0,1.3,1.9,1.3,3v6.4l4.3,2.7c0.3-0.4,1.2-0.9,1.8-0.9h7.3c1,0,2.1,1.2,2.1,2.2v7.3C74.7,43.9,73.7,44.5,72.6,44.5z M63,48.8
					l-2.8-5.6L45,48.5v4.1l14.6,2.9L63,48.8 M50.6,33.3l-6.3,7.5c0.5,0.5,0.7,1.7,0.7,2.5v3.2L59.3,41l-3.5-7.7H50.6 M50.5,64.2h4.9
					l3.4-7L45,54.5v2.8c0,1.1-0.5,1.9-1.4,2.4l5.3,5.3C49.3,64.6,49.9,64.2,50.5,64.2 M63.4,61.6v-3.5l-2.5-0.6l-3.3,6.6h0.3
					c0.5,0,1,0.3,1.4,0.7L63.4,61.6 M59.4,33.5c-0.3,0.4-0.8,0.7-1.4,0.7l3.3,6.6l2.1-0.7v-3.8L59.4,33.5 M67.7,53v-8.4h-0.4l-2,4.3
					l1.9,4.1L67.7,53 M63.4,54.6c0-1,0.7-1.8,1.7-1.9l-0.9-1.8l-2.4,5l1.6,0.3L63.4,54.6 M64.2,46.7l1-2c-1-0.1-1.8-0.9-1.8-1.9
					v-0.7l-1.2,0.4L64.2,46.7"/>
			</g>
		</g>
	</g>
	<path class="st2" d="M55.5,53.1c0,2.2-1.8,4-4,4h-18c-2.2,0-4-1.8-4-4v-6c0-2.2,1.8-4,4-4h18c2.2,0,4,1.8,4,4V53.1z"/>
	<text transform="matrix(1 0 0 1 32.854 54.0087)" class="st1 st3 st4">DW1</text>
</g>
<g id="nyt_x5F_exporter_x5F_info" class="st5">
</g>
</svg>
