<?xml version="1.0" encoding="utf-8"?>
<!-- Generator: Adobe Illustrator 19.1.0, SVG Export Plug-In . SVG Version: 6.00 Build 0)  -->
<svg version="1.1" id="Layer_1" xmlns="http://www.w3.org/2000/svg" xmlns:xlink="http://www.w3.org/1999/xlink" x="0px" y="0px"
	 viewBox="0 0 100 100" style="enable-background:new 0 0 100 100;" xml:space="preserve">
<style type="text/css">
	.st0{enable-background:new    ;}
	.st1{fill:#2D72B8;}
	.st2{fill:#1A476F;}
	.st3{clip-path:url(#SVGID_2_);enable-background:new    ;}
	.st4{clip-path:url(#SVGID_4_);enable-background:new    ;}
	.st5{fill:#FFFFFF;}
	.st6{display:none;}
</style>
<g id="Layer_1_1_">
	<g>
		<g>
			<g>
				<g class="st0">
					<g>
						<path class="st1" d="M50,21.5c4.5,0,8.3,0.4,11.4,0.9c6.7,1.2,10.3,3.3,10.3,4.6s-3.6,3.4-10.3,4.6c-3.1,0.6-7,0.9-11.4,0.9
							c-14.1,0-21.7-3.6-21.7-5.5C28.3,25.2,35.9,21.5,50,21.5z"/>
					</g>
					<g class="st0">
						<g>
							<path id="SVGID_11_" class="st2" d="M71.7,26v2.8c0,1.3-3.6,3.4-10.3,4.6c-3.1,0.6-7,0.9-11.4,0.9c-14.1,0-21.7-3.6-21.7-5.5
								V26c0,1.9,7.7,5.5,21.7,5.5c4.5,0,8.3-0.4,11.4-0.9C68.2,29.4,71.7,27.3,71.7,26z"/>
						</g>
						<g>
							<defs>
								<path id="SVGID_1_" d="M71.7,26v2.8c0,1.3-3.6,3.4-10.3,4.6c-3.1,0.6-7,0.9-11.4,0.9c-14.1,0-21.7-3.6-21.7-5.5V26
									c0,1.9,7.7,5.5,21.7,5.5c4.5,0,8.3-0.4,11.4-0.9C68.2,29.4,71.7,27.3,71.7,26z"/>
							</defs>
							<clipPath id="SVGID_2_">
								<use xlink:href="#SVGID_1_"  style="overflow:visible;"/>
							</clipPath>
							<g class="st3">
								<path class="st2" d="M71.7,26v2.8v0.1v-2.8C71.7,26.1,71.7,26.1,71.7,26"/>
								<path class="st2" d="M71.7,26.2V29c0,0.1,0,0.1,0,0.2v-2.8C71.7,26.3,71.7,26.2,71.7,26.2"/>
								<path class="st2" d="M71.7,26.3v2.8c0,0.1-0.1,0.2-0.1,0.2v-2.8C71.6,26.5,71.7,26.4,71.7,26.3"/>
								<path class="st2" d="M71.6,26.5v2.8c-0.8,1.3-4.2,3-10.1,4.1c-3.1,0.6-7,0.9-11.4,0.9c-14.1,0-21.7-3.6-21.7-5.5V26
									c0,1.9,7.7,5.5,21.7,5.5c4.5,0,8.3-0.4,11.4-0.9C67.3,29.5,70.8,27.8,71.6,26.5"/>
							</g>
						</g>
					</g>
					<g class="st0">
						<g>
							<path id="SVGID_13_" class="st2" d="M33.5,72.4v2.8c-2.9-1-5-2.2-5.2-3v-2.8C28.5,70.3,30.6,71.4,33.5,72.4z"/>
						</g>
					</g>
					<g class="st0">
						<g>
							<path id="SVGID_15_" class="st2" d="M71.7,69.2V72c0,1.9-6,5.5-20.5,5.5c-7.9,0-13.9-1-17.8-2.3L33,71.8
								c3.9,1.2,10.2,2.8,18.1,2.8C65.7,74.7,71.7,71.1,71.7,69.2z"/>
						</g>
						<g>
							<defs>
								<path id="SVGID_3_" d="M71.7,69.2V72c0,1.9-6,5.5-20.5,5.5c-7.9,0-13.9-1-17.8-2.3L33,71.8c3.9,1.2,10.2,2.8,18.1,2.8
									C65.7,74.7,71.7,71.1,71.7,69.2z"/>
							</defs>
							<clipPath id="SVGID_4_">
								<use xlink:href="#SVGID_3_"  style="overflow:visible;"/>
							</clipPath>
							<g class="st4">
								<path class="st2" d="M71.7,69.2V72c0,0,0,0.1,0,0.2v-2.8C71.7,69.3,71.7,69.3,71.7,69.2"/>
								<path class="st2" d="M71.7,69.4v2.8c0,0.1,0,0.1-0.1,0.2v-2.8C71.7,69.5,71.7,69.4,71.7,69.4"/>
								<path class="st2" d="M71.7,69.6v2.8c0,0.1-0.1,0.2-0.1,0.3v-2.8C71.6,69.8,71.6,69.7,71.7,69.6"/>
								<path class="st2" d="M71.5,69.9v2.8c-1.2,2-7.3,4.8-20.3,4.8c-7.9,0-13.9-1-17.8-2.3l-1.1-3.7c3.9,1.2,11,3.1,18.9,3.1
									C64.2,74.7,70.4,71.8,71.5,69.9"/>
							</g>
						</g>
					</g>
				</g>
			</g>
			<path class="st1" d="M61.1,36.1c-0.6,0.1-1.2,0.2-1.8,0.3c-0.3,0-0.6,0.1-0.9,0.1c-0.6,0.1-1.1,0.1-1.7,0.2
				c-0.4,0-0.7,0.1-1.1,0.1c-0.7,0.1-1.5,0.1-2.2,0.1H53c-0.9,0-1.7,0.1-2.7,0.1c-0.2,0-0.4,0-0.6,0c-8.6,0-17.3-1.5-21.5-4.4v37.8
				c0.2,0.9,2.3,2,5.2,3c3.9,1.2,9.9,2.3,17.8,2.3c14.5,0,20.5-3.6,20.5-5.5V32.3C69.5,33.9,65.8,35.2,61.1,36.1z"/>
		</g>
		<g>
			<path class="st5" d="M39.2,42.5h13.5c4.5,0,7.3,3.1,7.3,6.9c0,2.9-1.2,5.1-4,6.2v0.1c2.7,0.7,3.5,3.3,3.6,5.8
				c0.1,1.6,0.1,4.5,1,5.9h-5.5c-0.7-1.6-0.6-4-0.9-5.9c-0.4-2.6-1.4-3.8-4.2-3.8h-5.5v9.7H39V42.5H39.2z M44.7,53.7h6
				c2.4,0,3.8-1,3.8-3.6c0-2.4-1.3-3.4-3.8-3.4h-6V53.7z"/>
		</g>
	</g>
</g>
<g id="nyt_x5F_exporter_x5F_info" class="st6">
</g>
</svg>
