<?xml version="1.0" encoding="utf-8"?>
<!-- Generator: Adobe Illustrator 19.1.0, SVG Export Plug-In . SVG Version: 6.00 Build 0)  -->
<svg version="1.1" id="Layer_1" xmlns="http://www.w3.org/2000/svg" xmlns:xlink="http://www.w3.org/1999/xlink" x="0px" y="0px"
	 viewBox="0 0 100 100" style="enable-background:new 0 0 100 100;" xml:space="preserve">
<style type="text/css">
	.st0{fill:#1A476F;}
	.st1{fill:#2D72B8;}
	.st2{fill:#FFFFFF;}
	.st3{display:none;}
</style>
<g id="Layer_1_1_">
	<g id="Layer_1_4_">
		<g>
			<g>
				<g>
					<path class="st0" d="M76.4,66.9v2.6c0,0.4,0,0.7-0.1,1.1V68C76.3,67.6,76.4,67.2,76.4,66.9"/>
					<path class="st0" d="M76.3,68v2.6c-0.1,0.4-0.2,0.8-0.3,1.2v-2.6C76.1,68.8,76.2,68.4,76.3,68"/>
					<path class="st0" d="M76,69.2v2.6c-0.1,0.5-0.3,0.9-0.6,1.3v-2.6C75.7,70.1,75.9,69.6,76,69.2"/>
				</g>
				<path class="st0" d="M76.4,66.9v2.6c0,4.1-3.4,7.5-7.5,7.5v-2.6C73,74.4,76.4,71,76.4,66.9z"/>
				<g>
					<polygon class="st0" points="69.9,73.6 68.8,77 31.2,77 31.2,74.4 					"/>
				</g>
				<path class="st0" d="M31.2,74.4V77c-4.2,0-7.5-3.4-7.5-7.5v-2.6C23.6,71,27,74.4,31.2,74.4z"/>
				<g>
					<path class="st1" d="M68.8,22c4.2,0,7.5,3.3,7.5,7.5v38.4c0,4.1-3.4,7.5-7.5,7.5H31.2c-4.2,0-7.5-3.4-7.5-7.5V29.5
						c0-4.1,3.4-7.5,7.5-7.5H68.8L68.8,22z"/>
				</g>
			</g>
		</g>
		<polygon class="st2" points="68.6,40.3 68.6,36.3 63.6,36.3 63.6,31.3 59.6,31.3 59.6,36.3 57.6,36.3 57.6,31.3 53.6,31.3 
			53.6,36.3 51.6,36.3 51.6,31.3 47.6,31.3 47.6,36.3 45.6,36.3 45.6,31.3 41.6,31.3 41.6,36.3 39.6,36.3 39.6,31.3 35.6,31.3 
			35.6,36.3 30.6,36.3 30.6,40.3 35.6,40.3 35.6,42.3 30.6,42.3 30.6,46.3 35.6,46.3 35.6,48.3 30.6,48.3 30.6,52.3 35.6,52.3 
			35.6,54.3 30.6,54.3 30.6,58.3 35.6,58.3 35.6,60.3 30.6,60.3 30.6,64.3 35.6,64.3 35.6,69.3 39.6,69.3 39.6,64.3 41.6,64.3 
			41.6,69.3 45.6,69.3 45.6,64.3 47.6,64.3 47.6,69.3 51.6,69.3 51.6,64.3 53.6,64.3 53.6,69.3 57.6,69.3 57.6,64.3 59.6,64.3 
			59.6,69.3 63.6,69.3 63.6,64.3 68.6,64.3 68.6,60.3 63.6,60.3 63.6,58.3 68.6,58.3 68.6,54.3 63.6,54.3 63.6,52.3 68.6,52.3 
			68.6,48.3 63.6,48.3 63.6,46.3 68.6,46.3 68.6,42.3 63.6,42.3 63.6,40.3 		"/>
		<path class="st1" d="M42.3,41.2h9.6c3.2,0,5.2,2.2,5.2,4.9c0,2.1-0.8,3.6-2.8,4.4v0.1c1.9,0.5,2.5,2.3,2.6,4.1
			c0.1,1.1,0,3.2,0.7,4.2h-3.9c-0.5-1.1-0.4-2.8-0.6-4.2c-0.3-1.9-1-2.7-3-2.7h-3.9v6.9h-3.9V41.2z M46.3,49.2h4.3
			c1.7,0,2.7-0.7,2.7-2.5c0-1.7-0.9-2.4-2.7-2.4h-4.3V49.2z"/>
	</g>
</g>
<g id="nyt_x5F_exporter_x5F_info" class="st3">
</g>
</svg>
