<?xml version="1.0" encoding="utf-8"?>
<!-- Generator: Adobe Illustrator 19.1.0, SVG Export Plug-In . SVG Version: 6.00 Build 0)  -->
<svg version="1.1" id="Layer_1" xmlns="http://www.w3.org/2000/svg" xmlns:xlink="http://www.w3.org/1999/xlink" x="0px" y="0px"
	 viewBox="0 0 100 100" style="enable-background:new 0 0 100 100;" xml:space="preserve">
<style type="text/css">
	.st0{fill:#1A476F;}
	.st1{enable-background:new    ;}
	.st2{clip-path:url(#SVGID_4_);enable-background:new    ;}
	.st3{fill:#2D72B8;}
	.st4{clip-path:url(#SVGID_6_);enable-background:new    ;}
	.st5{fill:#FFFFFF;}
	.st6{display:none;}
</style>
<g id="Layer_1_1_">
	<g>
		<g>
			<g>
				<g>
					<path class="st0" d="M28,32.9L28,32.9L28,32.9z"/>
				</g>
			</g>
			<g class="st1">
				<g>
					<g>
						<path id="SVGID_1_" class="st0" d="M72,26.2v2.3c0,3.1-9.8,5.6-22,5.6c-12.1,0-22-2.5-22-5.6v-2.3c0,3.1,9.8,5.6,22,5.6
							S72,29.3,72,26.2z"/>
					</g>
					<g>
						<defs>
							<path id="SVGID_2_" d="M72,26.2v2.3c0,3.1-9.8,5.6-22,5.6c-12.1,0-22-2.5-22-5.6v-2.3c0,3.1,9.8,5.6,22,5.6S72,29.3,72,26.2z
								"/>
						</defs>
						<clipPath id="SVGID_4_">
							<use xlink:href="#SVGID_2_"  style="overflow:visible;"/>
						</clipPath>
						<g class="st2">
							<path class="st0" d="M72,26.2v2.3c0,0.1,0,0.1,0,0.2v-2.3C72,26.3,72,26.3,72,26.2"/>
							<path class="st0" d="M72,26.4v2.3c0,0.1,0,0.2-0.1,0.3v-2.3C71.9,26.6,72,26.5,72,26.4"/>
							<path class="st0" d="M71.9,26.7V29c0,0.1-0.1,0.2-0.2,0.3V27C71.8,26.9,71.9,26.8,71.9,26.7"/>
							<path class="st0" d="M71.8,27v2.3C70.2,32.1,61,34.1,50,34.1c-12.1,0-22-2.5-22-5.6v-2.3c0,3.1,9.8,5.6,22,5.6
								C61,31.8,70.2,29.7,71.8,27"/>
						</g>
					</g>
				</g>
				<g>
					<path class="st3" d="M50,21.6c12.1,0,22,2.5,22,5.6s-9.8,5.6-22,5.6c-12.1,0-22-2.5-22-5.6C28.1,24.1,37.9,21.6,50,21.6z"/>
				</g>
				<g>
					<g>
						<path id="SVGID_3_" class="st0" d="M71.9,68.7V71c0,3.6-9.9,6.5-22,6.5s-22-2.9-22-6.4v-2.3c0,3.6,9.8,6.4,22,6.4
							C62.1,75.1,71.9,72.2,71.9,68.7z"/>
					</g>
					<g>
						<defs>
							<path id="SVGID_5_" d="M71.9,68.7V71c0,3.6-9.9,6.5-22,6.5s-22-2.9-22-6.4v-2.3c0,3.6,9.8,6.4,22,6.4
								C62.1,75.1,71.9,72.2,71.9,68.7z"/>
						</defs>
						<clipPath id="SVGID_6_">
							<use xlink:href="#SVGID_5_"  style="overflow:visible;"/>
						</clipPath>
						<g class="st4">
							<path class="st0" d="M71.9,68.7V71c0,0.1,0,0.2,0,0.3V69C71.9,68.9,71.9,68.8,71.9,68.7"/>
							<path class="st0" d="M71.9,68.9v2.3c0,0.1-0.1,0.2-0.1,0.4v-2.3C71.9,69.2,71.9,69.1,71.9,68.9"/>
							<path class="st0" d="M71.8,69.3v2.3c-0.1,0.1-0.1,0.3-0.2,0.4v-2.3C71.7,69.6,71.8,69.5,71.8,69.3"/>
							<path class="st0" d="M71.6,69.7V72c-1.8,3.1-10.8,5.4-21.7,5.4c-12.1,0-22-2.9-22-6.4v-2.3c0,3.6,9.8,6.4,22,6.4
								C60.8,75.1,69.9,72.8,71.6,69.7"/>
						</g>
					</g>
				</g>
			</g>
		</g>
		<path class="st3" d="M71.9,31.8c-1.2,3.4-9.8,5.4-22,5.4c-12.1,0-20.3-2.3-21.9-5.6v38.1c0,3.6,9.8,6.4,22,6.4
			c12.1,0,22-2.9,22-6.4L71.9,31.8z"/>
		<g>
			<path class="st5" d="M35.7,43.5h8.2l6.2,18.2h0.1l5.9-18.2h8.2V70h-5.5V51.2h-0.1l-6.5,18.7h-4.5l-6.5-18.6h-0.1v18.6h-5.5
				L35.7,43.5L35.7,43.5z"/>
		</g>
	</g>
</g>
<g id="nyt_x5F_exporter_x5F_info" class="st6">
</g>
</svg>
