<?xml version="1.0" encoding="utf-8"?>
<!-- Generator: Adobe Illustrator 19.1.0, SVG Export Plug-In . SVG Version: 6.00 Build 0)  -->
<svg version="1.1" id="Layer_1" xmlns="http://www.w3.org/2000/svg" xmlns:xlink="http://www.w3.org/1999/xlink" x="0px" y="0px"
	 viewBox="0 0 100 100" style="enable-background:new 0 0 100 100;" xml:space="preserve">
<style type="text/css">
	.st0{enable-background:new    ;}
	.st1{fill:#1A476F;}
	.st2{clip-path:url(#SVGID_2_);enable-background:new    ;}
	.st3{fill:#2D72B8;}
	.st4{fill:#FFFFFF;}
	.st5{display:none;}
</style>
<g id="Layer_1_1_">
	<g>
		<g>
			<g class="st0">
				<g class="st0">
					<g>
						<path id="SVGID_43_" class="st1" d="M76.4,66.9v2.6c0,4.1-3.4,7.5-7.5,7.5v-2.6C73,74.4,76.4,71,76.4,66.9z"/>
					</g>
					<g>
						<defs>
							<path id="SVGID_1_" d="M76.4,66.9v2.6c0,4.1-3.4,7.5-7.5,7.5v-2.6C73,74.4,76.4,71,76.4,66.9z"/>
						</defs>
						<clipPath id="SVGID_2_">
							<use xlink:href="#SVGID_1_"  style="overflow:visible;"/>
						</clipPath>
						<g class="st2">
							<path class="st1" d="M76.4,66.9v2.6c0,0.4,0,0.7-0.1,1.1V68C76.3,67.6,76.4,67.2,76.4,66.9"/>
							<path class="st1" d="M76.3,68v2.6c-0.1,0.4-0.2,0.8-0.3,1.2v-2.6C76.1,68.8,76.2,68.4,76.3,68"/>
							<path class="st1" d="M76,69.2v2.6c-0.1,0.5-0.3,0.9-0.6,1.3v-2.6C75.7,70.1,75.9,69.6,76,69.2"/>
						</g>
					</g>
				</g>
				<g>
					<polygon class="st1" points="69.9,73.6 68.8,77 31.2,77 31.2,74.4 					"/>
				</g>
				<g class="st0">
					<g>
						<path id="SVGID_45_" class="st1" d="M31.2,74.4V77c-4.2,0-7.5-3.4-7.5-7.5v-2.6C23.6,71,27,74.4,31.2,74.4z"/>
					</g>
				</g>
				<g>
					<path class="st3" d="M68.8,22c4.2,0,7.5,3.3,7.5,7.5v38.4c0,4.1-3.4,7.5-7.5,7.5H31.2c-4.2,0-7.5-3.4-7.5-7.5V29.5
						c0-4.1,3.4-7.5,7.5-7.5H68.8z"/>
				</g>
			</g>
		</g>
		<g>
			<path class="st4" d="M37.8,35.7V36c0,2-0.8,4-3.4,4c-2.8,0-3.7-1.8-3.7-5.8s0.9-5.8,3.7-5.8c3.2,0,3.4,2.3,3.4,3.5v0.2H36v-0.2
				c0-1-0.3-2.2-1.6-2.2s-1.9,0.8-1.9,4.4c0,3.6,0.6,4.5,1.9,4.5c1.5,0,1.7-1.6,1.7-2.7v-0.2H37.8z"/>
			<path class="st4" d="M41.1,28.6h2.3l2.9,11.1h-1.9L43.8,37h-3.3l-0.7,2.7H38L41.1,28.6z M43.5,35.6l-1.3-5.5l0,0l-1.3,5.5H43.5z"
				/>
			<path class="st4" d="M54,35.7V36c0,2-0.8,4-3.4,4c-2.8,0-3.7-1.8-3.7-5.8s0.9-5.8,3.7-5.8c3.2,0,3.4,2.3,3.4,3.5v0.2h-1.8v-0.2
				c0-1-0.3-2.2-1.6-2.2s-1.9,0.8-1.9,4.4c0,3.6,0.6,4.5,1.9,4.5c1.5,0,1.7-1.6,1.7-2.7v-0.2H54z"/>
			<path class="st4" d="M55.2,28.6H57V33h3.3v-4.4h1.8v11.1h-1.8v-5.2H57v5.2h-1.8V28.6z"/>
			<path class="st4" d="M63.9,28.6h6v1.5h-4.3v3.1h4v1.5h-4v3.5H70v1.5h-6.2V28.6H63.9z"/>
		</g>
	</g>
</g>
<g id="nyt_x5F_exporter_x5F_info" class="st5">
</g>
</svg>
