<?xml version="1.0" encoding="utf-8"?>
<!-- Generator: Adobe Illustrator 19.1.0, SVG Export Plug-In . SVG Version: 6.00 Build 0)  -->
<svg version="1.1" id="Layer_1" xmlns="http://www.w3.org/2000/svg" xmlns:xlink="http://www.w3.org/1999/xlink" x="0px" y="0px"
	 viewBox="0 0 100 100" style="enable-background:new 0 0 100 100;" xml:space="preserve">
<style type="text/css">
	.st0{fill:#1A476F;}
	.st1{fill:#2D72B8;}
</style>
<g>
	<g>
		<g>
			<rect x="32.1" y="51.2" class="st0" width="46" height="2.5"/>
		</g>
		<rect x="21.9" y="51.2" class="st0" width="8" height="2.5"/>
		<g>
			<rect x="21.9" y="45.2" class="st1" width="8" height="7"/>
			<rect x="32.1" y="45.2" class="st1" width="46" height="7"/>
		</g>
	</g>
	<g>
		<g>
			<rect x="32.1" y="74.7" class="st0" width="46" height="2.5"/>
		</g>
		<rect x="21.9" y="74.7" class="st0" width="8" height="2.5"/>
		<g>
			<rect x="21.9" y="68.7" class="st1" width="8" height="7"/>
			<rect x="32.1" y="68.7" class="st1" width="46" height="7"/>
		</g>
	</g>
	<g>
		<g>
			<rect x="32.1" y="27.6" class="st0" width="46" height="2.5"/>
		</g>
		<rect x="21.9" y="27.6" class="st0" width="8" height="2.5"/>
		<g>
			<rect x="21.9" y="21.8" class="st1" width="8" height="7"/>
			<rect x="32.1" y="21.8" class="st1" width="46" height="7"/>
		</g>
	</g>
	<g>
		<g>
			<rect x="32.1" y="63" class="st0" width="46" height="2.5"/>
		</g>
		<rect x="21.9" y="63" class="st0" width="8" height="2.5"/>
		<g>
			<rect x="21.9" y="57" class="st1" width="8" height="7"/>
			<rect x="32.1" y="57" class="st1" width="46" height="7"/>
		</g>
	</g>
	<g>
		<g>
			<rect x="32.1" y="39.4" class="st0" width="46" height="2.5"/>
		</g>
		<rect x="21.9" y="39.4" class="st0" width="8" height="2.5"/>
		<g>
			<rect x="32.1" y="33.4" class="st1" width="46" height="7"/>
			<rect x="21.9" y="33.4" class="st1" width="8" height="7"/>
		</g>
	</g>
</g>
</svg>
