<?xml version="1.0" encoding="utf-8"?>
<!-- Generator: Adobe Illustrator 19.1.0, SVG Export Plug-In . SVG Version: 6.00 Build 0)  -->
<svg version="1.1" id="Layer_1" xmlns="http://www.w3.org/2000/svg" xmlns:xlink="http://www.w3.org/1999/xlink" x="0px" y="0px"
	 viewBox="0 0 100 100" style="enable-background:new 0 0 100 100;" xml:space="preserve">
<style type="text/css">
	.st0{fill:#99BBE1;}
	.st1{fill:#19486F;}
	.st2{fill:#2E73B7;}
	.st3{fill:#1F5B98;}
	.st4{fill:#5193CE;}
</style>
<g>
	<polygon class="st0" points="74.4,56.1 60.1,55.3 60.1,55.3 60.1,55.3 60,55.3 40,55.3 39.9,55.3 39.9,55.3 39.9,55.3 25.6,56.1 
		18.2,58.4 25.6,67.3 39.9,64.9 39.9,65 39.9,68.5 40,68.5 60,68.5 60.1,68.5 60.1,65 60.1,64.9 74.4,67.3 81.8,58.4 	"/>
	<polygon class="st1" points="74.4,43.8 60.1,44.5 60.1,44.5 60.1,44.6 60,44.6 40,44.6 39.9,44.6 39.9,44.5 39.9,44.5 25.6,43.8 
		18.2,41.5 25.6,32.6 39.9,35 39.9,34.9 39.9,31.3 40,31.3 60,31.3 60.1,31.3 60.1,34.9 60.1,35 74.4,32.6 81.8,41.5 	"/>
	<rect x="39.9" y="14" class="st2" width="20.2" height="21.1"/>
	<polygon class="st3" points="39.9,35.1 39.9,14 25.6,21.1 25.6,38 	"/>
	<polygon class="st1" points="18.2,41.6 25.6,38 25.6,21.1 18.2,29.8 	"/>
	<polygon class="st4" points="60.1,35.1 60.1,14 74.4,21.1 74.4,38 	"/>
	<polygon class="st2" points="81.8,41.6 74.4,38 74.4,21.1 81.8,29.8 	"/>
	<rect x="39.9" y="64.9" class="st2" width="20.2" height="21.1"/>
	<polygon class="st3" points="39.9,64.9 39.9,86 25.6,78.9 25.6,62 	"/>
	<polygon class="st1" points="18.2,58.4 25.6,62 25.6,78.9 18.2,70.2 	"/>
	<polygon class="st4" points="60.1,64.9 60.1,86 74.4,78.9 74.4,62 	"/>
	<polygon class="st2" points="81.8,58.4 74.4,62 74.4,78.9 81.8,70.2 	"/>
	<rect x="42.7" y="38.9" class="st2" width="14.8" height="21.8"/>
	<polygon class="st4" points="67.2,59.2 57.5,60.7 57.5,38.9 67.2,40.3 	"/>
	<polygon class="st3" points="33.1,59.2 42.7,60.7 42.7,38.9 33.1,40.3 	"/>
</g>
</svg>
