<?xml version="1.0" encoding="utf-8"?>
<!-- Generator: Adobe Illustrator 19.1.0, SVG Export Plug-In . SVG Version: 6.00 Build 0)  -->
<svg version="1.1" id="Layer_1" xmlns="http://www.w3.org/2000/svg" xmlns:xlink="http://www.w3.org/1999/xlink" x="0px" y="0px"
	 viewBox="0 0 100 100" style="enable-background:new 0 0 100 100;" xml:space="preserve">
<style type="text/css">
	.st0{fill:#1A476F;}
	.st1{fill:#2D72B8;}
	.st2{fill:#FFFFFF;}
	.st3{font-family:'HelveticaNeueLTStd-BdCn';}
	.st4{font-size:14px;}
	.st5{display:none;}
</style>
<g id="Layer_1_1_">
	<g>
		<g>
			<g>
				<path class="st0" d="M76.4,66.9v2.6c0,0.4,0,0.7-0.1,1.1V68C76.3,67.6,76.4,67.2,76.4,66.9"/>
				<path class="st0" d="M76.3,68v2.6c-0.1,0.4-0.2,0.8-0.3,1.2v-2.6C76.1,68.8,76.2,68.4,76.3,68"/>
				<path class="st0" d="M76,69.2v2.6c-0.1,0.5-0.3,0.9-0.6,1.3v-2.6C75.7,70.1,75.9,69.6,76,69.2"/>
			</g>
			<path class="st0" d="M76.4,66.9v2.6c0,4.1-3.4,7.5-7.5,7.5v-2.6C73,74.4,76.4,71,76.4,66.9z"/>
			<g>
				<polygon class="st0" points="69.9,73.6 68.8,77 31.2,77 31.2,74.4 				"/>
			</g>
			<path class="st0" d="M31.2,74.4V77c-4.2,0-7.5-3.4-7.5-7.5v-2.6C23.6,71,27,74.4,31.2,74.4z"/>
			<g>
				<path class="st1" d="M68.8,22c4.2,0,7.5,3.3,7.5,7.5v38.4c0,4.1-3.4,7.5-7.5,7.5H31.2c-4.2,0-7.5-3.4-7.5-7.5V29.5
					c0-4.1,3.4-7.5,7.5-7.5H68.8L68.8,22z"/>
			</g>
		</g>
	</g>
	<text transform="matrix(1 0 0 1 32.3875 37.4044)" class="st2 st3 st4">O</text>
	<text transform="matrix(1 0 0 1 40.1717 37.4044)" class="st2 st3 st4">r</text>
	<text transform="matrix(1 0 0 1 44.8338 37.4044)" class="st2 st3 st4">a</text>
	<text transform="matrix(1 0 0 1 51.5672 37.4044)" class="st2 st3 st4">c</text>
	<text transform="matrix(1 0 0 1 57.7694 37.4044)" class="st2 st3 st4">l</text>
	<text transform="matrix(1 0 0 1 61.1297 37.4044)" class="st2 st3 st4">e</text>
</g>
<g id="nyt_x5F_exporter_x5F_info" class="st5">
</g>
</svg>
