<?xml version="1.0" encoding="utf-8"?>
<!-- Generator: Adobe Illustrator 19.1.0, SVG Export Plug-In . SVG Version: 6.00 Build 0)  -->
<svg version="1.1" id="Layer_1" xmlns="http://www.w3.org/2000/svg" xmlns:xlink="http://www.w3.org/1999/xlink" x="0px" y="0px"
	 viewBox="14 -14 100 100" style="enable-background:new 14 -14 100 100;" xml:space="preserve">
<style type="text/css">
	.st0{display:none;}
	.st1{display:inline;}
	.st2{font-family:'MyriadPro-Regular';}
	.st3{font-size:12px;}
	.st4{fill:#4C612C;}
	.st5{fill:#769B3F;}
	.st6{fill:#3C492A;}
	.st7{fill:#B6C99C;}
</style>
<g id="nyt_x5F_exporter_x5F_info" class="st0">
	<text transform="matrix(1 0 0 1 -581 -14)" class="st1 st2 st3">&lt;</text>
	<text transform="matrix(1 0 0 1 -573.8481 -14)" class="st1 st2 st3">n</text>
	<text transform="matrix(1 0 0 1 -567.3442 -14)" class="st1 st2 st3">y</text>
	<text transform="matrix(1 0 0 1 -561.6924 -14)" class="st1 st2 st3">t</text>
	<text transform="matrix(1 0 0 1 -557.7202 -14)" class="st1 st2 st3">_</text>
	<text transform="matrix(1 0 0 1 -551.7202 -14)" class="st1 st2 st3">p</text>
	<text transform="matrix(1 0 0 1 -544.8926 -14)" class="st1 st2 st3">r</text>
	<text transform="matrix(1 0 0 1 -541.0889 -14)" class="st1 st2 st3">e</text>
	<text transform="matrix(1 0 0 1 -535.0771 -14)" class="st1 st2 st3">f</text>
	<text transform="matrix(1 0 0 1 -531.6812 -14)" class="st1 st2 st3">s</text>
	<text transform="matrix(1 0 0 1 -526.9287 -14)" class="st1 st2 st3">&gt;</text>
	<text transform="matrix(1 0 0 1 -581 0.3999)" class="st1 st2 st3"> </text>
	<text transform="matrix(1 0 0 1 -578.4561 0.3999)" class="st1 st2 st3"> </text>
	<text transform="matrix(1 0 0 1 -575.9121 0.3999)" class="st1 st2 st3">&lt;</text>
	<text transform="matrix(1 0 0 1 -568.7603 0.3999)" class="st1 st2 st3">n</text>
	<text transform="matrix(1 0 0 1 -562.2563 0.3999)" class="st1 st2 st3">y</text>
	<text transform="matrix(1 0 0 1 -556.6045 0.3999)" class="st1 st2 st3">t</text>
	<text transform="matrix(1 0 0 1 -552.6323 0.3999)" class="st1 st2 st3">_</text>
	<text transform="matrix(1 0 0 1 -546.6323 0.3999)" class="st1 st2 st3">p</text>
	<text transform="matrix(1 0 0 1 -539.8047 0.3999)" class="st1 st2 st3">r</text>
	<text transform="matrix(1 0 0 1 -536.001 0.3999)" class="st1 st2 st3">e</text>
	<text transform="matrix(1 0 0 1 -529.9883 0.3999)" class="st1 st2 st3">f</text>
	<text transform="matrix(1 0 0 1 -523.7119 0.3999)" class="st1 st2 st3">i</text>
	<text transform="matrix(1 0 0 1 -518.1562 0.3999)" class="st1 st2 st3">x</text>
	<text transform="matrix(1 0 0 1 -511.0039 0.3999)" class="st1 st2 st3">&gt;</text>
	<text transform="matrix(1 0 0 1 -503.8516 0.3999)" class="st1 st2 st3">&lt;</text>
	<text transform="matrix(1 0 0 1 23837 -8155)" class="st1 st2 st3">/</text>
	<text transform="matrix(1 0 0 1 -499.7354 0.3999)" class="st1 st2 st3">n</text>
	<text transform="matrix(1 0 0 1 -493.2314 0.3999)" class="st1 st2 st3">y</text>
	<text transform="matrix(1 0 0 1 -487.5791 0.3999)" class="st1 st2 st3">t</text>
	<text transform="matrix(1 0 0 1 -483.6074 0.3999)" class="st1 st2 st3">_</text>
	<text transform="matrix(1 0 0 1 -477.6074 0.3999)" class="st1 st2 st3">p</text>
	<text transform="matrix(1 0 0 1 -470.7793 0.3999)" class="st1 st2 st3">r</text>
	<text transform="matrix(1 0 0 1 -466.9756 0.3999)" class="st1 st2 st3">e</text>
	<text transform="matrix(1 0 0 1 -460.9639 0.3999)" class="st1 st2 st3">f</text>
	<text transform="matrix(1 0 0 1 -454.6875 0.3999)" class="st1 st2 st3">i</text>
	<text transform="matrix(1 0 0 1 -449.1318 0.3999)" class="st1 st2 st3">x</text>
	<text transform="matrix(1 0 0 1 130542 -8155)" class="st1 st2 st3">&gt;</text>
	<text transform="matrix(1 0 0 1 -581 14.7998)" class="st1 st2 st3"> </text>
	<text transform="matrix(1 0 0 1 -578.4561 14.7998)" class="st1 st2 st3"> </text>
	<text transform="matrix(1 0 0 1 -575.9121 14.7998)" class="st1 st2 st3">&lt;</text>
	<text transform="matrix(1 0 0 1 -568.7603 14.7998)" class="st1 st2 st3">n</text>
	<text transform="matrix(1 0 0 1 -562.2563 14.7998)" class="st1 st2 st3">y</text>
	<text transform="matrix(1 0 0 1 -556.6045 14.7998)" class="st1 st2 st3">t</text>
	<text transform="matrix(1 0 0 1 -552.6323 14.7998)" class="st1 st2 st3">_</text>
	<text transform="matrix(1 0 0 1 -546.6323 14.7998)" class="st1 st2 st3">s</text>
	<text transform="matrix(1 0 0 1 -541.8804 14.7998)" class="st1 st2 st3">u</text>
	<text transform="matrix(1 0 0 1 -535.2686 14.7998)" class="st1 st2 st3">f</text>
	<text transform="matrix(1 0 0 1 -525.4893 14.7998)" class="st1 st2 st3">f</text>
	<text transform="matrix(1 0 0 1 -519.9336 14.7998)" class="st1 st2 st3">i</text>
	<text transform="matrix(1 0 0 1 -512.7812 14.7998)" class="st1 st2 st3">x</text>
	<text transform="matrix(1 0 0 1 -505.6289 14.7998)" class="st1 st2 st3">&gt;</text>
	<text transform="matrix(1 0 0 1 14 -8155)" class="st1 st2 st3">&lt;</text>
	<text transform="matrix(1 0 0 1 14 -8155)" class="st1 st2 st3">/</text>
	<text transform="matrix(1 0 0 1 -501.5127 14.7998)" class="st1 st2 st3">n</text>
	<text transform="matrix(1 0 0 1 -495.0078 14.7998)" class="st1 st2 st3">y</text>
	<text transform="matrix(1 0 0 1 -489.3555 14.7998)" class="st1 st2 st3">t</text>
	<text transform="matrix(1 0 0 1 -485.3838 14.7998)" class="st1 st2 st3">_</text>
	<text transform="matrix(1 0 0 1 -479.3838 14.7998)" class="st1 st2 st3">s</text>
	<text transform="matrix(1 0 0 1 -474.6318 14.7998)" class="st1 st2 st3">u</text>
	<text transform="matrix(1 0 0 1 -468.0195 14.7998)" class="st1 st2 st3">f</text>
	<text transform="matrix(1 0 0 1 -458.2393 14.7998)" class="st1 st2 st3">f</text>
	<text transform="matrix(1 0 0 1 -452.6836 14.7998)" class="st1 st2 st3">i</text>
	<text transform="matrix(1 0 0 1 -512.7812 14.7998)" class="st1 st2 st3">x</text>
	<text transform="matrix(1 0 0 1 -505.6289 14.7998)" class="st1 st2 st3">&gt;</text>
	<text transform="matrix(1 0 0 1 -581 29.2002)" class="st1 st2 st3"> </text>
	<text transform="matrix(1 0 0 1 -578.4561 29.2002)" class="st1 st2 st3"> </text>
	<text transform="matrix(1 0 0 1 -575.9121 29.2002)" class="st1 st2 st3">&lt;</text>
	<text transform="matrix(1 0 0 1 -568.7603 29.2002)" class="st1 st2 st3">n</text>
	<text transform="matrix(1 0 0 1 -562.2563 29.2002)" class="st1 st2 st3">y</text>
	<text transform="matrix(1 0 0 1 -556.6045 29.2002)" class="st1 st2 st3">t</text>
	<text transform="matrix(1 0 0 1 -552.6323 29.2002)" class="st1 st2 st3">_</text>
	<text transform="matrix(1 0 0 1 -546.6323 29.2002)" class="st1 st2 st3">b</text>
	<text transform="matrix(1 0 0 1 -539.8047 29.2002)" class="st1 st2 st3">a</text>
	<text transform="matrix(1 0 0 1 -534.021 29.2002)" class="st1 st2 st3">s</text>
	<text transform="matrix(1 0 0 1 -529.2695 29.2002)" class="st1 st2 st3">e</text>
	<text transform="matrix(1 0 0 1 -523.2578 29.2002)" class="st1 st2 st3">_</text>
	<text transform="matrix(1 0 0 1 -517.2578 29.2002)" class="st1 st2 st3">p</text>
	<text transform="matrix(1 0 0 1 -510.4297 29.2002)" class="st1 st2 st3">a</text>
	<text transform="matrix(1 0 0 1 -504.6934 29.2002)" class="st1 st2 st3">t</text>
	<text transform="matrix(1 0 0 1 -500.7217 29.2002)" class="st1 st2 st3">h</text>
	<text transform="matrix(1 0 0 1 -494.0615 29.2002)" class="st1 st2 st3">&gt;</text>
	<text transform="matrix(1 0 0 1 -486.9092 29.2002)" class="st1 st2 st3">~</text>
	<text transform="matrix(1 0 0 1 -479.7568 29.2002)" class="st1 st2 st3">/</text>
	<text transform="matrix(1 0 0 1 -475.6406 29.2002)" class="st1 st2 st3">D</text>
	<text transform="matrix(1 0 0 1 -467.6006 29.2002)" class="st1 st2 st3">e</text>
	<text transform="matrix(1 0 0 1 -461.5889 29.2002)" class="st1 st2 st3">s</text>
	<text transform="matrix(1 0 0 1 -456.8369 29.2002)" class="st1 st2 st3">k</text>
	<text transform="matrix(1 0 0 1 -451.209 29.2002)" class="st1 st2 st3">t</text>
	<text transform="matrix(1 0 0 1 -447.3086 29.2002)" class="st1 st2 st3">o</text>
	<text transform="matrix(1 0 0 1 -440.7207 29.2002)" class="st1 st2 st3">p</text>
	<text transform="matrix(1 0 0 1 -433.8926 29.2002)" class="st1 st2 st3">/</text>
	<text transform="matrix(1 0 0 1 -429.7764 29.2002)" class="st1 st2 st3">w</text>
	<text transform="matrix(1 0 0 1 -420.9443 29.2002)" class="st1 st2 st3">i</text>
	<text transform="matrix(1 0 0 1 -418.1367 29.2002)" class="st1 st2 st3">p</text>
	<text transform="matrix(1 0 0 1 -411.3086 29.2002)" class="st1 st2 st3">/</text>
	<text transform="matrix(1 0 0 1 -407.1924 29.2002)" class="st1 st2 st3">A</text>
	<text transform="matrix(1 0 0 1 -399.8848 29.2002)" class="st1 st2 st3">r</text>
	<text transform="matrix(1 0 0 1 -396.0811 29.2002)" class="st1 st2 st3">c</text>
	<text transform="matrix(1 0 0 1 -390.7051 29.2002)" class="st1 st2 st3">h</text>
	<text transform="matrix(1 0 0 1 -384.0449 29.2002)" class="st1 st2 st3">i</text>
	<text transform="matrix(1 0 0 1 -381.2373 29.2002)" class="st1 st2 st3">t</text>
	<text transform="matrix(1 0 0 1 -377.3379 29.2002)" class="st1 st2 st3">e</text>
	<text transform="matrix(1 0 0 1 -371.3262 29.2002)" class="st1 st2 st3">c</text>
	<text transform="matrix(1 0 0 1 -365.7939 29.2002)" class="st1 st2 st3">t</text>
	<text transform="matrix(1 0 0 1 -361.8223 29.2002)" class="st1 st2 st3">u</text>
	<text transform="matrix(1 0 0 1 -355.21 29.2002)" class="st1 st2 st3">r</text>
	<text transform="matrix(1 0 0 1 -351.4062 29.2002)" class="st1 st2 st3">e</text>
	<text transform="matrix(1 0 0 1 -345.3945 29.2002)" class="st1 st2 st3">%</text>
	<text transform="matrix(1 0 0 1 -335.8906 29.2002)" class="st1 st2 st3">2</text>
	<text transform="matrix(1 0 0 1 -329.7344 29.2002)" class="st1 st2 st3">0</text>
	<text transform="matrix(1 0 0 1 -323.5781 29.2002)" class="st1 st2 st3">I</text>
	<text transform="matrix(1 0 0 1 -320.71 29.2002)" class="st1 st2 st3">c</text>
	<text transform="matrix(1 0 0 1 -315.4053 29.2002)" class="st1 st2 st3">o</text>
	<text transform="matrix(1 0 0 1 -308.8174 29.2002)" class="st1 st2 st3">n</text>
	<text transform="matrix(1 0 0 1 -302.1572 29.2002)" class="st1 st2 st3">s</text>
	<text transform="matrix(1 0 0 1 -297.4053 29.2002)" class="st1 st2 st3">%</text>
	<text transform="matrix(1 0 0 1 -287.9014 29.2002)" class="st1 st2 st3">2</text>
	<text transform="matrix(1 0 0 1 -281.7451 29.2002)" class="st1 st2 st3">0</text>
	<text transform="matrix(1 0 0 1 -275.5889 29.2002)" class="st1 st2 st3">-</text>
	<text transform="matrix(1 0 0 1 -271.9053 29.2002)" class="st1 st2 st3">%</text>
	<text transform="matrix(1 0 0 1 -262.4014 29.2002)" class="st1 st2 st3">2</text>
	<text transform="matrix(1 0 0 1 -256.2451 29.2002)" class="st1 st2 st3">0</text>
	<text transform="matrix(1 0 0 1 -250.0889 29.2002)" class="st1 st2 st3">U</text>
	<text transform="matrix(1 0 0 1 -242.3252 29.2002)" class="st1 st2 st3">p</text>
	<text transform="matrix(1 0 0 1 -235.4971 29.2002)" class="st1 st2 st3">d</text>
	<text transform="matrix(1 0 0 1 -228.7295 29.2002)" class="st1 st2 st3">a</text>
	<text transform="matrix(1 0 0 1 -222.9932 29.2002)" class="st1 st2 st3">t</text>
	<text transform="matrix(1 0 0 1 -219.0938 29.2002)" class="st1 st2 st3">e</text>
	<text transform="matrix(1 0 0 1 -213.082 29.2002)" class="st1 st2 st3">%</text>
	<text transform="matrix(1 0 0 1 -203.5781 29.2002)" class="st1 st2 st3">2</text>
	<text transform="matrix(1 0 0 1 -197.4219 29.2002)" class="st1 st2 st3">0</text>
	<text transform="matrix(1 0 0 1 -191.2656 29.2002)" class="st1 st2 st3">a</text>
	<text transform="matrix(1 0 0 1 -185.4814 29.2002)" class="st1 st2 st3">l</text>
	<text transform="matrix(1 0 0 1 -182.6494 29.2002)" class="st1 st2 st3">l</text>
	<text transform="matrix(1 0 0 1 -179.8174 29.2002)" class="st1 st2 st3">%</text>
	<text transform="matrix(1 0 0 1 -170.3135 29.2002)" class="st1 st2 st3">2</text>
	<text transform="matrix(1 0 0 1 -164.1572 29.2002)" class="st1 st2 st3">0</text>
	<text transform="matrix(1 0 0 1 -158.001 29.2002)" class="st1 st2 st3">c</text>
	<text transform="matrix(1 0 0 1 -152.625 29.2002)" class="st1 st2 st3">u</text>
	<text transform="matrix(1 0 0 1 -146.0127 29.2002)" class="st1 st2 st3">s</text>
	<text transform="matrix(1 0 0 1 -141.2607 29.2002)" class="st1 st2 st3">t</text>
	<text transform="matrix(1 0 0 1 -137.3613 29.2002)" class="st1 st2 st3">o</text>
	<text transform="matrix(1 0 0 1 -130.7734 29.2002)" class="st1 st2 st3">m</text>
	<text transform="matrix(1 0 0 1 -120.7656 29.2002)" class="st1 st2 st3">e</text>
	<text transform="matrix(1 0 0 1 -114.7539 29.2002)" class="st1 st2 st3">r</text>
	<text transform="matrix(1 0 0 1 -110.8896 29.2002)" class="st1 st2 st3">-</text>
	<text transform="matrix(1 0 0 1 -107.2061 29.2002)" class="st1 st2 st3">f</text>
	<text transform="matrix(1 0 0 1 -103.7021 29.2002)" class="st1 st2 st3">a</text>
	<text transform="matrix(1 0 0 1 -97.918 29.2002)" class="st1 st2 st3">c</text>
	<text transform="matrix(1 0 0 1 -92.542 29.2002)" class="st1 st2 st3">i</text>
	<text transform="matrix(1 0 0 1 -89.7344 29.2002)" class="st1 st2 st3">n</text>
	<text transform="matrix(1 0 0 1 -83.0742 29.2002)" class="st1 st2 st3">g</text>
	<text transform="matrix(1 0 0 1 -76.3662 29.2002)" class="st1 st2 st3">%</text>
	<text transform="matrix(1 0 0 1 -66.8623 29.2002)" class="st1 st2 st3">2</text>
	<text transform="matrix(1 0 0 1 -60.7061 29.2002)" class="st1 st2 st3">0</text>
	<text transform="matrix(1 0 0 1 -54.5498 29.2002)" class="st1 st2 st3">f</text>
	<text transform="matrix(1 0 0 1 -48.2734 29.2002)" class="st1 st2 st3">i</text>
	<text transform="matrix(1 0 0 1 -45.4414 29.2002)" class="st1 st2 st3">l</text>
	<text transform="matrix(1 0 0 1 -39.4297 29.2002)" class="st1 st2 st3">e</text>
	<text transform="matrix(1 0 0 1 -34.6777 29.2002)" class="st1 st2 st3">s</text>
	<text transform="matrix(1 0 0 1 -25.1738 29.2002)" class="st1 st2 st3">%</text>
	<text transform="matrix(1 0 0 1 -19.0176 29.2002)" class="st1 st2 st3">2</text>
	<text transform="matrix(1 0 0 1 -12.8613 29.2002)" class="st1 st2 st3">0</text>
	<text transform="matrix(1 0 0 1 -8722 -8155)" class="st1 st2 st3">/</text>
	<text transform="matrix(1 0 0 1 -8.7451 29.2002)" class="st1 st2 st3">A</text>
	<text transform="matrix(1 0 0 1 -2.0371 29.2002)" class="st1 st2 st3">W</text>
	<text transform="matrix(1 0 0 1 8.1152 29.2002)" class="st1 st2 st3">S</text>
	<text transform="matrix(1 0 0 1 14.0908 29.2002)" class="st1 st2 st3">-</text>
	<text transform="matrix(1 0 0 1 17.7744 29.2002)" class="st1 st2 st3">S</text>
	<text transform="matrix(1 0 0 1 23.6904 29.2002)" class="st1 st2 st3">i</text>
	<text transform="matrix(1 0 0 1 26.498 29.2002)" class="st1 st2 st3">m</text>
	<text transform="matrix(1 0 0 1 36.5059 29.2002)" class="st1 st2 st3">p</text>
	<text transform="matrix(1 0 0 1 43.334 29.2002)" class="st1 st2 st3">l</text>
	<text transform="matrix(1 0 0 1 46.166 29.2002)" class="st1 st2 st3">e</text>
	<text transform="matrix(1 0 0 1 52.5137 29.2002)" class="st1 st2 st3">-</text>
	<text transform="matrix(1 0 0 1 56.1973 29.2002)" class="st1 st2 st3">I</text>
	<text transform="matrix(1 0 0 1 59.0654 29.2002)" class="st1 st2 st3">c</text>
	<text transform="matrix(1 0 0 1 64.3701 29.2002)" class="st1 st2 st3">o</text>
	<text transform="matrix(1 0 0 1 70.958 29.2002)" class="st1 st2 st3">n</text>
	<text transform="matrix(1 0 0 1 77.6182 29.2002)" class="st1 st2 st3">s</text>
	<text transform="matrix(1 0 0 1 82.3701 29.2002)" class="st1 st2 st3">%</text>
	<text transform="matrix(1 0 0 1 91.874 29.2002)" class="st1 st2 st3">2</text>
	<text transform="matrix(1 0 0 1 98.0303 29.2002)" class="st1 st2 st3">0</text>
	<text transform="matrix(1 0 0 1 104.1865 29.2002)" class="st1 st2 st3">2</text>
	<text transform="matrix(1 0 0 1 110.3428 29.2002)" class="st1 st2 st3">/</text>
	<text transform="matrix(1 0 0 1 114.459 29.2002)" class="st1 st2 st3">D</text>
	<text transform="matrix(1 0 0 1 122.499 29.2002)" class="st1 st2 st3">e</text>
	<text transform="matrix(1 0 0 1 128.5107 29.2002)" class="st1 st2 st3">p</text>
	<text transform="matrix(1 0 0 1 135.3389 29.2002)" class="st1 st2 st3">l</text>
	<text transform="matrix(1 0 0 1 138.1709 29.2002)" class="st1 st2 st3">o</text>
	<text transform="matrix(1 0 0 1 144.6748 29.2002)" class="st1 st2 st3">y</text>
	<text transform="matrix(1 0 0 1 150.3271 29.2002)" class="st1 st2 st3">m</text>
	<text transform="matrix(1 0 0 1 160.335 29.2002)" class="st1 st2 st3">e</text>
	<text transform="matrix(1 0 0 1 166.3467 29.2002)" class="st1 st2 st3">n</text>
	<text transform="matrix(1 0 0 1 172.959 29.2002)" class="st1 st2 st3">t</text>
	<text transform="matrix(1 0 0 1 176.9307 29.2002)" class="st1 st2 st3">%</text>
	<text transform="matrix(1 0 0 1 186.4346 29.2002)" class="st1 st2 st3">2</text>
	<text transform="matrix(1 0 0 1 192.5908 29.2002)" class="st1 st2 st3">0</text>
	<text transform="matrix(1 0 0 1 198.7471 29.2002)" class="st1 st2 st3">&amp;</text>
	<text transform="matrix(1 0 0 1 206.0068 29.2002)" class="st1 st2 st3">a</text>
	<text transform="matrix(1 0 0 1 211.791 29.2002)" class="st1 st2 st3">m</text>
	<text transform="matrix(1 0 0 1 221.7988 29.2002)" class="st1 st2 st3">p</text>
	<text transform="matrix(1 0 0 1 228.627 29.2002)" class="st1 st2 st3">;</text>
	<text transform="matrix(1 0 0 1 231.1104 29.2002)" class="st1 st2 st3">%</text>
	<text transform="matrix(1 0 0 1 240.6143 29.2002)" class="st1 st2 st3">2</text>
	<text transform="matrix(1 0 0 1 246.7705 29.2002)" class="st1 st2 st3">0</text>
	<text transform="matrix(1 0 0 1 252.9268 29.2002)" class="st1 st2 st3">M</text>
	<text transform="matrix(1 0 0 1 262.6465 29.2002)" class="st1 st2 st3">a</text>
	<text transform="matrix(1 0 0 1 268.4297 29.2002)" class="st1 st2 st3">n</text>
	<text transform="matrix(1 0 0 1 275.0898 29.2002)" class="st1 st2 st3">a</text>
	<text transform="matrix(1 0 0 1 280.875 29.2002)" class="st1 st2 st3">g</text>
	<text transform="matrix(1 0 0 1 287.582 29.2002)" class="st1 st2 st3">e</text>
	<text transform="matrix(1 0 0 1 293.5938 29.2002)" class="st1 st2 st3">m</text>
	<text transform="matrix(1 0 0 1 303.6016 29.2002)" class="st1 st2 st3">e</text>
	<text transform="matrix(1 0 0 1 309.6133 29.2002)" class="st1 st2 st3">n</text>
	<text transform="matrix(1 0 0 1 316.2256 29.2002)" class="st1 st2 st3">t</text>
	<text transform="matrix(1 0 0 1 320.1973 29.2002)" class="st1 st2 st3">/</text>
	<text transform="matrix(1 0 0 1 324.3135 29.2002)" class="st1 st2 st3">E</text>
	<text transform="matrix(1 0 0 1 330.2178 29.2002)" class="st1 st2 st3">P</text>
	<text transform="matrix(1 0 0 1 336.6016 29.2002)" class="st1 st2 st3">S</text>
	<text transform="matrix(1 0 0 1 342.5176 29.2002)" class="st1 st2 st3">&lt;</text>
	<text transform="matrix(1 0 0 1 349.6699 29.2002)" class="st1 st2 st3">/</text>
	<text transform="matrix(1 0 0 1 353.7861 29.2002)" class="st1 st2 st3">n</text>
	<text transform="matrix(1 0 0 1 360.291 29.2002)" class="st1 st2 st3">y</text>
	<text transform="matrix(1 0 0 1 365.9434 29.2002)" class="st1 st2 st3">t</text>
	<text transform="matrix(1 0 0 1 369.915 29.2002)" class="st1 st2 st3">_</text>
	<text transform="matrix(1 0 0 1 375.915 29.2002)" class="st1 st2 st3">b</text>
	<text transform="matrix(1 0 0 1 382.7432 29.2002)" class="st1 st2 st3">a</text>
	<text transform="matrix(1 0 0 1 388.5273 29.2002)" class="st1 st2 st3">s</text>
	<text transform="matrix(1 0 0 1 393.2793 29.2002)" class="st1 st2 st3">e</text>
	<text transform="matrix(1 0 0 1 399.291 29.2002)" class="st1 st2 st3">_</text>
	<text transform="matrix(1 0 0 1 405.291 29.2002)" class="st1 st2 st3">p</text>
	<text transform="matrix(1 0 0 1 412.1191 29.2002)" class="st1 st2 st3">a</text>
	<text transform="matrix(1 0 0 1 417.8555 29.2002)" class="st1 st2 st3">t</text>
	<text transform="matrix(1 0 0 1 421.8271 29.2002)" class="st1 st2 st3">h</text>
	<text transform="matrix(1 0 0 1 428.4873 29.2002)" class="st1 st2 st3">&gt;</text>
	<text transform="matrix(1 0 0 1 -581 43.5996)" class="st1 st2 st3"> </text>
	<text transform="matrix(1 0 0 1 -578.4561 43.5996)" class="st1 st2 st3"> </text>
	<text transform="matrix(1 0 0 1 -575.9121 43.5996)" class="st1 st2 st3">&lt;</text>
	<text transform="matrix(1 0 0 1 -568.7603 43.5996)" class="st1 st2 st3">n</text>
	<text transform="matrix(1 0 0 1 -562.2563 43.5996)" class="st1 st2 st3">y</text>
	<text transform="matrix(1 0 0 1 -556.6045 43.5996)" class="st1 st2 st3">t</text>
	<text transform="matrix(1 0 0 1 -552.6323 43.5996)" class="st1 st2 st3">_</text>
	<text transform="matrix(1 0 0 1 -546.6323 43.5996)" class="st1 st2 st3">s</text>
	<text transform="matrix(1 0 0 1 -541.8804 43.5996)" class="st1 st2 st3">c</text>
	<text transform="matrix(1 0 0 1 -536.5044 43.5996)" class="st1 st2 st3">a</text>
	<text transform="matrix(1 0 0 1 -530.7202 43.5996)" class="st1 st2 st3">l</text>
	<text transform="matrix(1 0 0 1 -527.8887 43.5996)" class="st1 st2 st3">i</text>
	<text transform="matrix(1 0 0 1 -525.0811 43.5996)" class="st1 st2 st3">n</text>
	<text transform="matrix(1 0 0 1 -518.4209 43.5996)" class="st1 st2 st3">g</text>
	<text transform="matrix(1 0 0 1 -511.7129 43.5996)" class="st1 st2 st3">&gt;</text>
	<text transform="matrix(1 0 0 1 -504.5605 43.5996)" class="st1 st2 st3">1</text>
	<text transform="matrix(1 0 0 1 -498.4043 43.5996)" class="st1 st2 st3">0</text>
	<text transform="matrix(1 0 0 1 -492.248 43.5996)" class="st1 st2 st3">0</text>
	<text transform="matrix(1 0 0 1 -486.0918 43.5996)" class="st1 st2 st3">&lt;</text>
	<text transform="matrix(1 0 0 1 -478.9395 43.5996)" class="st1 st2 st3">/</text>
	<text transform="matrix(1 0 0 1 -474.8232 43.5996)" class="st1 st2 st3">n</text>
	<text transform="matrix(1 0 0 1 -468.3184 43.5996)" class="st1 st2 st3">y</text>
	<text transform="matrix(1 0 0 1 -462.666 43.5996)" class="st1 st2 st3">t</text>
	<text transform="matrix(1 0 0 1 -458.6943 43.5996)" class="st1 st2 st3">_</text>
	<text transform="matrix(1 0 0 1 -452.6943 43.5996)" class="st1 st2 st3">s</text>
	<text transform="matrix(1 0 0 1 -447.9424 43.5996)" class="st1 st2 st3">c</text>
	<text transform="matrix(1 0 0 1 -442.5664 43.5996)" class="st1 st2 st3">a</text>
	<text transform="matrix(1 0 0 1 -436.7822 43.5996)" class="st1 st2 st3">l</text>
	<text transform="matrix(1 0 0 1 -433.9502 43.5996)" class="st1 st2 st3">i</text>
	<text transform="matrix(1 0 0 1 -431.1426 43.5996)" class="st1 st2 st3">n</text>
	<text transform="matrix(1 0 0 1 -424.4824 43.5996)" class="st1 st2 st3">g</text>
	<text transform="matrix(1 0 0 1 -417.7744 43.5996)" class="st1 st2 st3">&gt;</text>
	<text transform="matrix(1 0 0 1 -581 58)" class="st1 st2 st3"> </text>
	<text transform="matrix(1 0 0 1 -578.4561 58)" class="st1 st2 st3"> </text>
	<text transform="matrix(1 0 0 1 -575.9121 58)" class="st1 st2 st3">&lt;</text>
	<text transform="matrix(1 0 0 1 -568.7603 58)" class="st1 st2 st3">n</text>
	<text transform="matrix(1 0 0 1 -562.2563 58)" class="st1 st2 st3">y</text>
	<text transform="matrix(1 0 0 1 -556.6045 58)" class="st1 st2 st3">t</text>
	<text transform="matrix(1 0 0 1 -552.6323 58)" class="st1 st2 st3">_</text>
	<text transform="matrix(1 0 0 1 -546.6323 58)" class="st1 st2 st3">t</text>
	<text transform="matrix(1 0 0 1 -542.6606 58)" class="st1 st2 st3">r</text>
	<text transform="matrix(1 0 0 1 -538.7969 58)" class="st1 st2 st3">a</text>
	<text transform="matrix(1 0 0 1 -533.0127 58)" class="st1 st2 st3">n</text>
	<text transform="matrix(1 0 0 1 -526.3525 58)" class="st1 st2 st3">s</text>
	<text transform="matrix(1 0 0 1 -521.6006 58)" class="st1 st2 st3">p</text>
	<text transform="matrix(1 0 0 1 -514.7725 58)" class="st1 st2 st3">a</text>
	<text transform="matrix(1 0 0 1 -508.9883 58)" class="st1 st2 st3">r</text>
	<text transform="matrix(1 0 0 1 -505.1846 58)" class="st1 st2 st3">e</text>
	<text transform="matrix(1 0 0 1 -499.1729 58)" class="st1 st2 st3">n</text>
	<text transform="matrix(1 0 0 1 -492.5127 58)" class="st1 st2 st3">c</text>
	<text transform="matrix(1 0 0 1 -486.9209 58)" class="st1 st2 st3">y</text>
	<text transform="matrix(1 0 0 1 -481.2686 58)" class="st1 st2 st3">&gt;</text>
	<text transform="matrix(1 0 0 1 -474.1162 58)" class="st1 st2 st3">t</text>
	<text transform="matrix(1 0 0 1 -470.1445 58)" class="st1 st2 st3">r</text>
	<text transform="matrix(1 0 0 1 -466.2207 58)" class="st1 st2 st3">u</text>
	<text transform="matrix(1 0 0 1 -459.6084 58)" class="st1 st2 st3">e</text>
	<text transform="matrix(1 0 0 1 -453.5967 58)" class="st1 st2 st3">&lt;</text>
	<text transform="matrix(1 0 0 1 -446.4443 58)" class="st1 st2 st3">/</text>
	<text transform="matrix(1 0 0 1 -442.3281 58)" class="st1 st2 st3">n</text>
	<text transform="matrix(1 0 0 1 -435.8232 58)" class="st1 st2 st3">y</text>
	<text transform="matrix(1 0 0 1 -430.1709 58)" class="st1 st2 st3">t</text>
	<text transform="matrix(1 0 0 1 -426.1992 58)" class="st1 st2 st3">_</text>
	<text transform="matrix(1 0 0 1 -420.1992 58)" class="st1 st2 st3">t</text>
	<text transform="matrix(1 0 0 1 -416.2275 58)" class="st1 st2 st3">r</text>
	<text transform="matrix(1 0 0 1 -412.3633 58)" class="st1 st2 st3">a</text>
	<text transform="matrix(1 0 0 1 -406.5801 58)" class="st1 st2 st3">n</text>
	<text transform="matrix(1 0 0 1 -399.9199 58)" class="st1 st2 st3">s</text>
	<text transform="matrix(1 0 0 1 -395.168 58)" class="st1 st2 st3">p</text>
	<text transform="matrix(1 0 0 1 -388.3398 58)" class="st1 st2 st3">a</text>
	<text transform="matrix(1 0 0 1 -382.5547 58)" class="st1 st2 st3">r</text>
	<text transform="matrix(1 0 0 1 -378.751 58)" class="st1 st2 st3">e</text>
	<text transform="matrix(1 0 0 1 -372.7393 58)" class="st1 st2 st3">n</text>
	<text transform="matrix(1 0 0 1 -366.0791 58)" class="st1 st2 st3">c</text>
	<text transform="matrix(1 0 0 1 -360.4873 58)" class="st1 st2 st3">y</text>
	<text transform="matrix(1 0 0 1 -354.835 58)" class="st1 st2 st3">&gt;</text>
	<text transform="matrix(1 0 0 1 -581 72.4004)" class="st1 st2 st3"> </text>
	<text transform="matrix(1 0 0 1 -578.4561 72.4004)" class="st1 st2 st3"> </text>
	<text transform="matrix(1 0 0 1 -575.9121 72.4004)" class="st1 st2 st3">&lt;</text>
	<text transform="matrix(1 0 0 1 -568.7603 72.4004)" class="st1 st2 st3">n</text>
	<text transform="matrix(1 0 0 1 -562.2563 72.4004)" class="st1 st2 st3">y</text>
	<text transform="matrix(1 0 0 1 -556.6045 72.4004)" class="st1 st2 st3">t</text>
	<text transform="matrix(1 0 0 1 -552.6323 72.4004)" class="st1 st2 st3">_</text>
	<text transform="matrix(1 0 0 1 -546.6323 72.4004)" class="st1 st2 st3">f</text>
	<text transform="matrix(1 0 0 1 -543.2842 72.4004)" class="st1 st2 st3">o</text>
	<text transform="matrix(1 0 0 1 -536.6963 72.4004)" class="st1 st2 st3">r</text>
	<text transform="matrix(1 0 0 1 -532.7246 72.4004)" class="st1 st2 st3">m</text>
	<text transform="matrix(1 0 0 1 -522.7168 72.4004)" class="st1 st2 st3">a</text>
	<text transform="matrix(1 0 0 1 -516.9805 72.4004)" class="st1 st2 st3">t</text>
	<text transform="matrix(1 0 0 1 -513.0088 72.4004)" class="st1 st2 st3">&gt;</text>
	<text transform="matrix(1 0 0 1 -505.8564 72.4004)" class="st1 st2 st3">E</text>
	<text transform="matrix(1 0 0 1 -499.9521 72.4004)" class="st1 st2 st3">P</text>
	<text transform="matrix(1 0 0 1 -493.5684 72.4004)" class="st1 st2 st3">S</text>
	<text transform="matrix(1 0 0 1 -487.6523 72.4004)" class="st1 st2 st3">&lt;</text>
	<text transform="matrix(1 0 0 1 -480.5 72.4004)" class="st1 st2 st3">/</text>
	<text transform="matrix(1 0 0 1 -476.3838 72.4004)" class="st1 st2 st3">n</text>
	<text transform="matrix(1 0 0 1 -469.8799 72.4004)" class="st1 st2 st3">y</text>
	<text transform="matrix(1 0 0 1 -464.2275 72.4004)" class="st1 st2 st3">t</text>
	<text transform="matrix(1 0 0 1 -460.2559 72.4004)" class="st1 st2 st3">_</text>
	<text transform="matrix(1 0 0 1 -454.2559 72.4004)" class="st1 st2 st3">f</text>
	<text transform="matrix(1 0 0 1 -450.9072 72.4004)" class="st1 st2 st3">o</text>
	<text transform="matrix(1 0 0 1 -444.3193 72.4004)" class="st1 st2 st3">r</text>
	<text transform="matrix(1 0 0 1 -440.3477 72.4004)" class="st1 st2 st3">m</text>
	<text transform="matrix(1 0 0 1 -430.3398 72.4004)" class="st1 st2 st3">a</text>
	<text transform="matrix(1 0 0 1 -424.6035 72.4004)" class="st1 st2 st3">t</text>
	<text transform="matrix(1 0 0 1 -420.6318 72.4004)" class="st1 st2 st3">&gt;</text>
	<text transform="matrix(1 0 0 1 -581 86.7998)" class="st1 st2 st3"> </text>
	<text transform="matrix(1 0 0 1 -578.4561 86.7998)" class="st1 st2 st3"> </text>
	<text transform="matrix(1 0 0 1 -575.9121 86.7998)" class="st1 st2 st3">&lt;</text>
	<text transform="matrix(1 0 0 1 -568.7603 86.7998)" class="st1 st2 st3">n</text>
	<text transform="matrix(1 0 0 1 -562.2563 86.7998)" class="st1 st2 st3">y</text>
	<text transform="matrix(1 0 0 1 -556.6045 86.7998)" class="st1 st2 st3">t</text>
	<text transform="matrix(1 0 0 1 -552.6323 86.7998)" class="st1 st2 st3">_</text>
	<text transform="matrix(1 0 0 1 -546.6323 86.7998)" class="st1 st2 st3">e</text>
	<text transform="matrix(1 0 0 1 -540.6567 86.7998)" class="st1 st2 st3">x</text>
	<text transform="matrix(1 0 0 1 -535.1006 86.7998)" class="st1 st2 st3">p</text>
	<text transform="matrix(1 0 0 1 -528.2725 86.7998)" class="st1 st2 st3">o</text>
	<text transform="matrix(1 0 0 1 -521.6846 86.7998)" class="st1 st2 st3">r</text>
	<text transform="matrix(1 0 0 1 -517.4736 86.7998)" class="st1 st2 st3">t</text>
	<text transform="matrix(1 0 0 1 -513.502 86.7998)" class="st1 st2 st3">_</text>
	<text transform="matrix(1 0 0 1 -507.502 86.7998)" class="st1 st2 st3">c</text>
	<text transform="matrix(1 0 0 1 -502.1973 86.7998)" class="st1 st2 st3">o</text>
	<text transform="matrix(1 0 0 1 -495.6094 86.7998)" class="st1 st2 st3">d</text>
	<text transform="matrix(1 0 0 1 -488.8418 86.7998)" class="st1 st2 st3">e</text>
	<text transform="matrix(1 0 0 1 -482.8301 86.7998)" class="st1 st2 st3">&gt;</text>
	<text transform="matrix(1 0 0 1 -475.6777 86.7998)" class="st1 st2 st3">a</text>
	<text transform="matrix(1 0 0 1 -469.8936 86.7998)" class="st1 st2 st3">r</text>
	<text transform="matrix(1 0 0 1 -465.6816 86.7998)" class="st1 st2 st3">t</text>
	<text transform="matrix(1 0 0 1 -461.7109 86.7998)" class="st1 st2 st3">b</text>
	<text transform="matrix(1 0 0 1 -454.8828 86.7998)" class="st1 st2 st3">o</text>
	<text transform="matrix(1 0 0 1 -448.2949 86.7998)" class="st1 st2 st3">a</text>
	<text transform="matrix(1 0 0 1 -442.5098 86.7998)" class="st1 st2 st3">r</text>
	<text transform="matrix(1 0 0 1 -438.7061 86.7998)" class="st1 st2 st3">d</text>
	<text transform="matrix(1 0 0 1 -431.9385 86.7998)" class="st1 st2 st3">s</text>
	<text transform="matrix(1 0 0 1 -427.1865 86.7998)" class="st1 st2 st3">&lt;</text>
	<text transform="matrix(1 0 0 1 -420.0342 86.7998)" class="st1 st2 st3">/</text>
	<text transform="matrix(1 0 0 1 -415.918 86.7998)" class="st1 st2 st3">n</text>
	<text transform="matrix(1 0 0 1 -409.4141 86.7998)" class="st1 st2 st3">y</text>
	<text transform="matrix(1 0 0 1 -403.7617 86.7998)" class="st1 st2 st3">t</text>
	<text transform="matrix(1 0 0 1 -399.79 86.7998)" class="st1 st2 st3">_</text>
	<text transform="matrix(1 0 0 1 -393.79 86.7998)" class="st1 st2 st3">e</text>
	<text transform="matrix(1 0 0 1 -387.8145 86.7998)" class="st1 st2 st3">x</text>
	<text transform="matrix(1 0 0 1 -382.2588 86.7998)" class="st1 st2 st3">p</text>
	<text transform="matrix(1 0 0 1 -375.4307 86.7998)" class="st1 st2 st3">o</text>
	<text transform="matrix(1 0 0 1 -368.8428 86.7998)" class="st1 st2 st3">r</text>
	<text transform="matrix(1 0 0 1 -364.6309 86.7998)" class="st1 st2 st3">t</text>
	<text transform="matrix(1 0 0 1 -360.6592 86.7998)" class="st1 st2 st3">_</text>
	<text transform="matrix(1 0 0 1 -354.6592 86.7998)" class="st1 st2 st3">c</text>
	<text transform="matrix(1 0 0 1 -349.3555 86.7998)" class="st1 st2 st3">o</text>
	<text transform="matrix(1 0 0 1 -342.7676 86.7998)" class="st1 st2 st3">d</text>
	<text transform="matrix(1 0 0 1 -336 86.7998)" class="st1 st2 st3">e</text>
	<text transform="matrix(1 0 0 1 -329.9883 86.7998)" class="st1 st2 st3">&gt;</text>
	<text transform="matrix(1 0 0 1 -581 101.2002)" class="st1 st2 st3">&lt;</text>
	<text transform="matrix(1 0 0 1 -573.8481 101.2002)" class="st1 st2 st3">/</text>
	<text transform="matrix(1 0 0 1 -569.7324 101.2002)" class="st1 st2 st3">n</text>
	<text transform="matrix(1 0 0 1 -563.228 101.2002)" class="st1 st2 st3">y</text>
	<text transform="matrix(1 0 0 1 -557.5762 101.2002)" class="st1 st2 st3">t</text>
	<text transform="matrix(1 0 0 1 -553.604 101.2002)" class="st1 st2 st3">_</text>
	<text transform="matrix(1 0 0 1 -547.604 101.2002)" class="st1 st2 st3">p</text>
	<text transform="matrix(1 0 0 1 -540.7764 101.2002)" class="st1 st2 st3">r</text>
	<text transform="matrix(1 0 0 1 -536.9727 101.2002)" class="st1 st2 st3">e</text>
	<text transform="matrix(1 0 0 1 -530.9609 101.2002)" class="st1 st2 st3">f</text>
	<text transform="matrix(1 0 0 1 -527.5654 101.2002)" class="st1 st2 st3">s</text>
	<text transform="matrix(1 0 0 1 -522.8135 101.2002)" class="st1 st2 st3">&gt;</text>
</g>
<g id="CloudTrail">
</g>
<g>
	<polygon class="st4" points="39.1,64.4 29.6,59.7 29.6,11.5 39.1,6.8 	"/>
	<polygon class="st5" points="70.5,15.2 39.1,6.8 39.1,64.2 70.5,55.7 	"/>
	<polygon class="st4" points="80.7,48.8 88.2,49.8 88.2,64.5 80.7,62.5 	"/>
	<polygon class="st4" points="80.7,22.5 88.2,21.5 88.2,6.8 80.7,8.8 	"/>
	<polygon class="st6" points="56.8,17.2 63.7,15.5 81.8,19.9 75.1,21 	"/>
	<polygon class="st5" points="81.8,19.9 63.7,15.5 63.7,-5.5 81.8,3.6 	"/>
	<polygon class="st5" points="97.8,11.6 88.2,6.8 88.2,21.5 97.8,23.8 	"/>
	<polygon class="st7" points="56.8,54.1 63.7,55.8 81.8,51.4 75.1,50.3 	"/>
	<polygon class="st5" points="81.8,51.4 63.7,55.8 63.7,76.8 81.8,67.7 	"/>
	<polygon class="st5" points="97.8,59.8 88.2,64.5 88.2,49.8 97.8,47.5 	"/>
	<polygon class="st4" points="45.5,67.8 63.7,76.8 63.7,-5.5 45.5,3.6 	"/>
	<polygon class="st5" points="73.9,71.7 63.7,76.8 63.7,-5.2 73.9,-0.1 	"/>
	<polygon class="st5" points="92.3,62.5 97.8,59.8 97.8,11.6 92.3,8.8 	"/>
	<polygon class="st6" points="92.3,22.5 85,23.4 80.7,22.5 88.2,21.5 	"/>
	<polygon class="st7" points="92.3,48.8 85,48 80.7,48.8 88.2,49.8 	"/>
	<polygon class="st4" points="85,48 92.3,48.8 92.3,22.5 85,23.4 	"/>
</g>
</svg>
