<?xml version="1.0" encoding="utf-8"?>
<!-- Generator: Adobe Illustrator 19.1.0, SVG Export Plug-In . SVG Version: 6.00 Build 0)  -->
<svg version="1.1" id="Layer_1" xmlns="http://www.w3.org/2000/svg" xmlns:xlink="http://www.w3.org/1999/xlink" x="0px" y="0px"
	 viewBox="250 1467 100 100" style="enable-background:new 250 1467 100 100;" xml:space="preserve">
<style type="text/css">
	.st0{fill:#19486F;}
	.st1{fill:#1F5B98;}
	.st2{fill:#99BBE1;}
	.st3{fill:#5193CE;}
	.st4{fill:#17476F;}
	.st5{fill:#FFFFFF;}
	.st6{fill:none;stroke:#5193CE;stroke-width:3;stroke-linecap:round;stroke-linejoin:round;stroke-miterlimit:10;}
	.st7{fill:none;stroke:#FFFFFF;stroke-width:3;stroke-linecap:round;stroke-linejoin:round;stroke-miterlimit:10;}
	.st8{fill:none;stroke:#FFFFFF;stroke-width:3;stroke-miterlimit:10;}
	.st9{fill:#5193CE;stroke:#FFFFFF;stroke-width:3;stroke-miterlimit:10;}
	.st10{fill:none;stroke:#FFFFFF;stroke-width:3;stroke-linecap:round;stroke-miterlimit:10;}
	.st11{fill:#5193CE;stroke:#FFFFFF;stroke-width:3;stroke-linecap:round;stroke-linejoin:round;stroke-miterlimit:10;}
	.st12{fill:#FFFFFF;stroke:#5193CE;stroke-width:2;stroke-miterlimit:10;}
	.st13{fill:none;stroke:#5193CE;stroke-linecap:round;stroke-linejoin:round;stroke-miterlimit:10;}
	.st14{fill:none;stroke:#5193CE;stroke-width:3;stroke-linecap:round;stroke-miterlimit:10;}
	.st15{fill:none;stroke:#5193CE;stroke-linecap:round;stroke-miterlimit:10;}
	.st16{fill:none;stroke:#5193CE;stroke-width:3;stroke-miterlimit:10;}
	.st17{fill:none;}
	.st18{fill:none;stroke:#5193CE;stroke-width:4;stroke-linecap:round;stroke-linejoin:round;stroke-miterlimit:10;}
</style>
<path class="st4" d="M273.4,1539.2h53.1v3c0,2.6-2.1,4.7-4.8,4.7h-43.6c-0.3,0-0.6,0-0.9-0.1c-0.1,0-0.1,0-0.2,0
	c-0.2-0.1-0.5-0.1-0.7-0.2c0,0-0.1,0-0.1,0c-0.3-0.1-0.5-0.2-0.7-0.4c-0.1,0-0.1-0.1-0.2-0.1c-0.2-0.1-0.4-0.3-0.5-0.4
	c0,0-0.1-0.1-0.1-0.1c-0.2-0.2-0.4-0.4-0.5-0.6c0-0.1-0.1-0.1-0.1-0.2c-0.1-0.1-0.1-0.2-0.2-0.3c0-0.1-0.1-0.1-0.1-0.2
	c-0.1-0.1-0.1-0.3-0.2-0.4c0-0.1-0.1-0.1-0.1-0.2c0-0.1,0-0.2-0.1-0.3c0-0.1-0.1-0.2-0.1-0.3c0-0.1,0-0.1,0-0.2v0c0-0.2,0-0.4,0-0.7
	V1539.2z"/>
<path class="st3" d="M278.2,1490.1c-2.6,0-4.8,2.1-4.8,4.7v44.3c0,2.6,2.1,4.7,4.8,4.7h43.6c2.6,0,4.8-2.1,4.8-4.7v-44.3
	c0-2.6-2.1-4.7-4.8-4.7H278.2z"/>
<path class="st5" d="M314.6,1521.4c0-0.3,0-0.5-0.1-0.8c0-0.2-0.1-0.3-0.1-0.5c0-0.2-0.1-0.5-0.1-0.7c0-0.2-0.1-0.3-0.1-0.5
	c-0.1-0.2-0.1-0.5-0.2-0.7c0-0.2-0.1-0.4-0.2-0.5c-0.1-0.2-0.1-0.5-0.2-0.7c-0.1-0.2-0.1-0.4-0.2-0.5c-0.1-0.2-0.2-0.5-0.2-0.7
	c-0.1-0.2-0.1-0.4-0.2-0.5c-0.1-0.2-0.2-0.4-0.3-0.7c-0.1-0.2-0.2-0.4-0.3-0.6c-0.1-0.2-0.2-0.4-0.3-0.6c-0.7-1.3-0.7-2.9,0-4.2
	l2.5-4.9l-1.4-1.4l0,0c-1.3,0.8-2.6,1.2-4,1.4c-4,0.4-8.2-1.3-9.3-2.9l0,0l0,0c-1.1,1.6-5.3,3.3-9.3,2.9c-1.3-0.2-2.7-0.6-4-1.4l0,0
	l-1.4,1.4l2.5,4.9c0.7,1.3,0.6,2.9,0,4.2c-0.1,0.2-0.2,0.4-0.3,0.6c-0.1,0.2-0.2,0.4-0.3,0.6c-0.1,0.2-0.2,0.4-0.3,0.7
	c-0.1,0.2-0.2,0.4-0.2,0.5c-0.1,0.2-0.2,0.5-0.2,0.7c-0.1,0.2-0.1,0.4-0.2,0.5c-0.1,0.2-0.1,0.5-0.2,0.7c-0.1,0.2-0.1,0.4-0.2,0.5
	c-0.1,0.2-0.1,0.5-0.2,0.7c0,0.2-0.1,0.3-0.1,0.5c0,0.2-0.1,0.5-0.1,0.7c0,0.2-0.1,0.3-0.1,0.5c0,0.3-0.1,0.5-0.1,0.8
	c0,0.1,0,0.3,0,0.4c0,0.4,0,0.8,0,1.2c0,7.1,5,9.5,11.6,10.1c1,0.1,3,1.3,3,2.2c0-1,2.1-2.2,3-2.2c6.6-0.5,11.6-3,11.6-10.1
	c0-0.4,0-0.8,0-1.2C314.6,1521.7,314.6,1521.5,314.6,1521.4z"/>
<rect x="310" y="1481.4" class="st3" width="4" height="8.7"/>
<rect x="286" y="1481.4" class="st3" width="4" height="8.7"/>
<rect x="304" y="1481.4" class="st3" width="4" height="8.7"/>
<rect x="292" y="1481.4" class="st3" width="4" height="8.7"/>
<rect x="298" y="1481.4" class="st3" width="4" height="8.7"/>
<rect x="264.4" y="1527" class="st3" width="9" height="4"/>
<rect x="264.4" y="1509" class="st3" width="9" height="4"/>
<rect x="264.4" y="1521" class="st3" width="9" height="4"/>
<rect x="264.4" y="1515" class="st3" width="9" height="4"/>
<rect x="264.4" y="1503" class="st3" width="9" height="4"/>
<rect x="286" y="1543.9" class="st3" width="4" height="8.7"/>
<rect x="310" y="1543.9" class="st3" width="4" height="8.7"/>
<rect x="292" y="1543.9" class="st3" width="4" height="8.7"/>
<rect x="304" y="1543.9" class="st3" width="4" height="8.7"/>
<rect x="298" y="1543.9" class="st3" width="4" height="8.7"/>
<rect x="326.6" y="1521" class="st3" width="9" height="4"/>
<rect x="326.6" y="1503" class="st3" width="9" height="4"/>
<rect x="326.6" y="1515" class="st3" width="9" height="4"/>
<rect x="326.6" y="1509" class="st3" width="9" height="4"/>
<rect x="326.6" y="1527" class="st3" width="9" height="4"/>
</svg>
