<?xml version="1.0" encoding="utf-8"?>
<!-- Generator: Adobe Illustrator 19.1.0, SVG Export Plug-In . SVG Version: 6.00 Build 0)  -->
<svg version="1.1" id="Layer_1" xmlns="http://www.w3.org/2000/svg" xmlns:xlink="http://www.w3.org/1999/xlink" x="0px" y="0px"
	 viewBox="499 593.5 100 100" style="enable-background:new 499 593.5 100 100;" xml:space="preserve">
<style type="text/css">
	.st0{fill:#19486F;}
	.st1{fill:#1F5B98;}
	.st2{fill:#99BBE1;}
	.st3{fill:#5193CE;}
	.st4{fill:#17476F;}
	.st5{fill:#FFFFFF;}
	.st6{fill:none;stroke:#5193CE;stroke-width:3;stroke-linecap:round;stroke-linejoin:round;stroke-miterlimit:10;}
	.st7{fill:none;stroke:#FFFFFF;stroke-width:3;stroke-linecap:round;stroke-linejoin:round;stroke-miterlimit:10;}
	.st8{fill:none;stroke:#FFFFFF;stroke-width:3;stroke-miterlimit:10;}
	.st9{fill:#5193CE;stroke:#FFFFFF;stroke-width:3;stroke-miterlimit:10;}
	.st10{fill:none;stroke:#FFFFFF;stroke-width:3;stroke-linecap:round;stroke-miterlimit:10;}
	.st11{fill:#5193CE;stroke:#FFFFFF;stroke-width:3;stroke-linecap:round;stroke-linejoin:round;stroke-miterlimit:10;}
	.st12{fill:#FFFFFF;stroke:#5193CE;stroke-width:2;stroke-miterlimit:10;}
	.st13{fill:none;stroke:#5193CE;stroke-linecap:round;stroke-linejoin:round;stroke-miterlimit:10;}
	.st14{fill:none;stroke:#5193CE;stroke-width:3;stroke-linecap:round;stroke-miterlimit:10;}
	.st15{fill:none;stroke:#5193CE;stroke-linecap:round;stroke-miterlimit:10;}
	.st16{fill:none;stroke:#5193CE;stroke-width:3;stroke-miterlimit:10;}
	.st17{fill:none;}
	.st18{fill:none;stroke:#5193CE;stroke-width:4;stroke-linecap:round;stroke-linejoin:round;stroke-miterlimit:10;}
</style>
<path class="st4" d="M559.8,617.2l-3.3,2.3l-1.7-3.7c-2.5-5.6-8.2-9.3-14.4-9.3c-4.2,0-8.2,1.6-11.1,4.6c-3,3-4.6,7-4.6,11.2
	l0.1,2.9l-2.5,0.7c-4,1.2-7.3,6.3-7.3,9.8v1.3c0,4.2,5.1,9.2,11.8,9.2h44.6c6.6,0,11.8-4.9,11.8-9.2v-1.3c0-4.3-4.8-9.9-10.3-10.4
	l-3-0.2l-0.1-3c-0.1-3.4-2.9-6.1-6.3-6.1C562.1,616.1,560.8,616.4,559.8,617.2z"/>
<path class="st3" d="M559.8,614.2l-3.3,2.3l-1.7-3.7c-2.5-5.6-8.2-9.3-14.4-9.3c-4.2,0-8.2,1.6-11.1,4.6c-3,3-4.6,7-4.6,11.2
	l0.1,2.9l-2.5,0.7c-4,1.2-7.3,6.3-7.3,9.8v1.3c0,4.2,5.1,9.2,11.8,9.2h44.6c6.6,0,11.8-4.9,11.8-9.2v-1.3c0-4.3-4.8-9.9-10.3-10.4
	l-3-0.2l-0.1-3c-0.1-3.4-2.9-6.1-6.3-6.1C562.1,613.1,560.8,613.5,559.8,614.2z"/>
<rect x="519.1" y="661.2" class="st4" width="58" height="22.2"/>
<rect x="519.1" y="658.2" class="st3" width="58" height="22.2"/>
<line class="st8" x1="548.1" y1="631.3" x2="548.1" y2="643.3"/>
<line class="st16" x1="548.1" y1="652.5" x2="548.1" y2="643.3"/>
<polygon class="st3" points="548.1,658.2 552.6,651.6 543.6,651.6 "/>
<path class="st5" d="M530.9,673.8L530.9,673.8c-2.7,0-4.8-2.2-4.8-4.8l0,0c0-2.7,2.2-4.8,4.8-4.8l0,0c2.7,0,4.8,2.2,4.8,4.8l0,0
	C535.7,671.7,533.6,673.8,530.9,673.8z"/>
<polygon class="st5" points="554.2,673.8 541.7,673.8 548,664.2 "/>
<rect x="560.2" y="664.2" class="st5" width="9.7" height="9.7"/>
<circle class="st5" cx="548" cy="631.3" r="3.8"/>
</svg>
