<?xml version="1.0" encoding="utf-8"?>
<!-- Generator: Adobe Illustrator 19.1.0, SVG Export Plug-In . SVG Version: 6.00 Build 0)  -->
<svg version="1.1" id="Layer_1" xmlns="http://www.w3.org/2000/svg" xmlns:xlink="http://www.w3.org/1999/xlink" x="0px" y="0px"
	 viewBox="250 174.4 100 100" style="enable-background:new 250 174.4 100 100;" xml:space="preserve">
<style type="text/css">
	.st0{fill:#19486F;}
	.st1{fill:#1F5B98;}
	.st2{fill:#99BBE1;}
	.st3{fill:#5193CE;}
	.st4{fill:#17476F;}
	.st5{fill:#FFFFFF;}
	.st6{fill:none;stroke:#5193CE;stroke-width:3;stroke-linecap:round;stroke-linejoin:round;stroke-miterlimit:10;}
	.st7{fill:none;stroke:#FFFFFF;stroke-width:3;stroke-linecap:round;stroke-linejoin:round;stroke-miterlimit:10;}
	.st8{fill:none;stroke:#FFFFFF;stroke-width:3;stroke-miterlimit:10;}
	.st9{fill:#5193CE;stroke:#FFFFFF;stroke-width:3;stroke-miterlimit:10;}
	.st10{fill:none;stroke:#FFFFFF;stroke-width:3;stroke-linecap:round;stroke-miterlimit:10;}
	.st11{fill:#5193CE;stroke:#FFFFFF;stroke-width:3;stroke-linecap:round;stroke-linejoin:round;stroke-miterlimit:10;}
	.st12{fill:#FFFFFF;stroke:#5193CE;stroke-width:2;stroke-miterlimit:10;}
	.st13{fill:none;stroke:#5193CE;stroke-linecap:round;stroke-linejoin:round;stroke-miterlimit:10;}
	.st14{fill:none;stroke:#5193CE;stroke-width:3;stroke-linecap:round;stroke-miterlimit:10;}
	.st15{fill:none;stroke:#5193CE;stroke-linecap:round;stroke-miterlimit:10;}
	.st16{fill:none;stroke:#5193CE;stroke-width:3;stroke-miterlimit:10;}
	.st17{fill:none;}
	.st18{fill:none;stroke:#5193CE;stroke-width:4;stroke-linecap:round;stroke-linejoin:round;stroke-miterlimit:10;}
</style>
<path class="st4" d="M273.4,246.6h53.1v3c0,2.6-2.1,4.7-4.8,4.7h-43.6c-0.3,0-0.6,0-0.9-0.1c-0.1,0-0.1,0-0.2,0
	c-0.2-0.1-0.5-0.1-0.7-0.2c0,0-0.1,0-0.1,0c-0.3-0.1-0.5-0.2-0.7-0.4c-0.1,0-0.1-0.1-0.2-0.1c-0.2-0.1-0.4-0.3-0.5-0.4
	c0,0-0.1-0.1-0.1-0.1c-0.2-0.2-0.4-0.4-0.5-0.6c0-0.1-0.1-0.1-0.1-0.2c-0.1-0.1-0.1-0.2-0.2-0.3c0-0.1-0.1-0.1-0.1-0.2
	c-0.1-0.1-0.1-0.3-0.2-0.4c0-0.1-0.1-0.1-0.1-0.2c0-0.1,0-0.2-0.1-0.3c0-0.1-0.1-0.2-0.1-0.3c0-0.1,0-0.1,0-0.2v0c0-0.2,0-0.4,0-0.7
	V246.6z"/>
<path class="st3" d="M278.2,197.6c-2.6,0-4.8,2.1-4.8,4.7v44.3c0,2.6,2.1,4.7,4.8,4.7h43.6c2.6,0,4.8-2.1,4.8-4.7v-44.3
	c0-2.6-2.1-4.7-4.8-4.7H278.2z"/>
<rect x="310" y="188.8" class="st3" width="4" height="8.7"/>
<rect x="286" y="188.8" class="st3" width="4" height="8.7"/>
<rect x="304" y="188.8" class="st3" width="4" height="8.7"/>
<rect x="292" y="188.8" class="st3" width="4" height="8.7"/>
<rect x="298" y="188.8" class="st3" width="4" height="8.7"/>
<rect x="264.4" y="234.4" class="st3" width="9" height="4"/>
<rect x="264.4" y="216.4" class="st3" width="9" height="4"/>
<rect x="264.4" y="228.4" class="st3" width="9" height="4"/>
<rect x="264.4" y="222.4" class="st3" width="9" height="4"/>
<rect x="264.4" y="210.4" class="st3" width="9" height="4"/>
<rect x="286" y="251.4" class="st3" width="4" height="8.7"/>
<rect x="310" y="251.4" class="st3" width="4" height="8.7"/>
<rect x="292" y="251.4" class="st3" width="4" height="8.7"/>
<rect x="304" y="251.4" class="st3" width="4" height="8.7"/>
<rect x="298" y="251.4" class="st3" width="4" height="8.7"/>
<rect x="326.6" y="228.4" class="st3" width="9" height="4"/>
<rect x="326.6" y="210.4" class="st3" width="9" height="4"/>
<rect x="326.6" y="222.4" class="st3" width="9" height="4"/>
<rect x="326.6" y="216.4" class="st3" width="9" height="4"/>
<rect x="326.6" y="234.4" class="st3" width="9" height="4"/>
<path class="st5" d="M309.4,236.2h-18.7c-1.3,0-2.3-1-2.3-2.3v-18.7c0-1.3,1-2.3,2.3-2.3h18.7c1.3,0,2.3,1,2.3,2.3v18.7
	C311.7,235.1,310.7,236.2,309.4,236.2z"/>
<line class="st6" x1="294.3" y1="219" x2="314.8" y2="219"/>
<line class="st6" x1="285.2" y1="229.9" x2="305.7" y2="229.9"/>
<circle class="st3" cx="294.3" cy="219" r="4"/>
<circle class="st3" cx="305.7" cy="229.9" r="4"/>
</svg>
