<?xml version="1.0" encoding="utf-8"?>
<!-- Generator: Adobe Illustrator 19.1.0, SVG Export Plug-In . SVG Version: 6.00 Build 0)  -->
<svg version="1.1" id="Layer_1" xmlns="http://www.w3.org/2000/svg" xmlns:xlink="http://www.w3.org/1999/xlink" x="0px" y="0px"
	 viewBox="250 306.5 100 100" style="enable-background:new 250 306.5 100 100;" xml:space="preserve">
<style type="text/css">
	.st0{fill:#19486F;}
	.st1{fill:#1F5B98;}
	.st2{fill:#99BBE1;}
	.st3{fill:#5193CE;}
	.st4{fill:#17476F;}
	.st5{fill:#FFFFFF;}
	.st6{fill:none;stroke:#5193CE;stroke-width:3;stroke-linecap:round;stroke-linejoin:round;stroke-miterlimit:10;}
	.st7{fill:none;stroke:#FFFFFF;stroke-width:3;stroke-linecap:round;stroke-linejoin:round;stroke-miterlimit:10;}
	.st8{fill:none;stroke:#FFFFFF;stroke-width:3;stroke-miterlimit:10;}
	.st9{fill:#5193CE;stroke:#FFFFFF;stroke-width:3;stroke-miterlimit:10;}
	.st10{fill:none;stroke:#FFFFFF;stroke-width:3;stroke-linecap:round;stroke-miterlimit:10;}
	.st11{fill:#5193CE;stroke:#FFFFFF;stroke-width:3;stroke-linecap:round;stroke-linejoin:round;stroke-miterlimit:10;}
	.st12{fill:#FFFFFF;stroke:#5193CE;stroke-width:2;stroke-miterlimit:10;}
	.st13{fill:none;stroke:#5193CE;stroke-linecap:round;stroke-linejoin:round;stroke-miterlimit:10;}
	.st14{fill:none;stroke:#5193CE;stroke-width:3;stroke-linecap:round;stroke-miterlimit:10;}
	.st15{fill:none;stroke:#5193CE;stroke-linecap:round;stroke-miterlimit:10;}
	.st16{fill:none;stroke:#5193CE;stroke-width:3;stroke-miterlimit:10;}
	.st17{fill:none;}
	.st18{fill:none;stroke:#5193CE;stroke-width:4;stroke-linecap:round;stroke-linejoin:round;stroke-miterlimit:10;}
</style>
<path class="st4" d="M273.4,378.6h53.1v3c0,2.6-2.1,4.7-4.8,4.7h-43.6c-0.3,0-0.6,0-0.9-0.1c-0.1,0-0.1,0-0.2,0
	c-0.2-0.1-0.5-0.1-0.7-0.2c0,0-0.1,0-0.1,0c-0.3-0.1-0.5-0.2-0.7-0.4c-0.1,0-0.1-0.1-0.2-0.1c-0.2-0.1-0.4-0.3-0.5-0.4
	c0,0-0.1-0.1-0.1-0.1c-0.2-0.2-0.4-0.4-0.5-0.6c0-0.1-0.1-0.1-0.1-0.2c-0.1-0.1-0.1-0.2-0.2-0.3c0-0.1-0.1-0.1-0.1-0.2
	c-0.1-0.1-0.1-0.3-0.2-0.4c0-0.1-0.1-0.1-0.1-0.2c0-0.1,0-0.2-0.1-0.3c0-0.1-0.1-0.2-0.1-0.3c0-0.1,0-0.1,0-0.2v0c0-0.2,0-0.4,0-0.7
	V378.6z"/>
<path class="st3" d="M278.2,329.6c-2.6,0-4.8,2.1-4.8,4.7v44.3c0,2.6,2.1,4.7,4.8,4.7h43.6c2.6,0,4.8-2.1,4.8-4.7v-44.3
	c0-2.6-2.1-4.7-4.8-4.7H278.2z"/>
<path class="st5" d="M301,377.1h-2c-1.8,0-3.3-1.5-3.3-3.3v-5.3h8.7v5.3C304.3,375.6,302.8,377.1,301,377.1z"/>
<line class="st7" x1="295.7" y1="366.6" x2="304.3" y2="366.6"/>
<line class="st7" x1="308.9" y1="350.1" x2="294.9" y2="358.4"/>
<line class="st7" x1="305.1" y1="340" x2="291.1" y2="348.3"/>
<line class="st7" x1="308.9" y1="343.9" x2="291.1" y2="354.5"/>
<polyline class="st7" points="308.9,356.3 300,361.6 300,366.6 "/>
<line class="st7" x1="298.5" y1="337.7" x2="291.1" y2="342.1"/>
<rect x="310" y="320.8" class="st3" width="4" height="8.7"/>
<rect x="286" y="320.8" class="st3" width="4" height="8.7"/>
<rect x="304" y="320.8" class="st3" width="4" height="8.7"/>
<rect x="292" y="320.8" class="st3" width="4" height="8.7"/>
<rect x="298" y="320.8" class="st3" width="4" height="8.7"/>
<rect x="264.4" y="366.5" class="st3" width="9" height="4"/>
<rect x="264.4" y="348.5" class="st3" width="9" height="4"/>
<rect x="264.4" y="360.5" class="st3" width="9" height="4"/>
<rect x="264.4" y="354.5" class="st3" width="9" height="4"/>
<rect x="264.4" y="342.5" class="st3" width="9" height="4"/>
<rect x="286" y="383.4" class="st3" width="4" height="8.7"/>
<rect x="310" y="383.4" class="st3" width="4" height="8.7"/>
<rect x="292" y="383.4" class="st3" width="4" height="8.7"/>
<rect x="304" y="383.4" class="st3" width="4" height="8.7"/>
<rect x="298" y="383.4" class="st3" width="4" height="8.7"/>
<rect x="326.6" y="360.5" class="st3" width="9" height="4"/>
<rect x="326.6" y="342.5" class="st3" width="9" height="4"/>
<rect x="326.6" y="354.5" class="st3" width="9" height="4"/>
<rect x="326.6" y="348.5" class="st3" width="9" height="4"/>
<rect x="326.6" y="366.5" class="st3" width="9" height="4"/>
</svg>
