<?xml version="1.0" encoding="utf-8"?>
<!-- Generator: Adobe Illustrator 19.1.0, SVG Export Plug-In . SVG Version: 6.00 Build 0)  -->
<svg version="1.1" id="Layer_1" xmlns="http://www.w3.org/2000/svg" xmlns:xlink="http://www.w3.org/1999/xlink" x="0px" y="0px"
	 viewBox="250 448 100 100" style="enable-background:new 250 448 100 100;" xml:space="preserve">
<style type="text/css">
	.st0{fill:#19486F;}
	.st1{fill:#1F5B98;}
	.st2{fill:#99BBE1;}
	.st3{fill:#5193CE;}
	.st4{fill:#17476F;}
	.st5{fill:#FFFFFF;}
	.st6{fill:none;stroke:#5193CE;stroke-width:3;stroke-linecap:round;stroke-linejoin:round;stroke-miterlimit:10;}
	.st7{fill:none;stroke:#FFFFFF;stroke-width:3;stroke-linecap:round;stroke-linejoin:round;stroke-miterlimit:10;}
	.st8{fill:none;stroke:#FFFFFF;stroke-width:3;stroke-miterlimit:10;}
	.st9{fill:#5193CE;stroke:#FFFFFF;stroke-width:3;stroke-miterlimit:10;}
	.st10{fill:none;stroke:#FFFFFF;stroke-width:3;stroke-linecap:round;stroke-miterlimit:10;}
	.st11{fill:#5193CE;stroke:#FFFFFF;stroke-width:3;stroke-linecap:round;stroke-linejoin:round;stroke-miterlimit:10;}
	.st12{fill:#FFFFFF;stroke:#5193CE;stroke-width:2;stroke-miterlimit:10;}
	.st13{fill:none;stroke:#5193CE;stroke-linecap:round;stroke-linejoin:round;stroke-miterlimit:10;}
	.st14{fill:none;stroke:#5193CE;stroke-width:3;stroke-linecap:round;stroke-miterlimit:10;}
	.st15{fill:none;stroke:#5193CE;stroke-linecap:round;stroke-miterlimit:10;}
	.st16{fill:none;stroke:#5193CE;stroke-width:3;stroke-miterlimit:10;}
	.st17{fill:none;}
	.st18{fill:none;stroke:#5193CE;stroke-width:4;stroke-linecap:round;stroke-linejoin:round;stroke-miterlimit:10;}
</style>
<path class="st4" d="M326.6,520.2h-53.1v3c0,2.6,2.1,4.7,4.8,4.7h43.6c0.3,0,0.6,0,0.9-0.1c0.1,0,0.1,0,0.2,0
	c0.2-0.1,0.5-0.1,0.7-0.2c0,0,0.1,0,0.1,0c0.3-0.1,0.5-0.2,0.7-0.4c0.1,0,0.1-0.1,0.2-0.1c0.2-0.1,0.4-0.3,0.5-0.4
	c0,0,0.1-0.1,0.1-0.1c0.2-0.2,0.4-0.4,0.5-0.6c0-0.1,0.1-0.1,0.1-0.2c0.1-0.1,0.1-0.2,0.2-0.3c0-0.1,0.1-0.1,0.1-0.2
	c0.1-0.1,0.1-0.3,0.2-0.4c0-0.1,0.1-0.1,0.1-0.2c0-0.1,0-0.2,0.1-0.3c0-0.1,0.1-0.2,0.1-0.3c0-0.1,0-0.1,0-0.2v0c0-0.2,0-0.4,0-0.7
	V520.2z"/>
<path class="st3" d="M321.8,471.1c2.6,0,4.8,2.1,4.8,4.7v44.3c0,2.6-2.1,4.7-4.8,4.7h-43.6c-2.6,0-4.8-2.1-4.8-4.7v-44.3
	c0-2.6,2.1-4.7,4.8-4.7H321.8z"/>
<path class="st5" d="M315.8,493.7h-31.6c-0.6,0-1,0.5-1,1v18.5c0,0.6,0.5,1,1,1h31.6c0.6,0,1-0.5,1-1v-18.5
	C316.9,494.1,316.4,493.7,315.8,493.7z"/>
<path class="st3" d="M302.3,501.2h-4.4c-0.4,0-0.8,0.3-0.8,0.8v10.7c0,0.4,0.3,0.8,0.8,0.8h4.4c0.4,0,0.8-0.3,0.8-0.8V502
	C303,501.6,302.7,501.2,302.3,501.2z"/>
<path class="st3" d="M292.7,501.2h-3.3c-0.4,0-0.8,0.3-0.8,0.8v4c0,0.4,0.3,0.8,0.8,0.8h3.3c0.4,0,0.8-0.3,0.8-0.8v-4
	C293.4,501.6,293.1,501.2,292.7,501.2z"/>
<path class="st3" d="M310.7,501.2h-3.3c-0.4,0-0.8,0.3-0.8,0.8v4c0,0.4,0.3,0.8,0.8,0.8h3.3c0.4,0,0.8-0.3,0.8-0.8v-4
	C311.5,501.6,311.1,501.2,310.7,501.2z"/>
<path class="st5" d="M300,480.1l-22.7,13.1v2.1c0,0.6,0.4,1,1,1h43.4c0.6,0,1-0.4,1-1v-2.1L300,480.1z"/>
<rect x="310" y="462.4" class="st3" width="4" height="8.7"/>
<rect x="286" y="462.4" class="st3" width="4" height="8.7"/>
<rect x="304" y="462.4" class="st3" width="4" height="8.7"/>
<rect x="292" y="462.4" class="st3" width="4" height="8.7"/>
<rect x="298" y="462.4" class="st3" width="4" height="8.7"/>
<rect x="264.4" y="508" class="st3" width="9" height="4"/>
<rect x="264.4" y="490" class="st3" width="9" height="4"/>
<rect x="264.4" y="502" class="st3" width="9" height="4"/>
<rect x="264.4" y="496" class="st3" width="9" height="4"/>
<rect x="264.4" y="484" class="st3" width="9" height="4"/>
<rect x="286" y="524.9" class="st3" width="4" height="8.7"/>
<rect x="310" y="524.9" class="st3" width="4" height="8.7"/>
<rect x="292" y="524.9" class="st3" width="4" height="8.7"/>
<rect x="304" y="524.9" class="st3" width="4" height="8.7"/>
<rect x="298" y="524.9" class="st3" width="4" height="8.7"/>
<rect x="326.6" y="502" class="st3" width="9" height="4"/>
<rect x="326.6" y="484" class="st3" width="9" height="4"/>
<rect x="326.6" y="496" class="st3" width="9" height="4"/>
<rect x="326.6" y="490" class="st3" width="9" height="4"/>
<rect x="326.6" y="508" class="st3" width="9" height="4"/>
</svg>
