<?xml version="1.0" encoding="utf-8"?>
<!-- Generator: Adobe Illustrator 19.1.0, SVG Export Plug-In . SVG Version: 6.00 Build 0)  -->
<svg version="1.1" id="Layer_1" xmlns="http://www.w3.org/2000/svg" xmlns:xlink="http://www.w3.org/1999/xlink" x="0px" y="0px"
	 viewBox="250 593.5 100 100" style="enable-background:new 250 593.5 100 100;" xml:space="preserve">
<style type="text/css">
	.st0{fill:#19486F;}
	.st1{fill:#1F5B98;}
	.st2{fill:#99BBE1;}
	.st3{fill:#5193CE;}
	.st4{fill:#17476F;}
	.st5{fill:#FFFFFF;}
	.st6{fill:none;stroke:#5193CE;stroke-width:3;stroke-linecap:round;stroke-linejoin:round;stroke-miterlimit:10;}
	.st7{fill:none;stroke:#FFFFFF;stroke-width:3;stroke-linecap:round;stroke-linejoin:round;stroke-miterlimit:10;}
	.st8{fill:none;stroke:#FFFFFF;stroke-width:3;stroke-miterlimit:10;}
	.st9{fill:#5193CE;stroke:#FFFFFF;stroke-width:3;stroke-miterlimit:10;}
	.st10{fill:none;stroke:#FFFFFF;stroke-width:3;stroke-linecap:round;stroke-miterlimit:10;}
	.st11{fill:#5193CE;stroke:#FFFFFF;stroke-width:3;stroke-linecap:round;stroke-linejoin:round;stroke-miterlimit:10;}
	.st12{fill:#FFFFFF;stroke:#5193CE;stroke-width:2;stroke-miterlimit:10;}
	.st13{fill:none;stroke:#5193CE;stroke-linecap:round;stroke-linejoin:round;stroke-miterlimit:10;}
	.st14{fill:none;stroke:#5193CE;stroke-width:3;stroke-linecap:round;stroke-miterlimit:10;}
	.st15{fill:none;stroke:#5193CE;stroke-linecap:round;stroke-miterlimit:10;}
	.st16{fill:none;stroke:#5193CE;stroke-width:3;stroke-miterlimit:10;}
	.st17{fill:none;}
	.st18{fill:none;stroke:#5193CE;stroke-width:4;stroke-linecap:round;stroke-linejoin:round;stroke-miterlimit:10;}
</style>
<path class="st4" d="M326.6,665.6h-53.1v3c0,2.6,2.1,4.7,4.8,4.7h43.6c0.3,0,0.6,0,0.9-0.1c0.1,0,0.1,0,0.2,0
	c0.2-0.1,0.5-0.1,0.7-0.2c0,0,0.1,0,0.1,0c0.3-0.1,0.5-0.2,0.7-0.4c0.1,0,0.1-0.1,0.2-0.1c0.2-0.1,0.4-0.3,0.5-0.4
	c0,0,0.1-0.1,0.1-0.1c0.2-0.2,0.4-0.4,0.5-0.6c0-0.1,0.1-0.1,0.1-0.2c0.1-0.1,0.1-0.2,0.2-0.3c0-0.1,0.1-0.1,0.1-0.2
	c0.1-0.1,0.1-0.3,0.2-0.4c0-0.1,0.1-0.1,0.1-0.2c0-0.1,0-0.2,0.1-0.3c0-0.1,0.1-0.2,0.1-0.3c0-0.1,0-0.1,0-0.2v0c0-0.2,0-0.4,0-0.7
	V665.6z"/>
<path class="st3" d="M321.8,616.6c2.6,0,4.8,2.1,4.8,4.7v44.3c0,2.6-2.1,4.7-4.8,4.7h-43.6c-2.6,0-4.8-2.1-4.8-4.7v-44.3
	c0-2.6,2.1-4.7,4.8-4.7H321.8z"/>
<path class="st5" d="M313.2,637.4l-0.3-16.1c0-0.3-0.2-0.5-0.5-0.5h-3.8c-0.3,0-0.5,0.2-0.5,0.5l-0.2,14l-24.3-9.6
	c-0.7-0.3-1.4,0.2-1.4,0.9v38c0,0.6,0.4,1,1,1h33.7c0.6,0,1-0.4,1-1v-24.7c0-0.4-0.3-0.8-0.6-0.9L313.2,637.4z"/>
<path class="st3" d="M301.9,652h-3.7c-0.3,0-0.5,0.2-0.5,0.5v11.2c0,0.3,0.2,0.5,0.5,0.5h3.7c0.3,0,0.5-0.2,0.5-0.5v-11.2
	C302.4,652.2,302.2,652,301.9,652z"/>
<path class="st3" d="M292.4,652h-3.8c-0.3,0-0.5,0.2-0.5,0.5v4.5c0,0.3,0.2,0.5,0.5,0.5h3.8c0.3,0,0.5-0.2,0.5-0.5v-4.5
	C292.9,652.2,292.7,652,292.4,652z"/>
<path class="st3" d="M311.6,652h-3.8c-0.3,0-0.5,0.2-0.5,0.5v4.5c0,0.3,0.2,0.5,0.5,0.5h3.8c0.3,0,0.5-0.2,0.5-0.5v-4.5
	C312.1,652.2,311.8,652,311.6,652z"/>
<path class="st3" d="M292.4,642.5h-3.8c-0.3,0-0.5,0.2-0.5,0.5v4.5c0,0.3,0.2,0.5,0.5,0.5h3.8c0.3,0,0.5-0.2,0.5-0.5V643
	C292.9,642.8,292.7,642.5,292.4,642.5z"/>
<path class="st3" d="M301.9,642.5h-3.8c-0.3,0-0.5,0.2-0.5,0.5v4.5c0,0.3,0.2,0.5,0.5,0.5h3.8c0.3,0,0.5-0.2,0.5-0.5V643
	C302.4,642.8,302.2,642.5,301.9,642.5z"/>
<path class="st3" d="M311.6,642.5h-3.8c-0.3,0-0.5,0.2-0.5,0.5v4.5c0,0.3,0.2,0.5,0.5,0.5h3.8c0.3,0,0.5-0.2,0.5-0.5V643
	C312.1,642.8,311.8,642.5,311.6,642.5z"/>
<rect x="310" y="607.8" class="st3" width="4" height="8.7"/>
<rect x="286" y="607.8" class="st3" width="4" height="8.7"/>
<rect x="304" y="607.8" class="st3" width="4" height="8.7"/>
<rect x="292" y="607.8" class="st3" width="4" height="8.7"/>
<rect x="298" y="607.8" class="st3" width="4" height="8.7"/>
<rect x="264.4" y="653.5" class="st3" width="9" height="4"/>
<rect x="264.4" y="635.5" class="st3" width="9" height="4"/>
<rect x="264.4" y="647.5" class="st3" width="9" height="4"/>
<rect x="264.4" y="641.5" class="st3" width="9" height="4"/>
<rect x="264.4" y="629.5" class="st3" width="9" height="4"/>
<rect x="286" y="670.4" class="st3" width="4" height="8.7"/>
<rect x="310" y="670.4" class="st3" width="4" height="8.7"/>
<rect x="292" y="670.4" class="st3" width="4" height="8.7"/>
<rect x="304" y="670.4" class="st3" width="4" height="8.7"/>
<rect x="298" y="670.4" class="st3" width="4" height="8.7"/>
<rect x="326.6" y="647.5" class="st3" width="9" height="4"/>
<rect x="326.6" y="629.5" class="st3" width="9" height="4"/>
<rect x="326.6" y="641.5" class="st3" width="9" height="4"/>
<rect x="326.6" y="635.5" class="st3" width="9" height="4"/>
<rect x="326.6" y="653.5" class="st3" width="9" height="4"/>
</svg>
