<?xml version="1.0" encoding="utf-8"?>
<!-- Generator: Adobe Illustrator 19.1.0, SVG Export Plug-In . SVG Version: 6.00 Build 0)  -->
<svg version="1.1" id="Layer_1" xmlns="http://www.w3.org/2000/svg" xmlns:xlink="http://www.w3.org/1999/xlink" x="0px" y="0px"
	 viewBox="250 1751 100 100" style="enable-background:new 250 1751 100 100;" xml:space="preserve">
<style type="text/css">
	.st0{fill:#19486F;}
	.st1{fill:#1F5B98;}
	.st2{fill:#99BBE1;}
	.st3{fill:#5193CE;}
	.st4{fill:#17476F;}
	.st5{fill:#FFFFFF;}
	.st6{fill:none;stroke:#5193CE;stroke-width:3;stroke-linecap:round;stroke-linejoin:round;stroke-miterlimit:10;}
	.st7{fill:none;stroke:#FFFFFF;stroke-width:3;stroke-linecap:round;stroke-linejoin:round;stroke-miterlimit:10;}
	.st8{fill:none;stroke:#FFFFFF;stroke-width:3;stroke-miterlimit:10;}
	.st9{fill:#5193CE;stroke:#FFFFFF;stroke-width:3;stroke-miterlimit:10;}
	.st10{fill:none;stroke:#FFFFFF;stroke-width:3;stroke-linecap:round;stroke-miterlimit:10;}
	.st11{fill:#5193CE;stroke:#FFFFFF;stroke-width:3;stroke-linecap:round;stroke-linejoin:round;stroke-miterlimit:10;}
	.st12{fill:#FFFFFF;stroke:#5193CE;stroke-width:2;stroke-miterlimit:10;}
	.st13{fill:none;stroke:#5193CE;stroke-linecap:round;stroke-linejoin:round;stroke-miterlimit:10;}
	.st14{fill:none;stroke:#5193CE;stroke-width:3;stroke-linecap:round;stroke-miterlimit:10;}
	.st15{fill:none;stroke:#5193CE;stroke-linecap:round;stroke-miterlimit:10;}
	.st16{fill:none;stroke:#5193CE;stroke-width:3;stroke-miterlimit:10;}
	.st17{fill:none;}
	.st18{fill:none;stroke:#5193CE;stroke-width:4;stroke-linecap:round;stroke-linejoin:round;stroke-miterlimit:10;}
</style>
<path class="st4" d="M273.4,1823.2h53.1v3c0,2.6-2.1,4.7-4.8,4.7l-43.6,0c-0.3,0-0.6,0-0.9-0.1c-0.1,0-0.1,0-0.2,0
	c-0.2-0.1-0.5-0.1-0.7-0.2c0,0-0.1,0-0.1,0c-0.3-0.1-0.5-0.2-0.7-0.4c-0.1,0-0.1-0.1-0.2-0.1c-0.2-0.1-0.4-0.3-0.5-0.4
	c0,0-0.1-0.1-0.1-0.1c-0.2-0.2-0.4-0.4-0.5-0.6c0-0.1-0.1-0.1-0.1-0.2c-0.1-0.1-0.1-0.2-0.2-0.3c0-0.1-0.1-0.1-0.1-0.2
	c-0.1-0.1-0.1-0.3-0.2-0.4c0-0.1-0.1-0.1-0.1-0.2c0-0.1,0-0.2-0.1-0.3c0-0.1-0.1-0.2-0.1-0.3c0-0.1,0-0.1,0-0.2v0c0-0.2,0-0.4,0-0.7
	V1823.2z"/>
<path class="st3" d="M278.2,1774.1c-2.6,0-4.8,2.1-4.8,4.7v44.3c0,2.6,2.1,4.7,4.8,4.7h43.6c2.6,0,4.8-2.1,4.8-4.7v-44.3
	c0-2.6-2.1-4.7-4.8-4.7H278.2z"/>
<path class="st5" d="M308.5,1809.6l-23.7-2.1c-0.5,0-1-0.4-1.1-1l-2.2-12.3c-0.1-0.7,0.4-1.3,1.1-1.4l29.5-3.1
	c0.8-0.1,1.5,0.6,1.3,1.4l-3.6,17.5C309.6,1809.3,309.1,1809.7,308.5,1809.6z"/>
<circle class="st5" cx="286" cy="1820.1" r="3.1"/>
<circle class="st5" cx="312.2" cy="1820.1" r="3.1"/>
<line class="st13" x1="285.8" y1="1789.8" x2="285.8" y2="1811.9"/>
<line class="st13" x1="290.9" y1="1789.8" x2="290.9" y2="1811.9"/>
<line class="st13" x1="295.9" y1="1789.8" x2="295.9" y2="1811.9"/>
<line class="st13" x1="321.7" y1="1795.3" x2="278.6" y2="1795.3"/>
<line class="st13" x1="321.7" y1="1799.9" x2="278.6" y2="1799.9"/>
<line class="st13" x1="321.7" y1="1804.6" x2="278.6" y2="1804.6"/>
<line class="st13" x1="301" y1="1789.8" x2="301" y2="1811.9"/>
<line class="st13" x1="306" y1="1789.8" x2="306" y2="1811.4"/>
<polyline class="st7" points="284.7,1814.5 313.2,1814.5 308.4,1808 313.5,1783.4 319.2,1781.2 "/>
<path class="st8" d="M309.1,1809l-24.3-1.5c-0.5,0-1-0.4-1.1-1l-2.2-12.3c-0.1-0.7,0.4-1.3,1.1-1.4l29.5-3.1"/>
<rect x="310" y="1765.4" class="st3" width="4" height="8.7"/>
<rect x="286" y="1765.4" class="st3" width="4" height="8.7"/>
<rect x="304" y="1765.4" class="st3" width="4" height="8.7"/>
<rect x="292" y="1765.4" class="st3" width="4" height="8.7"/>
<rect x="298" y="1765.4" class="st3" width="4" height="8.7"/>
<rect x="264.4" y="1811" class="st3" width="9" height="4"/>
<rect x="264.4" y="1793" class="st3" width="9" height="4"/>
<rect x="264.4" y="1805" class="st3" width="9" height="4"/>
<rect x="264.4" y="1799" class="st3" width="9" height="4"/>
<rect x="264.4" y="1787" class="st3" width="9" height="4"/>
<rect x="286" y="1827.9" class="st3" width="4" height="8.7"/>
<rect x="310" y="1827.9" class="st3" width="4" height="8.7"/>
<rect x="292" y="1827.9" class="st3" width="4" height="8.7"/>
<rect x="304" y="1827.9" class="st3" width="4" height="8.7"/>
<rect x="298" y="1827.9" class="st3" width="4" height="8.7"/>
<rect x="326.6" y="1805" class="st3" width="9" height="4"/>
<rect x="326.6" y="1787" class="st3" width="9" height="4"/>
<rect x="326.6" y="1799" class="st3" width="9" height="4"/>
<rect x="326.6" y="1793" class="st3" width="9" height="4"/>
<rect x="326.6" y="1811" class="st3" width="9" height="4"/>
</svg>
