<?xml version="1.0" encoding="utf-8"?>
<!-- Generator: Adobe Illustrator 19.1.0, SVG Export Plug-In . SVG Version: 6.00 Build 0)  -->
<svg version="1.1" id="Layer_1" xmlns="http://www.w3.org/2000/svg" xmlns:xlink="http://www.w3.org/1999/xlink" x="0px" y="0px"
	 viewBox="250 1179 100 100" style="enable-background:new 250 1179 100 100;" xml:space="preserve">
<style type="text/css">
	.st0{fill:#19486F;}
	.st1{fill:#1F5B98;}
	.st2{fill:#99BBE1;}
	.st3{fill:#5193CE;}
	.st4{fill:#17476F;}
	.st5{fill:#FFFFFF;}
	.st6{fill:none;stroke:#5193CE;stroke-width:3;stroke-linecap:round;stroke-linejoin:round;stroke-miterlimit:10;}
	.st7{fill:none;stroke:#FFFFFF;stroke-width:3;stroke-linecap:round;stroke-linejoin:round;stroke-miterlimit:10;}
	.st8{fill:none;stroke:#FFFFFF;stroke-width:3;stroke-miterlimit:10;}
	.st9{fill:#5193CE;stroke:#FFFFFF;stroke-width:3;stroke-miterlimit:10;}
	.st10{fill:none;stroke:#FFFFFF;stroke-width:3;stroke-linecap:round;stroke-miterlimit:10;}
	.st11{fill:#5193CE;stroke:#FFFFFF;stroke-width:3;stroke-linecap:round;stroke-linejoin:round;stroke-miterlimit:10;}
	.st12{font-family:'HelveticaNeueLTStd-Hv';}
	.st13{font-size:33.321px;}
	.st14{fill:#FFFFFF;stroke:#5193CE;stroke-width:2;stroke-miterlimit:10;}
	.st15{fill:none;stroke:#5193CE;stroke-linecap:round;stroke-linejoin:round;stroke-miterlimit:10;}
	.st16{fill:none;stroke:#5193CE;stroke-width:3;stroke-linecap:round;stroke-miterlimit:10;}
	.st17{fill:none;stroke:#5193CE;stroke-linecap:round;stroke-miterlimit:10;}
	.st18{fill:none;stroke:#5193CE;stroke-width:3;stroke-miterlimit:10;}
	.st19{fill:none;}
	.st20{fill:none;stroke:#5193CE;stroke-width:4;stroke-linecap:round;stroke-linejoin:round;stroke-miterlimit:10;}
</style>
<path class="st4" d="M273.4,1251.2h53.1v3c0,2.6-2.1,4.7-4.8,4.7l-43.6,0c-0.3,0-0.6,0-0.9-0.1c-0.1,0-0.1,0-0.2,0
	c-0.2-0.1-0.5-0.1-0.7-0.2c0,0-0.1,0-0.1,0c-0.3-0.1-0.5-0.2-0.7-0.4c-0.1,0-0.1-0.1-0.2-0.1c-0.2-0.1-0.4-0.3-0.5-0.4
	c0,0-0.1-0.1-0.1-0.1c-0.2-0.2-0.4-0.4-0.5-0.6c0-0.1-0.1-0.1-0.1-0.2c-0.1-0.1-0.1-0.2-0.2-0.3c0-0.1-0.1-0.1-0.1-0.2
	c-0.1-0.1-0.1-0.3-0.2-0.4c0-0.1-0.1-0.1-0.1-0.2c0-0.1,0-0.2-0.1-0.3c0-0.1-0.1-0.2-0.1-0.3c0-0.1,0-0.1,0-0.2v0c0-0.2,0-0.4,0-0.7
	V1251.2z"/>
<path class="st3" d="M278.2,1202.1c-2.6,0-4.8,2.1-4.8,4.7v44.3c0,2.6,2.1,4.7,4.8,4.7h43.6c2.6,0,4.8-2.1,4.8-4.7v-44.3
	c0-2.6-2.1-4.7-4.8-4.7H278.2z"/>
<rect x="281.5" y="1220.2" class="st5" width="37" height="26.4"/>
<rect x="279" y="1219" class="st5" width="42" height="2.5"/>
<rect x="279" y="1245.2" class="st5" width="42" height="2.6"/>
<polygon class="st5" points="300,1207 279,1219 321,1219 "/>
<text transform="matrix(1 0 0 1 289.4125 1242.1505)" class="st3 st12 st13">$</text>
<rect x="310" y="1193.4" class="st3" width="4" height="8.7"/>
<rect x="286" y="1193.4" class="st3" width="4" height="8.7"/>
<rect x="304" y="1193.4" class="st3" width="4" height="8.7"/>
<rect x="292" y="1193.4" class="st3" width="4" height="8.7"/>
<rect x="298" y="1193.4" class="st3" width="4" height="8.7"/>
<rect x="264.4" y="1239" class="st3" width="9" height="4"/>
<rect x="264.4" y="1221" class="st3" width="9" height="4"/>
<rect x="264.4" y="1233" class="st3" width="9" height="4"/>
<rect x="264.4" y="1227" class="st3" width="9" height="4"/>
<rect x="264.4" y="1215" class="st3" width="9" height="4"/>
<rect x="286" y="1255.9" class="st3" width="4" height="8.7"/>
<rect x="310" y="1255.9" class="st3" width="4" height="8.7"/>
<rect x="292" y="1255.9" class="st3" width="4" height="8.7"/>
<rect x="304" y="1255.9" class="st3" width="4" height="8.7"/>
<rect x="298" y="1255.9" class="st3" width="4" height="8.7"/>
<rect x="326.6" y="1233" class="st3" width="9" height="4"/>
<rect x="326.6" y="1215" class="st3" width="9" height="4"/>
<rect x="326.6" y="1227" class="st3" width="9" height="4"/>
<rect x="326.6" y="1221" class="st3" width="9" height="4"/>
<rect x="326.6" y="1239" class="st3" width="9" height="4"/>
</svg>
