<?xml version="1.0" encoding="utf-8"?>
<!-- Generator: Adobe Illustrator 19.1.0, SVG Export Plug-In . SVG Version: 6.00 Build 0)  -->
<svg version="1.1" id="Layer_1" xmlns="http://www.w3.org/2000/svg" xmlns:xlink="http://www.w3.org/1999/xlink" x="0px" y="0px"
	 viewBox="250 1323 100 100" style="enable-background:new 250 1323 100 100;" xml:space="preserve">
<style type="text/css">
	.st0{fill:#19486F;}
	.st1{fill:#1F5B98;}
	.st2{fill:#99BBE1;}
	.st3{fill:#5193CE;}
	.st4{fill:#17476F;}
	.st5{fill:#FFFFFF;}
	.st6{fill:none;stroke:#5193CE;stroke-width:3;stroke-linecap:round;stroke-linejoin:round;stroke-miterlimit:10;}
	.st7{fill:none;stroke:#FFFFFF;stroke-width:3;stroke-linecap:round;stroke-linejoin:round;stroke-miterlimit:10;}
	.st8{fill:none;stroke:#FFFFFF;stroke-width:3;stroke-miterlimit:10;}
	.st9{fill:#5193CE;stroke:#FFFFFF;stroke-width:3;stroke-miterlimit:10;}
	.st10{fill:none;stroke:#FFFFFF;stroke-width:3;stroke-linecap:round;stroke-miterlimit:10;}
	.st11{fill:#5193CE;stroke:#FFFFFF;stroke-width:3;stroke-linecap:round;stroke-linejoin:round;stroke-miterlimit:10;}
	.st12{fill:#FFFFFF;stroke:#5193CE;stroke-width:2;stroke-miterlimit:10;}
	.st13{fill:none;stroke:#5193CE;stroke-linecap:round;stroke-linejoin:round;stroke-miterlimit:10;}
	.st14{fill:none;stroke:#5193CE;stroke-width:3;stroke-linecap:round;stroke-miterlimit:10;}
	.st15{fill:none;stroke:#5193CE;stroke-linecap:round;stroke-miterlimit:10;}
	.st16{fill:none;stroke:#5193CE;stroke-width:3;stroke-miterlimit:10;}
	.st17{fill:none;}
	.st18{fill:none;stroke:#5193CE;stroke-width:4;stroke-linecap:round;stroke-linejoin:round;stroke-miterlimit:10;}
</style>
<path class="st4" d="M326.6,1395.2h-53.1v3c0,2.6,2.1,4.7,4.8,4.7h43.6c0.3,0,0.6,0,0.9-0.1c0.1,0,0.1,0,0.2,0
	c0.2-0.1,0.5-0.1,0.7-0.2c0,0,0.1,0,0.1,0c0.3-0.1,0.5-0.2,0.7-0.4c0.1,0,0.1-0.1,0.2-0.1c0.2-0.1,0.4-0.3,0.5-0.4
	c0,0,0.1-0.1,0.1-0.1c0.2-0.2,0.4-0.4,0.5-0.6c0-0.1,0.1-0.1,0.1-0.2c0.1-0.1,0.1-0.2,0.2-0.3c0-0.1,0.1-0.1,0.1-0.2
	c0.1-0.1,0.1-0.3,0.2-0.4c0-0.1,0.1-0.1,0.1-0.2c0-0.1,0-0.2,0.1-0.3c0-0.1,0.1-0.2,0.1-0.3c0-0.1,0-0.1,0-0.2v0c0-0.2,0-0.4,0-0.7
	V1395.2z"/>
<path class="st3" d="M321.8,1346.1c2.6,0,4.8,2.1,4.8,4.7v44.3c0,2.6-2.1,4.7-4.8,4.7h-43.6c-2.6,0-4.8-2.1-4.8-4.7v-44.3
	c0-2.6,2.1-4.7,4.8-4.7H321.8z"/>
<polygon class="st3" points="288.7,1373.2 291.5,1365.2 307,1366.8 313,1379.7 293.7,1384.2 "/>
<path class="st5" d="M299,1377.1c2.5,0,4.6-1.3,5.8-3.3h1.1c3.7,0,3.2,3.8,3.2,3.8v2.9h6.7v-6.7c0-3.7-3-6.7-6.7-6.7l-4.3-0.1
	c-0.6-1-1.4-1.9-2.4-2.4v-4.2h0l3.4,0c1.8,0,3.3-1.5,3.3-3.3c0-1.8-1.5-3.3-3.3-3.3h-13.4c-1.8,0-3.3,1.5-3.3,3.3
	c0,1.8,1.5,3.3,3.3,3.3l3.3,0v4.2c-1,0.6-1.9,1.4-2.4,2.4h-11v6.7h11C294.4,1375.8,296.5,1377.1,299,1377.1z"/>
<path class="st5" d="M312.3,1382.9c-1.8,3.3-3,5.1-3,7.7c0,1.7,1.3,3,3,3c1.7,0,3-1.3,3-3C315.3,1388,313.8,1386.1,312.3,1382.9z"/>
<rect x="310" y="1337.4" class="st3" width="4" height="8.7"/>
<rect x="286" y="1337.4" class="st3" width="4" height="8.7"/>
<rect x="304" y="1337.4" class="st3" width="4" height="8.7"/>
<rect x="292" y="1337.4" class="st3" width="4" height="8.7"/>
<rect x="298" y="1337.4" class="st3" width="4" height="8.7"/>
<rect x="264.4" y="1383" class="st3" width="9" height="4"/>
<rect x="264.4" y="1365" class="st3" width="9" height="4"/>
<rect x="264.4" y="1377" class="st3" width="9" height="4"/>
<rect x="264.4" y="1371" class="st3" width="9" height="4"/>
<rect x="264.4" y="1359" class="st3" width="9" height="4"/>
<rect x="286" y="1399.9" class="st3" width="4" height="8.7"/>
<rect x="310" y="1399.9" class="st3" width="4" height="8.7"/>
<rect x="292" y="1399.9" class="st3" width="4" height="8.7"/>
<rect x="304" y="1399.9" class="st3" width="4" height="8.7"/>
<rect x="298" y="1399.9" class="st3" width="4" height="8.7"/>
<rect x="326.6" y="1377" class="st3" width="9" height="4"/>
<rect x="326.6" y="1359" class="st3" width="9" height="4"/>
<rect x="326.6" y="1371" class="st3" width="9" height="4"/>
<rect x="326.6" y="1365" class="st3" width="9" height="4"/>
<rect x="326.6" y="1383" class="st3" width="9" height="4"/>
</svg>
