<?xml version="1.0" encoding="utf-8"?>
<!-- Generator: Adobe Illustrator 19.1.0, SVG Export Plug-In . SVG Version: 6.00 Build 0)  -->
<svg version="1.1" id="Layer_1" xmlns="http://www.w3.org/2000/svg" xmlns:xlink="http://www.w3.org/1999/xlink" x="0px" y="0px"
	 viewBox="250 737 100 100" style="enable-background:new 250 737 100 100;" xml:space="preserve">
<style type="text/css">
	.st0{fill:#19486F;}
	.st1{fill:#1F5B98;}
	.st2{fill:#99BBE1;}
	.st3{fill:#5193CE;}
	.st4{fill:#17476F;}
	.st5{fill:#FFFFFF;}
	.st6{fill:none;stroke:#5193CE;stroke-width:3;stroke-linecap:round;stroke-linejoin:round;stroke-miterlimit:10;}
	.st7{fill:none;stroke:#FFFFFF;stroke-width:3;stroke-linecap:round;stroke-linejoin:round;stroke-miterlimit:10;}
	.st8{fill:none;stroke:#FFFFFF;stroke-width:3;stroke-miterlimit:10;}
	.st9{fill:#5193CE;stroke:#FFFFFF;stroke-width:3;stroke-miterlimit:10;}
	.st10{fill:none;stroke:#FFFFFF;stroke-width:3;stroke-linecap:round;stroke-miterlimit:10;}
	.st11{fill:#5193CE;stroke:#FFFFFF;stroke-width:3;stroke-linecap:round;stroke-linejoin:round;stroke-miterlimit:10;}
	.st12{fill:#FFFFFF;stroke:#5193CE;stroke-width:2;stroke-miterlimit:10;}
	.st13{fill:none;stroke:#5193CE;stroke-linecap:round;stroke-linejoin:round;stroke-miterlimit:10;}
	.st14{fill:none;stroke:#5193CE;stroke-width:3;stroke-linecap:round;stroke-miterlimit:10;}
	.st15{fill:none;stroke:#5193CE;stroke-linecap:round;stroke-miterlimit:10;}
	.st16{fill:none;stroke:#5193CE;stroke-width:3;stroke-miterlimit:10;}
	.st17{fill:none;}
	.st18{fill:none;stroke:#5193CE;stroke-width:4;stroke-linecap:round;stroke-linejoin:round;stroke-miterlimit:10;}
</style>
<path class="st4" d="M326.6,809.2h-53.1v3c0,2.6,2.1,4.7,4.8,4.7h43.6c0.3,0,0.6,0,0.9-0.1c0.1,0,0.1,0,0.2,0
	c0.2-0.1,0.5-0.1,0.7-0.2c0,0,0.1,0,0.1,0c0.3-0.1,0.5-0.2,0.7-0.4c0.1,0,0.1-0.1,0.2-0.1c0.2-0.1,0.4-0.3,0.5-0.4
	c0,0,0.1-0.1,0.1-0.1c0.2-0.2,0.4-0.4,0.5-0.6c0-0.1,0.1-0.1,0.1-0.2c0.1-0.1,0.1-0.2,0.2-0.3c0-0.1,0.1-0.1,0.1-0.2
	c0.1-0.1,0.1-0.3,0.2-0.4c0-0.1,0.1-0.1,0.1-0.2c0-0.1,0-0.2,0.1-0.3c0-0.1,0.1-0.2,0.1-0.3c0-0.1,0-0.1,0-0.2v0c0-0.2,0-0.4,0-0.7
	V809.2z"/>
<path class="st3" d="M321.8,760.1c2.6,0,4.8,2.1,4.8,4.7v44.3c0,2.6-2.1,4.7-4.8,4.7h-43.6c-2.6,0-4.8-2.1-4.8-4.7v-44.3
	c0-2.6,2.1-4.7,4.8-4.7H321.8z"/>
<line class="st8" x1="300" y1="778.8" x2="300" y2="811.3"/>
<path class="st5" d="M317.3,778.7c-12.1-1.1-14.9-1.4-16.1-0.8c0-1.4-1.5-3.8-7.9-14l-0.8-1.3l-2.6,1.4l0.7,1.4
	c5,11,6.2,13.6,7.4,14.3c-1.2,0.7-2.5,3.2-8.2,13.9l-0.7,1.4l2.5,1.6l0.9-1.3c7-9.9,8.7-12.2,8.7-13.6c0.6,0.4,1.7,0.5,4.3,0.5
	c2.4,0,6.1-0.1,11.8-0.3l1.6-0.1l0.1-3L317.3,778.7z"/>
<path class="st5" d="M300,776.3c-1.9,0-3.5,1.6-3.5,3.5s1.6,3.5,3.5,3.5s3.5-1.6,3.5-3.5S301.9,776.3,300,776.3z"/>
<circle class="st3" cx="300" cy="779.8" r="1"/>
<rect x="310" y="751.4" class="st3" width="4" height="8.7"/>
<rect x="286" y="751.4" class="st3" width="4" height="8.7"/>
<rect x="304" y="751.4" class="st3" width="4" height="8.7"/>
<rect x="292" y="751.4" class="st3" width="4" height="8.7"/>
<rect x="298" y="751.4" class="st3" width="4" height="8.7"/>
<rect x="264.4" y="797" class="st3" width="9" height="4"/>
<rect x="264.4" y="779" class="st3" width="9" height="4"/>
<rect x="264.4" y="791" class="st3" width="9" height="4"/>
<rect x="264.4" y="785" class="st3" width="9" height="4"/>
<rect x="264.4" y="773" class="st3" width="9" height="4"/>
<rect x="286" y="813.9" class="st3" width="4" height="8.7"/>
<rect x="310" y="813.9" class="st3" width="4" height="8.7"/>
<rect x="292" y="813.9" class="st3" width="4" height="8.7"/>
<rect x="304" y="813.9" class="st3" width="4" height="8.7"/>
<rect x="298" y="813.9" class="st3" width="4" height="8.7"/>
<rect x="326.6" y="791" class="st3" width="9" height="4"/>
<rect x="326.6" y="773" class="st3" width="9" height="4"/>
<rect x="326.6" y="785" class="st3" width="9" height="4"/>
<rect x="326.6" y="779" class="st3" width="9" height="4"/>
<rect x="326.6" y="797" class="st3" width="9" height="4"/>
</svg>
