<?xml version="1.0" encoding="utf-8"?>
<!-- Generator: Adobe Illustrator 19.1.0, SVG Export Plug-In . SVG Version: 6.00 Build 0)  -->
<svg version="1.1" id="Layer_1" xmlns="http://www.w3.org/2000/svg" xmlns:xlink="http://www.w3.org/1999/xlink" x="0px" y="0px"
	 viewBox="250 2469 100 100" style="enable-background:new 250 2469 100 100;" xml:space="preserve">
<style type="text/css">
	.st0{fill:#19486F;}
	.st1{fill:#1F5B98;}
	.st2{fill:#99BBE1;}
	.st3{fill:#5193CE;}
	.st4{fill:#17476F;}
	.st5{fill:#FFFFFF;}
	.st6{fill:none;stroke:#5193CE;stroke-width:3;stroke-linecap:round;stroke-linejoin:round;stroke-miterlimit:10;}
	.st7{fill:none;stroke:#FFFFFF;stroke-width:3;stroke-linecap:round;stroke-linejoin:round;stroke-miterlimit:10;}
	.st8{fill:none;stroke:#FFFFFF;stroke-width:3;stroke-miterlimit:10;}
	.st9{fill:#5193CE;stroke:#FFFFFF;stroke-width:3;stroke-miterlimit:10;}
	.st10{fill:none;stroke:#FFFFFF;stroke-width:3;stroke-linecap:round;stroke-miterlimit:10;}
	.st11{fill:#5193CE;stroke:#FFFFFF;stroke-width:3;stroke-linecap:round;stroke-linejoin:round;stroke-miterlimit:10;}
	.st12{fill:#FFFFFF;stroke:#5193CE;stroke-width:2;stroke-miterlimit:10;}
	.st13{fill:none;stroke:#5193CE;stroke-linecap:round;stroke-linejoin:round;stroke-miterlimit:10;}
	.st14{fill:none;stroke:#5193CE;stroke-width:3;stroke-linecap:round;stroke-miterlimit:10;}
	.st15{fill:none;stroke:#5193CE;stroke-linecap:round;stroke-miterlimit:10;}
	.st16{fill:none;stroke:#5193CE;stroke-width:3;stroke-miterlimit:10;}
	.st17{fill:none;}
	.st18{fill:none;stroke:#5193CE;stroke-width:4;stroke-linecap:round;stroke-linejoin:round;stroke-miterlimit:10;}
</style>
<path class="st4" d="M273.4,2541.2h53.1v3c0,2.6-2.1,4.7-4.8,4.7h-43.6c-0.3,0-0.6,0-0.9-0.1c-0.1,0-0.1,0-0.2,0
	c-0.2-0.1-0.5-0.1-0.7-0.2c0,0-0.1,0-0.1,0c-0.3-0.1-0.5-0.2-0.7-0.4c-0.1,0-0.1-0.1-0.2-0.1c-0.2-0.1-0.4-0.3-0.5-0.4
	c0,0-0.1-0.1-0.1-0.1c-0.2-0.2-0.4-0.4-0.5-0.6c0-0.1-0.1-0.1-0.1-0.2c-0.1-0.1-0.1-0.2-0.2-0.3c0-0.1-0.1-0.1-0.1-0.2
	c-0.1-0.1-0.1-0.3-0.2-0.4c0-0.1-0.1-0.1-0.1-0.2c0-0.1,0-0.2-0.1-0.3c0-0.1-0.1-0.2-0.1-0.3c0-0.1,0-0.1,0-0.2v0c0-0.2,0-0.4,0-0.7
	V2541.2z"/>
<path class="st3" d="M278.2,2492.1c-2.6,0-4.8,2.1-4.8,4.7v44.3c0,2.6,2.1,4.7,4.8,4.7h43.6c2.6,0,4.8-2.1,4.8-4.7v-44.3
	c0-2.6-2.1-4.7-4.8-4.7H278.2z"/>
<g>
	<path class="st5" d="M312.3,2536.2h-24.5c-2.7,0-5-2.2-5-5v-24.5c0-2.7,2.2-5,5-5h24.5c2.7,0,5,2.2,5,5v24.5
		C317.2,2534,315,2536.2,312.3,2536.2z M287.7,2504.8c-1.1,0-2,0.9-2,2v24.5c0,1.1,0.9,2,2,2h24.5c1.1,0,2-0.9,2-2v-24.5
		c0-1.1-0.9-2-2-2H287.7z"/>
</g>
<polygon class="st5" points="309.2,2515.5 303.5,2515.5 303.5,2509.8 296.5,2509.8 296.5,2515.5 290.8,2515.5 290.8,2522.5 
	296.5,2522.5 296.5,2528.2 303.5,2528.2 303.5,2522.5 309.2,2522.5 "/>
<rect x="310" y="2483.4" class="st3" width="4" height="8.7"/>
<rect x="286" y="2483.4" class="st3" width="4" height="8.7"/>
<rect x="304" y="2483.4" class="st3" width="4" height="8.7"/>
<rect x="292" y="2483.4" class="st3" width="4" height="8.7"/>
<rect x="298" y="2483.4" class="st3" width="4" height="8.7"/>
<rect x="264.4" y="2529" class="st3" width="9" height="4"/>
<rect x="264.4" y="2511" class="st3" width="9" height="4"/>
<rect x="264.4" y="2523" class="st3" width="9" height="4"/>
<rect x="264.4" y="2517" class="st3" width="9" height="4"/>
<rect x="264.4" y="2505" class="st3" width="9" height="4"/>
<rect x="286" y="2545.9" class="st3" width="4" height="8.7"/>
<rect x="310" y="2545.9" class="st3" width="4" height="8.7"/>
<rect x="292" y="2545.9" class="st3" width="4" height="8.7"/>
<rect x="304" y="2545.9" class="st3" width="4" height="8.7"/>
<rect x="298" y="2545.9" class="st3" width="4" height="8.7"/>
<rect x="326.6" y="2523" class="st3" width="9" height="4"/>
<rect x="326.6" y="2505" class="st3" width="9" height="4"/>
<rect x="326.6" y="2517" class="st3" width="9" height="4"/>
<rect x="326.6" y="2511" class="st3" width="9" height="4"/>
<rect x="326.6" y="2529" class="st3" width="9" height="4"/>
</svg>
