<?xml version="1.0" encoding="utf-8"?>
<!-- Generator: Adobe Illustrator 19.1.0, SVG Export Plug-In . SVG Version: 6.00 Build 0)  -->
<svg version="1.1" id="Layer_1" xmlns="http://www.w3.org/2000/svg" xmlns:xlink="http://www.w3.org/1999/xlink" x="0px" y="0px"
	 viewBox="0 0 100 100" style="enable-background:new 0 0 100 100;" xml:space="preserve">
<style type="text/css">
	.st0{fill:#759C3E;}
	.st1{fill:#4B612C;}
	.st2{fill:#EA2227;}
	.st3{fill:#8D090A;}
	.st4{display:none;}
</style>
<g id="Layer_1_1_">
	<g>
		<g>
			<g>
				<rect x="27.9" y="40.3" class="st0" width="10.7" height="26.4"/>
			</g>
			<g>
				<rect x="27.9" y="66.7" class="st1" width="10.7" height="2.6"/>
			</g>
		</g>
		<g>
			<g>
				<rect x="44.8" y="45.4" class="st0" width="11.1" height="21.3"/>
			</g>
			<g>
				<rect x="44.8" y="66.7" class="st1" width="11.1" height="2.6"/>
			</g>
		</g>
		<g>
			<g>
				<path class="st0" d="M72,37.2v29.5h-9.8V37.3c0.1,0.1,1.9,1.3,4.8,1.3C68.5,38.6,70.2,38.2,72,37.2z"/>
			</g>
			<g>
				<rect x="62.2" y="66.7" class="st1" width="9.8" height="2.6"/>
			</g>
		</g>
		<g>
			<g>
				<rect x="25.8" y="70.9" class="st0" width="48.4" height="5.7"/>
			</g>
			<g>
				<rect x="25.8" y="76.6" class="st1" width="48.4" height="2.6"/>
			</g>
		</g>
		<g>
			<g>
				<path class="st2" d="M66.8,20.8c3.6,0,6.5,2.9,6.5,6.5s-2.9,6.5-6.5,6.5s-6.5-2.9-6.5-6.5C60.3,23.7,63.2,20.8,66.8,20.8z"/>
			</g>
			<g>
				<path class="st3" d="M73.3,27.3v2.6c0,0.3,0,0.6-0.1,0.9v-2.6C73.3,27.9,73.3,27.6,73.3,27.3"/>
				<path class="st3" d="M73.2,28.2v2.6c-0.1,0.4-0.1,0.7-0.2,1l-0.7-2.6C72.4,28.9,73.2,28.5,73.2,28.2"/>
				<path class="st3" d="M73,29.2v2.6c-0.1,0.4-0.3,0.8-0.5,1.1v-2.6C72.7,30,72.9,29.6,73,29.2"/>
				<path class="st3" d="M72.5,30.4V33c-1.1,2-3.3,3.4-5.7,3.4c-3.6,0-6.5-2.9-6.5-6.5v-2.6c0,3.6,2.9,6.5,6.5,6.5
					C69.3,33.7,71.4,32.4,72.5,30.4"/>
			</g>
			<path class="st3" d="M73.3,27.3v2.6c0,3.6-2.9,6.5-6.5,6.5s-6.5-2.9-6.5-6.5v-2.6c0,3.6,2.9,6.5,6.5,6.5
				C70.4,33.7,73.3,30.8,73.3,27.3z"/>
		</g>
	</g>
</g>
<g id="nyt_x5F_exporter_x5F_info" class="st4">
</g>
<g id="CloudTrail">
</g>
</svg>
