<?xml version="1.0" encoding="utf-8"?>
<!-- Generator: Adobe Illustrator 19.1.0, SVG Export Plug-In . SVG Version: 6.00 Build 0)  -->
<svg version="1.1" id="Layer_1" xmlns="http://www.w3.org/2000/svg" xmlns:xlink="http://www.w3.org/1999/xlink" x="0px" y="0px"
	 viewBox="0 0 100 100" style="enable-background:new 0 0 100 100;" xml:space="preserve">
<style type="text/css">
	.st0{fill:#3D4A2A;}
	.st1{fill:#B7CA9D;}
	.st2{fill:#4C622C;}
	.st3{fill:#769C3E;}
</style>
<polygon class="st0" points="68.2,42.1 76.1,41.3 79.8,42.1 72.2,42.7 "/>
<polygon class="st1" points="67.6,58.9 75.9,59.6 79.8,58.9 71.9,58.2 "/>
<polygon class="st1" points="57.2,60.4 66.4,61.6 72.4,60.4 63.5,59.5 "/>
<polygon class="st2" points="62.6,41.2 71.4,40.2 71.4,60.4 62.6,59.5 "/>
<polygon class="st0" points="58,40.2 67,39.1 72.8,40.2 64.1,41.2 "/>
<polygon class="st3" points="65.9,67.3 58.9,69.4 58.9,31.5 65.9,33.6 "/>
<polygon class="st3" points="76,36.7 71.4,35.3 71.4,65.6 76,64.3 "/>
<polygon class="st2" points="49.9,61.6 58.9,63 58.9,37.8 49.9,39.2 "/>
<polygon class="st3" points="50,14.5 79.8,29.4 79.8,42.1 50,36.1 "/>
<polygon class="st3" points="79.8,58.9 50,64.8 50,86.5 79.8,71.5 "/>
<polygon class="st0" points="31.7,42.1 23.8,41.3 20.2,42.1 27.7,42.7 "/>
<polygon class="st1" points="32.3,58.9 24.1,59.6 20.2,58.9 28.1,58.2 "/>
<polygon class="st1" points="42.8,60.4 33.5,61.6 27.5,60.4 36.5,59.5 "/>
<polygon class="st3" points="37.3,41.2 28.5,40.2 28.5,60.4 37.3,59.5 "/>
<polygon class="st0" points="42,40.2 33,39.1 27.2,40.2 35.9,41.2 "/>
<polygon class="st2" points="34.1,67.3 41.1,69.4 41.1,31.5 34.1,33.6 "/>
<polygon class="st2" points="24,36.7 28.5,35.3 28.5,65.6 24,64.3 "/>
<polygon class="st3" points="50,61.6 41.1,63 41.1,37.8 50,39.2 "/>
<polygon class="st2" points="50,14.5 20.2,29.4 20.2,42.1 50,36.1 "/>
<polygon class="st2" points="20.2,58.9 50,64.8 50,86.5 20.2,71.5 "/>
<polygon class="st0" points="58.9,37.8 50,39.2 41.1,37.8 50,36 "/>
<polygon class="st1" points="59.1,63 50.1,61.6 41.1,63 50.1,64.8 "/>
</svg>
