<?xml version="1.0" encoding="utf-8"?>
<!-- Generator: Adobe Illustrator 19.1.0, SVG Export Plug-In . SVG Version: 6.00 Build 0)  -->
<svg version="1.1" id="Layer_1" xmlns="http://www.w3.org/2000/svg" xmlns:xlink="http://www.w3.org/1999/xlink" x="0px" y="0px"
	 viewBox="0 0 100 100" style="enable-background:new 0 0 100 100;" xml:space="preserve">
<style type="text/css">
	.st0{fill:#3C4929;}
	.st1{fill:#759C3E;}
	.st2{display:none;}
</style>
<g id="Layer_1_1_">
	<g>
		<g>
			<g>
				<g>
					<rect x="25.6" y="76" class="st0" width="48.8" height="2.4"/>
				</g>
			</g>
		</g>
		<path class="st1" d="M25.6,21.6V76h48.8V21.6H25.6z M41.8,68.6h-9.1v-9h9.1C41.8,59.6,41.8,68.6,41.8,68.6z M41.8,53.9h-9.1V46
			h9.1C41.8,46,41.8,53.9,41.8,53.9z M41.8,40.4h-9.1v-9h9.1C41.8,31.4,41.8,40.4,41.8,40.4z M66.8,65.2H45.3V63h21.6L66.8,65.2
			L66.8,65.2z M66.8,51.7H45.3v-2.3h21.6L66.8,51.7L66.8,51.7z M66.8,37H45.3v-2.3h21.6L66.8,37L66.8,37z"/>
	</g>
</g>
<g id="nyt_x5F_exporter_x5F_info" class="st2">
</g>
<g id="CloudTrail">
</g>
</svg>
