<?xml version="1.0" encoding="utf-8"?>
<!-- Generator: Adobe Illustrator 19.1.0, SVG Export Plug-In . SVG Version: 6.00 Build 0)  -->
<svg version="1.1" id="Layer_1" xmlns="http://www.w3.org/2000/svg" xmlns:xlink="http://www.w3.org/1999/xlink" x="0px" y="0px"
	 viewBox="-255 347 100 100" style="enable-background:new -255 347 100 100;" xml:space="preserve">
<style type="text/css">
	.st0{fill:#C17B9E;}
	.st1{fill:#692F56;}
	.st2{fill:#CFB2C1;}
	.st3{fill:#512843;}
</style>
<polygon class="st0" points="-205.3,400.8 -234.8,402.2 -234.8,423.3 -205.3,416.4 "/>
<polygon class="st0" points="-187.1,417.7 -223.3,429.4 -223.3,403.4 -187.1,401.1 "/>
<polygon class="st1" points="-229.4,402.8 -223.1,403.4 -223.1,429.1 -229.4,425.9 "/>
<polygon class="st2" points="-186.9,401.1 -193.5,400.8 -229.4,402.8 -223.1,403.4 "/>
<polygon class="st0" points="-171.2,392.2 -205.1,388.8 -205.1,355.8 -171.2,372.8 "/>
<polygon class="st1" points="-238.9,392.2 -204.9,388.8 -204.9,355.8 -238.9,372.8 "/>
<polygon class="st3" points="-171,392.2 -204.9,393.6 -238.9,392.2 -204.9,388.8 "/>
<polygon class="st1" points="-234.6,402.3 -239,401.8 -239,421.1 -234.6,423.3 "/>
<polygon class="st2" points="-205.1,400.8 -209.8,400.6 -239,401.8 -235,402.2 "/>
<polygon class="st0" points="-171.2,401.9 -171.2,421.1 -180.9,426 -180.9,402.9 "/>
<polygon class="st1" points="-186.9,424.2 -180.7,425.8 -180.7,402.9 -186.9,402.5 "/>
<polygon class="st2" points="-171,401.9 -176.8,401.7 -186.9,402.5 -180.7,402.9 "/>
<polygon class="st0" points="-187.1,403.5 -187.1,429.1 -205.3,438.2 -205.3,405.3 "/>
<polygon class="st1" points="-215.1,404.2 -205.1,405.2 -205.1,438.2 -215.1,433.1 "/>
<polygon class="st2" points="-186.9,403.5 -197.3,402.8 -215.1,404.2 -204.6,405.3 "/>
</svg>
