<?xml version="1.0" encoding="utf-8"?>
<!-- Generator: Adobe Illustrator 16.0.0, SVG Export Plug-In . SVG Version: 6.00 Build 0)  -->
<svg version="1.2" baseProfile="tiny" xmlns="http://www.w3.org/2000/svg" xmlns:xlink="http://www.w3.org/1999/xlink" x="0px"
	 y="0px" width="100px" height="100px" viewBox="0 0 100 100" xml:space="preserve">
<g id="Layer_3">
</g>
<g id="Layer_1">
	<text transform="matrix(1 0 0 1 -24.9346 -4.6973)" fill="#231F20" font-family="'HelveticaNeue-MediumCond'" font-size="21.0885">Internet Gateway</text>
	<g>
		<g>
			<path fill="#F58536" d="M49.993,21.366c15.279,0,27.662,12.277,27.662,27.445c0,15.15-12.383,27.438-27.662,27.438
				c-15.266,0-27.648-12.287-27.648-27.438C22.345,33.644,34.728,21.366,49.993,21.366z"/>
		</g>
		<g>
			<path fill="#9D5025" d="M76.351,57.149v2.385c-0.537,1.686-1.238,3.297-2.082,4.822v-2.385
				C75.112,60.446,75.813,58.835,76.351,57.149"/>
			<path fill="#9D5025" d="M74.269,61.972v2.385c-4.697,8.508-13.807,14.277-24.275,14.277c-15.266,0-27.648-12.287-27.648-27.439
				v-2.383c0,15.15,12.383,27.438,27.648,27.438C60.462,76.249,69.571,70.481,74.269,61.972"/>
			<path fill="#9D5025" d="M77.655,48.812v2.383c0,1.332-0.096,2.639-0.281,3.92v-2.385C77.56,51.448,77.655,50.142,77.655,48.812"
				/>
			<path fill="#9D5025" d="M77.374,52.729v2.385c-0.223,1.516-0.564,2.996-1.023,4.42v-2.385
				C76.81,55.726,77.151,54.247,77.374,52.729"/>
		</g>
		<path fill="#9D5025" d="M77.655,48.812v2.383c0,15.152-12.383,27.439-27.662,27.439c-15.266,0-27.648-12.287-27.648-27.439v-2.383
			c0,15.15,12.383,27.438,27.648,27.438C65.272,76.249,77.655,63.962,77.655,48.812z"/>
		<path fill="#FFFFFF" d="M27.06,51.772v-0.73c0-2.982,2.275-6.932,5.635-8.387c0.262-6.508,5.678-11.721,12.295-11.721
			c4.406,0,8.459,2.359,10.643,6.104c0.846-0.365,1.76-0.555,2.699-0.555c3.357,0,6.133,2.375,6.703,5.566
			c4.586,0.902,7.904,5.295,7.904,8.992v0.73c0,4.502-4.664,8.451-9.979,8.451H37.04C31.724,60.224,27.06,56.274,27.06,51.772z"/>
		<g>
			<path fill="#F58536" d="M56.253,40.243l-1.939,1.33l-0.963-2.139c-1.48-3.273-4.762-5.387-8.361-5.387
				c-2.451,0-4.75,0.951-6.477,2.68c-1.736,1.73-2.689,4.047-2.689,6.498l0.039,1.699l-1.441,0.416
				c-2.34,0.672-4.227,3.67-4.227,5.701v0.73c0,2.469,2.99,5.34,6.846,5.34h25.92c3.854,0,6.844-2.871,6.844-5.34v-0.73
				c0-2.484-2.77-5.754-6.006-6.029l-1.736-0.145l-0.057-1.732c-0.064-1.98-1.68-3.539-3.674-3.539
				C57.585,39.597,56.864,39.819,56.253,40.243z"/>
		</g>
	</g>
</g>
<g id="nyt_x5F_exporter_x5F_info" display="none">
</g>
</svg>
