<?xml version="1.0" encoding="utf-8"?>
<!-- Generator: Adobe Illustrator 16.0.0, SVG Export Plug-In . SVG Version: 6.00 Build 0)  -->
<svg version="1.2" baseProfile="tiny" xmlns="http://www.w3.org/2000/svg" xmlns:xlink="http://www.w3.org/1999/xlink" x="0px"
	 y="0px" width="100px" height="100px" viewBox="0 0 100 100" xml:space="preserve">
<g id="Layer_3">
</g>
<g id="Layer_1">
	<g>
		<g>
			<polygon fill="#9D5025" points="52.698,28.496 52.698,30.865 48.956,21.545 48.956,19.174 			"/>
		</g>
		<g>
			<rect x="49.917" y="43.949" fill="#9D5025" width="16.186" height="2.369"/>
		</g>
		<g>
			<path fill="#F58536" d="M48.956,19.174c14.205,0.49,25.639,11.643,26.449,25.656l-9.303-3.676v2.795H49.917V28.496h2.781
				L48.956,19.174z"/>
		</g>
		<g>
			<polygon fill="#9D5025" points="75.405,44.83 75.405,47.203 66.103,43.521 66.103,41.154 			"/>
		</g>
		<g>
			<rect x="49.917" y="64.68" fill="#9D5025" width="2.781" height="2.371"/>
		</g>
		<g>
			<path fill="#F58536" d="M75.442,47.188c-0.404,14.328-11.936,25.875-26.336,26.438l3.592-8.945h-2.781V48.775h16.186v2.102
				L75.442,47.188z"/>
		</g>
		<g>
			<path fill="#9D5025" d="M75.442,47.188v2.369c-0.027,1.055-0.119,2.098-0.268,3.123v-2.371
				C75.323,49.285,75.415,48.242,75.442,47.188"/>
			<path fill="#9D5025" d="M75.175,50.309v2.371c-0.217,1.51-0.559,2.977-1.016,4.396v-2.369
				C74.616,53.287,74.958,51.816,75.175,50.309"/>
			<path fill="#9D5025" d="M74.159,54.707v2.369c-0.535,1.666-1.229,3.262-2.061,4.771v-2.371
				C72.931,57.969,73.624,56.371,74.159,54.707"/>
			<path fill="#9D5025" d="M72.099,59.477v2.371c-4.494,8.146-13.062,13.758-22.992,14.146v-2.369
				C59.036,73.236,67.604,67.623,72.099,59.477"/>
		</g>
		<path fill="#9D5025" d="M75.442,47.188v2.369c-0.404,14.33-11.936,25.873-26.336,26.438v-2.369
			C63.507,73.062,75.038,61.516,75.442,47.188z"/>
		<g>
			<rect x="43.306" y="64.68" fill="#9D5025" width="2.77" height="2.371"/>
		</g>
		<g>
			<path fill="#F58536" d="M20.589,47.811l8.49,3.357v-2.393h16.996V64.68h-2.77l3.596,8.945
				C32.71,73.076,21.313,61.857,20.589,47.811z"/>
		</g>
		<g>
			<path fill="#9D5025" d="M46.901,73.625v2.369C32.71,75.443,21.313,64.229,20.589,50.18v-2.369
				C21.313,61.857,32.71,73.076,46.901,73.625"/>
		</g>
		<path fill="#9D5025" d="M46.901,73.625v2.369C32.71,75.443,21.313,64.229,20.589,50.18v-2.369
			C21.313,61.857,32.71,73.076,46.901,73.625z"/>
		<g>
			<polygon fill="#9D5025" points="47.05,19.174 47.05,21.545 43.306,30.865 43.306,28.496 			"/>
		</g>
		<g>
			<rect x="29.079" y="43.949" fill="#9D5025" width="16.996" height="2.369"/>
		</g>
		<g>
			<path fill="#F58536" d="M47.05,19.174l-3.744,9.322h2.77v15.453H29.079v-2.307L20.589,45
				C21.313,30.902,32.798,19.664,47.05,19.174z"/>
		</g>
		<g>
			<polygon fill="#9D5025" points="29.079,41.643 29.079,44.01 20.589,47.371 20.589,45 			"/>
		</g>
	</g>
</g>
<g id="nyt_x5F_exporter_x5F_info" display="none">
</g>
</svg>
