<?xml version="1.0" encoding="utf-8"?>
<!-- Generator: Adobe Illustrator 16.0.0, SVG Export Plug-In . SVG Version: 6.00 Build 0)  -->
<svg version="1.2" baseProfile="tiny" xmlns="http://www.w3.org/2000/svg" xmlns:xlink="http://www.w3.org/1999/xlink" x="0px"
	 y="0px" width="100px" height="100px" viewBox="0 0 100 100" xml:space="preserve">
<g id="Layer_3">
</g>
<g id="Layer_1">
	<g>
		<g>
			<polygon fill="#9D5025" points="48.158,21.492 48.158,24.775 44.869,33.492 44.869,30.213 			"/>
		</g>
		<g>
			<rect x="22.328" y="45.693" fill="#9D5025" width="13.742" height="3.281"/>
		</g>
		<g>
			<polygon fill="#9D5025" points="47.119,49.314 47.119,52.598 36.07,45.795 36.07,42.514 			"/>
		</g>
		<g>
			<rect x="45.004" y="67.018" fill="#9D5025" width="2.576" height="3.283"/>
		</g>
		<g>
			<path fill="#F58536" d="M48.158,21.492l-3.289,8.721h2.711v36.805h-2.576l3.086,8.207c-13.398-0.641-24.258-10.02-25.658-23.117
				H36.07v2.336l11.049-5.129L36.07,42.514v3.18H22.328C23.166,33.359,34.758,21.883,48.158,21.492z"/>
		</g>
		<g>
			<path fill="#9D5025" d="M48.09,75.225v3.283C34.691,77.867,23.832,68.49,22.432,55.391v-3.283
				C23.832,65.205,34.691,74.584,48.09,75.225"/>
		</g>
		<path fill="#9D5025" d="M48.09,75.225v3.283C34.691,77.867,23.832,68.49,22.432,55.391v-3.283
			C23.832,65.205,34.691,74.584,48.09,75.225z"/>
		<g>
			<polygon fill="#9D5025" points="55.15,30.213 55.15,33.492 51.859,24.795 51.859,21.512 			"/>
		</g>
		<g>
			<rect x="63.861" y="45.543" fill="#9D5025" width="13.811" height="3.281"/>
		</g>
		<g>
			<polygon fill="#866929" points="63.861,45.543 63.861,48.824 63.709,45.795 63.709,42.514 			"/>
		</g>
		<g>
			<polygon fill="#9D5025" points="63.709,42.514 63.709,45.795 52.66,52.598 52.66,49.314 			"/>
		</g>
		<g>
			<rect x="52.42" y="67.018" fill="#9D5025" width="2.592" height="3.283"/>
		</g>
		<g>
			<path fill="#9D5025" d="M77.416,51.684v3.285c-0.035,0.322-0.072,0.643-0.121,0.961v-3.283
				C77.344,52.328,77.381,52.008,77.416,51.684"/>
			<path fill="#9D5025" d="M77.295,52.646v3.283c-0.207,1.465-0.541,2.887-0.98,4.256v-3.283
				C76.754,55.533,77.088,54.111,77.295,52.646"/>
			<path fill="#9D5025" d="M76.314,56.902v3.283c-0.514,1.598-1.176,3.123-1.973,4.566v-3.285
				C75.139,60.027,75.801,58.5,76.314,56.902"/>
			<path fill="#9D5025" d="M74.342,61.467v3.285C69.98,72.65,61.625,77.979,51.908,78.508v-3.283
				C61.625,74.693,69.98,69.369,74.342,61.467"/>
		</g>
		<path fill="#9D5025" d="M77.416,51.684v3.285c-1.398,13.047-12.172,22.814-25.508,23.539v-3.283
			C65.244,74.5,76.018,64.732,77.416,51.684z"/>
		<g>
			<path fill="#F58536" d="M51.859,21.512c13.332,0.947,25.658,11.135,25.812,24.031H63.861l-0.152-3.029L52.66,49.314l11.049,5.129
				v-2.76h13.707C76.018,64.732,65.244,74.5,51.908,75.225l3.104-8.207H52.42V30.213h2.73L51.859,21.512z"/>
		</g>
	</g>
</g>
<g id="nyt_x5F_exporter_x5F_info" display="none">
</g>
</svg>
