<?xml version="1.0" encoding="utf-8"?>
<!-- Generator: Adobe Illustrator 16.0.0, SVG Export Plug-In . SVG Version: 6.00 Build 0)  -->
<svg version="1.2" baseProfile="tiny" xmlns="http://www.w3.org/2000/svg" xmlns:xlink="http://www.w3.org/1999/xlink" x="0px"
	 y="0px" width="100px" height="100px" viewBox="0 0 100 100" xml:space="preserve">
<g id="Layer_3">
</g>
<g id="Layer_1">
	<text transform="matrix(1 0 0 1 -20.8857 -3.6973)" fill="#231F20" font-family="'HelveticaNeue-MediumCond'" font-size="21.0885">VPN Connection</text>
	<g>
		<g>
			<path fill="#9D5025" d="M49.535,34.318v2.271c-0.014,0-0.029,0-0.045,0c-2.822,0-4.23,1.189-4.932,2.463v-2.271
				c0.701-1.273,2.109-2.463,4.932-2.463C49.506,34.318,49.521,34.318,49.535,34.318"/>
			<path fill="#9D5025" d="M44.559,36.781v2.271c-0.172,0.305-0.299,0.621-0.395,0.918v-2.268
				C44.26,37.398,44.387,37.088,44.559,36.781"/>
			<path fill="#9D5025" d="M44.164,37.703v2.268c-0.113,0.352-0.182,0.686-0.225,0.982v-2.268
				C43.982,38.387,44.051,38.053,44.164,37.703"/>
			<path fill="#9D5025" d="M43.939,38.686v2.268c-0.053,0.365-0.064,0.668-0.064,0.867v-2.268
				C43.875,39.352,43.887,39.047,43.939,38.686"/>
		</g>
		<path fill="#9D5025" d="M43.875,41.82v-2.268c0-1.08,0.348-5.234,5.615-5.234c0.016,0,0.031,0,0.045,0v2.271
			c-0.014,0-0.029,0-0.045,0C44.223,36.59,43.875,40.742,43.875,41.82z"/>
		<g>
			<path fill="#9D5025" d="M55.205,39.609v2.268c-0.037-0.947-0.447-5.275-5.67-5.287v-2.271
				C54.758,34.33,55.168,38.66,55.205,39.609"/>
		</g>
		<path fill="#9D5025" d="M55.205,39.609v2.268c-0.037-0.947-0.447-5.275-5.67-5.287v-2.271
			C54.758,34.33,55.168,38.66,55.205,39.609z"/>
		<g>
			<rect x="61.762" y="44.967" fill="#9D5025" width="5.492" height="2.27"/>
		</g>
		<g>
			<rect x="43.91" y="44.967" fill="#9D5025" width="11.295" height="2.27"/>
		</g>
		<g>
			<rect x="32.771" y="44.967" fill="#9D5025" width="5.375" height="2.27"/>
		</g>
		<g>
			<polygon fill="#9D5025" points="76.105,42.369 76.105,44.639 67.254,50.713 67.254,48.441 			"/>
		</g>
		<g>
			<polygon fill="#9D5025" points="32.771,48.455 32.771,50.725 23.895,44.639 23.895,42.369 			"/>
		</g>
		<g>
			<rect x="38.146" y="51.109" fill="#866929" width="5.764" height="2.273"/>
		</g>
		<path fill="#F58536" d="M76.105,42.369l-8.852,6.072v-3.475h-5.492v6.555h3.922v16.906H34.246V51.521h20.959v-6.555H43.91v6.797
			h-5.764v-6.797h-5.375v3.488l-8.877-6.086l8.877-6.084v3.324h5.363c0.707-6.369,5.775-10.309,11.861-10.309
			c6.117,0,11.766,3.473,11.766,9.768v0.541h5.492v-3.324L76.105,42.369z M43.875,39.609h11.33c-0.037-0.949-0.447-5.279-5.67-5.291
			c-0.014,0-0.029,0-0.045,0C44.123,34.318,43.865,38.629,43.875,39.609"/>
		<g>
			<rect x="34.246" y="68.428" fill="#9D5025" width="31.438" height="2.271"/>
		</g>
	</g>
</g>
<g id="nyt_x5F_exporter_x5F_info" display="none">
</g>
</svg>
