<?xml version="1.0" encoding="utf-8"?>
<!-- Generator: Adobe Illustrator 19.1.0, SVG Export Plug-In . SVG Version: 6.00 Build 0)  -->
<svg version="1.1" id="Layer_1" xmlns="http://www.w3.org/2000/svg" xmlns:xlink="http://www.w3.org/1999/xlink" x="0px" y="0px"
	 viewBox="0 0 100 100" style="enable-background:new 0 0 100 100;" xml:space="preserve">
<style type="text/css">
	.st0{enable-background:new    ;}
	.st1{fill:#4B612C;}
	.st2{clip-path:url(#SVGID_2_);enable-background:new    ;}
	.st3{clip-path:url(#SVGID_4_);}
	.st4{clip-path:url(#SVGID_6_);}
	.st5{clip-path:url(#SVGID_8_);}
	.st6{fill:#759C3E;}
	.st7{fill:#3C4929;}
	.st8{fill:#FFFFFF;stroke:#3C4929;stroke-width:3;stroke-miterlimit:10;}
	.st9{fill:none;stroke:#3C4929;stroke-width:3;stroke-miterlimit:10;}
	.st10{fill:#D2D3D3;}
	.st11{fill:#7D7C7C;}
	.st12{fill:#373737;}
	.st13{fill:#B7CA9D;}
	.st14{fill:#FFFFFF;}
	.st15{fill:#FFFFFF;stroke:#4F4F4F;stroke-width:3;stroke-miterlimit:10;}
	.st16{fill:none;stroke:#4F4F4F;stroke-width:3;stroke-miterlimit:10;}
	.st17{fill:#D2D3D3;stroke:#7D7C7C;stroke-width:2;stroke-miterlimit:10;}
</style>
<g>
	<g>
		<path class="st7" d="M34.5,46.5c0,0,0,1,0,1c-1.6,0-2.8,0.7-2.8,2.3c0,1.5,1.3,3.2,2.8,3.2c0,0,0,0,0,0c1.6,0,2.8-1.7,2.8-3.3
			C37.3,48.2,36.1,46.5,34.5,46.5z"/>
		<path class="st7" d="M23,38v28h54V38H23z M69.8,55.1l-20.4,0.3c0,0.1-0.3,0.6-0.6,1.3c-0.3,0.6-0.7,1.1-1.1,1.7
			c-0.4,0.5-0.9,1-1.5,1.5c-2,1.6-4.4,2.4-6.8,2.4c-2.7,0-5.5-1-7.5-3c-0.3-0.3-0.6-0.6-0.9-0.9c-3.8-4.6-3.1-11.4,1.5-15.1
			c2-1.6,4.4-2.4,6.9-2.4c2.4,0,4.8,0.8,6.8,2.4c1.5,1.1,2.4,2.7,2.5,2.7l1.1,0.1l5-0.1l1.8,3l4.2-0.4l1.6,1.7l1.5,0.3l3.8-2.3
			l3.9,3.7L69.8,55.1z"/>
	</g>
	<rect x="31.7" y="49" class="st7" width="5.7" height="1"/>
	<g>
		<path class="st6" d="M34.5,45.5C34.5,45.5,34.5,45.5,34.5,45.5c-1.6,0-2.8,1.7-2.8,3.3c0,1.5,1.3,3.2,2.8,3.2c0,0,0,0,0,0
			c1.6,0,2.8-1.7,2.8-3.3C37.3,47.2,36.1,45.5,34.5,45.5z"/>
		<path class="st6" d="M23,35v28h54V35H23z M69.8,52.1l-20.4,0.3c0,0.1-0.3,0.6-0.6,1.3c-0.3,0.6-0.7,1.1-1.1,1.7
			c-0.4,0.5-0.9,1-1.5,1.5c-2,1.6-4.4,2.4-6.8,2.4c-2.7,0-5.5-1-7.5-3c-0.3-0.3-0.6-0.6-0.9-0.9c-3.8-4.6-3.1-11.4,1.5-15.1
			c2-1.6,4.4-2.4,6.9-2.4c2.4,0,4.8,0.8,6.8,2.4c1.5,1.1,2.4,2.7,2.5,2.7l1.1,0.1l5-0.1l1.8,3l4.2-0.4l1.6,1.7l1.5,0.3l3.8-2.3
			l3.9,3.7L69.8,52.1z"/>
	</g>
</g>
</svg>
