<?xml version="1.0" encoding="utf-8"?>
<!-- Generator: Adobe Illustrator 19.1.0, SVG Export Plug-In . SVG Version: 6.00 Build 0)  -->
<svg version="1.1" id="Layer_1" xmlns="http://www.w3.org/2000/svg" xmlns:xlink="http://www.w3.org/1999/xlink" x="0px" y="0px"
	 viewBox="0 0 100 100" style="enable-background:new 0 0 100 100;" xml:space="preserve">
<style type="text/css">
	.st0{fill:#769B3F;}
	.st1{fill:#4C612C;}
</style>
<g>
	<polygon class="st0" points="33.9,39.1 26.1,38.1 26.1,25.7 33.9,27.7 	"/>
	<polygon class="st1" points="66,37.2 73.9,36.1 73.9,25.7 66,27.7 	"/>
	<polygon class="st0" points="62.9,79.8 50,86.2 50,13.8 62.9,20.2 	"/>
	<polygon class="st0" points="80,50 50,50 50,28.6 80,37.4 	"/>
	<polygon class="st0" points="73.9,74.3 80,71.2 80,28.8 73.9,25.7 	"/>
	<polygon class="st1" points="37.3,79.9 50,86.2 50,13.8 37.3,20.1 	"/>
	<polygon class="st1" points="26.1,74.3 20,71.2 20,28.8 26.1,25.7 	"/>
	<polygon class="st1" points="20,71.2 50,86.2 50,28.6 20,37.4 	"/>
	<polygon class="st1" points="62.9,50 73.9,50 73.9,74.3 62.9,71.5 	"/>
</g>
</svg>
