<?xml version="1.0" encoding="utf-8"?>
<!-- Generator: Adobe Illustrator 19.0.0, SVG Export Plug-In . SVG Version: 6.00 Build 0)  -->
<svg version="1.1" id="Layer_1" xmlns="http://www.w3.org/2000/svg" xmlns:xlink="http://www.w3.org/1999/xlink" x="0px" y="0px"
	 viewBox="0 0 100 100" style="enable-background:new 0 0 100 100;" xml:space="preserve">
<style type="text/css">
	.st0{fill:#4B612C;}
	.st1{fill:#759C3E;}
	.st2{fill:#B7CA9D;}
	.st3{display:none;}
</style>
<g id="Amazon_CloudSearch">
	<g>
		<polygon class="st0" points="57.3,50 65.9,50 65.9,55.6 57.3,55.1 		"/>
		<polygon class="st0" points="70.1,50 76,50 76,54.6 70.1,54.3 		"/>
		<polygon class="st1" points="44.8,25.4 34.1,22 34.1,55.6 44.8,54.9 		"/>
		<polygon class="st1" points="31.3,28.7 24,27 24,54.6 31.3,54.3 		"/>
		<polygon class="st1" points="79.8,62.7 50,71.6 50,86 79.8,71.1 		"/>
		<polygon class="st0" points="41.1,18.5 50,14 50,57.2 41.1,56.3 		"/>
		<polygon class="st0" points="20.2,62.7 50,71.6 50,86 20.2,71.1 		"/>
		<polygon class="st0" points="28.6,24.7 34.1,21.9 34.1,55.6 28.6,55.1 		"/>
		<polygon class="st0" points="20.2,28.9 24,27 24,54.6 20.2,54.2 		"/>
		<polygon class="st2" points="79.8,62.7 50,58.9 20.2,62.7 50,71.6 		"/>
		<polygon class="st1" points="58.9,18.5 50,14 50,57.2 58.9,56.3 		"/>
		<polygon class="st1" points="76,33.8 79.8,35.1 79.8,54.2 76,54.6 		"/>
		<polygon class="st1" points="71.4,44.9 65.9,44.4 65.9,55.6 71.4,55.1 		"/>
		<polygon class="st1" points="50,14 79.8,28.9 79.8,50 50,50 		"/>
	</g>
</g>
<g id="nyt_x5F_exporter_x5F_info" class="st3">
</g>
</svg>
