<?xml version="1.0" encoding="utf-8"?>
<!-- Generator: Adobe Illustrator 19.0.0, SVG Export Plug-In . SVG Version: 6.00 Build 0)  -->
<svg version="1.1" id="Layer_1" xmlns="http://www.w3.org/2000/svg" xmlns:xlink="http://www.w3.org/1999/xlink" x="0px" y="0px"
	 viewBox="0 0 100 100" style="enable-background:new 0 0 100 100;" xml:space="preserve">
<style type="text/css">
	.st0{fill:#4B612C;}
	.st1{fill:#759C3E;}
	.st2{fill:#3C4929;}
	.st3{display:none;}
</style>
<g id="Amazon_CloudSearch">
	<g>
		<polygon class="st0" points="65.8,58.7 73.8,59.5 73.8,45.1 65.8,45.5 		"/>
		<polygon class="st1" points="62.6,38.1 50,35.5 50,14 62.6,20.3 		"/>
		<polygon class="st1" points="79.8,45.8 73.8,45.1 73.8,59.5 79.8,58.3 		"/>
		<polygon class="st1" points="68.9,76.6 50,86 50,42.7 68.9,44.6 		"/>
		<polygon class="st1" points="34.2,58.7 26.2,59.5 26.2,45.1 34.2,45.5 		"/>
		<polygon class="st0" points="37.4,38.1 50,35.5 50,14 37.4,20.3 		"/>
		<polygon class="st0" points="20.2,45.8 26.2,45.1 26.2,59.5 20.2,58.3 		"/>
		<polygon class="st0" points="31.1,76.6 50,86 50,42.7 31.1,44.6 		"/>
		<polygon class="st2" points="62.6,38.1 50,39.8 37.4,38.1 50,35.5 		"/>
	</g>
</g>
<g id="nyt_x5F_exporter_x5F_info" class="st3">
</g>
</svg>
