<?xml version="1.0" encoding="utf-8"?>
<!-- Generator: Adobe Illustrator 19.1.0, SVG Export Plug-In . SVG Version: 6.00 Build 0)  -->
<svg version="1.1" id="Layer_1" xmlns="http://www.w3.org/2000/svg" xmlns:xlink="http://www.w3.org/1999/xlink" x="0px" y="0px"
	 viewBox="0 0 100 100" style="enable-background:new 0 0 100 100;" xml:space="preserve">
<style type="text/css">
	.st0{enable-background:new    ;}
	.st1{fill:#4B612C;}
	.st2{clip-path:url(#SVGID_2_);enable-background:new    ;}
	.st3{clip-path:url(#SVGID_4_);}
	.st4{clip-path:url(#SVGID_6_);}
	.st5{clip-path:url(#SVGID_8_);}
	.st6{fill:#759C3E;}
	.st7{fill:#3C4929;}
	.st8{fill:#FFFFFF;stroke:#3C4929;stroke-width:3;stroke-miterlimit:10;}
	.st9{fill:none;stroke:#3C4929;stroke-width:3;stroke-miterlimit:10;}
	.st10{fill:#D2D3D3;}
	.st11{fill:#7D7C7C;}
	.st12{fill:#373737;}
	.st13{fill:#E05243;}
	.st14{font-family:'HelveticaNeueLTStd-Roman';}
	.st15{font-size:15.568px;}
	.st16{fill:#B7CA9D;}
	.st17{fill:#FFFFFF;}
	.st18{fill:#FFFFFF;stroke:#4F4F4F;stroke-width:3;stroke-miterlimit:10;}
	.st19{fill:none;stroke:#4F4F4F;stroke-width:3;stroke-miterlimit:10;}
	.st20{fill:#D2D3D3;stroke:#7D7C7C;stroke-width:2;stroke-miterlimit:10;}
</style>
<g id="CloudTrail_12_">
	<path class="st11" d="M71,72.2c0,3.3-3.2,6.3-7.2,6.3H36.2c-4,0-7.2-3-7.2-6.3v-42c0-3.3,3.2-5.7,7.2-5.7h27.6c4,0,7.2,2.4,7.2,5.7
		V72.2z"/>
	<path class="st10" d="M71,69.2c0,3.3-3.5,6.3-7.4,6.3H36.2c-4,0-7.2-3-7.2-6.3v-42c0-3.3,3.2-5.7,7.2-5.7h27.4c4,0,7.4,2.4,7.4,5.7
		V69.2z"/>
	<polygon class="st6" points="38.4,31.9 35.6,28.9 32.5,32 32.5,32 38.3,37.8 48.2,28 45.9,25.7 	"/>
	<polygon class="st6" points="38.4,45.9 35.6,42.8 32.5,45.9 32.5,45.9 38.3,51.7 48.2,41.9 45.9,39.6 	"/>
	<text transform="matrix(1.6452 0 0 1 32.3636 65.5244)" class="st13 st14 st15">X</text>
</g>
</svg>
