<?xml version="1.0" encoding="utf-8"?>
<!-- Generator: Adobe Illustrator 19.1.0, SVG Export Plug-In . SVG Version: 6.00 Build 0)  -->
<svg version="1.1" id="Layer_1" xmlns="http://www.w3.org/2000/svg" xmlns:xlink="http://www.w3.org/1999/xlink" x="0px" y="0px"
	 viewBox="0 0 100 100" style="enable-background:new 0 0 100 100;" xml:space="preserve">
<style type="text/css">
	.st0{enable-background:new    ;}
	.st1{fill:#4B612C;}
	.st2{clip-path:url(#SVGID_2_);enable-background:new    ;}
	.st3{clip-path:url(#SVGID_4_);}
	.st4{clip-path:url(#SVGID_6_);}
	.st5{clip-path:url(#SVGID_8_);}
	.st6{fill:#759C3E;}
	.st7{fill:#3C4929;}
	.st8{fill:#FFFFFF;}
	.st9{font-family:'HelveticaNeueLTStd-Roman';}
	.st10{font-size:10.5399px;}
	.st11{font-size:13.1409px;}
	.st12{fill:#FFFFFF;stroke:#3C4929;stroke-width:3;stroke-miterlimit:10;}
	.st13{fill:none;stroke:#3C4929;stroke-width:3;stroke-miterlimit:10;}
	.st14{fill:#D2D3D3;}
	.st15{fill:#7D7C7C;}
	.st16{fill:#373737;}
	.st17{fill:#B7CA9D;}
	.st18{fill:#FFFFFF;stroke:#4F4F4F;stroke-width:3;stroke-miterlimit:10;}
	.st19{fill:none;stroke:#4F4F4F;stroke-width:3;stroke-miterlimit:10;}
	.st20{fill:#D2D3D3;stroke:#7D7C7C;stroke-width:2;stroke-miterlimit:10;}
</style>
<g id="CloudTrail_9_">
	<text transform="matrix(1 0 0 1 34.8963 71.9624)" class="st8 st9 st10">ROOT</text>
	<g>
		<g>
			<g>
				<path class="st6" d="M70.4,72.4v2.5c0,0.1,0,0.3,0,0.4v-2.5C70.4,72.7,70.4,72.6,70.4,72.4"/>
				<path class="st6" d="M70.4,72.9v2.5c0,0.2-0.1,0.3-0.1,0.5v-2.5C70.3,73.2,70.3,73,70.4,72.9"/>
				<path class="st6" d="M70.2,73.3v2.5c-0.1,0.2-0.1,0.4-0.2,0.5v-2.5C70.1,73.7,70.2,73.5,70.2,73.3"/>
				<path class="st6" d="M70,73.9v2.5c-0.5,0.9-1.5,1.6-2.6,1.6v-2.5C68.5,75.4,69.5,74.8,70,73.9"/>
			</g>
			<path class="st6" d="M70.4,72.4v2.5c0,1.6-1.3,3-3,3v-2.5C69,75.4,70.4,74.1,70.4,72.4z"/>
			<g>
				<polygon class="st6" points="68.7,74.9 67.4,77.9 32.6,77.9 31.8,74.8 				"/>
			</g>
			<g>
				<path class="st6" d="M32.6,75.4v2.5c-1.7,0-3-1.3-3-3v-2.5C29.6,74.1,31,75.4,32.6,75.4"/>
			</g>
			<path class="st6" d="M32.6,75.4v2.5c-1.7,0-3-1.3-3-3v-2.5C29.6,74.1,31,75.4,32.6,75.4z"/>
			<g>
				<path class="st6" d="M67.4,22.1c1.7,0,3,1.3,3,3v47.4c0,1.6-1.3,3-3,3H32.6c-1.7,0-3-1.3-3-3V25c0-1.6,1.3-3,3-3H67.4z"/>
			</g>
		</g>
	</g>
	<text transform="matrix(1 0 0 1 36.2175 72.4398)" class="st8 st9 st11">STS</text>
	<g>
		<g>
			<circle class="st12" cx="49.4" cy="39.7" r="13"/>
			<line class="st13" x1="50.4" y1="31.5" x2="50.4" y2="42.9"/>
		</g>
		<line class="st13" x1="43.9" y1="41.8" x2="50.9" y2="41.8"/>
	</g>
</g>
</svg>
