<?xml version="1.0" encoding="utf-8"?>
<!-- Generator: Adobe Illustrator 19.1.0, SVG Export Plug-In . SVG Version: 6.00 Build 0)  -->
<svg version="1.1" id="Layer_1" xmlns="http://www.w3.org/2000/svg" xmlns:xlink="http://www.w3.org/1999/xlink" x="0px" y="0px"
	 viewBox="0 0 100 100" style="enable-background:new 0 0 100 100;" xml:space="preserve">
<style type="text/css">
	.st0{fill:#B6C99C;}
	.st1{fill:#4C612C;}
	.st2{fill:#769B3F;}
</style>
<g>
	<polygon class="st0" points="84.1,67.9 49.9,61.5 15.9,67.9 49.9,82.3 	"/>
	<polyline class="st1" points="15.9,67.9 15.9,74.1 20.3,76.3 50,91.2 50,80.8 	"/>
	<polyline class="st2" points="84.1,67.9 84.1,74.1 79.7,76.3 50,91.2 50,80.8 	"/>
	<polygon class="st1" points="35.6,70.4 50,74.7 50,62.4 35.6,60.3 	"/>
	<polygon class="st2" points="64.4,70.4 50,74.7 50,62.4 64.4,60.3 	"/>
	<polygon class="st1" points="35.6,16.1 50,8.8 50,55.3 35.6,54.1 	"/>
	<polygon class="st2" points="64.4,54.1 50,55.3 50,8.8 64.4,16.1 	"/>
	<polygon class="st0" points="50,58.8 64.4,60.3 50,62.4 35.6,60.3 	"/>
</g>
</svg>
