<?xml version="1.0" encoding="utf-8"?>
<!-- Generator: Adobe Illustrator 19.0.0, SVG Export Plug-In . SVG Version: 6.00 Build 0)  -->
<svg version="1.1" id="Layer_1" xmlns="http://www.w3.org/2000/svg" xmlns:xlink="http://www.w3.org/1999/xlink" x="0px" y="0px"
	 viewBox="0 0.7 99 99.3" style="enable-background:new 0 0.7 99 99.3;" xml:space="preserve">
<style type="text/css">
	.st0{fill:#8C3123;}
	.st1{fill:#E05243;}
	.st2{fill:#FFFFFF;}
	.st3{font-family:'HelveticaNeueLTStd-Roman';}
	.st4{font-size:16px;}
	.st5{display:none;}
</style>
<g id="Layer_1_1_">
	<text transform="matrix(1 0 0 1 0 -3.346)" style="font-family:'MyriadPro-Regular'; font-size:12px;"> </text>
	<text transform="matrix(1 0 0 1 2.1123 -3.346)" style="font-family:'MyriadPro-Regular'; font-size:12px;">V</text>
	<text transform="matrix(1 0 0 1 8.6162 -3.346)" style="font-family:'MyriadPro-Regular'; font-size:12px;">i</text>
	<text transform="matrix(1 0 0 1 11.4238 -3.346)" style="font-family:'MyriadPro-Regular'; font-size:12px;">r</text>
	<text transform="matrix(1 0 0 1 15.6357 -3.346)" style="font-family:'MyriadPro-Regular'; font-size:12px;">t</text>
	<text transform="matrix(1 0 0 1 19.6074 -3.346)" style="font-family:'MyriadPro-Regular'; font-size:12px;">u</text>
	<text transform="matrix(1 0 0 1 26.2197 -3.346)" style="font-family:'MyriadPro-Regular'; font-size:12px;">a</text>
	<text transform="matrix(1 0 0 1 32.0039 -3.346)" style="font-family:'MyriadPro-Regular'; font-size:12px;">l</text>
	<text transform="matrix(1 0 0 1 34.8359 -3.346)" style="font-family:'MyriadPro-Regular'; font-size:12px;"> </text>
	<text transform="matrix(1 0 0 1 36.8877 -3.346)" style="font-family:'MyriadPro-Regular'; font-size:12px;">T</text>
	<text transform="matrix(1 0 0 1 42.084 -3.346)" style="font-family:'MyriadPro-Regular'; font-size:12px;">a</text>
	<text transform="matrix(1 0 0 1 47.8682 -3.346)" style="font-family:'MyriadPro-Regular'; font-size:12px;">p</text>
	<text transform="matrix(1 0 0 1 54.6963 -3.346)" style="font-family:'MyriadPro-Regular'; font-size:12px;">e</text>
	<text transform="matrix(1 0 0 1 60.708 -3.346)" style="font-family:'MyriadPro-Regular'; font-size:12px;"> </text>
	<text transform="matrix(1 0 0 1 63.252 -3.346)" style="font-family:'MyriadPro-Regular'; font-size:12px;">L</text>
	<text transform="matrix(1 0 0 1 68.916 -3.346)" style="font-family:'MyriadPro-Regular'; font-size:12px;">i</text>
	<text transform="matrix(1 0 0 1 71.7236 -3.346)" style="font-family:'MyriadPro-Regular'; font-size:12px;">b</text>
	<text transform="matrix(1 0 0 1 78.5518 -3.346)" style="font-family:'MyriadPro-Regular'; font-size:12px;">r</text>
	<text transform="matrix(1 0 0 1 82.416 -3.346)" style="font-family:'MyriadPro-Regular'; font-size:12px;">a</text>
	<text transform="matrix(1 0 0 1 88.2002 -3.346)" style="font-family:'MyriadPro-Regular'; font-size:12px;">r</text>
	<text transform="matrix(1 0 0 1 92.4238 -3.346)" style="font-family:'MyriadPro-Regular'; font-size:12px;">y</text>
	<g>
		<g>
			<rect x="41.1" y="70.1" class="st0" width="15.5" height="3.2"/>
		</g>
		<g>
			<polygon class="st1" points="75.4,17.1 75.4,80.2 56.6,80.2 56.6,70.1 41.1,70.1 41.1,79.9 22.4,79.9 22.4,17.1 			"/>
		</g>
		<g>
			<rect x="56.6" y="79.9" class="st0" width="18.7" height="3.2"/>
		</g>
		<g>
			<rect x="22.4" y="79.9" class="st0" width="18.7" height="3.2"/>
		</g>
	</g>
	<g>
		<g>
			<path class="st0" d="M66.7,45.3c-5.4-2.5-11.8-0.2-14.3,5.1c-1.7,3.6-1.2,7.7,0.9,10.8c-2.5,0.6-5,0.7-7.9,0.7
				c0.5-0.5,0.7-0.7,1-1.2c1.2-1.7,1.9-3.8,1.9-6.1c0-5.9-4.8-10.7-10.7-10.7c-5.9,0-10.7,4.8-10.7,10.7c0,5.9,4.8,10.7,10.7,10.7
				c1.9,0,3.7-0.5,5.2-1.4c0.6,0.1,1.2,0.1,1.9,0.1c0,0,5.1,0.6,10.5-0.7c0.7,0.5,1.4,1,2.2,1.4c5.4,2.5,11.8,0.2,14.3-5.1
				C74.4,54.2,72.1,47.8,66.7,45.3z"/>
			<path class="st2" d="M66.7,43.2c-5.4-2.5-11.8-0.2-14.3,5.1c-1.7,3.6-1.2,7.7,0.9,10.8c-2.5,0.6-5.3,1-8.2,1c2-2,3.3-4.7,3.3-7.7
				c0-5.9-4.8-10.7-10.7-10.7c-5.9,0-10.7,4.8-10.7,10.7s4.8,10.7,10.7,10.7c1.9,0,3.7-0.5,5.2-1.4c0.6,0.1,1.2,0.1,1.9,0.1
				c0,0,5.1,0.6,10.5-0.7c0.7,0.5,1.4,1,2.2,1.4c5.4,2.5,11.8,0.2,14.3-5.1S72.1,45.7,66.7,43.2z"/>
			<path class="st1" d="M35.2,55c-0.7-0.8-1.9-1-2.8-0.3L30.9,56c-0.8,0.7-1,1.9-0.3,2.7l0.1,0.2c0.7,0.8,1.9,1,2.7,0.3l1.5-1.2
				c0.8-0.7,1-1.9,0.3-2.8L35.2,55z"/>
			<path class="st1" d="M47.1,53c0-1.1-0.8-2-1.9-2l-2,0c-1.1,0-2,0.8-2,1.9l0,0.2c0,1.1,0.8,2,1.9,2l2,0c1.1,0,2-0.8,2-1.9L47.1,53
				z"/>
			<path class="st1" d="M36.6,48.7c1-0.3,1.6-1.5,1.2-2.5l-0.6-1.9c-0.3-1-1.5-1.6-2.5-1.2l-0.2,0.1c-1,0.3-1.6,1.5-1.2,2.5l0.6,1.9
				c0.3,1,1.5,1.6,2.5,1.2L36.6,48.7z"/>
			<circle class="st1" cx="37.6" cy="52.4" r="1.5"/>
			<path class="st1" d="M63.4,56.2c-1,0.3-1.7,1.3-1.4,2.4l0.5,1.9c0.3,1,1.3,1.7,2.4,1.4l0.2-0.1c1-0.3,1.7-1.3,1.4-2.4L66,57.6
				c-0.3-1-1.3-1.7-2.4-1.4L63.4,56.2z"/>
			<path class="st1" d="M66.6,44.6c-1-0.5-2.1-0.1-2.6,0.9l-0.9,1.8c-0.5,1-0.1,2.1,0.9,2.6l0.2,0.1c1,0.5,2.1,0.1,2.6-0.9l0.9-1.8
				c0.5-1,0.1-2.1-0.9-2.6L66.6,44.6z"/>
			<path class="st1" d="M58.3,52.2c0.1-1.1-0.6-2-1.7-2.2l-1.9-0.2c-1.1-0.1-2,0.6-2.2,1.7l0,0.2c-0.1,1.1,0.6,2,1.7,2.2l1.9,0.2
				c1.1,0.1,2-0.6,2.2-1.7L58.3,52.2z"/>
			<path class="st1" d="M62.8,51.5c-0.8-0.4-1.7,0-2,0.7c-0.4,0.8,0,1.7,0.7,2c0.8,0.4,1.7,0,2-0.7C63.8,52.8,63.5,51.9,62.8,51.5z"
				/>
			<path class="st0" d="M47.1,53c0-1.1-0.8-2-1.9-2l-2,0c-1.1,0-2,1-2,1.9C44.8,52,47.1,53,47.1,53z"/>
			<path class="st0" d="M52.4,51.4c0.1-1.1,1.1-1.8,2.2-1.7l1.9,0.2c1.1,0.1,1.9,1.3,1.7,2.2C54.9,50.7,52.4,51.4,52.4,51.4z"/>
			<path class="st0" d="M35.7,56c0,0-0.1-0.5-0.5-1c-0.4-0.5-1.1-1.1-2.5-0.5L30.9,56c-0.7,0.8-0.7,1.2-0.7,1.1
				C30.3,57,33.1,54.8,35.7,56z"/>
		</g>
		<path class="st0" d="M37.3,44.3c-0.3-1-1.5-1.6-2.5-1.2l-0.2,0.1c-1,0.3-1.6,1.4-1.2,2.5C34.9,43.5,37.3,44.3,37.3,44.3z"/>
		<path class="st0" d="M63.9,45.7c0.3-1,1.5-1.6,2.5-1.2l0.2,0.1c1,0.3,1.6,1.4,1.2,2.5C66.3,44.8,63.9,45.7,63.9,45.7z"/>
		<path class="st0" d="M61.9,58.3c-0.1-1.1,0.7-2.1,1.7-2.2l0.2,0c1.1-0.1,2.1,0.7,2.2,1.8C63.8,56.5,61.9,58.3,61.9,58.3z"/>
		<path class="st1" d="M30.3,57.8"/>
		<path class="st0" d="M36.1,52.2c0,0,0.3-1.3,1.5-1.3s1.5,1.3,1.5,1.3S37.7,51.2,36.1,52.2z"/>
		<path class="st0" d="M60.6,52.8c0,0,0.3-1.3,1.5-1.4s2,1.8,2,1.8S62.1,51.7,60.6,52.8z"/>
	</g>
	<text transform="matrix(1 0 0 1 36.7832 33.5563)" class="st2 st3 st4">V</text>
	<text transform="matrix(1 0 0 1 46.3672 33.5563)" class="st2 st3 st4">T</text>
	<text transform="matrix(1 0 0 1 54.6865 33.5563)" class="st2 st3 st4">L</text>
</g>
<g id="nyt_x5F_exporter_x5F_info" class="st5">
</g>
</svg>
