<?xml version="1.0" encoding="utf-8"?>
<!-- Generator: Adobe Illustrator 19.1.0, SVG Export Plug-In . SVG Version: 6.00 Build 0)  -->
<svg version="1.1" id="Layer_1" xmlns="http://www.w3.org/2000/svg" xmlns:xlink="http://www.w3.org/1999/xlink" x="0px" y="0px"
	 viewBox="0 0 100 100" style="enable-background:new 0 0 100 100;" xml:space="preserve">
<style type="text/css">
	.st0{enable-background:new    ;}
	.st1{clip-path:url(#SVGID_2_);enable-background:new    ;}
	.st2{fill:#8C3123;}
	.st3{fill:#E05243;}
	.st4{clip-path:url(#SVGID_4_);enable-background:new    ;}
</style>
<g>
	<g class="st0">
		<g class="st0">
			<defs>
				<path id="SVGID_1_" class="st0" d="M77,27.4V30c0,3.2-12.5,5.8-28,5.8c-15.4,0-28-2.6-28-5.8v-2.6c0,3.2,12.5,5.8,28,5.8
					C64.5,33.1,77,30.6,77,27.4z"/>
			</defs>
			<use xlink:href="#SVGID_1_"  style="overflow:visible;fill:#8C3123;"/>
			<clipPath id="SVGID_2_">
				<use xlink:href="#SVGID_1_"  style="overflow:visible;"/>
			</clipPath>
			<g class="st1">
				<path class="st2" d="M77,27.4V30c0,0.1,0,0.1,0,0.2v-2.6C77,27.5,77,27.4,77,27.4"/>
				<path class="st2" d="M77,27.6v2.6c0,0.1,0,0.2-0.1,0.2v-2.6C77,27.7,77,27.7,77,27.6"/>
				<path class="st2" d="M76.9,27.8v2.6c0,0.1-0.1,0.2-0.2,0.4v-2.6C76.8,28.1,76.9,27.9,76.9,27.8"/>
				<path class="st2" d="M76.7,28.2v2.6c-1.9,2.8-13.6,5-27.7,5c-15.4,0-28-2.6-28-5.8v-2.6c0,3.2,12.5,5.8,28,5.8
					C63.2,33.1,74.8,31,76.7,28.2"/>
			</g>
		</g>
		<g>
			<path class="st3" d="M49.1,21.6c15.4,0,28,2.6,28,5.8c0,3.2-12.5,5.8-28,5.8c-15.4,0-28-2.6-28-5.8
				C21.1,24.1,33.6,21.6,49.1,21.6z"/>
		</g>
		<g>
			<polygon class="st2" points="59.7,45.3 59.7,47.9 44.6,47.9 44.4,45.2 			"/>
		</g>
		<g>
			<polygon class="st2" points="45.5,45.3 44.6,47.9 34.4,41 33.9,37.9 			"/>
		</g>
		<g>
			<polygon class="st2" points="25.6,45.5 25,48.3 21.3,34.4 21.3,31.8 			"/>
		</g>
		<g>
			<rect x="25" y="45.7" class="st2" width="9.4" height="2.6"/>
		</g>
		<g>
			<polygon class="st2" points="76.9,31.8 76.9,34.4 72.9,49.5 72.5,46.5 			"/>
		</g>
		<g>
			<path class="st3" d="M76.9,31.8l-4,15.1L59.7,38v7.4H44.6l-10.3-6.9v7.4H25l-3.7-13.9c1.5,2.9,13.4,5.2,27.8,5.2
				C63.5,37,75.3,34.7,76.9,31.8z"/>
		</g>
		<g>
			<polygon class="st2" points="72.9,46.9 72.9,49.5 59.7,40.6 59.7,38 			"/>
		</g>
		<g>
			<polygon class="st2" points="58.1,55.6 58.1,58.2 50.7,52.7 50.7,50.1 			"/>
		</g>
		<g>
			<polygon class="st2" points="63.8,60.1 63.8,62.8 51.4,62.7 51.4,60.1 			"/>
		</g>
		<g>
			<polygon class="st2" points="51.4,55.7 51.4,58.3 44.9,62.9 44.9,60.3 			"/>
		</g>
		<g>
			<rect x="23.7" y="60.6" class="st2" width="13.1" height="2.6"/>
		</g>
		<g>
			<polygon class="st2" points="78.9,55.2 78.9,57.8 63.8,67.9 63.8,65.3 			"/>
		</g>
		<g>
			<polygon class="st3" points="63.8,45 78.9,55.2 63.8,65.3 63.8,60.1 51.4,60.1 58.1,55.6 50.7,50.1 63.8,50.2 			"/>
		</g>
		<g>
			<polygon class="st3" points="36.8,45.5 43.3,49.9 51.4,55.7 45,60.2 36.8,65.7 36.8,60.6 23.7,60.6 23.7,50.6 36.8,50.6 			"/>
		</g>
		<g>
			<polygon class="st2" points="45,60.2 45,62.8 36.8,68.3 36.8,65.7 			"/>
		</g>
		<g>
			<polygon class="st2" points="68.6,67.9 68.6,70.5 67.6,74.4 67.5,72.1 			"/>
		</g>
		<g>
			<polygon class="st2" points="31,72.2 30.4,74.6 28.7,68 28.7,65.4 			"/>
		</g>
		<g class="st0">
			<defs>
				<path id="SVGID_3_" class="st0" d="M67.6,71.7v2.6c0,2.1-8.3,4.1-18.6,4.1c-10.3,0-18.6-1.7-18.6-3.9V72c0,2.1,8.3,3.9,18.6,3.9
					C59.4,75.8,67.6,73.9,67.6,71.7z"/>
			</defs>
			<use xlink:href="#SVGID_3_"  style="overflow:visible;fill:#8C3123;"/>
			<clipPath id="SVGID_4_">
				<use xlink:href="#SVGID_3_"  style="overflow:visible;"/>
			</clipPath>
			<g class="st4">
				<path class="st2" d="M67.6,71.7v2.6c0,0,0,0.1,0,0.1v-2.6C67.6,71.8,67.6,71.8,67.6,71.7"/>
				<path class="st2" d="M67.6,71.9v2.6c0,0,0,0.1,0,0.1V72C67.6,71.9,67.6,71.9,67.6,71.9"/>
				<path class="st2" d="M67.6,72v2.6c0,0.1-0.1,0.1-0.1,0.2v-2.6C67.5,72.1,67.6,72.1,67.6,72"/>
				<path class="st2" d="M67.5,72.2v2.6c-1.4,2-8.8,3.6-18.4,3.6c-10.3,0-18.6-1.7-18.6-3.9l-0.1-3.6c0,2.1,8.5,4.9,18.8,4.9
					C58.7,75.8,66.1,74.2,67.5,72.2"/>
			</g>
		</g>
		<g>
			<path class="st3" d="M62.6,64.5v7.3l6-3.9l-0.9,3.8c0,2.1-8.3,4.1-18.6,4.1c-10.3,0-18.6-1.7-18.6-3.9l-1.7-6.6h5.7v7.3L45.9,65
				L62.6,64.5z"/>
		</g>
	</g>
</g>
</svg>
