<?xml version="1.0" encoding="utf-8"?>
<!-- Generator: Adobe Illustrator 19.1.0, SVG Export Plug-In . SVG Version: 6.00 Build 0)  -->
<svg version="1.1" id="Layer_1" xmlns="http://www.w3.org/2000/svg" xmlns:xlink="http://www.w3.org/1999/xlink" x="0px" y="0px"
	 viewBox="0 0 100 100" style="enable-background:new 0 0 100 100;" xml:space="preserve">
<style type="text/css">
	.st0{fill:none;}
	.st1{fill-rule:evenodd;clip-rule:evenodd;fill:#E05243;}
	.st2{fill:#E05243;}
	.st3{fill:#8C3123;}
	.st4{clip-path:url(#SVGID_2_);enable-background:new    ;}
	.st5{clip-path:url(#SVGID_4_);enable-background:new    ;}
</style>
<g>
	<path class="st0" d="M56.6,44.3c4-0.3,7.7-0.7,10.8-1.4C64,43.6,60.2,44,56.6,44.3z"/>
	<path class="st0" d="M67.9,39.9c-3,0.7-6.7,1.2-10.9,1.5C61.6,41,65.2,40.5,67.9,39.9z"/>
	<path class="st0" d="M49.9,41.6c-6.5,0-12.5-0.6-17.1-1.5C37.1,41,42.9,41.6,49.9,41.6z"/>
	<path class="st0" d="M50,44.5c-15.5-0.2-25.3-3-26.5-6l0,0.1C24.9,41.9,36.3,44.5,50,44.5z"/>
	<g>
		<g>
			<g>
				<polygon class="st1" points="64,24.1 64,24.3 36,24.3 36,24.1 35.5,24.1 35.5,28.9 64.5,28.9 64.5,24.1 				"/>
			</g>
		</g>
	</g>
	<polygon class="st2" points="61,17.5 39,17.5 36,20.5 64,20.5 	"/>
	<rect x="36" y="20.5" class="st3" width="28" height="1.9"/>
	<rect x="63.8" y="24.1" class="st3" width="0.7" height="4.8"/>
	<rect x="35.5" y="24.1" class="st3" width="0.7" height="4.8"/>
	<g>
		<g>
			<path class="st3" d="M23.7,41.4c-0.1-0.2-0.2-0.5-0.2-0.7L23.7,41.4z"/>
		</g>
		<g>
			<path class="st3" d="M76.4,41.4l0.2-0.7C76.5,40.9,76.5,41.1,76.4,41.4z"/>
		</g>
		<g>
			<polygon class="st3" points="76.5,38.4 76.5,40.7 76.4,41.4 76.4,39.1 			"/>
		</g>
		<g>
			<polygon class="st3" points="23.7,39.1 23.7,41.4 23.5,40.7 23.5,38.4 			"/>
		</g>
		<g>
			<defs>
				<path id="SVGID_1_" d="M76.5,34.1v2.3c0,3.4-11.9,6.2-26.5,6.2c-14.6,0-26.5-2.8-26.5-6.2v-2.3c0,3.5,11.9,6.2,26.5,6.2
					C64.7,40.3,76.5,37.6,76.5,34.1z"/>
			</defs>
			<use xlink:href="#SVGID_1_"  style="overflow:visible;fill:#8C3123;"/>
			<clipPath id="SVGID_2_">
				<use xlink:href="#SVGID_1_"  style="overflow:visible;"/>
			</clipPath>
			<g class="st4">
				<path class="st3" d="M76.5,34.1v2.3c0,0.1,0,0.2,0,0.2v-2.3C76.5,34.3,76.5,34.2,76.5,34.1"/>
				<path class="st3" d="M76.5,34.3v2.3c0,0.1,0,0.2-0.1,0.3v-2.3C76.5,34.5,76.5,34.4,76.5,34.3"/>
				<path class="st3" d="M76.4,34.6v2.3c0,0.1-0.1,0.3-0.2,0.4V35C76.3,34.9,76.4,34.8,76.4,34.6"/>
				<path class="st3" d="M76.2,35v2.3c-1.9,3-12.9,5.3-26.2,5.3c-14.6,0-26.5-2.8-26.5-6.2v-2.3c0,3.5,11.9,6.2,26.5,6.2
					C63.3,40.3,74.4,38,76.2,35"/>
			</g>
		</g>
		<g>
			<path class="st2" d="M50,27.9c14.6,0,26.5,2.8,26.5,6.2c0,3.5-11.9,6.2-26.5,6.2c-14.6,0-26.5-2.8-26.5-6.2
				C23.5,30.7,35.4,27.9,50,27.9z"/>
		</g>
		<g>
			<polygon class="st3" points="76.4,39.1 76.4,41.4 67.7,78.4 67.7,76.1 			"/>
		</g>
		<g>
			<polygon class="st3" points="32.4,76.1 32.4,78.4 23.7,41.4 23.7,39.1 			"/>
		</g>
		<g>
			<defs>
				<path id="SVGID_3_" d="M67.7,76.1v2.2c0,2.3-7.9,4.2-17.7,4.2c-9.8,0-17.7-1.9-17.7-4.2v-2.2c0,2.3,7.9,4.1,17.7,4.1
					C59.8,80.2,67.7,78.4,67.7,76.1z"/>
			</defs>
			<use xlink:href="#SVGID_3_"  style="overflow:visible;fill:#8C3123;"/>
			<clipPath id="SVGID_4_">
				<use xlink:href="#SVGID_3_"  style="overflow:visible;"/>
			</clipPath>
			<g class="st5">
				<path class="st3" d="M67.7,76.1v2.2c0,0.1,0,0.1,0,0.2v-2.3C67.7,76.2,67.7,76.2,67.7,76.1"/>
				<path class="st3" d="M67.7,76.3v2.3c0,0.1,0,0.1,0,0.2v-2.3C67.7,76.4,67.7,76.3,67.7,76.3"/>
				<path class="st3" d="M67.6,76.5v2.3c0,0.1-0.1,0.2-0.1,0.3v-2.3C67.6,76.6,67.6,76.5,67.6,76.5"/>
				<path class="st3" d="M67.5,76.7V79c-1.3,2-8.6,3.5-17.5,3.5c-9.8,0-17.7-1.9-17.7-4.2v-2.2c0,2.3,7.9,4.1,17.7,4.1
					C58.9,80.2,66.3,78.7,67.5,76.7"/>
			</g>
		</g>
		<g>
			<path class="st2" d="M50,44.6c13.6,0,24.9-2.4,26.3-5.5l-8.7,37c0,2.3-7.9,4.1-17.7,4.1c-9.8,0-17.7-1.8-17.7-4.1l-8.7-37
				C25.2,42.2,36.4,44.6,50,44.6z"/>
		</g>
	</g>
</g>
</svg>
