<?xml version="1.0" encoding="utf-8"?>
<!-- Generator: Adobe Illustrator 16.0.0, SVG Export Plug-In . SVG Version: 6.00 Build 0)  -->
<svg version="1.2" baseProfile="tiny" xmlns="http://www.w3.org/2000/svg" xmlns:xlink="http://www.w3.org/1999/xlink" x="0px"
	 y="0px" width="98.5px" height="98.5px" viewBox="0 0 98.5 98.5" xml:space="preserve">
<g id="Layer_1">
	<g>
		<g>
			<rect x="41.147" y="69.98" fill="#8C3123" width="15.477" height="3.18"/>
		</g>
		<g>
			<polygon fill="#E05243" points="75.353,17 75.353,80.083 56.624,80.083 56.624,69.98 41.147,69.98 41.147,79.82 22.419,79.82 
				22.419,17 			"/>
		</g>
		<g>
			<rect x="56.624" y="79.82" fill="#8C3123" width="18.729" height="3.18"/>
		</g>
		<g>
			<rect x="22.419" y="79.82" fill="#8C3123" width="18.729" height="3.18"/>
		</g>
	</g>
	<g>
		<path fill="#FFFFFF" d="M36.413,32.467v0.232c0,2.002-0.812,3.957-3.439,3.957c-2.812,0-3.688-1.799-3.688-5.758
			c0-3.957,0.875-5.758,3.705-5.758c3.172,0,3.357,2.328,3.357,3.477v0.201h-1.779v-0.186c0-1.023-0.314-2.203-1.596-2.156
			c-1.311,0-1.904,0.807-1.904,4.375c0,3.57,0.594,4.471,1.904,4.471c1.486,0,1.66-1.646,1.66-2.67v-0.186H36.413z"/>
		<path fill="#FFFFFF" d="M39.771,25.359h2.281l2.936,11.08H43.13l-0.689-2.717h-3.264l-0.721,2.717h-1.857L39.771,25.359z
			 M42.144,32.311l-1.281-5.461h-0.031l-1.328,5.461H42.144z"/>
		<path fill="#FFFFFF" d="M52.626,32.467v0.232c0,2.002-0.812,3.957-3.438,3.957c-2.812,0-3.688-1.799-3.688-5.758
			c0-3.957,0.875-5.758,3.705-5.758c3.172,0,3.359,2.328,3.359,3.477v0.201H50.78v-0.186c0-1.023-0.311-2.203-1.592-2.156
			c-1.314,0-1.906,0.807-1.906,4.375c0,3.57,0.592,4.471,1.906,4.471c1.486,0,1.656-1.646,1.656-2.67v-0.186H52.626z"/>
		<path fill="#FFFFFF" d="M53.872,25.359h1.783v4.438h3.281v-4.438h1.779v11.08h-1.779v-5.152h-3.281v5.152h-1.783V25.359z"/>
		<path fill="#FFFFFF" d="M62.558,25.359h6.033v1.49h-4.25v3.072h3.998v1.49h-3.998v3.537h4.373v1.49h-6.156V25.359z"/>
	</g>
</g>
<g id="nyt_x5F_exporter_x5F_info" display="none">
</g>
</svg>
