<?xml version="1.0" encoding="utf-8"?>
<!-- Generator: Adobe Illustrator 19.0.0, SVG Export Plug-In . SVG Version: 6.00 Build 0)  -->
<svg version="1.2" baseProfile="tiny" id="Layer_1" xmlns="http://www.w3.org/2000/svg" xmlns:xlink="http://www.w3.org/1999/xlink"
	 x="0px" y="0px" viewBox="0 0 100 100" xml:space="preserve">
<polygon fill="#E05243" points="79.727,56.819 71.382,58.06 71.382,75.735 79.727,71.574 "/>
<polygon fill="#E05243" points="44.397,40.695 33.876,39.36 33.876,53.207 44.397,52.884 "/>
<polygon fill="#8C3123" points="27.13,40.641 33.876,39.292 33.876,53.207 27.13,52.883 "/>
<polygon fill="#8C3123" points="55.14,40.695 65.661,39.36 65.661,53.207 55.14,52.884 "/>
<polygon fill="#E05243" points="60.511,38.262 49.769,36.114 49.769,53.97 60.511,53.454 "/>
<polygon fill="#E05243" points="72.407,40.641 65.661,39.292 65.661,53.207 72.407,52.883 "/>
<polygon fill="#E05243" points="58.689,18.974 49.769,14.514 49.769,28.914 58.689,31.59 "/>
<polygon fill="#8C3123" points="39.026,38.262 49.769,36.114 49.769,53.97 39.026,53.454 "/>
<polygon fill="#8C3123" points="40.848,18.974 49.769,14.514 49.769,28.914 40.848,31.59 "/>
<polygon fill="#5E1F18" points="58.689,31.59 49.769,33.676 40.848,31.59 49.769,28.914 "/>
<polygon fill="#F2B0A9" points="56.394,56.858 71.382,58.06 79.727,56.819 65.73,55.958 "/>
<polygon fill="#8C3123" points="56.394,56.858 71.382,58.06 71.382,75.735 56.394,71.704 "/>
<polygon fill="#E05243" points="65.661,58.91 49.769,61.274 49.769,86.514 65.661,78.588 "/>
<polygon fill="#8C3123" points="19.914,56.819 28.259,58.06 28.259,75.735 19.914,71.574 "/>
<polygon fill="#F2B0A9" points="43.247,56.858 28.259,58.06 19.914,56.819 33.911,55.958 "/>
<polygon fill="#E05243" points="43.247,56.858 28.259,58.06 28.259,75.735 43.247,71.704 "/>
<polygon fill="#8C3123" points="33.98,58.91 49.872,61.274 49.872,86.514 33.98,78.588 "/>
<polygon fill="#F2B0A9" points="65.661,58.91 49.819,57.404 33.98,58.91 49.823,61.266 "/>
</svg>
