<?xml version="1.0" encoding="utf-8"?>
<!-- Generator: Adobe Illustrator 18.1.1, SVG Export Plug-In . SVG Version: 6.00 Build 0)  -->
<svg version="1.2" baseProfile="tiny" id="Layer_1" xmlns="http://www.w3.org/2000/svg" xmlns:xlink="http://www.w3.org/1999/xlink"
	 x="0px" y="0px" viewBox="0 0 100 100" xml:space="preserve">
<g>
	<polygon fill="#9D5025" points="61.867,58.516 69.2,59.213 69.2,46.133 61.867,46.479 	"/>
	<polygon fill="#6B3A19" points="79.113,40.036 49.25,43.091 19.387,40.036 49.25,31.219 	"/>
	<polygon fill="#9D5025" points="64.181,61.051 74.218,62.271 74.218,74.03 64.181,71.593 	"/>
	<polygon fill="#9D5025" points="53.431,62.923 64.181,64.679 64.181,79.048 53.431,75.517 	"/>
	<polygon fill="#F58536" points="79.113,40.036 49.25,32.593 49.25,14.514 79.113,29.445 	"/>
	<polygon fill="#F58536" points="60.113,65.72 49.25,68.426 49.25,86.514 60.113,81.082 	"/>
	<polygon fill="#F58536" points="74.218,62.212 79.113,60.992 79.113,71.582 74.218,74.03 	"/>
	<polygon fill="#F58536" points="71.228,62.957 64.181,64.713 64.181,79.048 71.228,75.525 	"/>
	<polygon fill="#FBBF93" points="64.181,61.051 74.057,62.252 79.113,60.992 69.73,60.023 	"/>
	<polygon fill="#FBBF93" points="53.431,62.923 64.265,64.692 71.228,62.957 60.797,61.572 	"/>
	<polygon fill="#F58536" points="34.318,61.051 24.282,62.271 24.282,74.03 34.318,71.593 	"/>
	<polygon fill="#F58536" points="45.068,62.923 34.318,64.679 34.318,79.048 45.068,75.517 	"/>
	<polygon fill="#9D5025" points="19.387,40.036 49.25,32.593 49.25,14.514 19.387,29.445 	"/>
	<polygon fill="#9D5025" points="38.387,65.72 49.25,68.426 49.25,86.514 38.387,81.082 	"/>
	<polygon fill="#9D5025" points="24.282,62.212 19.387,60.992 19.387,71.582 24.282,74.03 	"/>
	<polygon fill="#9D5025" points="27.272,62.957 34.318,64.713 34.318,79.048 27.272,75.525 	"/>
	<polygon fill="#FBBF93" points="34.318,61.051 24.442,62.252 19.387,60.992 28.769,60.023 	"/>
	<polygon fill="#FBBF93" points="45.068,62.923 34.234,64.692 27.272,62.957 37.703,61.572 	"/>
	<polygon fill="#FBBF93" points="60.113,65.72 49.25,63.722 38.387,65.72 49.25,68.426 	"/>
	<polygon fill="#F58536" points="64.181,45.731 49.25,44.495 49.25,62.574 64.181,60.066 	"/>
	<polygon fill="#F58536" points="79.113,46.957 69.2,46.133 69.2,59.223 79.113,57.558 	"/>
	<polygon fill="#F58536" points="36.633,58.516 29.3,59.213 29.3,46.133 36.633,46.479 	"/>
	<polygon fill="#9D5025" points="34.318,45.731 49.25,44.495 49.25,62.574 34.318,60.066 	"/>
	<polygon fill="#9D5025" points="19.387,46.957 29.3,46.133 29.3,59.223 19.387,57.558 	"/>
</g>
</svg>
