<?xml version="1.0" encoding="utf-8"?>
<!-- Generator: Adobe Illustrator 19.1.0, SVG Export Plug-In . SVG Version: 6.00 Build 0)  -->
<svg version="1.1" id="Layer_1" xmlns="http://www.w3.org/2000/svg" xmlns:xlink="http://www.w3.org/1999/xlink" x="0px" y="0px"
	 viewBox="0 0 100 100" style="enable-background:new 0 0 100 100;" xml:space="preserve">
<style type="text/css">
	.st0{fill:#F58435;}
	.st1{clip-path:url(#SVGID_2_);enable-background:new    ;}
	.st2{fill:#9D5025;}
	.st3{clip-path:url(#SVGID_4_);enable-background:new    ;}
	.st4{fill:#FFFFFF;}
	.st5{font-family:'HelveticaNeueLTStd-Md';}
	.st6{font-size:52.3034px;}
</style>
<g>
	<g>
		<path class="st0" d="M67.4,21.7c5,0,9.1,4,9.1,9v35.5c0,5-4,9-9.1,9H32.7c-5,0-9.1-4-9.1-9V30.7c0-5,4.1-9,9.1-9H67.4z"/>
	</g>
	<g>
		<defs>
			<path id="SVGID_1_" d="M76.4,66.2v3.1c0,5-4,9-9.1,9v-3.1C72.4,75.2,76.4,71.1,76.4,66.2z"/>
		</defs>
		<use xlink:href="#SVGID_1_"  style="overflow:visible;fill:#9D5025;"/>
		<clipPath id="SVGID_2_">
			<use xlink:href="#SVGID_1_"  style="overflow:visible;"/>
		</clipPath>
		<g class="st1">
			<path class="st2" d="M76.4,66.2v3.1c0,0.4,0,0.9-0.1,1.3v-3.1C76.4,67,76.4,66.6,76.4,66.2"/>
			<path class="st2" d="M76.3,67.5v3.1c-0.1,0.5-0.2,1-0.3,1.5v-3.1C76.1,68.4,76.3,68,76.3,67.5"/>
			<path class="st2" d="M76,68.9v3.1c-0.2,0.6-0.4,1.1-0.7,1.6v-3.1C75.6,70,75.8,69.5,76,68.9"/>
			<path class="st2" d="M75.3,70.5v3.1c-1.5,2.8-4.5,4.7-7.9,4.7v-3.1C70.8,75.2,73.8,73.3,75.3,70.5"/>
		</g>
	</g>
	<g>
		<rect x="32.3" y="75.2" class="st2" width="35.1" height="3.1"/>
	</g>
	<g>
		<defs>
			<path id="SVGID_3_" d="M32.7,75.2v3.1c-5,0-9.1-4-9.1-9v-3.1C23.6,71.1,27.6,75.2,32.7,75.2z"/>
		</defs>
		<use xlink:href="#SVGID_3_"  style="overflow:visible;fill:#9D5025;"/>
		<clipPath id="SVGID_4_">
			<use xlink:href="#SVGID_3_"  style="overflow:visible;"/>
		</clipPath>
		<g class="st3">
			<path class="st2" d="M33,75.2v3.1c-5,0-9.5-4-9.5-9v-3.1c0,5,4.1,9,9.1,9"/>
		</g>
	</g>
</g>
<text transform="matrix(1 0 0 1 35.46 62.6055)" class="st4 st5 st6">¢</text>
</svg>
