<?xml version="1.0" encoding="utf-8"?>
<!-- Generator: Adobe Illustrator 19.1.0, SVG Export Plug-In . SVG Version: 6.00 Build 0)  -->
<svg version="1.1" id="Layer_1" xmlns="http://www.w3.org/2000/svg" xmlns:xlink="http://www.w3.org/1999/xlink" x="0px" y="0px"
	 viewBox="0 0 100 100" style="enable-background:new 0 0 100 100;" xml:space="preserve">
<style type="text/css">
	.st0{fill:#1A476F;}
	.st1{clip-path:url(#SVGID_2_);enable-background:new    ;}
	.st2{fill:#2D72B8;}
	.st3{clip-path:url(#SVGID_4_);enable-background:new    ;}
	.st4{clip-path:url(#SVGID_6_);enable-background:new    ;}
	.st5{clip-path:url(#SVGID_8_);enable-background:new    ;}
	.st6{fill:#FFFFFF;}
	.st7{display:none;}
</style>
<g id="Layer_1_1_">
	<g>
		<g>
			<g>
				<path id="SVGID_33_" class="st0" d="M76,46.8c-3.7-1.2-7.8-1.4-11.3-1.4c-5.1,0-11.5,1.2-12.7,2.9v-2.4
					c0.5-2.1,6.4-3.9,11.7-3.9c1.8,0,9.8,0.8,12.4,2.1"/>
			</g>
			<g>
				<defs>
					<path id="SVGID_1_" d="M76,46.8c-3.7-1.2-7.8-1.4-11.3-1.4c-5.1,0-11.5,1.2-12.7,2.9v-2.4c0.5-2.1,6.4-3.9,11.7-3.9
						c1.8,0,9.8,0.8,12.4,2.1"/>
				</defs>
				<clipPath id="SVGID_2_">
					<use xlink:href="#SVGID_1_"  style="overflow:visible;"/>
				</clipPath>
				<g class="st1">
					<path class="st0" d="M52.2,45.5v2.6c-0.1,0.1-0.1,0.2-0.1,0.3v-2.6C52.2,45.7,52.2,45.6,52.2,45.5"/>
					<path class="st0" d="M52.1,45.8v2.6v0.1V45.8C52.1,45.9,52.1,45.8,52.1,45.8"/>
				</g>
			</g>
		</g>
		<g>
			<path class="st2" d="M65.5,48.8c2.2,0,4,0.2,5.6,0.4c3.3,0.5,5,1.5,5,2.1s-1.7,1.5-5,2c-1.5,0.3-3.4,0.4-5.6,0.4
				c-6.9,0-10.6-1.6-10.6-2.5C54.9,50.4,58.7,48.8,65.5,48.8z"/>
		</g>
		<g>
			<g>
				<path id="SVGID_35_" class="st0" d="M76.2,50.3V53c0,0.6-1.7,1.5-5,2c-1.5,0.3-3.4,0.4-5.6,0.4c-6.9,0-10.6-1.6-10.6-2.5v-2.8
					c0,0.8,3.7,2.5,10.6,2.5c2.2,0,4-0.2,5.6-0.4C74.4,51.8,76.2,50.8,76.2,50.3z"/>
			</g>
			<g>
				<defs>
					<path id="SVGID_3_" d="M76.2,50.3V53c0,0.6-1.7,1.5-5,2c-1.5,0.3-3.4,0.4-5.6,0.4c-6.9,0-10.6-1.6-10.6-2.5v-2.8
						c0,0.8,3.7,2.5,10.6,2.5c2.2,0,4-0.2,5.6-0.4C74.4,51.8,76.2,50.8,76.2,50.3z"/>
				</defs>
				<clipPath id="SVGID_4_">
					<use xlink:href="#SVGID_3_"  style="overflow:visible;"/>
				</clipPath>
				<g class="st3">
					<path class="st0" d="M76.2,50.3V53l0,0V50.3L76.2,50.3"/>
					<path class="st0" d="M76.2,50.3v2.8c0,0,0,0,0,0.1V50.3C76.1,50.3,76.2,50.3,76.2,50.3"/>
					<path class="st0" d="M76.1,50.4v2.8v0.1V50.4L76.1,50.4"/>
					<path class="st0" d="M76.1,50.4v2.8c-0.3,0.6-2,1.4-5,1.9c-1.5,0.3-3.4,0.4-5.6,0.4c-6.9,0-10.6-1.6-10.6-2.5v-2.8
						c0,0.8,3.7,2.5,10.6,2.5c2.2,0,4-0.2,5.6-0.4C74.1,51.8,75.8,51,76.1,50.4"/>
				</g>
			</g>
		</g>
		<g>
			<g>
				<path id="SVGID_37_" class="st0" d="M57.3,72.4v3.9c-1.7-0.6-2.2-0.9-2.4-1.3v-4.5C55,71,56,71.8,57.3,72.4z"/>
			</g>
		</g>
		<g>
			<g>
				<path id="SVGID_39_" class="st0" d="M76.3,72.1v2.8c0,0.9-3,2.5-10.1,2.5c-3.9,0-6.8-0.5-9-1.1v-2.8c2.1,0.7,5.1,1.1,9,1.1
					C73.4,74.6,76.3,73,76.3,72.1z"/>
			</g>
			<g>
				<defs>
					<path id="SVGID_5_" d="M76.3,72.1v2.8c0,0.9-3,2.5-10.1,2.5c-3.9,0-6.8-0.5-9-1.1v-2.8c2.1,0.7,5.1,1.1,9,1.1
						C73.4,74.6,76.3,73,76.3,72.1z"/>
				</defs>
				<clipPath id="SVGID_6_">
					<use xlink:href="#SVGID_5_"  style="overflow:visible;"/>
				</clipPath>
				<g class="st4">
					<path class="st0" d="M76.3,72.1v2.8c0,0,0,0,0,0.1V72.1C76.3,72.2,76.3,72.2,76.3,72.1"/>
					<path class="st0" d="M76.3,72.2V75c0,0,0,0,0,0.1V72.2L76.3,72.2"/>
					<path class="st0" d="M76.3,72.3v2.8c0,0,0,0.1-0.1,0.1L76.3,72.3C76.3,72.3,76.3,72.3,76.3,72.3"/>
					<path class="st0" d="M76.3,72.4v2.8c-0.5,0.9-3.5,2.2-10,2.2c-3.9,0-7.1-0.5-9-1.1v-2.8c1.9,0.6,5.1,1.1,9,1.1
						C72.7,74.6,75.8,73.2,76.3,72.4"/>
				</g>
			</g>
		</g>
		<g>
			<g>
				<path id="SVGID_41_" class="st0" d="M27.8,73.4V76c-2.2,0-4-1.8-4-4v-2.6C23.8,71.6,25.6,73.4,27.8,73.4z"/>
			</g>
			<g>
				<defs>
					<path id="SVGID_7_" d="M27.8,73.4V76c-2.2,0-4-1.8-4-4v-2.6C23.8,71.6,25.6,73.4,27.8,73.4z"/>
				</defs>
				<clipPath id="SVGID_8_">
					<use xlink:href="#SVGID_7_"  style="overflow:visible;"/>
				</clipPath>
				<g class="st5">
					<path class="st0" d="M27.8,73.4V76c-2.2,0-4-1.8-4-4v-2.6C23.8,71.6,25.6,73.4,27.8,73.4"/>
				</g>
			</g>
		</g>
		<g>
			<polygon class="st0" points="53.6,73.4 53.6,76 27.8,76 27.8,73.4 			"/>
		</g>
		<g>
			<path class="st2" d="M76.1,45.5c-3.8-1.3-10-1.4-11.8-1.3c-5.2,0.1-11.1,1.3-12.1,2.8v0.3v0.9V73c0,0.5,1,1,1.4,1.4H27.8
				c-2.2,0-4-1.8-4-4V25.6c0-2.2,1.8-4,4-4h44.5c2.2,0,4,1.8,4,4"/>
		</g>
		<g>
			<path class="st2" d="M76.3,56.1v17c0,0.9-3,2.5-10.1,2.5c-3.9,0-6.8-0.5-8.8-1c-1.4-0.5-2.4-1-2.5-1.4v-17c2.1,1.3,6.4,2,10.6,2
				h0.3c0.4,0,0.9,0,1.3,0h0.2c0.4,0,0.7,0,1.1-0.1c0.2,0,0.4,0,0.5,0c0.3,0,0.6,0,0.8-0.1c0.2,0,0.3,0,0.5-0.1
				c0.3,0,0.6-0.1,0.9-0.1C73.4,57.4,75.2,56.8,76.3,56.1z"/>
		</g>
		<polygon class="st6" points="65.7,69.7 65.6,69.7 63.4,60.3 60.2,60.3 60.2,73.1 62.1,73.1 62.1,62.4 62.1,62.4 64.7,73.1 
			66.5,73.1 69,62.4 69.1,62.4 69.1,73.1 71,73.1 71,60.3 67.9,60.3 		"/>
		<g>
			<path class="st6" d="M30.4,26.4h2.9l1.4,6.7l0,0l1.4-6.7H39V36h-1.8v-7.6l0,0L35.4,36h-1.5l-1.7-7.6l0,0V36h-1.8
				C30.4,36,30.4,26.4,30.4,26.4z"/>
			<path class="st6" d="M41.8,33v0.3c0,0.9,0.3,1.5,1.3,1.5c0.6,0,1.2-0.4,1.2-1.2c0-0.9-0.4-1.2-1.7-1.6c-1.7-0.6-2.5-1.3-2.5-2.9
				c0-1.9,1.1-2.8,3-2.8c1.7,0,3,0.7,3,2.6v0.3h-1.8c0-0.9-0.3-1.4-1-1.4c-0.9,0-1.1,0.5-1.1,1.1s0.2,1,1,1.3l1.5,0.6
				c1.4,0.6,1.8,1.4,1.8,2.5c0,2-1.2,2.9-3.3,2.9c-2.2,0-3-1-3-2.8V33H41.8z"/>
			<path class="st6" d="M52,33v0.3c0,0.9,0.3,1.5,1.3,1.5c0.6,0,1.2-0.4,1.2-1.2c0-0.9-0.4-1.2-1.7-1.6c-1.7-0.6-2.5-1.3-2.5-2.9
				c0-1.9,1.1-2.8,3-2.8c1.7,0,3,0.7,3,2.6v0.3h-1.8c0-0.9-0.3-1.4-1-1.4c-0.9,0-1.1,0.5-1.1,1.1s0.2,1,1,1.3l1.5,0.6
				c1.4,0.6,1.8,1.4,1.8,2.5c0,2-1.2,2.9-3.3,2.9c-2.2,0-3-1-3-2.8V33H52z"/>
			<path class="st6" d="M62.8,37.2L61.7,36c-0.2,0.1-0.4,0.1-0.6,0.1c-0.2,0-0.4,0-0.7,0c-2.9,0-3.3-2.1-3.3-5s0.4-5,3.3-5
				c2.9,0,3.3,2.1,3.3,5c0,1.6-0.1,3-0.7,3.9l1,1L62.8,37.2z M60.4,34.8c1.1,0,1.3-1,1.3-3.5c0-2.6-0.2-3.5-1.3-3.5s-1.3,1-1.3,3.5
				C59.1,33.8,59.3,34.8,60.4,34.8z"/>
			<path class="st6" d="M64.8,36v-9.6h1.9v8h3.4V36H64.8z"/>
		</g>
	</g>
</g>
<g id="nyt_x5F_exporter_x5F_info" class="st7">
</g>
</svg>
