<?xml version="1.0" encoding="utf-8"?>
<!-- Generator: Adobe Illustrator 19.1.0, SVG Export Plug-In . SVG Version: 6.00 Build 0)  -->
<svg version="1.1" id="Layer_1" xmlns="http://www.w3.org/2000/svg" xmlns:xlink="http://www.w3.org/1999/xlink" x="0px" y="0px"
	 viewBox="-309 153 100 100" style="enable-background:new -309 153 100 100;" xml:space="preserve">
<style type="text/css">
	.st0{fill:#17476F;}
	.st1{fill:#5193CE;}
	.st2{fill:#FFFFFF;}
	.st3{fill:none;stroke:#5193CE;stroke-width:3;stroke-linecap:round;stroke-miterlimit:10;}
</style>
<path class="st0" d="M-35.6,2120.2h53.1v3c0,2.6-2.1,4.7-4.8,4.7h-43.6c-0.3,0-0.6,0-0.9-0.1c-0.1,0-0.1,0-0.2,0
	c-0.2-0.1-0.5-0.1-0.7-0.2h-0.1c-0.3-0.1-0.5-0.2-0.7-0.4c-0.1,0-0.1-0.1-0.2-0.1c-0.2-0.1-0.4-0.3-0.5-0.4l-0.1-0.1
	c-0.2-0.2-0.4-0.4-0.5-0.6c0-0.1-0.1-0.1-0.1-0.2c-0.1-0.1-0.1-0.2-0.2-0.3c0-0.1-0.1-0.1-0.1-0.2c-0.1-0.1-0.1-0.3-0.2-0.4
	c0-0.1-0.1-0.1-0.1-0.2c0-0.1,0-0.2-0.1-0.3c0-0.1-0.1-0.2-0.1-0.3s0-0.1,0-0.2l0,0c0-0.2,0-0.4,0-0.7v-3H-35.6z"/>
<path class="st1" d="M-30.8,2071.1c-2.6,0-4.8,2.1-4.8,4.7v44.3c0,2.6,2.1,4.7,4.8,4.7h43.6c2.6,0,4.8-2.1,4.8-4.7v-44.3
	c0-2.6-2.1-4.7-4.8-4.7H-30.8z"/>
<path class="st2" d="M8.2,2112h-34.8c-1.4,0-2.5-1.1-2.5-2.5v-19.3c0-1.4,1.1-2.5,2.5-2.5H8.2c1.4,0,2.5,1.1,2.5,2.5v19.3
	C10.7,2110.9,9.6,2112,8.2,2112z"/>
<circle class="st3" cx="-6" cy="2099.9" r="8.5"/>
<circle class="st1" cx="-6" cy="2099.9" r="5.3"/>
<rect x="-25.9" y="2091" class="st1" width="6.4" height="3"/>
<polygon class="st2" points="2.5,2086.7 -14.5,2086.7 -12.2,2082 0.2,2082 "/>
<rect x="1" y="2062.4" class="st1" width="4" height="8.7"/>
<rect x="-23" y="2062.4" class="st1" width="4" height="8.7"/>
<rect x="-5" y="2062.4" class="st1" width="4" height="8.7"/>
<rect x="-17" y="2062.4" class="st1" width="4" height="8.7"/>
<rect x="-11" y="2062.4" class="st1" width="4" height="8.7"/>
<rect x="-44.6" y="2108" class="st1" width="9" height="4"/>
<rect x="-44.6" y="2090" class="st1" width="9" height="4"/>
<rect x="-44.6" y="2102" class="st1" width="9" height="4"/>
<rect x="-44.6" y="2096" class="st1" width="9" height="4"/>
<rect x="-44.6" y="2084" class="st1" width="9" height="4"/>
<rect x="-23" y="2124.9" class="st1" width="4" height="8.7"/>
<rect x="1" y="2124.9" class="st1" width="4" height="8.7"/>
<rect x="-17" y="2124.9" class="st1" width="4" height="8.7"/>
<rect x="-5" y="2124.9" class="st1" width="4" height="8.7"/>
<rect x="-11" y="2124.9" class="st1" width="4" height="8.7"/>
<rect x="17.6" y="2102" class="st1" width="9" height="4"/>
<rect x="17.6" y="2084" class="st1" width="9" height="4"/>
<rect x="17.6" y="2096" class="st1" width="9" height="4"/>
<rect x="17.6" y="2090" class="st1" width="9" height="4"/>
<rect x="17.6" y="2108" class="st1" width="9" height="4"/>
</svg>
