<?xml version="1.0" encoding="utf-8"?>
<!-- Generator: Adobe Illustrator 19.1.0, SVG Export Plug-In . SVG Version: 6.00 Build 0)  -->
<svg version="1.1" id="Layer_1" xmlns="http://www.w3.org/2000/svg" xmlns:xlink="http://www.w3.org/1999/xlink" x="0px" y="0px"
	 viewBox="499 2323 100 100" style="enable-background:new 499 2323 100 100;" xml:space="preserve">
<style type="text/css">
	.st0{fill:#19486F;}
	.st1{fill:#1F5B98;}
	.st2{fill:#99BBE1;}
	.st3{fill:#5193CE;}
	.st4{fill:#17476F;}
	.st5{fill:#FFFFFF;}
	.st6{fill:none;stroke:#5193CE;stroke-width:3;stroke-linecap:round;stroke-linejoin:round;stroke-miterlimit:10;}
	.st7{fill:none;stroke:#FFFFFF;stroke-width:3;stroke-linecap:round;stroke-linejoin:round;stroke-miterlimit:10;}
	.st8{fill:none;stroke:#FFFFFF;stroke-width:3;stroke-miterlimit:10;}
	.st9{fill:#5193CE;stroke:#FFFFFF;stroke-width:3;stroke-miterlimit:10;}
	.st10{fill:none;stroke:#FFFFFF;stroke-width:3;stroke-linecap:round;stroke-miterlimit:10;}
	.st11{fill:#5193CE;stroke:#FFFFFF;stroke-width:3;stroke-linecap:round;stroke-linejoin:round;stroke-miterlimit:10;}
	.st12{fill:#FFFFFF;stroke:#5193CE;stroke-width:2;stroke-miterlimit:10;}
	.st13{fill:none;stroke:#5193CE;stroke-linecap:round;stroke-linejoin:round;stroke-miterlimit:10;}
	.st14{fill:none;stroke:#5193CE;stroke-width:3;stroke-linecap:round;stroke-miterlimit:10;}
	.st15{fill:none;stroke:#5193CE;stroke-linecap:round;stroke-miterlimit:10;}
	.st16{fill:none;stroke:#5193CE;stroke-width:3;stroke-miterlimit:10;}
	.st17{fill:none;}
	.st18{fill:none;stroke:#5193CE;stroke-width:4;stroke-linecap:round;stroke-linejoin:round;stroke-miterlimit:10;}
</style>
<rect x="511.5" y="2377.5" class="st4" width="75" height="22.2"/>
<rect x="511.5" y="2346.6" class="st3" width="75" height="49.9"/>
<polyline class="st7" points="586.5,2383.8 573.9,2383.8 573.9,2374.8 "/>
<polyline class="st7" points="586.5,2391.5 563.2,2391.5 563.2,2374.8 "/>
<circle class="st5" cx="573.9" cy="2374.8" r="3.7"/>
<circle class="st5" cx="563.2" cy="2374.8" r="3.7"/>
<circle class="st5" cx="552.9" cy="2385.1" r="3.7"/>
<circle class="st5" cx="545.5" cy="2359.2" r="3.7"/>
<circle class="st5" cx="550.8" cy="2370.8" r="3.7"/>
<circle class="st5" cx="527.9" cy="2359.2" r="3.7"/>
<circle class="st5" cx="517.9" cy="2385.2" r="3.7"/>
<path class="st5" d="M581.8,2368.8H566c-0.9,0-1.6-0.7-1.6-1.6v-15.8c0-0.9,0.7-1.6,1.6-1.6h15.8c0.9,0,1.6,0.7,1.6,1.6v15.8
	C583.4,2368,582.7,2368.8,581.8,2368.8z"/>
<polyline class="st7" points="552.9,2385.1 537.6,2369.8 537.6,2346.6 "/>
<circle class="st5" cx="527.7" cy="2370.8" r="3.7"/>
<circle class="st5" cx="529.9" cy="2385.2" r="3.7"/>
<polyline class="st8" points="527.9,2371 541.9,2385.1 541.9,2396.5 "/>
<line class="st7" x1="573.9" y1="2359.2" x2="545.2" y2="2359.2"/>
<line class="st7" x1="556.5" y1="2359.2" x2="556.5" y2="2345.4"/>
<polyline class="st7" points="529.8,2385.2 517.9,2373.2 517.9,2346.3 "/>
<line class="st7" x1="517.9" y1="2359.2" x2="529.9" y2="2359.2"/>
<line class="st8" x1="517.9" y1="2385.2" x2="517.9" y2="2396.5"/>
<line class="st8" x1="544.7" y1="2376.9" x2="552.3" y2="2369.3"/>
<path class="st18" d="M542.2,2340.9c3.8-3.8,9.9-3.8,13.7,0"/>
<path class="st18" d="M536.7,2335.5c6.8-6.8,17.8-6.8,24.5,0"/>
<path class="st18" d="M555.8,2405.1c-3.8,3.8-9.9,3.8-13.7,0"/>
<path class="st18" d="M561.3,2410.5c-6.8,6.8-17.8,6.8-24.5,0"/>
</svg>
