<?xml version="1.0" encoding="utf-8"?>
<!-- Generator: Adobe Illustrator 19.1.0, SVG Export Plug-In . SVG Version: 6.00 Build 0)  -->
<svg version="1.1" id="Layer_1" xmlns="http://www.w3.org/2000/svg" xmlns:xlink="http://www.w3.org/1999/xlink" x="0px" y="0px"
	 viewBox="250 1609 100 100" style="enable-background:new 250 1609 100 100;" xml:space="preserve">
<style type="text/css">
	.st0{fill:#19486F;}
	.st1{fill:#1F5B98;}
	.st2{fill:#99BBE1;}
	.st3{fill:#5193CE;}
	.st4{fill:#17476F;}
	.st5{fill:#FFFFFF;}
	.st6{fill:none;stroke:#5193CE;stroke-width:3;stroke-linecap:round;stroke-linejoin:round;stroke-miterlimit:10;}
	.st7{fill:none;stroke:#FFFFFF;stroke-width:3;stroke-linecap:round;stroke-linejoin:round;stroke-miterlimit:10;}
	.st8{fill:none;stroke:#FFFFFF;stroke-width:3;stroke-miterlimit:10;}
	.st9{fill:#5193CE;stroke:#FFFFFF;stroke-width:3;stroke-miterlimit:10;}
	.st10{fill:none;stroke:#FFFFFF;stroke-width:3;stroke-linecap:round;stroke-miterlimit:10;}
	.st11{fill:#5193CE;stroke:#FFFFFF;stroke-width:3;stroke-linecap:round;stroke-linejoin:round;stroke-miterlimit:10;}
	.st12{fill:#FFFFFF;stroke:#5193CE;stroke-width:2;stroke-miterlimit:10;}
	.st13{fill:none;stroke:#5193CE;stroke-linecap:round;stroke-linejoin:round;stroke-miterlimit:10;}
	.st14{fill:none;stroke:#5193CE;stroke-width:3;stroke-linecap:round;stroke-miterlimit:10;}
	.st15{fill:none;stroke:#5193CE;stroke-linecap:round;stroke-miterlimit:10;}
	.st16{fill:none;stroke:#5193CE;stroke-width:3;stroke-miterlimit:10;}
	.st17{fill:none;}
	.st18{fill:none;stroke:#5193CE;stroke-width:4;stroke-linecap:round;stroke-linejoin:round;stroke-miterlimit:10;}
</style>
<path class="st4" d="M273.4,1681.2h53.1v3c0,2.6-2.1,4.7-4.8,4.7l-43.6,0c-0.3,0-0.6,0-0.9-0.1c-0.1,0-0.1,0-0.2,0
	c-0.2-0.1-0.5-0.1-0.7-0.2c0,0-0.1,0-0.1,0c-0.3-0.1-0.5-0.2-0.7-0.4c-0.1,0-0.1-0.1-0.2-0.1c-0.2-0.1-0.4-0.3-0.5-0.4
	c0,0-0.1-0.1-0.1-0.1c-0.2-0.2-0.4-0.4-0.5-0.6c0-0.1-0.1-0.1-0.1-0.2c-0.1-0.1-0.1-0.2-0.2-0.3c0-0.1-0.1-0.1-0.1-0.2
	c-0.1-0.1-0.1-0.3-0.2-0.4c0-0.1-0.1-0.1-0.1-0.2c0-0.1,0-0.2-0.1-0.3c0-0.1-0.1-0.2-0.1-0.3c0-0.1,0-0.1,0-0.2v0c0-0.2,0-0.4,0-0.7
	V1681.2z"/>
<path class="st3" d="M278.2,1632.1c-2.6,0-4.8,2.1-4.8,4.7v44.3c0,2.6,2.1,4.7,4.8,4.7h43.6c2.6,0,4.8-2.1,4.8-4.7v-44.3
	c0-2.6-2.1-4.7-4.8-4.7H278.2z"/>
<path class="st5" d="M308.9,1679.7h-17.7c-1.1,0-2-0.9-2-2v-34.6c0-1.1,0.9-2,2-2h17.7c1.1,0,2,0.9,2,2v34.6
	C310.9,1678.8,310,1679.7,308.9,1679.7z"/>
<circle class="st12" cx="300" cy="1652.3" r="7.5"/>
<g>
	<circle class="st3" cx="300" cy="1666.4" r="2.9"/>
	<polygon class="st3" points="302.9,1675.9 297.1,1675.9 299.5,1665.8 300.5,1665.8 	"/>
</g>
<rect x="310" y="1623.4" class="st3" width="4" height="8.7"/>
<rect x="286" y="1623.4" class="st3" width="4" height="8.7"/>
<rect x="304" y="1623.4" class="st3" width="4" height="8.7"/>
<rect x="292" y="1623.4" class="st3" width="4" height="8.7"/>
<rect x="298" y="1623.4" class="st3" width="4" height="8.7"/>
<rect x="264.4" y="1669" class="st3" width="9" height="4"/>
<rect x="264.4" y="1651" class="st3" width="9" height="4"/>
<rect x="264.4" y="1663" class="st3" width="9" height="4"/>
<rect x="264.4" y="1657" class="st3" width="9" height="4"/>
<rect x="264.4" y="1645" class="st3" width="9" height="4"/>
<rect x="286" y="1685.9" class="st3" width="4" height="8.7"/>
<rect x="310" y="1685.9" class="st3" width="4" height="8.7"/>
<rect x="292" y="1685.9" class="st3" width="4" height="8.7"/>
<rect x="304" y="1685.9" class="st3" width="4" height="8.7"/>
<rect x="298" y="1685.9" class="st3" width="4" height="8.7"/>
<rect x="326.6" y="1663" class="st3" width="9" height="4"/>
<rect x="326.6" y="1645" class="st3" width="9" height="4"/>
<rect x="326.6" y="1657" class="st3" width="9" height="4"/>
<rect x="326.6" y="1651" class="st3" width="9" height="4"/>
<rect x="326.6" y="1669" class="st3" width="9" height="4"/>
</svg>
