<?xml version="1.0" encoding="utf-8"?>
<!-- Generator: Adobe Illustrator 19.1.0, SVG Export Plug-In . SVG Version: 6.00 Build 0)  -->
<svg version="1.1" id="Layer_1" xmlns="http://www.w3.org/2000/svg" xmlns:xlink="http://www.w3.org/1999/xlink" x="0px" y="0px"
	 viewBox="250 2323 100 100" style="enable-background:new 250 2323 100 100;" xml:space="preserve">
<style type="text/css">
	.st0{fill:#19486F;}
	.st1{fill:#1F5B98;}
	.st2{fill:#99BBE1;}
	.st3{fill:#5193CE;}
	.st4{fill:#17476F;}
	.st5{fill:#FFFFFF;}
	.st6{fill:none;stroke:#5193CE;stroke-width:3;stroke-linecap:round;stroke-linejoin:round;stroke-miterlimit:10;}
	.st7{fill:none;stroke:#FFFFFF;stroke-width:3;stroke-linecap:round;stroke-linejoin:round;stroke-miterlimit:10;}
	.st8{fill:none;stroke:#FFFFFF;stroke-width:3;stroke-miterlimit:10;}
	.st9{fill:#5193CE;stroke:#FFFFFF;stroke-width:3;stroke-miterlimit:10;}
	.st10{fill:none;stroke:#FFFFFF;stroke-width:3;stroke-linecap:round;stroke-miterlimit:10;}
	.st11{fill:#5193CE;stroke:#FFFFFF;stroke-width:3;stroke-linecap:round;stroke-linejoin:round;stroke-miterlimit:10;}
	.st12{fill:#FFFFFF;stroke:#5193CE;stroke-width:2;stroke-miterlimit:10;}
	.st13{fill:none;stroke:#5193CE;stroke-linecap:round;stroke-linejoin:round;stroke-miterlimit:10;}
	.st14{fill:none;stroke:#5193CE;stroke-width:3;stroke-linecap:round;stroke-miterlimit:10;}
	.st15{fill:none;stroke:#5193CE;stroke-linecap:round;stroke-miterlimit:10;}
	.st16{fill:none;stroke:#5193CE;stroke-width:3;stroke-miterlimit:10;}
	.st17{fill:none;}
	.st18{fill:none;stroke:#5193CE;stroke-width:4;stroke-linecap:round;stroke-linejoin:round;stroke-miterlimit:10;}
</style>
<path class="st4" d="M273.4,2395.2l53.1,0v3c0,2.6-2.1,4.7-4.8,4.7h-43.6c-0.3,0-0.6,0-0.9-0.1c-0.1,0-0.1,0-0.2,0
	c-0.2-0.1-0.5-0.1-0.7-0.2c0,0-0.1,0-0.1,0c-0.3-0.1-0.5-0.2-0.7-0.4c-0.1,0-0.1-0.1-0.2-0.1c-0.2-0.1-0.4-0.3-0.5-0.4
	c0,0-0.1-0.1-0.1-0.1c-0.2-0.2-0.4-0.4-0.5-0.6c0-0.1-0.1-0.1-0.1-0.2c-0.1-0.1-0.1-0.2-0.2-0.3c0-0.1-0.1-0.1-0.1-0.2
	c-0.1-0.1-0.1-0.3-0.2-0.4c0-0.1-0.1-0.1-0.1-0.2c0-0.1,0-0.2-0.1-0.3c0-0.1-0.1-0.2-0.1-0.3c0-0.1,0-0.1,0-0.2v0c0-0.2,0-0.4,0-0.7
	V2395.2z"/>
<path class="st3" d="M278.2,2346.1c-2.6,0-4.8,2.1-4.8,4.7v44.3c0,2.6,2.1,4.7,4.8,4.7h43.6c2.6,0,4.8-2.1,4.8-4.7v-44.3
	c0-2.6-2.1-4.7-4.8-4.7H278.2z"/>
<circle class="st5" cx="300" cy="2373.3" r="21.6"/>
<line class="st6" x1="295.6" y1="2356.8" x2="295.9" y2="2358.2"/>
<line class="st6" x1="304.4" y1="2356.8" x2="304.1" y2="2358.2"/>
<line class="st6" x1="312.1" y1="2361.2" x2="311.1" y2="2362.2"/>
<line class="st6" x1="287.9" y1="2361.2" x2="288.9" y2="2362.2"/>
<circle class="st3" cx="300" cy="2386.2" r="4.7"/>
<line class="st14" x1="300" y1="2364.2" x2="300" y2="2386.2"/>
<line class="st15" x1="295.6" y1="2364.7" x2="297.3" y2="2364.7"/>
<line class="st15" x1="294.1" y1="2367.4" x2="297.3" y2="2367.4"/>
<line class="st15" x1="295.6" y1="2370.1" x2="297.3" y2="2370.1"/>
<line class="st15" x1="294.1" y1="2372.8" x2="297.3" y2="2372.8"/>
<line class="st15" x1="295.6" y1="2375.4" x2="297.3" y2="2375.4"/>
<line class="st15" x1="294.1" y1="2378.1" x2="297.3" y2="2378.1"/>
<line class="st15" x1="295.6" y1="2380.8" x2="297.3" y2="2380.8"/>
<rect x="310" y="2337.4" class="st3" width="4" height="8.7"/>
<rect x="286" y="2337.4" class="st3" width="4" height="8.7"/>
<rect x="304" y="2337.4" class="st3" width="4" height="8.7"/>
<rect x="292" y="2337.4" class="st3" width="4" height="8.7"/>
<rect x="298" y="2337.4" class="st3" width="4" height="8.7"/>
<rect x="264.4" y="2383" class="st3" width="9" height="4"/>
<rect x="264.4" y="2365" class="st3" width="9" height="4"/>
<rect x="264.4" y="2377" class="st3" width="9" height="4"/>
<rect x="264.4" y="2371" class="st3" width="9" height="4"/>
<rect x="264.4" y="2359" class="st3" width="9" height="4"/>
<rect x="286" y="2399.9" class="st3" width="4" height="8.7"/>
<rect x="310" y="2399.9" class="st3" width="4" height="8.7"/>
<rect x="292" y="2399.9" class="st3" width="4" height="8.7"/>
<rect x="304" y="2399.9" class="st3" width="4" height="8.7"/>
<rect x="298" y="2399.9" class="st3" width="4" height="8.7"/>
<rect x="326.6" y="2377" class="st3" width="9" height="4"/>
<rect x="326.6" y="2359" class="st3" width="9" height="4"/>
<rect x="326.6" y="2371" class="st3" width="9" height="4"/>
<rect x="326.6" y="2365" class="st3" width="9" height="4"/>
<rect x="326.6" y="2383" class="st3" width="9" height="4"/>
</svg>
