<?xml version="1.0" encoding="utf-8"?>
<!-- Generator: Adobe Illustrator 19.1.0, SVG Export Plug-In . SVG Version: 6.00 Build 0)  -->
<svg version="1.1" id="Layer_1" xmlns="http://www.w3.org/2000/svg" xmlns:xlink="http://www.w3.org/1999/xlink" x="0px" y="0px"
	 viewBox="0 0 100 100" style="enable-background:new 0 0 100 100;" xml:space="preserve">
<style type="text/css">
	.st0{display:none;}
	.st1{fill:#4B612C;}
	.st2{fill:#759C3E;}
</style>
<g id="Layer_1_1_">
</g>
<g id="nyt_x5F_exporter_x5F_info" class="st0">
</g>
<g id="CloudTrail">
	<g id="Deployments">
		<g>
			<polygon class="st1" points="16.7,62.7 32.7,82.7 48.7,62.7 			"/>
			<rect x="16.7" y="58.7" class="st1" width="32" height="4"/>
			<polygon class="st1" points="56.7,62.7 72.7,82.7 88.7,62.7 			"/>
			<g>
				<polygon class="st1" points="76.7,48.7 56.7,28.7 58.7,18.7 46.7,18.7 48.7,28.7 28.7,48.7 28.7,62.7 36.7,62.7 36.7,52.7 
					52.7,36.7 52.7,36.7 68.7,52.7 68.7,62.7 76.7,62.7 				"/>
			</g>
			<rect x="56.7" y="58.7" class="st1" width="32" height="4"/>
		</g>
		<g>
			<polygon class="st2" points="16.7,58.7 32.7,78.7 48.7,58.7 			"/>
			<polygon class="st2" points="56.7,58.7 72.7,78.7 88.7,58.7 			"/>
			<g>
				<polygon class="st2" points="77.7,44.7 58.7,25.7 58.7,14.7 46.7,14.7 46.7,25.7 27.7,44.7 27.7,58.7 37.7,58.7 37.7,48.7 
					52.7,32.7 52.7,32.7 67.7,48.7 67.7,58.7 77.7,58.7 				"/>
			</g>
		</g>
	</g>
</g>
</svg>
