<?xml version="1.0" encoding="utf-8"?>
<!-- Generator: Adobe Illustrator 19.1.0, SVG Export Plug-In . SVG Version: 6.00 Build 0)  -->
<svg version="1.1" id="Layer_1" xmlns="http://www.w3.org/2000/svg" xmlns:xlink="http://www.w3.org/1999/xlink" x="0px" y="0px"
	 viewBox="0 0 100 100" style="enable-background:new 0 0 100 100;" xml:space="preserve">
<style type="text/css">
	.st0{clip-path:url(#SVGID_2_);}
	.st1{fill:#692F56;}
	.st2{fill:#EA2227;}
	.st3{enable-background:new    ;}
	.st4{clip-path:url(#SVGID_4_);enable-background:new    ;}
	.st5{fill:#8D090A;}
	.st6{fill:#C17B9E;}
	.st7{fill:#FFFFFF;}
</style>
<g>
	<defs>
		<path id="SVGID_1_" d="M27.4,31.2v2.5c0-1.8-0.3-3.4-1-5v-2.5C27.1,27.8,27.4,29.5,27.4,31.2z"/>
	</defs>
	<use xlink:href="#SVGID_1_"  style="overflow:visible;fill:#692F56;"/>
	<clipPath id="SVGID_2_">
		<use xlink:href="#SVGID_1_"  style="overflow:visible;"/>
	</clipPath>
	<g class="st0">
		<path class="st1" d="M27.4,31.2v2.5c0-1.8-0.3-3.4-1-5v-2.5C27.1,27.8,27.4,29.5,27.4,31.2"/>
	</g>
</g>
<g>
	<path class="st2" d="M14.2,21.8c5.1,0,9.3,4.1,9.3,9.2c0,5.1-4.2,9.2-9.3,9.2c-5.1,0-9.3-4.1-9.3-9.2C4.9,25.9,9,21.8,14.2,21.8z"
		/>
</g>
<g class="st3">
	<defs>
		<path id="SVGID_3_" class="st3" d="M23.5,31v2.5c0,5.1-4.2,9.2-9.3,9.2c-5.1,0-9.3-4.1-9.3-9.2V31c0,5.1,4.2,9.2,9.3,9.2
			C19.3,40.2,23.5,36.1,23.5,31z"/>
	</defs>
	<use xlink:href="#SVGID_3_"  style="overflow:visible;fill:#8D090A;"/>
	<clipPath id="SVGID_4_">
		<use xlink:href="#SVGID_3_"  style="overflow:visible;"/>
	</clipPath>
	<g class="st4">
		<path class="st5" d="M23.5,31v2.5c0,0.4,0,0.9-0.1,1.3v-2.5C23.4,31.9,23.5,31.5,23.5,31"/>
		<path class="st5" d="M23.4,32.4v2.5c-0.1,0.5-0.2,1-0.3,1.5v-2.5C23.2,33.4,23.3,32.9,23.4,32.4"/>
		<path class="st5" d="M23.2,33.3L23,36.4c-0.2,0.6-0.4,1.1-0.7,1.6v-2.5c0.3-0.5,0.5-1.1,0.7-1.6"/>
		<path class="st5" d="M22.5,34.8L22.3,38c-1.6,2.9-4.6,4.8-8.1,4.8c-5.1,0-9.3-4.1-9.3-9.2V31c0,5.1,4.2,9.2,9.3,9.2
			c3.5,0,6.6-1.9,8.1-4.8"/>
	</g>
</g>
<g>
	<path class="st6" d="M95.1,26.3v15.1H22.7c2.9-2.4,4.7-6.1,4.7-10.1c0-1.8-0.3-3.4-1-5H95.1z"/>
</g>
<g>
	<rect x="22.7" y="41.4" class="st1" width="72.4" height="2.5"/>
</g>
<g>
	<path class="st6" d="M12.7,45.6h82.4v12.6H12.7V45.6z M92.4,55.6v-7.3h-77v7.3H92.4"/>
</g>
<g>
	<rect x="12.7" y="58.2" class="st1" width="82.4" height="2.5"/>
</g>
<g>
	<path class="st6" d="M12.7,63.1h82.4v12.6H12.7V63.1z M92.4,73v-7.3h-77V73H92.4"/>
</g>
<g>
	<rect x="12.7" y="75.7" class="st1" width="82.4" height="2.5"/>
</g>
<g>
	<path class="st7" d="M43.6,29.2h2.1v3.9h2.4v-3.9h2.1v10.3h-2.1v-4.6h-2.4v4.6h-2.1V29.2z"/>
	<path class="st7" d="M57.7,29.2v1.7h-2.3v8.6h-2.1v-8.6h-2.3v-1.7H57.7z"/>
	<path class="st7" d="M64.7,29.2v1.7h-2.3v8.6h-2.1v-8.6H58v-1.7H64.7z"/>
	<path class="st7" d="M65.6,29.2h3.7c2.1,0,2.8,1.5,2.8,3.1c0,2.1-1.3,3.1-3.3,3.1h-1.1v4.1h-2.1V29.2z M67.6,33.8h0.9
		c0.8,0,1.4-0.5,1.4-1.5c0-1-0.4-1.6-1.4-1.6h-0.9V33.8z"/>
</g>
</svg>
