<?xml version="1.0" encoding="utf-8"?>
<!-- Generator: Adobe Illustrator 19.1.0, SVG Export Plug-In . SVG Version: 6.00 Build 0)  -->
<svg version="1.1" id="Layer_1" xmlns="http://www.w3.org/2000/svg" xmlns:xlink="http://www.w3.org/1999/xlink" x="0px" y="0px"
	 viewBox="0 0 100 100" style="enable-background:new 0 0 100 100;" xml:space="preserve">
<style type="text/css">
	.st0{fill:#AD688A;}
	.st1{fill:#F58435;}
	.st2{fill:#DF5343;}
	.st3{fill:url(#SVGID_1_);}
	.st4{fill:#FFFFFF;}
	.st5{fill:#6A3056;}
</style>
<g>
	<rect x="58.1" y="24.1" transform="matrix(0.8679 0.4967 -0.4967 0.8679 21.4628 -30.5233)" class="st0" width="20" height="2"/>
	<rect x="76" y="35" class="st0" width="2" height="17"/>
	<rect x="31.2" y="15.1" transform="matrix(0.4967 0.8679 -0.8679 0.4967 38.0056 -15.3503)" class="st1" width="2" height="20"/>
	<rect x="20" y="35" class="st1" width="3" height="17"/>
	<polygon class="st0" points="73,52.7 78,50 83,52.7 83,58.1 78,60.9 73,58.2 	"/>
	<polygon class="st0" points="73,28.7 78,26 83,28.8 83,34.1 78,36.9 73,34.2 	"/>
	<polygon class="st0" points="52,16.7 56.5,14 61,16.8 61,22.1 56.5,24.9 52,22.2 	"/>
	<polygon class="st1" points="47,16.7 42,14 37,16.8 37,22.1 42,24.9 47,22.2 	"/>
	<polygon class="st1" points="27,52.7 22,50 17,52.7 17,58.1 22,60.9 27,58.2 	"/>
	<polygon class="st1" points="27,28.7 22,26 17,28.8 17,34.1 22,36.9 27,34.2 	"/>
	<rect x="29.5" y="74.1" transform="matrix(0.8609 0.5088 -0.5088 0.8609 43.6844 -9.6347)" class="st2" width="20" height="2"/>
	<rect x="59.3" y="66.1" transform="matrix(0.4876 0.8731 -0.8731 0.4876 95.7118 -14.652)" class="st2" width="2" height="16.2"/>
	<polygon class="st2" points="24.6,65.9 24.6,71.4 29.3,74.1 34,71.5 34.1,65.9 29.4,63.2 	"/>
	<polygon class="st2" points="66,65.9 66,71.4 70.7,74.1 75.4,71.5 75.5,66 70.8,63.2 	"/>
	<polygon class="st2" points="45.2,77.8 45.2,83.3 49.9,86 54.6,83.3 54.6,77.8 49.9,75.1 	"/>
	<linearGradient id="SVGID_1_" gradientUnits="userSpaceOnUse" x1="31.1789" y1="51.9908" x2="66.8793" y2="44.3254">
		<stop  offset="0" style="stop-color:#F7962F;stop-opacity:0.96"/>
		<stop  offset="0.3563" style="stop-color:#D64626;stop-opacity:0.96"/>
		<stop  offset="0.4519" style="stop-color:#D04730;stop-opacity:0.9659"/>
		<stop  offset="0.6116" style="stop-color:#BF4949;stop-opacity:0.9759"/>
		<stop  offset="0.8144" style="stop-color:#A44C73;stop-opacity:0.9885"/>
		<stop  offset="1" style="stop-color:#87509F"/>
	</linearGradient>
	<polygon class="st3" points="32.1,37.5 32.1,58.3 49.9,68.5 67.4,58.6 67.7,37.8 50,27.4 	"/>
	<path class="st4" d="M49.8,61.9l-12.1-7l0.1-14.1l12.2-6.9l12,7.1l-0.2,14.1L49.8,61.9z M38.9,54.2l10.9,6.3l10.7-6.1l0.2-12.7
		l-10.8-6.3L39,41.5L38.9,54.2z"/>
	<path class="st5" d="M49.9,47.2"/>
</g>
</svg>
