<?xml version="1.0" encoding="utf-8"?>
<!-- Generator: Adobe Illustrator 19.1.0, SVG Export Plug-In . SVG Version: 6.00 Build 0)  -->
<svg version="1.1" id="Layer_1" xmlns="http://www.w3.org/2000/svg" xmlns:xlink="http://www.w3.org/1999/xlink" x="0px" y="0px"
	 viewBox="0 0 100 100" style="enable-background:new 0 0 100 100;" xml:space="preserve">
<style type="text/css">
	.st0{fill:#995B80;}
	.st1{fill:#C17B9D;}
	.st2{fill:#7B3F65;}
	.st3{fill:#CEB1C0;}
	.st4{fill:#512843;}
	.st5{clip-path:url(#SVGID_2_);}
	.st6{fill:#EA2227;}
	.st7{enable-background:new    ;}
	.st8{clip-path:url(#SVGID_4_);enable-background:new    ;}
	.st9{fill:#8D090A;}
	.st10{fill:#FFFFFF;}
	.st11{clip-path:url(#SVGID_6_);}
	.st12{clip-path:url(#SVGID_8_);enable-background:new    ;}
</style>
<g>
	<g>
		<defs>
			<path id="SVGID_1_" d="M27.6,31.1v2.5c0-1.7-0.3-3.4-1-5v-2.5C27.2,27.7,27.6,29.4,27.6,31.1z"/>
		</defs>
		<use xlink:href="#SVGID_1_"  style="overflow:visible;fill:#7B3F65;"/>
		<clipPath id="SVGID_2_">
			<use xlink:href="#SVGID_1_"  style="overflow:visible;"/>
		</clipPath>
		<g class="st5">
			<path class="st2" d="M27.6,31.1v2.5c0-1.7-0.3-3.4-1-5v-2.5C27.2,27.7,27.6,29.4,27.6,31.1"/>
		</g>
	</g>
	<g>
		<path class="st6" d="M14.4,22c5.1,0,9.2,4.1,9.2,9.2c0,5.1-4.1,9.2-9.2,9.2c-5.1,0-9.2-4.1-9.2-9.2C5.2,26.1,9.3,22,14.4,22z"/>
	</g>
	<g class="st7">
		<defs>
			<path id="SVGID_3_" class="st7" d="M23.6,31.2v2.5c0,5.1-4.1,9.2-9.2,9.2c-5.1,0-9.2-4.1-9.2-9.2v-2.5c0,5.1,4.1,9.2,9.2,9.2
				C19.5,40.3,23.6,36.2,23.6,31.2z"/>
		</defs>
		<use xlink:href="#SVGID_3_"  style="overflow:visible;fill:#8D090A;"/>
		<clipPath id="SVGID_4_">
			<use xlink:href="#SVGID_3_"  style="overflow:visible;"/>
		</clipPath>
		<g class="st8">
			<path class="st9" d="M23.6,31.2v2.5c0,0.4,0,0.9-0.1,1.3v-2.5C23.6,32,23.6,31.6,23.6,31.2"/>
			<path class="st9" d="M23.5,32.5V35c-0.1,0.5-0.2,1-0.3,1.5V34C23.3,33.5,23.5,33,23.5,32.5"/>
			<path class="st9" d="M23.5,33.3l-0.3,3.2c-0.2,0.6-0.4,1.1-0.7,1.6v-2.5c0.3-0.5,0.5-1,0.7-1.6"/>
			<path class="st9" d="M22.5,38.1c-1.6,2.8-4.6,4.8-8.1,4.8c-5.1,0-9.2-4.1-9.2-9.2v-2.5c0,5.1,4.1,9.2,9.2,9.2
				c3.5,0,6.7-3.1,8.3-5.9"/>
		</g>
	</g>
	<g>
		<path class="st1" d="M94.8,26.2v15H22.9c2.9-2.4,4.7-6,4.7-10.1c0-1.7-0.3-3.4-1-4.9H94.8z"/>
	</g>
	<g>
		<rect x="22.9" y="41.2" class="st2" width="71.9" height="2.5"/>
	</g>
	<g>
		<path class="st1" d="M12.9,45.6h81.9v12.5H12.9V45.6z M92.2,55.5v-7.2H15.6v7.2H92.2"/>
	</g>
	<g>
		<rect x="12.9" y="58.2" class="st2" width="81.9" height="2.5"/>
	</g>
	<g>
		<path class="st1" d="M12.9,63h81.9v12.5H12.9V63z M92.2,72.9v-7.3H15.6v7.3H92.2"/>
	</g>
	<g>
		<rect x="12.9" y="75.5" class="st2" width="81.9" height="2.5"/>
	</g>
	<g>
		<path class="st10" d="M49.2,28.4V30h-3.7v2.4H49v1.7h-3.4v2.7h3.8v1.7h-5.9V28.4H49.2z"/>
		<path class="st10" d="M50.3,30.9h1.9v0.8h0c0.5-0.7,1.1-1,2-1c0.9,0,1.6,0.4,1.8,1.2h0c0.3-0.8,1-1.2,2-1.2c1.3,0,1.9,0.8,1.9,2.3
			v5.6h-2v-5.4c0-0.6-0.2-1-0.8-1c-0.6,0-1,0.4-1,1.3v5h-2v-5.4c0-0.6-0.2-1-0.8-1c-0.6,0-1,0.4-1,1.3v5h-2V30.9z"/>
		<path class="st10" d="M61.2,33.2V33c0-1.8,1.2-2.4,2.7-2.4c2.4,0,2.8,1,2.8,2.3v4c0,0.7,0,1,0.2,1.5H65c-0.1-0.2-0.2-0.5-0.2-0.8
			h0c-0.5,0.8-1,1-2,1c-1.4,0-1.9-1.2-1.9-2.2c0-1.4,0.6-2,1.9-2.4l1.1-0.3c0.6-0.2,0.8-0.4,0.8-0.9c0-0.6-0.3-0.9-0.9-0.9
			c-0.6,0-0.9,0.4-0.9,1v0.2H61.2z M64.8,34.7c-0.3,0.2-0.6,0.3-0.8,0.4c-0.8,0.2-1.1,0.6-1.1,1.2c0,0.6,0.2,1.1,0.7,1.1
			c0.5,0,1.2-0.3,1.2-1.2V34.7z"/>
		<path class="st10" d="M68.2,28.2h2v1.7h-2V28.2z M68.2,30.9h2v7.7h-2V30.9z"/>
		<path class="st10" d="M71.6,28.4h2v10.2h-2V28.4z"/>
	</g>
</g>
</svg>
