<?xml version="1.0" encoding="utf-8"?>
<!-- Generator: Adobe Illustrator 19.0.0, SVG Export Plug-In . SVG Version: 6.00 Build 0)  -->
<svg version="1.1" id="Layer_1" xmlns="http://www.w3.org/2000/svg" xmlns:xlink="http://www.w3.org/1999/xlink" x="0px" y="0px"
	 viewBox="0 0 100 100" style="enable-background:new 0 0 100 100;" xml:space="preserve">
<style type="text/css">
	.st0{fill:#E05243;}
	.st1{fill:#8C3123;}
	.st2{display:none;}
</style>
<g id="Layer_1_1_">
	<g>
		<g>
			<g>
				<path class="st0" d="M50,29.6c10.4,0,18.8,8.3,18.8,18.6S60.4,66.9,50,66.9s-18.8-8.3-18.8-18.6S39.6,29.6,50,29.6z"/>
			</g>
			<g>
				<path class="st1" d="M68.8,48.2v3.5c0,0.9-0.1,1.8-0.2,2.7v-3.5C68.7,50,68.8,49.1,68.8,48.2"/>
				<path class="st1" d="M68.6,50.9v3.5c-0.2,1-0.4,2-0.7,3v-3.5C68.2,52.9,68.4,51.9,68.6,50.9"/>
				<path class="st1" d="M67.9,53.9v3.5c-0.4,1.1-0.8,2.2-1.4,3.3v-3.5C67,56.1,67.5,55,67.9,53.9"/>
				<path class="st1" d="M66.5,57.2v3.5c-3.2,5.8-9.4,9.7-16.5,9.7c-10.4,0-18.8-8.3-18.8-18.6v-3.5c0,10.3,8.4,18.6,18.8,18.6
					C57.1,66.9,63.3,63,66.5,57.2"/>
			</g>
			<path class="st1" d="M68.8,48.2v3.5c0,10.3-8.4,18.6-18.8,18.6S31.2,62,31.2,51.8v-3.5c0,10.3,8.4,18.6,18.8,18.6
				S68.8,58.5,68.8,48.2z"/>
		</g>
	</g>
</g>
<g id="nyt_x5F_exporter_x5F_info" class="st2">
</g>
</svg>
