<?xml version="1.0" encoding="utf-8"?>
<!-- Generator: Adobe Illustrator 19.1.0, SVG Export Plug-In . SVG Version: 6.00 Build 0)  -->
<svg version="1.1" id="Layer_1" xmlns="http://www.w3.org/2000/svg" xmlns:xlink="http://www.w3.org/1999/xlink" x="0px" y="0px"
	 viewBox="0 0 100 100" style="enable-background:new 0 0 100 100;" xml:space="preserve">
<style type="text/css">
	.st0{fill:#8C3123;}
	.st1{clip-path:url(#SVGID_2_);enable-background:new    ;}
	.st2{clip-path:url(#SVGID_4_);enable-background:new    ;}
	.st3{fill:#E05243;}
</style>
<g>
	<rect x="41.9" y="38.4" class="st0" width="15.5" height="3.2"/>
</g>
<g>
	<defs>
		<path id="SVGID_1_" d="M76.1,48.3v3.2c-4.6-2.1-10.8-4.1-18.7-4.7v-3.2C65.3,44.2,71.5,46.2,76.1,48.3z"/>
	</defs>
	<use xlink:href="#SVGID_1_"  style="overflow:visible;fill:#8C3123;"/>
	<clipPath id="SVGID_2_">
		<use xlink:href="#SVGID_1_"  style="overflow:visible;"/>
	</clipPath>
	<g class="st1">
		<path class="st0" d="M76.1,48.3v3.2c-4.6-2.1-10.8-4.1-18.7-4.7v-3.2C65.3,44.2,71.5,46.2,76.1,48.3"/>
	</g>
</g>
<g>
	<defs>
		<path id="SVGID_3_" d="M41.9,44v3.2c-7.5,1.2-13.6,3.7-18,6V50C28.3,47.7,34.4,45.2,41.9,44z"/>
	</defs>
	<use xlink:href="#SVGID_3_"  style="overflow:visible;fill:#8C3123;"/>
	<clipPath id="SVGID_4_">
		<use xlink:href="#SVGID_3_"  style="overflow:visible;"/>
	</clipPath>
	<g class="st2">
		<path class="st0" d="M41.9,44v3.2c-7.5,1.2-13.6,3.7-18,6V50C28.3,47.7,34.4,45.2,41.9,44"/>
	</g>
</g>
<g>
	<path class="st3" d="M76.1,21.6v28.5v-1.8c-4.6-2.1-10.8-4.1-18.7-4.7v-5.1H41.9V44c-7.5,1.2-13.6,3.7-18,6V21.6H76.1z"/>
</g>
<g>
	<path class="st3" d="M57.4,48.9c7.9,0.7,14.1,2.7,18.7,4.8v21.5H23.9v-20c4.3-2.3,10.4-4.7,18-5.9v6.3h15.5V48.9z"/>
</g>
<g>
	<rect x="23.9" y="75.2" class="st0" width="52.2" height="3.2"/>
</g>
</svg>
