<?xml version="1.0" encoding="utf-8"?>
<!-- Generator: Adobe Illustrator 19.1.0, SVG Export Plug-In . SVG Version: 6.00 Build 0)  -->
<svg version="1.1" id="Layer_1" xmlns="http://www.w3.org/2000/svg" xmlns:xlink="http://www.w3.org/1999/xlink" x="0px" y="0px"
	 viewBox="0 0 100 100" style="enable-background:new 0 0 100 100;" xml:space="preserve">
<style type="text/css">
	.st0{fill:#E05243;}
	.st1{clip-path:url(#SVGID_2_);enable-background:new    ;}
	.st2{fill:#8C3123;}
	.st3{fill:#FFFFFF;}
</style>
<g>
	<g>
		<path class="st0" d="M51.3,21.4c15.2,0,27.6,12.3,27.6,27.4c0,15.1-12.4,27.4-27.6,27.4c-15.2,0-27.6-12.3-27.6-27.4
			C23.7,33.6,36,21.4,51.3,21.4z"/>
	</g>
	<g>
		<defs>
			<path id="SVGID_1_" d="M78.9,48.8v2.5c0,15.1-12.4,27.4-27.6,27.4c-15.2,0-27.6-12.3-27.6-27.4v-2.5c0,15.1,12.4,27.4,27.6,27.4
				C66.5,76.1,78.9,63.9,78.9,48.8z"/>
		</defs>
		<use xlink:href="#SVGID_1_"  style="overflow:visible;fill:#8C3123;"/>
		<clipPath id="SVGID_2_">
			<use xlink:href="#SVGID_1_"  style="overflow:visible;"/>
		</clipPath>
		<g class="st1">
			<path class="st2" d="M78.9,48.8v2.5c0,1.4-0.1,2.8-0.3,4.1v-2.5C78.8,51.5,78.9,50.2,78.9,48.8"/>
			<path class="st2" d="M78.6,52.8v2.5c-0.2,1.6-0.6,3.1-1.1,4.5v-2.5C78,55.9,78.3,54.4,78.6,52.8"/>
			<path class="st2" d="M77.5,57.4v2.5c-0.6,1.7-1.3,3.4-2.2,4.9v-2.5C76.2,60.7,76.9,59.1,77.5,57.4"/>
			<path class="st2" d="M75.3,62.3v2.5c-4.7,8.3-13.7,13.8-24,13.8c-15.2,0-27.6-12.3-27.6-27.4v-2.5c0,15.1,12.4,27.4,27.6,27.4
				C61.6,76.1,70.5,70.6,75.3,62.3"/>
		</g>
	</g>
	<g>
		<path class="st3" d="M62,53.3h2.4v2H62V53.3z M56.2,26h3l0,2.9h-2v-1h-1V26z M57.2,42.6l0-3.9h2l0,3.9L57.2,42.6z M59.2,45.5v3.9
			l-2,0v-3.9L59.2,45.5z M57.2,35.8l0-3.9l2,0l0,3.9H57.2z M49.3,26h4v2h-4V26z M43.4,26h3v2h-1v1h-2V26z M43.4,31.9h2v3.9h-2V31.9z
			 M43.4,38.7h2v3.9h-2V38.7z M43.4,45.6h2v3.9h-2V45.6z M38.2,53.4h2.4v2h-2.4V53.4z M36.5,55.1v0.2h-0.2l-1.1,1.1l-3.1-3.1h4.4
			v1.5l0.1,0.1L36.5,55.1z M41,62l-3.3-3.2l1.4-1.4l3.3,3.2L41,62z M42.4,53.4h1v-1h2v2.9h-3V53.4z M46.7,67.7l-3.3-3.2l1.4-1.4
			l3.3,3.2L46.7,67.7z M51.3,72.1l-2.1-2.1l1.4-1.4l0.7,0.7l0.7-0.7l1.4,1.4L51.3,72.1z M55.8,67.7l-1.4-1.4l3.3-3.2l1.4,1.4
			L55.8,67.7z M60.2,55.2h-3v-2.9h2v1h1V55.2z M61.6,62l-1.4-1.4l3.3-3.2l1.4,1.4L61.6,62z M67.4,56.3l-1.1-1.1h-0.2v-0.2L66,54.9
			l0.1-0.1v-1.5h4.4L67.4,56.3z"/>
	</g>
</g>
</svg>
